<?xml version="1.0" standalone="no"?>
<!DOCTYPE svg PUBLIC "-//W3C//DTD SVG 1.1//EN" "http://www.w3.org/Graphics/SVG/1.1/DTD/svg11.dtd" >
<svg xmlns="http://www.w3.org/2000/svg">
<metadata></metadata>
<defs>
<font id="aloha_scriptregular" horiz-adv-x="958" >
<font-face units-per-em="2048" ascent="1536" descent="-512" />
<missing-glyph horiz-adv-x="342" />
<glyph horiz-adv-x="2048" />
<glyph horiz-adv-x="2048" />
<glyph unicode="&#xd;" horiz-adv-x="2048" />
<glyph unicode=" "  horiz-adv-x="342" />
<glyph unicode="&#x09;" horiz-adv-x="342" />
<glyph unicode="&#xa0;" horiz-adv-x="342" />
<glyph unicode="!" horiz-adv-x="458" d="M-31 111q0 32 47 87.5t70 55.5q41 0 93 -41.5t52 -69.5q0 -21 -48 -81t-74 -60q-40 0 -90 43t-50 66zM150 340q0 23 34 70q64 90 125 171.5t101.5 133.5t72.5 91t47 57l15 18q9 18 33 18q42 0 99.5 -44t57.5 -75q0 -6 -8 -14q-235 -274 -436 -528q-6 -12 -10 -13 q-38 6 -84 45q-45 40 -47 70z" />
<glyph unicode="&#x22;" horiz-adv-x="397" d="M-133 782q1 18 38 37t68 19q14 0 24.5 -5t14.5 -11l4 -5l134 -231q-1 -15 -31.5 -30t-57.5 -15t-45 18q-21 22 -58 76t-64 98.5t-27 48.5zM111 756q0 18 39.5 35.5t68.5 17.5q30 0 39 -18l117 -228q2 -6 2 -8q-3 -24 -33 -35.5t-57 -11.5q-7 0 -15.5 4.5t-13.5 9.5l-4 4 l-127 201q-16 25 -16 29z" />
<glyph unicode="#" horiz-adv-x="507" d="M0 260q0 13 63 100h-12q-4 0 -10 0.5t-16.5 7.5t-10.5 19q0 5 2.5 21.5t10.5 37t20 21.5q47 4 113 8q13 17 47 55h-27q-12 0 -24 8t-13 23q0 20 11.5 40.5t23.5 27.5q53 6 129 12l127 137q8 8 12 8q8 0 18.5 -12t10.5 -22v-9q0 -20 -78 -98l72 2q33 38 66.5 75.5 t50.5 55.5l18 19q4 2 8 2q16 -7 24.5 -21t8.5 -28q0 -18 -8 -23l-70 -74h35q4 0 8.5 -1t11.5 -11t7 -27v-24q0 -43 -27 -45q-35 -5 -145 -8l-54 -56q43 0 58.5 -7t15.5 -30l2 -43q0 -12 -1 -17t-7 -9t-18 -4q-5 0 -28 -1t-60 -2.5t-70 -2.5l-125 -134q-7 0 -16 14.5t-9 28.5 q0 23 54 86h-49q-102 -123 -107 -124q-17 -17 -20 -17q-6 0 -14.5 12t-8.5 29zM248 477q10 0 31.5 1t31.5 1l47 53h-63q-6 -6 -22 -26t-25 -29z" />
<glyph unicode="$" horiz-adv-x="542" d="M20 63l117 158q-54 36 -72 60t-18 47q0 16 6.5 33t12.5 25l6 9q23 35 47 35l10 -4q49 -47 100.5 -74.5t75.5 -27.5q-2 7 -14 20t-34 36.5t-40 49.5q-31 51 -31 92q0 61 54 127q35 43 102.5 93.5t108.5 50.5t100 -41q34 44 79 93t56 52q2 0 7 -4t5 -8q0 -5 -45.5 -59.5 t-81.5 -92.5q52 -40 52 -84q0 -29 -56 -106t-88 -107q-2 -4 -12 -4q-22 0 -56 29t-34 49q0 7 5 16.5t10.5 17t18 22.5t19.5 24q60 81 62 84q-65 -35 -110 -93t-48 -96q0 -14 9 -32t19 -31.5t27 -34t23 -29.5q26 -34 26 -65q-3 -51 -49 -81t-98 -32h-10q-49 0 -117 27 q-18 -21 -51 -61.5t-52.5 -64.5t-23.5 -24z" />
<glyph unicode="%" horiz-adv-x="669" d="M59 156q1 6 13 22q75 82 322 316t306 284q13 13 21 13q16 -1 26.5 -23.5t10.5 -40.5q-1 -10 -20 -32.5t-38 -40.5l-18 -17l-565 -510q-10 -10 -27 -10q-31 3 -31 39zM137 600q0 70 78.5 143.5t151.5 73.5q44 -7 82 -36t38 -68q0 -88 -90 -166q-32 -28 -66.5 -45 t-54.5 -17q-49 0 -94 35.5t-45 79.5zM238 563q4 2 11.5 6.5t28.5 20t40.5 34t42.5 50t40 65.5q-5 -2 -12.5 -7t-29.5 -22t-41.5 -35.5t-42.5 -49t-37 -62.5zM358 213q0 70 79.5 143.5t152.5 73.5q43 -7 82 -36.5t39 -67.5q0 -82 -93 -166q-72 -62 -118 -62q-51 0 -96.5 35 t-45.5 80zM459 176q4 2 11.5 6.5t29.5 20t41 34t42.5 50t39.5 65.5q-5 -2 -12.5 -7t-29.5 -22t-41.5 -35.5t-42.5 -49t-38 -62.5z" />
<glyph unicode="&#x26;" horiz-adv-x="651" d="M-61 209q0 68 47.5 130t119 104.5t162.5 72.5q2 57 18 115.5t46 112.5t82.5 88t117.5 34q14 0 28.5 -2t21.5 -4l8 -2q66 -21 94.5 -65t28.5 -91q0 -78 -66.5 -143t-210.5 -147l6 -74q56 35 99 67.5t58 48.5l15 15q33 -6 54.5 -30.5t26.5 -43t5 -30.5q0 -18 -12 -39 t-27 -38t-47 -43t-54 -42t-66 -47q19 -33 45.5 -55.5t29.5 -28.5q-3 -31 -40.5 -52.5t-73.5 -21.5q-49 0 -99 74q-127 -72 -198 -72q-60 0 -111 34t-84 93q-24 43 -24 82zM111 190q3 -6 12 -6q24 0 77 23t85 41q-11 40 -13 69q-8 -4 -22.5 -11.5t-16.5 -8.5 q-33 -17 -77.5 -50.5t-44.5 -56.5zM453 604q114 64 114 131q0 17 -12 17q-14 0 -35 -21q-51 -54 -67 -127z" />
<glyph unicode="'" horiz-adv-x="217" d="M211 748q0 49 35 87.5t86 38.5q42 0 64 -27t22 -65q0 -62 -57 -118t-121 -56q-21 0 -21 10q0 12 10 15q35 9 47 29q-29 6 -47 30t-18 56z" />
<glyph unicode="(" horiz-adv-x="587" d="M0 135q2 154 197 418q182 242 335 362q14 11 31 11q34 0 96 -38t62 -69q0 -3 -0.5 -5.5t-2.5 -5.5t-3.5 -5t-5 -5.5t-6 -5.5t-7.5 -6.5t-8 -7.5q-84 -67 -150 -138.5t-165 -199.5q-68 -86 -121.5 -183t-75 -152t-22.5 -72q0 -5 -7 -9t-16 -4q-55 2 -93 34t-38 81z" />
<glyph unicode=")" horiz-adv-x="475" d="M0 115q0 20 11 35.5t38 42.5q98 98 223 284q130 197 148 402q0 7 13 13.5t24 6.5q62 0 110 -22.5t51 -65.5q0 -95 -47.5 -212.5t-122 -225.5t-154 -199.5t-153.5 -157.5q-14 -14 -28 -14q-37 0 -75 40.5t-38 72.5z" />
<glyph unicode="*" horiz-adv-x="462" d="M8 504q3 8 58.5 14.5t136.5 7.5q-33 128 -33 162q0 17 6 17q14 0 57 -134q72 186 86 183q3 0 3 -9q0 -30 -48 -172q37 35 69 62.5t51 41t22 11.5q3 -6 -37.5 -53t-102.5 -109q51 0 94 -2t67.5 -5t23.5 -7q-3 -10 -58 -17.5t-139 -9.5q7 -28 19.5 -69t19 -65t6.5 -36 t-4 -12q-6 0 -20 17.5t-31 52t-29 73.5q-7 -22 -18 -46t-22.5 -46t-23.5 -43t-23 -37.5t-19.5 -29t-13.5 -18.5t-5 -5q0 5 4.5 19t13.5 37t18 45.5t23 56.5t23 57q-111 -94 -135 -94q0 15 135 143q-51 0 -92 2.5t-62.5 7t-19.5 9.5z" />
<glyph unicode="+" horiz-adv-x="530" d="M72 299q0 17 69 115h-26q-18 0 -23.5 24t-5.5 72q0 9 7 16.5t18 8.5q36 6 127 6q33 43 63 81t42.5 52.5t12.5 15.5q6 12 23 12q32 0 73.5 -31.5t41.5 -54.5q0 -2 -3 -5t-4 -5q-24 -26 -53 -61q16 0 26 -0.5t20.5 -1t16 -3.5t11.5 -5.5t9 -9t5.5 -13t4 -18t2 -23 t1.5 -29.5q0 -12 -6 -18t-20 -6q-115 0 -178 -2q-63 -76 -152 -191l-8 -8q-26 3 -58.5 29.5t-35.5 52.5z" />
<glyph unicode="," horiz-adv-x="256" d="M-113 -35q0 11 29 45q64 72 121 144q2 2 10 2q27 0 67 -29.5t40 -52.5q0 -11 -7 -21q-25 -37 -90.5 -93t-103.5 -56q-24 0 -45 19t-21 42z" />
<glyph unicode="-" horiz-adv-x="466" d="M51 428q0 12 10 23t23 12q50 6 235 6q22 0 33 -3t22 -15.5t15 -40t4 -74.5q0 -26 -6.5 -36.5t-32.5 -10.5h-45q-36 0 -105 -3t-110 -3q-43 0 -43 145z" />
<glyph unicode="." horiz-adv-x="278" d="M-37 90q0 28 37.5 70.5t56.5 42.5q35 0 77 -33t42 -55q0 -19 -38 -66t-58 -47q-34 0 -75.5 33t-41.5 55z" />
<glyph unicode="/" horiz-adv-x="444" d="M-113 106q0 32 17 58q81 120 516 665q10 19 37 19q44 0 82.5 -31t38.5 -61q0 -6 -7 -13q-322 -372 -589 -725q-5 -10 -11 -12q-37 4 -60.5 33t-23.5 67z" />
<glyph unicode="0" horiz-adv-x="864" d="M2 289q0 133 229 352q96 91 212 158t196 67q35 0 88 -24q47 -21 99.5 -62t76.5 -82q27 -46 27 -92q0 -64 -58 -168.5t-151 -204.5q-86 -95 -186 -159t-195 -70q-107 0 -217 96q-46 40 -83.5 92t-37.5 97zM244 233q0 -10 8 -18t24 -8q99 0 277 178q55 57 107.5 135.5 t52.5 128.5q0 10 -8 17.5t-21 7.5q-41 0 -119.5 -58t-140.5 -118q-72 -70 -126 -145t-54 -120z" />
<glyph unicode="1" horiz-adv-x="475" d="M-92 137q0 28 16 53q23 34 66.5 91t110.5 142t102 130q-58 23 -58 51l5 10q83 62 261 232l25 24q10 13 37 13q34 0 101 -40.5t67 -76.5q0 -6 -6 -12q-17 -22 -115.5 -141.5t-228.5 -283t-238 -309.5q-5 -10 -10 -12q-42 3 -88 44t-47 85z" />
<glyph unicode="2" horiz-adv-x="751" d="M-61 217q0 16 7.5 30t42 38t97.5 53q136 63 288.5 140t203.5 112q49 34 49 49q0 14 -45 14q-58 0 -142 -19t-137 -50q-30 6 -57 75t-27 115q0 20 45.5 44t131 42.5t179.5 18.5q86 0 132 -25q116 -62 116 -250q0 -77 -67 -131q-27 -22 -72 -49t-83.5 -47t-104 -49.5 t-95.5 -42t-97.5 -40.5t-72.5 -30q172 6 213 6q43 0 57.5 -24.5t14.5 -102.5v-45q0 -4 -0.5 -6t-0.5 -4t-1.5 -2.5t-3 -1.5t-4 -1h-5t-7.5 -0.5t-9 -0.5l-444 -25q-27 4 -48.5 28t-32 58t-16 65.5t-5.5 57.5z" />
<glyph unicode="3" horiz-adv-x="675" d="M-94 195q0 18 5 40.5t11 36.5t8 13q21 -25 71 -38.5t110 -13.5q79 0 164.5 32.5t91.5 60.5q-1 13 -13 19.5t-25.5 7.5t-37.5 1q-50 0 -58 -2q-17 0 -26.5 37t-9.5 70q0 6 2.5 10.5t8.5 8t12 6.5t16 6t17.5 4.5t20.5 4.5t21 5q28 6 60.5 15.5t89 28t92.5 42t36 47.5 q0 9 -14.5 14.5t-32.5 5.5q-56 0 -132.5 -13t-135.5 -46q-30 5 -55 75t-25 113q0 18 42.5 38t121.5 35t168 15q64 0 112 -16.5t75.5 -42.5t44 -64t21.5 -73.5t5 -79.5q0 -121 -283 -195q54 -54 54 -131q0 -83 -66 -148t-155.5 -95.5t-176.5 -30.5q-97 0 -166 49.5t-69 147.5 z" />
<glyph unicode="4" horiz-adv-x="768" d="M-25 434q0 25 31 51q80 68 203 164.5t206 158.5l83 62q22 17 31.5 21t29.5 4q47 0 117 -31.5t123 -77.5t53 -81q-44 -69 -207 -265l72 2q20 -6 20 -34q0 -37 -16 -76.5t-47 -40.5l-162 -8q-91 -110 -209 -265q-5 -10 -10 -12q-42 3 -84.5 45t-42.5 86q0 21 10.5 42 t35.5 53t28 36l-154 -10q-33 0 -52.5 13t-29.5 46q-29 77 -29 117zM236 416q58 8 122 8l226 283q-52 -47 -138 -118t-147.5 -121.5t-62.5 -51.5z" />
<glyph unicode="5" horiz-adv-x="722" d="M-76 193q0 57 25 92q26 -64 196 -64q76 0 156.5 30t126.5 68q37 29 37 43q-3 15 -64 15q-87 0 -206 -37q-33 0 -72 50.5t-39 82.5q0 17 20 43q29 38 127 150.5t127 148.5q13 25 37 35q64 22 211 22q176 0 195 -22q18 -22 18 -76q0 -31 -8 -63t-23 -37q-12 2 -53 2 q-124 0 -241 -17l-115 -122q32 4 49 4q107 0 170 -60q47 -47 47 -129q0 -78 -46.5 -145.5t-118.5 -110.5t-156.5 -67.5t-163.5 -24.5q-102 0 -169 50t-67 139z" />
<glyph unicode="6" horiz-adv-x="782" d="M-31 274q0 109 185 314q92 104 215 192.5t211 96.5q47 0 110.5 -28t110.5 -70t47 -77q0 -38 -49 -104q-70 -90 -90 -96q-28 -3 -85.5 37t-66.5 69q0 12 39 51t47 41q-41 -14 -101.5 -57.5t-101.5 -91.5q12 4 45 4q68 0 135.5 -59t67.5 -123q0 -79 -62 -166.5t-154.5 -146 t-176.5 -58.5q-93 0 -195 78q-60 44 -95.5 98.5t-35.5 95.5zM188 199q0 -27 31 -27q39 0 92.5 41t79.5 74q58 64 78 106q21 48 0.5 61t-61.5 -12q-51 -26 -117 -92q-103 -103 -103 -151z" />
<glyph unicode="7" horiz-adv-x="565" d="M-31 139q0 28 21 58q44 58 144.5 162.5t195.5 198.5t104 104q-2 0 -74.5 -7t-115.5 -12q-23 1 -39.5 22t-23.5 53.5t-10 59t-3 51.5q0 6 12 11t33 7.5t40.5 4.5t44.5 3.5t36 2.5q163 14 237 14q62 0 78 -16q23 -21 49 -72t27 -88q0 -38 -109 -147q-43 -44 -129.5 -131 t-141 -142t-125.5 -131.5t-124 -140.5q-30 0 -78.5 50.5t-48.5 84.5z" />
<glyph unicode="8" horiz-adv-x="831" d="M-2 246q0 59 56 129.5t133 118t135 47.5q-29 29 -29 67q0 58 58.5 124t138.5 109.5t141 43.5q53 0 125.5 -28t130 -79t57.5 -106q0 -92 -75.5 -173.5t-166.5 -92.5q27 -42 27 -97q0 -75 -57.5 -146.5t-141.5 -115t-163 -47.5h-21q-56 0 -97.5 14t-94.5 47q-54 32 -105 86 t-51 99zM250 197q0 -31 33 -31q62 0 145 78q23 21 50.5 60.5t27.5 70.5q0 26 -27 26q-31 0 -78 -33t-75 -61q-25 -21 -50 -54.5t-26 -55.5zM520 541q0 -25 27 -25q57 1 124.5 67t69.5 117q-3 27 -26 27q-51 -4 -125 -78q-68 -68 -70 -108z" />
<glyph unicode="9" horiz-adv-x="749" d="M82 510q0 39 45 103.5t110.5 125.5t147.5 105.5t147 44.5q34 0 80.5 -17.5t74 -33.5t30.5 -19q57 -34 91 -79.5t34 -80.5q0 -49 -27 -107t-110 -151q-84 -94 -243.5 -247.5t-174.5 -153.5q-42 5 -91 49.5t-49 87.5q-3 1 59 65t95 97q-61 4 -140 78.5t-79 132.5zM334 455 q0 -14 9.5 -21.5t21.5 -7.5q38 0 102 50t113 114t49 102q0 23 -25 23q-53 0 -147 -90q-116 -109 -123 -170z" />
<glyph unicode=":" horiz-adv-x="253" d="M-51 242q0 29 35.5 69.5t54.5 40.5q34 0 73.5 -28t39.5 -50q0 -16 -36.5 -65t-56.5 -49q-33 0 -71.5 31.5t-38.5 50.5zM98 463q0 27 35 72t53 45q34 0 78.5 -30.5t44.5 -51.5q2 -17 -36.5 -68.5t-59.5 -50.5q-36 0 -75.5 33t-39.5 51z" />
<glyph unicode=";" horiz-adv-x="264" d="M-236 -35q0 11 29 45q64 72 121 144q2 2 10 2q27 0 67 -29.5t40 -52.5q0 -12 -6 -21q-25 -37 -91 -93t-104 -56q-24 0 -45 19t-21 42zM-35 219q0 28 37.5 69.5t56.5 41.5q35 0 77 -32t42 -54q0 -19 -38 -66t-58 -47q-34 0 -75.5 33t-41.5 55z" />
<glyph unicode="&#x3c;" horiz-adv-x="563" d="M20 362q0 27 17 44q29 32 72 69l358 309q27 23 51 23q35 -1 71 -40.5t36 -66.5q0 -3 -7 -10l-415 -330q210 -286 211 -288q2 -2 2 -6q0 -20 -32.5 -43t-57.5 -23q-35 0 -50 20q-166 200 -211 261t-45 81z" />
<glyph unicode="=" horiz-adv-x="460" d="M20 283q0 12 10 22.5t23 11.5q89 13 195 13q87 0 107.5 -23.5t23.5 -126.5q0 -19 -7.5 -27t-29.5 -8h-45q-36 0 -110 -3t-115 -3q-26 0 -39 41.5t-13 102.5zM98 520q0 11 9.5 21.5t21.5 11.5q65 10 186 10q79 0 101 -18q21 -16 24 -125q0 -17 -7 -25t-27 -8h-44 q-57 0 -119 -3t-96 -3q-25 0 -37 40t-12 99z" />
<glyph unicode="&#x3e;" horiz-adv-x="565" d="M-41 100q0 5 6 11l395 317q-206 280 -208 287q-2 2 -2 6q0 20 40.5 49t65.5 29q33 0 49 -21q55 -67 147.5 -194.5t92.5 -157.5q0 -24 -21 -45q-38 -41 -71 -70l-359 -297q-8 -14 -39 -14q-44 0 -70 34t-26 66z" />
<glyph unicode="?" horiz-adv-x="684" d="M76 113q0 29 45 78t67 49q33 0 88.5 -43.5t55.5 -67.5q-2 -22 -47 -76.5t-70 -54.5q-34 2 -86.5 42t-52.5 73zM233 745q0 20 43 43t128.5 41.5t185.5 18.5q115 0 176 -68t61 -198q0 -42 -26 -74q-14 -15 -47 -34t-84.5 -44.5t-83.5 -44.5q-8 -5 -40 -23.5t-44.5 -27 t-34.5 -24.5t-36 -32.5t-23 -35.5q-5 -21 -27 -21q-43 0 -87 43t-44 84q0 28 24 59.5t62 57.5q41 28 94.5 54.5t111.5 50.5t66 28q25 11 25 18q0 13 -41 13q-48 0 -133.5 -18t-145.5 -52q-30 5 -55 74t-25 112z" />
<glyph unicode="@" horiz-adv-x="886" d="M117 338q0 90 61.5 178t160.5 143.5t202 55.5q119 0 196.5 -67.5t77.5 -153.5q0 -95 -72.5 -175.5t-152.5 -80.5q-52 0 -94 61q-61 -57 -90 -57t-78 41t-49 73q0 14 8 27q25 48 84.5 103t107.5 55q17 0 53 -20.5t60 -41.5q21 21 26 21q23 -4 46.5 -26.5t23.5 -35.5v-8 l-74 -80q-26 -32 -26 -45q0 -8 10 -8q41 0 90 57q53 65 53 144q0 65 -54 107t-132 42q-132 0 -241 -99.5t-109 -225.5q0 -82 61 -138.5t164 -56.5q157 0 318 143q6 0 6 -10q0 -15 -27 -56.5t-61 -66.5q-102 -76 -250 -76q-120 0 -209.5 83.5t-89.5 193.5zM399 324 q0 -8 5 -13.5t12 -5.5q31 0 80 53.5t49 85.5q0 7 -4.5 11t-8.5 4q-29 0 -86 -60q-47 -47 -47 -75z" />
<glyph unicode="A" d="M-72 152q0 25 25 47l135 116q-6 21 -6 33q0 16 9 25.5t17 10.5l9 1l59 4q239 199 608 485q15 11 39 11q65 0 174 -72q115 -80 115 -129q0 -14 -12 -29q-67 -90 -200 -245.5t-189 -225.5q-37 -47 -37 -65q0 -8 6 -14.5t16 -6.5q25 0 64 31q29 23 85 80t97 103l41 46 q9 9 18 9q14 0 22.5 -9.5t8.5 -19.5q0 -6 -4.5 -15.5t-9.5 -15.5l-4 -6q-93 -115 -187 -209q-96 -92 -168 -92q-61 0 -123.5 56.5t-62.5 119.5q0 34 14 66q-34 -1 -168 -11q-161 -138 -235 -217q-2 -10 -14 -10q-46 0 -94 50.5t-48 97.5zM518 401h100q89 98 232 275 q-209 -171 -332 -275z" />
<glyph unicode="B" horiz-adv-x="909" d="M-82 145q0 13 23 39q23 27 225 229t219 222q-104 -15 -141 -27q-12 0 -35 49.5t-23 92.5q0 33 13 51q228 84 481 84q66 0 131.5 -14t126 -42t98 -79t37.5 -117q0 -51 -27.5 -94t-75 -74.5t-102 -53.5t-118.5 -38q45 -28 45 -99q0 -94 -80 -161t-191 -95q-57 -14 -131 -14 q-162 0 -256 94q-18 -11 -65 -65q-11 -13 -29 -13q-32 0 -78.5 41t-46.5 84zM281 250q37 -21 98 -21q55 0 116 14t97 33q37 18 37 39q-4 17 -47.5 24t-83.5 7q-52 0 -131 -14q-50 -46 -86 -82zM557 512q167 7 293 66q14 6 31 19t18 19q0 17 -46.5 28t-98.5 11q-25 0 -35 -2 q-11 -10 -72.5 -62t-89.5 -79z" />
<glyph unicode="C" horiz-adv-x="653" d="M-72 334q0 115 197 309q79 77 208.5 156t217.5 80h18q37 0 96.5 -38t105.5 -89t46 -84q0 -31 -133 -170q-88 -92 -113 -92q-39 0 -86 46t-47 85q0 11 34 45t81.5 76t54.5 49q-76 -32 -164 -102t-143 -128q-133 -138 -133 -239q0 -54 43 -93t100 -39q37 0 78.5 16.5 t74.5 38t76.5 60.5t69 65t66.5 70q9 6 14 6q11 0 21 -8t10 -18q0 -13 -8 -21q-16 -24 -45 -61q-49 -60 -114 -121t-128 -96q-73 -39 -139 -39q-79 0 -164 54.5t-140 134t-55 147.5z" />
<glyph unicode="D" horiz-adv-x="925" d="M0 236q0 17 12 37.5t22.5 32t31.5 32.5q4 4 74 73t127.5 123.5t119.5 108.5q-88 -10 -162 -27q-23 0 -47 48.5t-24 89.5q0 36 20 47q87 33 214.5 54.5t223.5 21.5q167 0 258 -48q67 -34 107.5 -94t40.5 -141q0 -118 -152 -275q-108 -111 -308 -213t-333 -102h-12 q-77 0 -152 96q-61 79 -61 136zM236 225q139 36 310.5 130t268.5 196q25 31 25 51q0 21 -38.5 31t-80.5 10q-21 0 -31 -2z" />
<glyph unicode="E" horiz-adv-x="681" d="M0 207q0 30 10.5 57.5t30 50t44 42t55.5 35t61.5 28t64.5 22.5t61 16.5t56 12.5q-145 22 -190 94q-25 41 -25 105q0 42 25 71q39 44 125 77.5t172.5 48t158.5 14.5q56 0 86 -2t62.5 -13t50.5 -32q41 -47 41 -183q0 -37 -15 -61q-11 -15 -56 -28.5t-91.5 -20t-75.5 -6.5 q-12 6 -21 29t-9 46q0 40 22 45q39 11 127 21l-35 2q-38 0 -102.5 -7.5t-133 -20t-118 -33.5t-49.5 -44q0 -18 78 -34q24 -5 49.5 -8.5t42 -4.5t34 -3t28 -4.5t21 -7.5t16 -13t10 -21.5t6 -31.5t1.5 -44q0 -49 -12 -49q-77 -21 -135.5 -41t-123.5 -48t-100.5 -61.5 t-35.5 -68.5q0 -24 24.5 -37.5t61.5 -13.5q46 0 99 22.5t95 52t91.5 75.5t76 75t60.5 68q6 6 18 6t22.5 -8.5t10.5 -20.5t-8 -20q-39 -52 -89.5 -105.5t-114 -108t-134 -90t-131.5 -36.5h-27q-41 0 -85 13t-85.5 38t-68.5 68t-27 96z" />
<glyph unicode="F" horiz-adv-x="679" d="M-41 741q0 39 71.5 70t205.5 63q160 39 348 39q72 0 116 -16q47 -18 92.5 -76t45.5 -108q0 -13 -2 -17q-8 -53 -213 -264q49 -1 62 -11t15 -38q0 -39 -34 -39q-44 0 -134 -4q-67 -68 -160 -168.5t-122 -136.5q-9 -11 -15 -24.5t-11 -19t-15 -5.5q-34 0 -77 28t-66 62 q-17 24 -17 51q0 23 17 37l141 147q-46 -8 -70 -8q-16 0 -27.5 16t-11.5 48q0 18 7.5 29t12.5 12.5t9 1.5l186 10q174 170 299 287q-132 -6 -301 -47.5t-243 -84.5q-2 -1 -8 -5.5t-9 -4.5q-31 0 -61.5 67.5t-30.5 108.5z" />
<glyph unicode="G" horiz-adv-x="804" d="M-199 -211q0 67 74.5 121t183.5 83.5t234 37.5q18 18 86 100q-90 -86 -152 -86q-74 0 -168 89t-94 157q0 55 47.5 130.5t98 128.5t106.5 103q93 82 219 154.5t211 75.5q42 0 109 -31t122 -79t60 -89q0 -43 -61.5 -120.5t-114.5 -121.5q-35 0 -99 49t-65 80q5 23 123 125 q-47 -3 -115 -43q-71 -42 -162 -118t-165 -165.5t-74 -142.5q0 -37 35 -37q78 0 245 156l88 84q6 6 21 6q39 0 101.5 -45t62.5 -76q0 -4 -4 -12q-108 -137 -236 -285q86 -16 143.5 -54t57.5 -91q0 -49 -42 -80t-97 -31q-37 0 -37 13q0 4 5 8.5t15 13t17 17.5q16 18 16 47 q0 73 -131 100l-14 -18q-46 -53 -75 -83.5t-81.5 -78.5t-96 -75t-102 -47.5t-116.5 -20.5q-69 0 -124 45.5t-55 105.5zM-109 -188q0 -23 35 -23q118 0 301 176q-93 -13 -180 -43.5t-135 -73.5q-21 -18 -21 -36z" />
<glyph unicode="H" horiz-adv-x="1071" d="M-20 735q0 44 102 82q205 80 426 80q103 0 147 -18q47 -18 91.5 -75t44.5 -106q0 -10 -3 -16q-6 -31 -67 -112.5t-115 -133.5l139 4l338 408q5 10 21 10q40 0 103 -44t63 -75q0 -2 -4 -10q-102 -130 -259.5 -314.5t-177.5 -209.5q-36 -44 -36 -70q0 -24 26 -24 q24 0 64 30q32 24 91.5 86t103.5 112l44 50q11 8 17 8q16 0 25.5 -10.5t9.5 -19.5q0 -11 -54.5 -77.5t-111.5 -127.5q-147 -162 -230 -162q-58 0 -128 66.5t-70 128.5q0 20 8.5 41t15.5 32t27 35.5t24 30.5l-161 -8q-168 -168 -258 -283q-9 -11 -15 -24.5t-11 -19t-15 -5.5 q-34 0 -77.5 28t-66.5 62q-16 22 -16 51q0 24 16 37l123 127q-23 0 -33.5 19t-15.5 63q0 16 8.5 26t16.5 11l8 2q82 6 145 8q24 24 74 75.5t94.5 95t97.5 93.5q-128 -6 -268.5 -41.5t-214.5 -77.5q-3 -1 -8 -5.5t-8 -4.5q-29 0 -59.5 66.5t-30.5 105.5z" />
<glyph unicode="I" horiz-adv-x="1005" d="M-16 326q0 73 47 73q34 0 153.5 -20t157.5 -29q16 -3 16 -18q0 -41 -39 -41q-231 31 -233 31q47 -109 178 -109q35 0 73 8.5t59 17.5l20 9q3 149 103 308.5t237 262.5q95 76 166 76q68 0 135 -53.5t67 -112.5q0 -85 -78.5 -207t-194 -232t-228.5 -177h20q47 0 96.5 18 t87.5 42.5t83.5 65t72 69t64.5 71.5q8 8 18 8q11 0 22 -8.5t11 -22.5l-11 -20q-232 -301 -448 -301q-59 0 -123 24q-100 -41 -182 -41q-72 0 -148 35.5t-134.5 108.5t-67.5 164zM512 297q55 38 150 131.5t174 195.5t79 146q0 9 -5 15t-13 6q-34 0 -92.5 -49t-108.5 -109 q-132 -153 -184 -336z" />
<glyph unicode="J" horiz-adv-x="960" d="M-317 -96q0 58 50 121.5t126.5 116t146.5 90.5t131 63q230 90 457 96q181 167 242 268q-150 -10 -361 -127q-4 -3 -8.5 -6.5t-7.5 -5.5t-6.5 -4t-6.5 -2q-24 0 -59 68.5t-37 101.5q0 16 14 31t28 21l14 7q111 58 220.5 86.5t178.5 28.5q68 0 137.5 -68.5t69.5 -132.5 q0 -87 -189 -305l74 -33q14 -3 14 -26q0 -13 -8 -24t-22 -11q-1 0 -5 1t-6 1q-18 4 -50 16.5t-48 16.5q-73 -82 -104 -115q-56 -59 -120 -119t-150 -128t-168 -119.5t-172 -86t-164 -34.5q-79 0 -145 71.5t-66 141.5zM-193 -94q0 -23 31 -23q46 0 131 43q89 44 239 150.5 t294 230.5q-175 -25 -353 -111t-290 -204q-52 -55 -52 -86z" />
<glyph unicode="K" horiz-adv-x="935" d="M-92 705q0 47 105 90.5t237.5 67.5t230.5 24q79 0 107 -17q39 -16 87 -75.5t48 -100.5q0 -55 -186 -264q355 274 487 391q4 2 12 2q32 0 80.5 -54t48.5 -85q0 -14 -12 -29l-563 -389q27 -49 53.5 -73.5t67.5 -24.5q36 0 83 31.5t83 70t64.5 70t31.5 31.5q2 2 8 2 q11 0 24 -10.5t13 -20.5q-1 -5 -10 -18q-93 -120 -191 -213q-37 -34 -62 -54t-65.5 -38.5t-79.5 -18.5q-66 0 -131 82.5t-98 175.5q-133 -144 -174 -203q-6 -8 -15 -21.5t-13 -18t-11 -9t-16 -4.5q-37 0 -91.5 46.5t-54.5 94.5q0 19 12 31q106 123 268.5 287t227.5 235 q-123 -9 -256 -48.5t-244 -96.5q-3 -2 -9 -7t-9 -5q-10 0 -49 74t-39 92z" />
<glyph unicode="L" horiz-adv-x="995" d="M-31 231q0 61 50.5 100.5t117.5 39.5q66 0 201 -56l24 37q-38 17 -72 38.5t-66 50t-51 66t-19 77.5q0 65 59.5 107t132.5 42q56 0 107 -20.5t51 -48.5q0 -5 -7 -9t-14 -4q-4 0 -18.5 3t-38.5 3q-43 0 -88 -28.5t-45 -79.5q0 -87 110 -139q10 14 47.5 65t55 74.5t52.5 66 t71 80.5q43 47 89.5 87t115.5 76t129 36q41 0 101 -26t108.5 -71.5t48.5 -92.5q0 -55 -56 -124t-125 -122q-92 -69 -214.5 -114.5t-239.5 -45.5q-52 -52 -60 -59q155 -54 275 -54q55 0 92 9q-5 -28 -21.5 -60t-44.5 -63.5t-74.5 -52.5t-101.5 -21q-22 0 -49 5t-47.5 10.5 t-55 19t-49 19.5t-53.5 23.5t-47 20.5q-103 -69 -178 -69q-74 0 -138.5 58.5t-64.5 145.5zM45 203q0 -15 16 -32t48 -17q34 0 75 20q-6 4 -19.5 12t-19.5 12t-17 10t-18 8.5t-16.5 4.5t-17.5 2q-31 0 -31 -20zM666 389q167 38 313 156q114 96 117 149q0 12 -9 21.5t-22 9.5 q-44 0 -139 -76q-34 -28 -68.5 -62t-94 -96.5t-97.5 -101.5z" />
<glyph unicode="M" horiz-adv-x="1284" d="M-20 139q0 43 67 127q64 82 193 237t176 214q-50 -16 -101.5 -38t-80 -37t-69 -37.5t-44.5 -24.5q-26 -15 -31 -15q-13 0 -27 17q-67 83 -67 120q0 7 3 14.5t7.5 13.5t10 11.5t10 9t8.5 6.5l4 3q99 66 203.5 99.5t175.5 33.5q19 0 39 -4q36 -8 94.5 -67t58.5 -99 q0 -53 -80 -133q6 5 16 14.5t40.5 36.5t58.5 51.5t64 54.5t64 51t51.5 35.5t33.5 14.5h8q38 0 104 -46t66 -81q0 -12 -20.5 -39.5t-56 -67t-44.5 -49.5q68 59 176 133t128 74q49 0 111.5 -49.5t62.5 -87.5q0 -9 -4 -17q-29 -29 -267 -315q-1 -1 -22.5 -26.5t-32.5 -39.5 t-28.5 -37t-26 -39.5t-8.5 -25.5q0 -26 26 -26q34 0 139.5 103t141.5 148q10 13 22 13t22.5 -8.5t10.5 -20.5q0 -7 -6 -16q-43 -53 -67.5 -82.5t-73 -83t-82.5 -83.5t-74.5 -54.5t-69.5 -24.5q-61 0 -128.5 60.5t-67.5 136.5q0 40 52 112.5t149 179.5t108 121 q-367 -288 -578 -571q-43 8 -88 48t-45 79q0 21 15 51q46 77 177.5 241.5t166.5 211.5q-174 -141 -353.5 -319.5t-289.5 -334.5l-5 -10q-38 8 -82 52.5t-44 80.5z" />
<glyph unicode="N" horiz-adv-x="925" d="M-16 145q0 34 71 129q20 26 162.5 193.5t200.5 234.5q-62 -15 -136 -48t-121 -59t-50 -26q-19 0 -57 65t-38 91q0 14 10 26.5t20 18.5l11 6q187 107 367 107q43 0 76 -17q40 -25 78 -75.5t38 -92.5q0 -25 -20.5 -55.5t-60 -74t-50.5 -56.5q223 186 340 264q11 8 37 8 q51 0 118 -50.5t67 -90.5q0 -8 -66 -88l-309 -365q-1 -1 -5.5 -6.5t-8 -10.5t-8 -12t-7 -14.5t-2.5 -13.5q0 -22 31 -22q25 0 76 41q26 22 78 75.5t91 96.5l39 43q8 14 29 14q12 0 20.5 -7.5t8.5 -19.5q0 -6 -4 -14q-111 -146 -217 -248q-29 -28 -48.5 -44t-52.5 -32 t-65 -16q-52 0 -122.5 63.5t-70.5 131.5q0 31 27 77q31 49 82 105.5t123 129t102 105.5q-15 -12 -93.5 -74.5t-107 -85.5t-97.5 -80.5t-105.5 -91t-88 -82t-87.5 -90.5t-64 -81q-7 -11 -8 -11q-44 0 -88.5 45.5t-44.5 83.5z" />
<glyph unicode="O" horiz-adv-x="962" d="M4 346q0 59 35 127.5t88 128.5t117 115.5t121.5 94t101.5 58.5q22 9 39 9q29 0 55 -23l55 -45q93 51 187 51q90 0 149.5 -56t59.5 -142q0 -71 -33.5 -149.5t-84.5 -145t-105.5 -119t-102.5 -84.5q51 8 92.5 25.5t82.5 49.5t70.5 61.5t78.5 82.5q6 6 14 6q11 0 22 -9.5 t11 -19.5q0 -4 -4 -12q-75 -110 -180.5 -188t-225.5 -78q-39 0 -59 4q-134 -82 -244 -82q-126 0 -240 123q-100 111 -100 217zM207 231q0 -60 35 -90t86 -30q66 0 139 41q-61 41 -95 109.5t-34 144.5q0 44 12 88q-56 -52 -99.5 -125.5t-43.5 -137.5zM465 379q0 -114 84 -178 q88 48 160 123q22 23 50.5 58t63.5 85.5t58.5 105.5t23.5 97q0 38 -23 64t-65 26q-75 0 -178 -74q-66 -45 -121 -127q-53 -82 -53 -180z" />
<glyph unicode="P" horiz-adv-x="991" d="M-20 147q0 17 16 46q35 42 142.5 150t197.5 195l90 87q-110 -21 -145 -29q-12 0 -35 49t-23 92q0 33 13 51q81 31 219 60t262 29q52 0 103.5 -8t105 -28t94 -49.5t66.5 -77t26 -106.5q0 -79 -54.5 -152t-135.5 -121t-171.5 -77t-166.5 -29q-141 0 -193 78 q-75 -70 -170 -174q-69 -75 -82 -98l-3.5 -7t-4 -7.5t-6 -4.5t-10.5 -2q-44 0 -89.5 45t-45.5 88zM532 440q101 3 201.5 33t167.5 80q33 23 33 43q0 47 -137 47q-31 0 -45 -2q-50 -43 -220 -201z" />
<glyph unicode="Q" horiz-adv-x="993" d="M-49 51q0 24 8 35q47 31 145 31q18 0 50 -4q-117 120 -117 233q0 59 35 127.5t88 128.5t117 115.5t121.5 94t101.5 58.5q22 9 39 9q29 0 55 -23l55 -45q93 51 189 51q89 0 147.5 -56t58.5 -142q0 -71 -33.5 -149.5t-84.5 -145t-105 -119t-102 -84.5q51 8 92.5 25.5 t82 49.5t70 61t78.5 83q6 6 15 6q11 0 22 -9.5t11 -19.5q0 -2 -5 -12q-75 -110 -180 -188t-225 -78q-39 0 -59 4q-95 -58 -170 -74q65 -20 122 -20t119 22q-10 -26 -26.5 -53.5t-45.5 -63.5t-73.5 -58.5t-95.5 -22.5q-32 0 -48 4q-45 9 -92.5 35.5t-83 52.5t-94.5 46.5 t-127 20.5h-22q-14 1 -23.5 25t-9.5 49zM240 231q0 -60 34.5 -90t85.5 -30q67 0 140 41q-61 41 -95 109.5t-34 144.5q0 44 12 88q-56 -52 -99.5 -125.5t-43.5 -137.5zM498 373q0 -114 84 -172q86 47 159 123q33 35 72.5 84.5t82 128t42.5 133.5q0 38 -23 64t-65 26 q-79 0 -176 -70q-73 -50 -125 -127q-51 -82 -51 -190z" />
<glyph unicode="R" horiz-adv-x="970" d="M-41 147q0 17 16 46q35 42 142.5 150t198.5 195l90 87q-111 -21 -146 -29q-12 0 -34.5 49t-22.5 92q0 34 12 51q81 31 219 60t262 29q63 0 127.5 -14.5t125.5 -44t99.5 -83.5t38.5 -125q0 -84 -62 -161t-154 -127.5t-197 -73.5q32 -16 83.5 -53.5t51.5 -59.5 q0 -34 -33 -73t-67 -50q-47 39 -178.5 112.5t-223.5 111.5q-2 -2 -27.5 -27t-44.5 -44.5t-45 -46t-44.5 -48.5t-26.5 -35l-3 -6t-3.5 -6t-3.5 -4.5t-6 -3.5t-9 -1q-44 0 -89.5 45t-45.5 88zM514 442q98 6 217.5 43t163.5 80q18 18 18 31q0 25 -47 36t-90 11q-31 0 -45 -2 q-37 -32 -217 -199z" />
<glyph unicode="S" horiz-adv-x="712" d="M-14 614q0 48 28.5 83t81.5 67q103 64 258.5 103.5t290.5 39.5q116 0 162.5 -17.5t77.5 -58.5q43 -60 43 -159q0 -51 -19 -70q-26 -32 -133 -59t-196 -37q-18 7 -31.5 35.5t-13.5 58.5q0 17 1.5 25.5t8.5 16t22 11.5q94 26 158 41h-25q-93 0 -207 -22t-208 -56 q-49 -18 -91 -42.5t-42 -41.5q0 -13 56 -31.5t95 -27.5q249 -66 295 -115q43 -46 43 -114q0 -51 -45 -99t-110 -79.5t-136.5 -50.5t-126.5 -19q-122 0 -172 76q-33 53 -33 102q0 50 37 74q48 30 149.5 58t155.5 28q11 0 18 -8t7 -19q0 -28 -23 -28q-72 -11 -165 -40t-93 -49 q0 -8 29 -8q73 0 170.5 25.5t157.5 62.5q39 24 39 45q0 15 -56.5 30.5t-165 41t-186.5 53.5q-44 16 -75 63.5t-31 110.5z" />
<glyph unicode="T" horiz-adv-x="606" d="M-41 741q0 40 68 70.5t196 62.5q160 39 346 39q79 0 123 -16q51 -19 98.5 -73.5t47.5 -100.5q0 -21 -11 -43q-16 -32 -71 -97t-106 -119.5t-131 -138.5t-103 -108q-96 -103 -160 -182q-9 -11 -15 -24.5t-11 -19t-15 -5.5q-33 0 -92.5 47t-59.5 104q0 23 17 37 q27 36 157 169.5t247 248.5l116 115q-131 -6 -294 -47t-238 -85q-2 -1 -8 -5.5t-9 -4.5q-31 0 -61.5 67.5t-30.5 108.5z" />
<glyph unicode="U" horiz-adv-x="935" d="M-14 231q0 29 13.5 62t40.5 68.5t55.5 68t70 71t72 65.5t73 63.5t62.5 54.5q-48 -13 -105 -34t-100 -41t-68 -34q-5 -2 -11.5 -7t-8.5 -5q-27 0 -59.5 58t-32.5 104q0 34 28 45q61 34 191.5 75.5t218.5 41.5q32 0 82 -26t90 -68.5t41 -79.5q0 -42 -74 -129 q-38 -44 -127.5 -139.5t-122.5 -133.5q-96 -111 -96 -147q0 -13 11 -24t22 -11q25 0 61 23t68 53q27 24 53.5 49.5t57 58t51 54t56.5 63.5t50.5 58.5t55.5 66t49.5 59.5t54.5 66.5t49 60.5q6 11 23 11q41 0 107.5 -44t66.5 -75q0 -2 -4 -10q-81 -98 -155.5 -186.5 t-105.5 -125.5t-55.5 -66.5t-38.5 -47.5q-34 -45 -34 -64q0 -22 26 -22q29 0 74 41q28 26 81.5 83t93.5 101l40 43q10 10 18 10q12 0 23.5 -12.5t11.5 -24.5l-4 -10q-3 -4 -35 -42.5t-74 -86.5t-79 -86q-120 -127 -183 -127q-59 0 -120.5 52.5t-81.5 109.5 q-79 -79 -133 -119.5t-93 -40.5q-81 0 -161 79t-80 150z" />
<glyph unicode="V" horiz-adv-x="757" d="M-35 729q0 31 35 49q58 30 195.5 70.5t226.5 40.5q62 0 132.5 -56t70.5 -116q0 -46 -170 -228q-147 -159 -211 -262q-27 -43 -27 -67q0 -28 31 -33q65 0 181.5 104t242.5 258q-10 20 -10 54q0 77 51 151t112 74q36 0 58 -26t22 -60q0 -53 -36 -119t-78 -102 q16 -19 43 -31.5t46 -15.5l19 -2q14 0 23.5 -9t9.5 -20q0 -12 -13 -23.5t-34 -11.5q-50 0 -91 16.5t-57 34.5q-34 -42 -68 -81.5t-93.5 -100t-112.5 -104t-115.5 -75.5t-111.5 -32q-73 0 -156.5 78t-83.5 162q0 48 38 113.5t97 129.5t114 115t105 90q-31 -4 -148.5 -56 t-133.5 -65q-2 -2 -9 -2q-25 0 -58.5 58.5t-35.5 99.5z" />
<glyph unicode="W" horiz-adv-x="1210" d="M20 231q0 33 21 74.5t49 77t75.5 83.5t81.5 77.5t87.5 76t73.5 64.5q-45 -12 -99.5 -33.5t-109 -46.5t-64.5 -29q-5 -2 -11.5 -7t-8.5 -5q-27 0 -59.5 58t-32.5 104q0 34 28 45q61 34 191.5 75.5t218.5 41.5q32 0 82 -26t90 -68.5t41 -79.5q0 -42 -74 -129 q-38 -44 -127.5 -139.5t-122.5 -133.5q-96 -111 -96 -147q0 -14 10 -23.5t25 -9.5q50 0 131 76q81 75 219 227l172 193l3 5q4 4 8 7.5t9 8t10.5 7t10.5 2.5q21 0 62.5 -19t76 -46t33.5 -45q0 -6 -2 -8q-39 -50 -137.5 -168t-122.5 -154l-6 -11q-7 -10 -11 -16.5t-8 -17.5 t-4 -20q0 -11 6.5 -20t18.5 -9q34 0 82 39q79 62 147 146t143 200q-10 20 -10 57q0 74 44.5 141.5t103.5 67.5q40 0 62 -25t22 -59q0 -50 -32 -113.5t-69 -105.5q17 -28 38 -45t35 -21t24 -11t10 -19t-10.5 -21.5t-28.5 -9.5q-54 7 -113 66q-280 -410 -450 -410 q-71 0 -143 71.5t-72 131.5q-96 -97 -164.5 -149t-114.5 -52q-81 0 -161.5 79t-80.5 150z" />
<glyph unicode="X" horiz-adv-x="821" d="M-98 117q0 33 22 49q145 90 438 291q1 5 35 239q-76 -19 -157 -58t-128.5 -68t-50.5 -29q-19 0 -56.5 66.5t-37.5 94.5q0 19 14.5 36.5t28.5 25.5l15 8q100 60 211 89.5t188 31.5q55 0 117.5 -56.5t62.5 -123.5q0 -13 -5.5 -47t-6.5 -43q69 53 158 125.5t140 114t52 40.5 q8 8 23 8q38 0 86.5 -57t48.5 -100q0 -19 -17 -33q-113 -81 -283 -186.5t-241 -153.5q-6 -43 -6 -92q0 -109 55 -109q41 0 113.5 59t124.5 121q13 13 28 13q12 0 21.5 -8.5t9.5 -18.5q0 -4 -4 -12q-46 -62 -118.5 -139t-147.5 -129q-95 -66 -166 -66q-129 0 -129 215 l-297 -248q-5 -16 -29 -16q-42 12 -77 65.5t-35 100.5z" />
<glyph unicode="Y" horiz-adv-x="892" d="M-41 -25q0 10 8.5 17.5t18.5 7.5t18 -8q92 -70 166 -70q36 0 66 15q91 43 202 192q-116 -109 -176 -109q-81 0 -159 79t-78 151q0 33 18 72t42.5 71.5t67.5 76t73.5 70.5t81 70.5t71.5 61.5q-37 -10 -77.5 -25.5t-73 -30.5t-59.5 -28.5l-43 -21.5l-15 -9q-29 0 -73 56 t-44 100q0 33 29 45q61 34 194 76.5t221 42.5q31 0 81.5 -26.5t91 -69t40.5 -79.5q0 -31 -62 -107t-136.5 -151.5t-136.5 -152t-62 -109.5q0 -14 9.5 -24.5t23.5 -10.5q27 0 66 23t89.5 71.5t93.5 93t105.5 118.5t96 115.5t91.5 113.5l58 70q6 12 24 12q41 0 105.5 -45 t64.5 -76q0 -2 -4 -10q-119 -138 -264.5 -325t-241 -310.5t-129.5 -153.5q-96 -84 -184 -84q-81 0 -178 72q-52 39 -86.5 78.5t-34.5 64.5z" />
<glyph unicode="Z" horiz-adv-x="749" d="M-133 86q0 44 20 66q56 63 207 107t238 52q11 1 17.5 -7t6.5 -19q0 -28 -39 -37q-340 -85 -340 -135q0 -17 43 -17q65 0 166 32t183 75q25 13 50.5 28.5t55 43.5t29.5 49q0 36 -76 36q-24 0 -66 -6q-14 0 -25 20.5t-11 43.5q0 32 16 35q144 32 290 83.5t146 90.5 q0 18 -57 18q-171 0 -389 -78q-29 0 -55.5 55t-26.5 109q0 34 16 47q86 41 194.5 64.5t211.5 23.5q111 0 181.5 -55t70.5 -162q0 -62 -45 -104q-47 -44 -147.5 -79t-211.5 -54q125 -30 125 -166q0 -77 -59 -147t-145.5 -115.5t-180.5 -72t-168 -26.5q-98 0 -149 43 q-30 25 -53 70t-23 88z" />
<glyph unicode="[" horiz-adv-x="704" d="M0 117q0 20 18 47q43 64 142.5 190.5t233.5 291t181 224.5q9 19 39 19q86 8 183 8q32 0 47.5 -0.5t32 -5.5t22 -12t11.5 -23.5t7.5 -36.5t2.5 -55q0 -35 -48 -35q-33 0 -198 -6q-307 -356 -459 -545q166 0 184 -14q31 -21 33 -117q0 -19 -7.5 -27t-29.5 -8h-45 q-36 0 -125.5 -4t-130.5 -4q-27 0 -56.5 35.5t-37.5 77.5z" />
<glyph unicode="\" horiz-adv-x="864" d="M195 756q0 31 31.5 60.5t74.5 29.5q27 0 37 -19q12 -16 116.5 -182t203.5 -325l98 -158q16 -40 16 -58q0 -39 -19.5 -66.5t-56.5 -31.5q-5 2 -10 12q-40 51 -161.5 232.5t-225.5 341t-104 164.5z" />
<glyph unicode="]" horiz-adv-x="655" d="M-68 139q0 35 48 35q41 0 206 6q49 56 118 142.5t162.5 206.5t154.5 196q-29 0 -65 -1t-48 -1q-39 0 -53 1t-26.5 14.5t-14 34.5t-2.5 71q0 21 6.5 31t27.5 10q297 10 302 10q21 0 51.5 -32.5t40.5 -78.5q0 -39 -236 -333q-25 -30 -107.5 -139.5t-149.5 -190.5t-101 -103 q-23 -14 -92 -14h-144q-27 0 -51 32.5t-27 102.5z" />
<glyph unicode="^" horiz-adv-x="428" d="M195 733q0 17 10 25l138 85q54 31 63 31q9 2 44 -38.5t67.5 -81.5t33.5 -41q-39 -45 -86 -45q-10 0 -22 7.5t-23.5 19t-21 22t-18 21.5t-9.5 12q-33 -17 -111 -68q-9 -6 -16 -6q-18 0 -33.5 18t-15.5 39z" />
<glyph unicode="_" horiz-adv-x="811" d="M20 -39h771v-84h-771v84z" />
<glyph unicode="`" horiz-adv-x="432" d="M205 780q0 27 51 63t84 36q12 0 33 -31q131 -189 131 -199q0 -27 -36 -56.5t-65 -29.5q-15 0 -18 8l-174 189q-6 8 -6 20z" />
<glyph unicode="a" horiz-adv-x="804" d="M-63 207q0 26 14 51q19 36 58 83t87 92.5t103 76.5t98 31q22 0 63.5 -19.5t81.5 -46.5t66 -51l29 33q13 20 36 20q45 -4 100.5 -47t55.5 -70l-4 -12l-133 -151q-60 -61 -60 -84q0 -19 19 -19q24 0 84 56q34 31 106 110t84 94q13 8 19 8q12 0 23.5 -10t11.5 -22l-2 -11 q-143 -173 -215 -239q-50 -46 -81 -63t-69 -17q-46 0 -94.5 37t-73.5 82q-115 -119 -176 -119q-56 0 -139 70q-89 75 -92 137zM156 145q0 -13 8 -21.5t22 -8.5q35 0 91 46.5t98.5 107.5t42.5 98q0 13 -6.5 20.5t-16.5 7.5q-23 0 -67.5 -32t-89.5 -80q-27 -28 -45.5 -55.5 t-27.5 -48t-9 -34.5z" />
<glyph unicode="b" horiz-adv-x="667" d="M-25 238q0 49 34.5 102t109.5 141l311 375q6 12 27 12q42 0 105 -40.5t63 -69.5q0 -6 -2 -8q-89 -114 -234 -269q26 13 57 13q52 0 114.5 -51.5t62.5 -112.5q0 -43 -31.5 -100t-80 -108t-115 -86.5t-128.5 -35.5q-52 0 -96.5 16t-97.5 60q-44 37 -71.5 80t-27.5 82z M162 174q0 -29 35 -29q30 0 71.5 28t67.5 54q30 30 64 78.5t34 79.5q0 27 -31 27q-41 0 -147 -99q-94 -94 -94 -139z" />
<glyph unicode="c" horiz-adv-x="600" d="M-37 236q0 32 14 57q45 79 141.5 164.5t170.5 85.5q59 0 139 -54q59 -38 84 -64.5t25 -49.5q0 -27 -49.5 -86.5t-77.5 -59.5q-31 0 -71.5 34t-41.5 65q0 8 72 75q-64 -35 -128.5 -100t-64.5 -119q0 -37 30 -62.5t66 -25.5q68 0 136 51q44 35 95.5 85.5t80.5 83.5l30 34 q9 10 17 10q13 0 25 -11.5t12 -22.5q0 -7 -4 -11q-91 -111 -155 -175t-138 -107q-58 -33 -113 -33q-56 0 -119.5 38t-113.5 91q-62 66 -62 107z" />
<glyph unicode="d" horiz-adv-x="800" d="M-66 203q0 26 15 53q27 49 82.5 112t129.5 115t130 52q30 0 91 -34t107 -71q36 44 93 112.5t84.5 101t59 72t50.5 66.5q13 11 23 11q39 0 100.5 -44.5t61.5 -74.5l-5 -10q-276 -335 -366 -441q-2 -3 -22.5 -28t-31 -43t-10.5 -31q0 -19 21 -19q28 0 84 52 q34 31 104 107.5t82 92.5q8 8 19 8q13 0 23.5 -10t10.5 -22l-2 -11q-143 -173 -215 -239q-85 -80 -147 -80q-41 0 -90.5 38.5t-71.5 84.5q-113 -118 -174 -123h-8q-55 0 -135 68q-93 83 -93 135zM154 143q0 -13 8 -21.5t22 -8.5q54 0 142 95.5t88 153.5q0 13 -7 21t-16 8 q-23 0 -67.5 -32t-87.5 -80q-39 -41 -60.5 -77.5t-21.5 -58.5z" />
<glyph unicode="e" horiz-adv-x="600" d="M-35 238q0 29 12 53q28 50 79 106.5t118 101t121 44.5q57 0 145 -58q51 -36 73 -59t22 -51q0 -33 -48 -90q-96 -99 -235 -99q-38 0 -72 9v-13q0 -38 25 -62t61 -24q73 0 158 64q43 33 97.5 88t88.5 94l33 39q8 10 16 10q13 0 25 -12t12 -23q0 -8 -2 -10l-14 -18 q-139 -168 -219 -234q-113 -94 -195 -94h-16q-110 5 -221 129q-64 68 -64 109zM203 256q98 0 162 49q22 15 38.5 37t16.5 37q0 22 -27 22q-31 0 -100 -51q-13 -10 -45.5 -42.5t-44.5 -51.5z" />
<glyph unicode="f" horiz-adv-x="534" d="M-195 -100q0 58 74 163q56 76 227 291l-79 -86q-6 -6 -21 -6q-10 0 -19.5 10t-9.5 21q0 4 3 10l90 113q-11 28 -11 57q0 10 10.5 16t20.5 7h10l113 4q216 263 272 334q17 26 39 26q39 0 101.5 -43.5t62.5 -73.5l-2 -10l-190 -223q36 2 69 2q53 0 53 -37 q0 -15 -15.5 -27.5t-41.5 -15.5l-139 -12l-29 -35q19 -62 19 -121q0 -120 -70 -260q-62 -122 -151.5 -205.5t-180.5 -83.5q-53 0 -110 39q-95 70 -95 146zM-18 -166q0 -24 30 -24q28 0 68 28t65 53q78 75 130.5 181.5t52.5 208.5v18q-41 -53 -150 -182.5t-166 -208.5 q-30 -45 -30 -74z" />
<glyph unicode="g" horiz-adv-x="718" d="M-125 -61q0 13 11.5 23.5t23.5 10.5q6 0 12 -6q61 -55 131 -55q73 0 166 104q-32 -16 -53 -16q-56 0 -139 70q-90 76 -93 137q0 24 15 51q45 85 154 184t192 99q30 0 92.5 -35t108.5 -72l39 47q2 2 5 6t5 5.5t6 1.5q34 0 98 -44t64 -67q0 -4 -2 -6q-51 -62 -172.5 -219.5 t-190.5 -241.5q-120 -145 -229 -145q-76 0 -150 57q-26 19 -60 56.5t-34 54.5zM154 145q0 -13 8 -21.5t22 -8.5q35 0 91 46.5t98.5 107.5t42.5 98q0 13 -6.5 20.5t-16.5 7.5q-23 0 -67.5 -32t-89.5 -80q-82 -88 -82 -138z" />
<glyph unicode="h" horiz-adv-x="751" d="M-131 143q0 10 9 26.5t34 49.5t48.5 62.5t75 92.5t91.5 113q243 302 305 381q10 13 27 13q42 0 104 -42t62 -71q0 -4 -4 -12l-9 -11q-9 -11 -26 -31.5t-39 -46.5t-49.5 -59t-55.5 -66t-60 -69t-60 -67q24 14 74 48t87 56t52 22q42 0 102.5 -42.5t60.5 -79.5q0 -13 -4 -19 q-35 -44 -71 -86t-75 -85.5t-46 -51.5q-27 -27 -27 -51q0 -6 7 -11.5t16 -5.5q18 0 45.5 19.5t38.5 30.5q34 31 106 110t84 94q13 8 19 8q12 0 23 -10t11 -22l-2 -11q-143 -173 -215 -239q-50 -46 -81.5 -63t-69.5 -17q-60 0 -121.5 64.5t-61.5 113.5q0 25 19.5 59.5 t37 55.5t56.5 62.5t45 47.5q-11 -8 -49.5 -37t-53.5 -40.5t-49.5 -38.5t-52 -42.5t-47 -42t-48.5 -47t-41 -46.5t-40 -52q-5 -6 -11.5 -16.5t-9.5 -15t-8.5 -8t-11.5 -3.5q-22 0 -45 13q-37 18 -66.5 49t-29.5 67z" />
<glyph unicode="i" horiz-adv-x="395" d="M-92 180q0 39 26 72q22 29 77 94t99 116l44 50q9 12 22 12q39 0 103.5 -43.5t64.5 -72.5q0 -7 -2 -9l-197 -231q-26 -31 -26 -51q0 -17 20 -17q28 0 86 54q34 32 107.5 110t83.5 90q12 8 18 8q12 0 23.5 -10t11.5 -22l-2 -11q-143 -173 -215 -239q-46 -43 -78.5 -61.5 t-64.5 -18.5q-54 0 -127 63t-74 117zM252 629q0 66 46.5 120t113.5 54q31 -1 54.5 -14t35.5 -32.5t18 -37.5t6 -33q0 -58 -50.5 -115t-115.5 -57q-48 0 -78 33t-30 82z" />
<glyph unicode="j" horiz-adv-x="350" d="M-469 -66q0 13 11.5 24t23.5 11q6 0 12 -6q23 -21 55.5 -33t55.5 -12q29 0 65 20t58 44q44 46 105 124t99 132l39 55q0 6 -2 6q-4 0 -8 -4l-94 -105q-4 -4 -12 -4q-11 0 -21 10.5t-10 22.5q0 10 6 19q2 0 49 54.5t107.5 125t85.5 96.5q7 10 20 10q43 0 113.5 -46 t70.5 -77l-2 -12q-64 -82 -135 -177t-110 -147t-84.5 -110t-72.5 -86.5t-59 -54t-60 -34t-60 -7.5q-79 3 -154 59q-26 21 -59 54t-33 48zM250 623q0 66 46.5 120t113.5 54q31 -1 54.5 -14t35.5 -32.5t18 -37.5t6 -33q0 -58 -50.5 -115t-115.5 -57q-48 0 -78 33t-30 82z" />
<glyph unicode="k" horiz-adv-x="735" d="M-135 143q0 21 14 39q45 59 207 255t350 433q10 13 27 13q42 0 103 -41t61 -70q0 -4 -4 -12q0 1 -40.5 -46.5t-108.5 -128t-114 -134.5q95 59 166 59q50 0 100 -52t50 -100q0 -54 -57.5 -98.5t-131.5 -66t-139 -21.5q42 -39 107 -39q37 0 75.5 17t78.5 51.5t70 65.5 t71 79q8 8 18 8q12 0 24.5 -10t12.5 -20q0 -7 -2 -9q-83 -107 -156 -178q-84 -78 -137 -107.5t-113 -29.5q-139 0 -237 197q-78 -94 -119 -152l-4 -8t-5.5 -9.5t-7.5 -6.5t-12 -3q-37 0 -90.5 42.5t-56.5 82.5zM250 289q32 0 90 14t116 45.5t66 67.5q0 20 -24 20 q-51 0 -128.5 -52.5t-119.5 -94.5z" />
<glyph unicode="l" horiz-adv-x="415" d="M-74 193q0 50 62 120q168 200 456 549q5 10 21 10q34 0 100 -41t66 -77q0 -3 -4 -11l-447 -540q-39 -47 -39 -70q2 -22 25 -22q9 0 19 3.5t23.5 12.5t25 17.5t29.5 26t31 30.5t36.5 38t38 41l43.5 48t47 51q8 8 18 8q13 0 24 -10t11 -23l-4 -10q-135 -168 -244 -270 q-77 -74 -131 -74q-43 0 -100 43t-90 94q-17 28 -17 56z" />
<glyph unicode="m" horiz-adv-x="1114" d="M-47 135v8q9 23 160 203q4 7 -3 7l-8 -3q-9 -8 -47.5 -50t-48.5 -50q-4 -4 -10 -4q-10 0 -23.5 12t-13.5 23l4 10q37 47 96.5 114t81.5 89q38 41 60 41q41 0 101 -40t60 -75q0 -11 -6 -17l-20 -24q18 15 48 39.5t47 38.5t38 30t35 25q39 27 55 27q40 0 98 -40t58 -73 q0 -9 -6 -18l-35 -46q186 154 223 154q40 0 99.5 -45.5t60.5 -81.5q1 -7 -18.5 -30.5t-66 -73t-61.5 -66.5q-6 -6 -16 -17l-15 -16.5t-12.5 -14t-11 -13.5t-7.5 -11t-5.5 -11t-1.5 -9q0 -8 6.5 -14.5t15.5 -6.5q17 0 48 23t68.5 60.5t69.5 71.5t64 70.5t39 43.5q8 8 21 8 t23.5 -8.5t10.5 -22.5l-4 -10q-98 -121 -188 -215q-64 -66 -107 -96.5t-88 -30.5q-53 0 -116 66q-19 20 -30 34.5t-20.5 37t-9.5 46.5q0 56 164 217q-192 -148 -303 -282q-59 -67 -66 -82q-4 -14 -24 -14q-33 0 -80 39.5t-47 82.5q0 14 35.5 60.5t85.5 108t71 94.5 q-56 -39 -192 -160t-201 -209q-3 -14 -20 -14q-31 0 -73 38t-42 72z" />
<glyph unicode="n" horiz-adv-x="772" d="M-53 137q1 14 42.5 69.5t82.5 104.5l41 49q0 1 -2 2l-99 -112q-6 -6 -16 -6q-13 0 -25 9t-12 21q0 11 4 15q150 176 199 231l14 15q5 8 25 8q42 0 103 -41t61 -78q0 -9 -7 -16l-51 -60q36 25 82 60t84 65t45 35q28 20 51 20q37 0 100.5 -42.5t63.5 -73.5q0 -6 -2 -11 t-4 -7l-2 -1q-7 -9 -59 -68t-100 -114t-50 -59q-14 -21 -14 -33q0 -6 5 -11.5t11 -5.5q9 0 25 9t34.5 24.5t40 35t43.5 42t42.5 44.5t39.5 43t32.5 36.5t23.5 27.5l10 11q12 10 18 10q12 0 23.5 -10.5t11.5 -22.5l-2 -10q-71 -90 -145 -172q-70 -79 -124.5 -124.5 t-96.5 -45.5h-17q-54 0 -116 59t-62 115q0 17 8 36t25 42t29.5 37.5t37 41t31.5 34.5q-73 -52 -186.5 -156.5t-155.5 -173.5q-7 -12 -22 -12q-34 0 -76.5 37t-42.5 77z" />
<glyph unicode="o" horiz-adv-x="645" d="M-39 231q2 53 63.5 126.5t143.5 126.5t139 53q37 0 86 -17.5t90 -46.5q115 -81 115 -164q0 -61 -74 -162q-42 -54 -111 -100.5t-132 -46.5h-27q-59 0 -122.5 36.5t-115.5 90.5q-55 59 -55 104zM168 164q0 -29 33 -29q24 0 64.5 25t74.5 61q80 92 80 144q0 28 -25 28 q-50 0 -145 -98q-82 -88 -82 -131z" />
<glyph unicode="p" horiz-adv-x="692" d="M-324 -70q0 21 15 39q5 8 124 148.5t236 277t117 135.5q7 7 16 7q22 0 59 -20t68 -46q73 49 129 49q59 0 123 -47q88 -69 88 -127q0 -51 -30 -104q-45 -84 -141 -163t-189 -79h-8q-117 0 -213 111q-60 -60 -189 -220q-29 -34 -53 -77q-1 -1 -3 -4.5t-3 -5.5t-4.5 -3.5 t-7.5 -1.5q-32 0 -83 41.5t-51 89.5zM170 176q0 -13 8 -22t21 -9q34 0 83 35t80 68q34 36 64.5 80.5t30.5 74.5q0 29 -27 29q-50 0 -158 -104q-35 -35 -68.5 -79.5t-33.5 -72.5z" />
<glyph unicode="q" horiz-adv-x="698" d="M-66 207q0 24 15 51q45 85 154 184t192 99q30 0 91.5 -34.5t107.5 -72.5l41 49q8 9 16 9q33 0 92 -43t59 -70q0 -6 -4 -10q-35 -49 -226.5 -278t-283.5 -363q-3 -3 -7.5 -11.5t-9.5 -12t-13 -3.5q-28 0 -65 25.5t-56 56.5q-10 17 -10 35q0 11 10 28q17 24 42.5 54 t55 62.5t33.5 37.5q-58 0 -141 70q-90 76 -93 137zM154 145q0 -13 8 -21.5t22 -8.5q35 0 91 46.5t98.5 107.5t42.5 98q0 13 -6.5 20.5t-16.5 7.5q-23 0 -67.5 -32t-89.5 -80q-82 -88 -82 -138z" />
<glyph unicode="r" horiz-adv-x="548" d="M-47 272q0 7 4 11q56 63 117 137q-15 8 -15 26q0 7 5.5 16.5t13.5 12.5l53 8q23 35 41 35q14 0 26.5 -7t12.5 -19q21 2 60.5 7.5t70 9t45.5 3.5q33 0 80 -39t47 -72q0 -3 -3 -8t-6 -9l-3 -3q-3 -3 -43 -45.5t-87.5 -94t-60.5 -67.5q-26 -32 -26 -51q0 -6 5 -12.5t11 -6.5 q20 0 61 33q30 25 87 85.5t99 108.5l42 48q10 10 18 10q12 0 23.5 -12t11.5 -25q0 -8 -86 -108q-42 -50 -72 -82.5t-73.5 -75t-82 -64t-71.5 -22.5h-18q-59 0 -127 68q-50 50 -50 100q0 41 31 80q25 34 80 90.5t88 85.5q-43 -5 -106 -8l-148 -168q-8 -8 -18 -8 q-14 0 -25.5 9.5t-11.5 22.5z" />
<glyph unicode="s" horiz-adv-x="438" d="M-125 178q0 12 8 23q8 8 54.5 61.5t112 127t114.5 124.5q21 18 41 18q44 0 138.5 -52.5t94.5 -78.5q0 -9 -10 -22q-43 -43 -90 -139q-1 -3 -32 -75t-56 -102q-43 -58 -111 -63h-12q-51 0 -119 47t-117 96q-16 19 -16 35zM-33 176q31 -31 64 -31q13 0 27 14.5t22 29.5 t18 36t11 23q4 7 20.5 44.5t35.5 72t36 53.5q-7 4 -17 -6z" />
<glyph unicode="t" horiz-adv-x="425" d="M-80 193q0 50 62 120q47 54 135 158l-54 -4q-11 0 -18.5 10t-7.5 23q0 29 33 32l106 9q20 24 96 114.5t129 155.5q5 10 21 10q34 0 100 -41.5t66 -77.5q0 -2 -4 -10l-107 -125l80 6q25 -3 25 -22q0 -15 -13.5 -30.5t-31.5 -16.5l-119 -10l-244 -291q-39 -47 -39 -70 q3 -31 37 -31q12 0 25.5 6.5t32 21t35 30.5t42.5 43.5t46 50t54.5 60.5t59.5 65q8 8 18 8q13 0 24 -10t11 -23l-4 -10q-131 -168 -240 -270q-74 -71 -129 -74h-18q-44 0 -101.5 43.5t-90.5 93.5q-17 28 -17 56z" />
<glyph unicode="u" horiz-adv-x="761" d="M-92 182q0 20 16 49.5t33.5 51.5t41.5 49.5t28 32.5q28 35 62.5 73.5t54.5 60.5l20 21q8 8 24 8q26 0 66 -20.5t69 -46.5t29 -41q0 -1 -1 -3t-1 -3q-11 -14 -29 -35.5t-35.5 -41.5t-33.5 -38.5t-25 -29.5l-10 -11q-4 -4 -10 -10.5t-21.5 -24t-27 -33t-21 -31.5t-8.5 -24 q0 -20 25 -20q12 0 30 10t34 24t38 36t36 37t33.5 37.5t24.5 27.5l170 196q3 13 23 13q37 0 96 -43t59 -72q0 -6 -2 -8l-176 -207q-26 -27 -26 -47q0 -15 18 -15q21 0 53.5 28t87.5 85q33 34 69 73.5t55 61.5l20 23q6 6 18 6q15 -3 25 -12.5t10 -18.5q0 -16 -148 -180 q-70 -79 -124.5 -124.5t-96.5 -45.5h-8q-52 0 -98 40t-66 89q-14 -18 -46 -48t-60 -50q-44 -31 -90 -31q-35 0 -79 27t-79 65q-47 53 -47 90z" />
<glyph unicode="v" horiz-adv-x="540" d="M-92 180q0 40 41 92q2 4 31 39.5t71 84.5t72 81q12 12 27 12q42 0 105.5 -40.5t63.5 -67.5q0 -6 -4 -10l-153 -181q-45 -55 -45 -73q0 -19 22 -19q19 0 58 27q43 31 90.5 83.5t70.5 84.5q20 25 39 63q-16 16 -16 62q0 49 27 94t75 45q35 0 53.5 -26t18.5 -58 q0 -46 -29 -104q-53 -97 -136.5 -194.5t-170.5 -147.5q-47 -24 -86 -27h-8q-60 0 -129 55q-88 70 -88 125z" />
<glyph unicode="w" horiz-adv-x="884" d="M-94 182q0 23 22 62q15 23 69.5 89t102.5 121l47 54q8 8 27 8q40 0 99 -39t59 -63l-33 -45l-133 -166q-43 -54 -43 -70q0 -20 14 -20q24 0 54.5 26t84.5 84q36 39 108 127t81 101q12 14 24 14q39 0 97.5 -35t58.5 -63q0 -9 -4 -13l-145 -184q-25 -31 -25 -51 q0 -19 21 -19q51 4 135.5 106.5t113.5 164.5q-14 14 -14 63q0 51 24.5 89t67.5 38q35 0 53.5 -26.5t18.5 -57.5q0 -93 -146 -274q-158 -203 -274 -203h-10q-100 9 -172 125q-120 -125 -176 -125q-59 0 -133 63.5t-74 118.5z" />
<glyph unicode="x" horiz-adv-x="610" d="M-102 55q0 9 4 13q66 38 186 120q-8 36 -8 82q0 44 4 64q-61 -76 -86 -98q-5 -5 -12 -5q-12 0 -23.5 10.5t-11.5 22.5q0 11 6 17q29 33 93 108.5t87 99.5q7 13 33 13q41 0 101.5 -29.5t60.5 -64.5q-12 -46 -23 -107q100 69 242 186q15 13 20 13q18 0 41 -20.5t23 -39.5 q0 -11 -10 -18l-320 -221q14 -60 60 -60q25 0 69 29q41 28 94.5 80t87.5 90l33 39q9 6 15 6q12 0 24 -10.5t12 -22.5q0 -4 -4 -12q-38 -49 -79.5 -97t-103 -108.5t-126 -97.5t-117.5 -37q-58 0 -92 29t-63 84l-170 -113q-13 0 -30 20t-17 35z" />
<glyph unicode="y" horiz-adv-x="657" d="M-150 -94q0 10 10.5 19t20.5 9q9 0 15 -6q47 -39 96 -39q54 0 122.5 59t121.5 134q-86 -82 -134 -82h-8q-56 0 -125 64t-69 116q0 23 26 60q14 22 68.5 88.5t103 122t49.5 55.5q8 8 23 8q39 0 99.5 -40t60.5 -64q0 -1 -1 -3.5t-1 -3.5l-187 -231q-26 -31 -26 -49 q0 -7 5 -13t15 -6q15 0 43 22t51 46t50.5 54t31.5 34l174 213q14 19 33 19q37 -7 91.5 -45.5t54.5 -65.5q0 -3 -3 -9t-9.5 -15t-12 -16t-15 -18.5t-14.5 -17.5l-311 -401q-110 -139 -236 -142q-52 0 -112.5 40.5t-95.5 93.5q-5 6 -5 10z" />
<glyph unicode="z" horiz-adv-x="454" d="M-362 -201q0 39 24 76q45 67 149 120.5t212 88.5q50 16 77 22q-19 30 -75 35h-17q-18 7 -18 31q0 20 14 23q36 5 98.5 56t92.5 103q14 25 14 49q0 7 -5 12t-11 5q-12 0 -43 -25q-19 -17 -43 -42.5t-51.5 -55.5t-37.5 -41q-6 -6 -14 -6q-13 0 -25 12.5t-12 24.5l4 10 q92 113 131 152q39 41 68 62t61 21q62 0 133.5 -46.5t71.5 -98.5q0 -26 -22 -65q-39 -72 -118 -114.5t-169 -45.5q35 -13 61 -39q57 8 121 8q68 0 68 -35q0 -13 -7.5 -24t-15.5 -11q-30 9 -63 9q-28 0 -68 -7q4 -20 4 -34q0 -96 -61.5 -184.5t-156.5 -140.5t-193 -52 q-87 0 -140 59q-38 44 -38 88zM-262 -172q3 -12 26 -12q20 0 66 12q47 17 105.5 51t105.5 76q53 56 65 86q-112 -27 -208 -78q-160 -86 -160 -135z" />
<glyph unicode="{" horiz-adv-x="704" d="M0 117q0 20 18 47q45 69 177 235q8 11 8 27q0 11 -8.5 35t-8.5 37q0 16 11 30q19 23 108.5 70.5t108.5 71.5q34 41 88.5 109.5t72.5 90.5q9 19 39 19q86 8 183 8q32 0 47.5 -0.5t32 -5.5t22 -12t11.5 -23.5t7.5 -36.5t2.5 -55q0 -35 -48 -35q-33 0 -198 -6l-135 -154 q-16 -19 -86 -46t-93 -54q-6 -9 -6 -16q0 -12 12.5 -36t12.5 -34t-8 -18q-141 -168 -156 -187h23q143 0 161 -14q31 -21 33 -117q0 -19 -7.5 -27t-29.5 -8h-45q-36 0 -125.5 -4t-130.5 -4q-27 0 -56.5 35.5t-37.5 77.5z" />
<glyph unicode="|" horiz-adv-x="444" d="M-113 106q0 32 17 58q81 120 516 665q10 19 37 19q44 0 82.5 -31t38.5 -61q0 -6 -7 -13q-322 -372 -589 -725q-5 -10 -11 -12q-37 4 -60.5 33t-23.5 67z" />
<glyph unicode="}" horiz-adv-x="659" d="M-68 139q0 35 48 35q45 0 210 6q3 4 140 174q16 19 85.5 46.5t92.5 54.5q6 9 6 16q0 12 -10 41t-10 39q0 12 12 24l119 150q-29 0 -65 -1t-48 -1q-39 0 -53 1t-26.5 14.5t-14 34.5t-2.5 71q0 20 7 30.5t28 10.5q298 10 301 10q21 0 51.5 -32.5t40.5 -78.5 q0 -43 -166 -252q-8 -11 -8 -26q0 -11 5 -41t5 -43q0 -18 -10 -31q-19 -23 -108.5 -70t-108.5 -71q-150 -196 -203 -232q-23 -14 -92 -14h-144q-28 0 -53.5 32.5t-28.5 102.5z" />
<glyph unicode="~" horiz-adv-x="622" d="M92 420q0 29 6 29q5 0 11 -7.5t20.5 -15.5t40.5 -8q37 0 115.5 19.5t122.5 19.5q57 0 95 -49.5t38 -114.5q0 -13 -4 -25l-5 3q-5 3 -10.5 6.5t-15.5 8t-20 7.5t-24 5.5t-28 2.5q-39 0 -117 -22.5t-112 -22.5q-31 0 -54.5 17.5t-35.5 45t-17.5 53t-5.5 48.5z" />
<glyph unicode="&#xa1;" horiz-adv-x="438" d="M31 121q0 6 8 14q233 273 434 527q5 10 10 12q38 -6 84 -45q45 -40 47 -70q0 -23 -32 -67q-55 -76 -145.5 -194.5t-152.5 -197.5l-63 -80q-9 -18 -33 -18q-42 0 -99.5 44t-57.5 75zM535 758q0 21 45 77t71 56q40 0 93 -39t53 -61q0 -32 -47 -88t-70 -56q-41 0 -93 41.5 t-52 69.5z" />
<glyph unicode="&#xa2;" horiz-adv-x="331" d="M-51 80l104 137q-63 54 -67 92q0 23 18 64q33 60 114 125.5t144 68.5q36 0 70 -18q9 11 23 28.5t24.5 30t21.5 26t18.5 21t10.5 9.5q2 0 7.5 -4t6.5 -7q0 -11 -88 -116q47 -36 50 -62q0 -18 -37.5 -67.5t-55.5 -49.5q-19 0 -42 19t-23 39q5 17 57 63q-43 -6 -119.5 -71.5 t-76.5 -118.5q0 -25 24 -25q22 1 52.5 21.5t53.5 40.5t27 20q15 0 38.5 -18t25.5 -29q-3 -18 -40 -54.5t-63 -51.5q-38 -25 -67 -25q-36 0 -82 31q-18 -20 -47 -53.5t-47 -55t-21 -22.5q-1 -1 -4.5 2t-6.5 6z" />
<glyph unicode="&#xa3;" horiz-adv-x="663" d="M0 319q0 14 7 23t15 12t22 7t19 6q49 18 87 59l-23 -2q-37 0 -37 94q0 9 7 17t16 8h125l28 39q179 262 305 262q43 0 124 -50t81 -92q0 -6 -12 -34q-15 -33 -64.5 -89.5t-68.5 -56.5q-30 0 -67.5 30t-37.5 54q0 6 7 16t20 24t25.5 26t30 29t26.5 26q-92 -37 -199 -174 l-12 -16q81 -4 96 -15q10 -8 10 -28v-60q0 -14 -5.5 -20t-22.5 -6q-27 0 -183 8q-44 -47 -73 -70l96 -31q70 -24 117 -24q40 0 102 20q-23 -72 -72.5 -114.5t-103.5 -42.5q-49 0 -106.5 24t-110.5 48t-90 24q-5 0 -16 -1t-15 -1q-21 0 -34 21.5t-13 49.5z" />
<glyph unicode="&#xa5;" horiz-adv-x="585" d="M0 219q0 22 18 49l31 33q-14 3 -19 18t-5 52q0 6 2 11t6 8.5t8 6t11.5 3.5t14 2t16.5 1h16.5h18.5h19l17 21q-23 0 -31 10t-8 51q0 12 5.5 19t19.5 10t24.5 4t33.5 1.5t33 0.5q-1 38 -6.5 116t-5.5 128q7 22 34 33.5t58 11.5q18 0 32.5 -7.5t14.5 -15.5l13 -155l168 174 q14 14 28 14q30 0 70.5 -30t40.5 -52q0 -7 -6 -10l-209 -207q38 -9 41 -65q0 -29 -31 -29h-106l-19 -18q26 0 40 -1.5t30 -8t23 -22t8 -40.5q0 -29 -31 -29h-39q-19 0 -65 -1t-70 -1q-118 -115 -164 -164q0 -5 -8 -8q-21 4 -46.5 29t-25.5 57z" />
<glyph unicode="&#xa8;" horiz-adv-x="575" d="M236 664q0 50 35 90.5t85 40.5q44 -1 65 -30.5t21 -57.5q0 -44 -37.5 -86.5t-87.5 -42.5q-36 0 -58.5 24.5t-22.5 61.5zM471 672q0 52 37 94.5t90 42.5q46 -1 68 -31.5t22 -60.5q0 -45 -39.5 -90t-91.5 -45q-38 0 -62 26t-24 64z" />
<glyph unicode="&#xa9;" horiz-adv-x="1050" d="M133 313q0 126 83 242.5t212 186t260 69.5q126 0 218.5 -86t92.5 -193q0 -102 -45.5 -200.5t-119 -171.5t-173.5 -117.5t-204 -44.5q-79 0 -154.5 45t-122.5 118.5t-47 151.5zM238 297q0 -86 63 -146.5t160 -60.5q109 0 212 62t166.5 161t63.5 201q0 93 -59 149t-158 56 q-74 0 -154 -36t-145 -93t-107 -136t-42 -157zM305 324q0 33 25 75q49 83 164 179q117 86 184 86q35 0 92 -36.5t57 -76.5q0 -13 -4 -21q-24 -43 -84 -100q-18 -18 -26 -18q-20 0 -47 25.5t-27 47.5q11 15 74 72q-33 -3 -112.5 -65.5t-127.5 -126.5q-39 -49 -39 -78 q0 -13 9 -22t22 -9q27 0 65 25.5t66.5 51t32.5 25.5q18 0 45.5 -23t27.5 -40q-4 -18 -47 -58t-77 -63q-50 -24 -84 -24q-37 0 -80 27.5t-72 64.5q-37 41 -37 82z" />
<glyph unicode="&#xab;" horiz-adv-x="864" d="M20 362q0 27 17 44q29 32 72 69l358 309q27 23 51 23q35 -1 71 -40.5t36 -66.5q0 -3 -7 -10l-415 -330q210 -286 211 -288q2 -2 2 -6q0 -20 -32.5 -43t-57.5 -23q-35 0 -50 20q-166 200 -211 261t-45 81zM330 362q0 28 16 44q13 14 39.5 33.5t32.5 25.5l358 295 q8 14 39 14q45 0 78 -38t33 -68q0 -5 -6 -11l-408 -297q210 -286 211 -288q2 -2 2 -6q0 -20 -32.5 -43t-57.5 -23q-34 0 -49 20q-166 200 -211 261t-45 81z" />
<glyph unicode="&#xad;" horiz-adv-x="466" d="M51 428q0 12 10 23t23 12q50 6 235 6q22 0 33 -3t22 -15.5t15 -40t4 -74.5q0 -26 -6.5 -36.5t-32.5 -10.5h-45q-36 0 -105 -3t-110 -3q-43 0 -43 145z" />
<glyph unicode="&#xae;" horiz-adv-x="1050" d="M133 313q0 126 82.5 242.5t211 186t259.5 69.5q126 0 219.5 -88.5t93.5 -198.5q0 -134 -78 -256t-203.5 -195t-260.5 -73q-122 0 -223 97t-101 216zM238 297q0 -86 63 -146.5t160 -60.5q109 0 212 62t166.5 161t63.5 201q0 93 -59 149t-158 56q-102 0 -206 -59.5 t-173 -158.5t-69 -204zM295 274q0 17 12 35q42 56 211 256q-6 26 -6 49q4 15 56 24t85 9q66 0 117 -31t51 -94q0 -66 -65 -122t-150 -76l76 -70q4 -4 4 -6q0 -17 -20 -38t-39 -22q-18 10 -79.5 57t-103.5 70l-82 -98q-1 -1 -2 -3q0 -2 -0.5 -2.5t-1.5 -0.5q-23 5 -41.5 22 t-21.5 41zM535 420q56 8 109 29.5t75 46.5q8 12 8 14q0 22 -55 22q-23 0 -35 -6z" />
<glyph unicode="&#xb0;" horiz-adv-x="309" d="M164 631q0 70 78 143.5t151 73.5q44 -7 82.5 -36.5t38.5 -68.5q0 -87 -90 -165q-32 -28 -66.5 -45t-54.5 -17q-49 0 -94 35.5t-45 79.5zM264 594q4 2 11.5 6.5t29 20t40.5 34t42.5 50t40.5 65.5q-5 -2 -12.5 -7t-30 -22t-42 -35.5t-42.5 -49t-37 -62.5z" />
<glyph unicode="&#xb1;" horiz-adv-x="665" d="M20 256q0 12 10 23t23 12q82 12 187 12q81 0 104 -18q16 -11 21 -27t6 -72q0 -18 -7.5 -26t-29.5 -8h-45q-36 0 -106 -3.5t-111 -3.5q-52 0 -52 111zM186 414q0 14 25 51l45 63h-27q-36 0 -36 99q0 9 6.5 16t17.5 8q24 4 135 4q33 43 63.5 81t43 53t12.5 16q6 12 23 12 q32 0 73 -31.5t41 -54.5q0 -2 -2.5 -5.5t-3.5 -4.5q-24 -27 -53 -62q25 0 37.5 -0.5t25 -4.5t17 -9t9 -18t5.5 -27.5t2 -42.5q0 -25 -27 -25h-32q-83 0 -146 -2q-60 -72 -151 -190l-8 -8q-16 2 -37.5 14.5t-38.5 31.5t-19 36z" />
<glyph unicode="&#xb4;" horiz-adv-x="438" d="M195 635q0 12 6 18q12 14 126.5 93.5t157.5 103.5q26 0 66.5 -49.5t40.5 -77.5q-2 -14 -17 -23l-288 -159q-11 -6 -17 -6q-28 10 -51.5 42t-23.5 58z" />
<glyph unicode="&#xb7;" horiz-adv-x="303" d="M20 365q0 32 47 87.5t70 55.5q41 0 93.5 -41.5t52.5 -69.5q0 -21 -48.5 -81t-74.5 -60q-40 0 -90 43t-50 66z" />
<glyph unicode="&#xb8;" horiz-adv-x="176" d="M-72 -127q0 17 9 29q8 -21 61 -21q50 0 90 31q10 10 10 14t-20 4q-18 0 -64 -12q-10 0 -22 15.5t-12 25.5q0 5 6 14l110 125q2 4 13 4q14 0 30.5 -10t16.5 -20q0 -4 -2 -6l-84 -89q12 3 20 3q27 0 45.5 -16t18.5 -42q0 -47 -49.5 -77.5t-102.5 -30.5q-74 0 -74 59z" />
<glyph unicode="&#xba;" horiz-adv-x="391" d="M225 672q0 58 58.5 111t119.5 53q37 -7 69 -31.5t32 -56.5q0 -70 -62 -121q-26 -23 -55 -37.5t-45 -14.5q-41 0 -79 30t-38 67zM299 647q0 -12 14 -12q26 0 54 22q44 37 61 76q8 20 8 33q0 12 -12 12q-14 0 -35 -14q-23 -15 -45.5 -39.5t-30.5 -38.5q-14 -23 -14 -39z " />
<glyph unicode="&#xbb;" horiz-adv-x="901" d="M-41 100q0 5 6 11l395 317q-202 275 -206 287q-2 2 -2 6q0 20 40.5 49t65.5 29q33 0 49 -21q52 -63 145 -192.5t93 -159.5q0 -24 -21 -45q-38 -41 -71 -70l-359 -297q-8 -14 -39 -14q-44 0 -70 34t-26 66zM295 100q0 5 6 11l395 317q-204 277 -207 287q-2 2 -2 6 q0 20 41 49t66 29q33 0 49 -21q52 -63 145 -192.5t93 -159.5q0 -24 -21 -45q-34 -37 -72 -70l-358 -297q-8 -14 -39 -14q-44 0 -70 34t-26 66z" />
<glyph unicode="&#xbc;" horiz-adv-x="765" d="M20 393q1 11 20 36t57.5 69.5t60.5 72.5q-21 14 -21 35q0 2 8.5 10t22 18.5t29.5 23l32 25t29.5 22.5t22.5 16l8 6q6 6 18 6q21 -1 50.5 -23t29.5 -34q0 -4 -2 -6q-34 -36 -109.5 -121t-133.5 -152l-58 -67q-21 3 -42.5 23t-21.5 40zM23 113q0 22 108.5 154t254.5 299.5 t177 205.5q3 12 21 12q27 0 52.5 -18.5t25.5 -36.5q0 -1 -109.5 -121t-256 -286.5t-218.5 -260.5q0 -5 -6 -8q-22 3 -35.5 20t-13.5 40zM283 207q0 8 16 24q28 25 55 47t48 39t40.5 32t34.5 26t28 20t22 14.5t15.5 9.5t10 5.5t4.5 1.5q36 0 86 -31t51 -59q-38 -57 -96 -127 l33 2q10 -3 10 -16q0 -16 -8 -35t-23 -19l-75 -6q-89 -119 -97 -119q-22 2 -43.5 17t-21.5 35q0 14 8 24l27 37l-52 -4l-22 -2q-21 0 -36 25t-15 59zM403 197l60 6l106 133q-24 -21 -65 -55t-70.5 -58.5t-30.5 -25.5z" />
<glyph unicode="&#xbd;" horiz-adv-x="806" d="M20 393q1 11 20 36t57.5 69.5t60.5 72.5q-21 14 -21 35q0 2 8.5 10t22 18.5t29.5 23l32 25t29.5 22.5t22.5 16l8 6q6 6 18 6q21 -1 50.5 -23t29.5 -34q0 -4 -2 -6q-34 -36 -109.5 -121t-133.5 -152l-58 -67q-21 3 -42.5 23t-21.5 40zM23 113q0 22 108.5 154t254.5 299.5 t177 205.5q3 12 21 12q27 0 52.5 -18.5t25.5 -36.5q0 -1 -109.5 -121t-256 -286.5t-218.5 -260.5q0 -5 -6 -8q-22 3 -35.5 20t-13.5 40zM305 174q0 11 53 39t116 57t116 59.5t53 45.5q0 6 -20 6q-24 0 -64 -10.5t-67 -24.5q-14 3 -26.5 37t-12.5 53q0 9 21.5 21t62 21 t84.5 9q28 0 49 -8t33.5 -21t19.5 -32t9.5 -37t2.5 -41q0 -26 -29 -53.5t-73.5 -50.5t-89 -40.5t-84.5 -29.5q24 0 52.5 1t33.5 1q19 0 26 -11.5t7 -47.5v-21q0 -6 -2.5 -7t-12.5 -1l-213 -12q-21 1 -33 35t-12 63z" />
<glyph unicode="&#xbe;" horiz-adv-x="849" d="M20 449q0 6 3 17t6 18.5t4 7.5q22 -27 82 -27q40 0 80 16t43 29q0 14 -35 14q-4 0 -14.5 -1t-12.5 -1q-8 0 -13 17.5t-5 31.5q0 7 23 15t30 8q123 34 123 63q-3 9 -21 9q-77 0 -127 -29q-13 3 -24.5 37.5t-11.5 54.5q0 14 46 27.5t109 13.5h10q61 0 86 -38.5t25 -94.5 q0 -31 -38 -55t-97 -37q26 -23 26 -60q0 -57 -59 -93t-125 -36q-58 6 -85.5 27t-27.5 66zM106 113q0 22 109 154t255 299t177 206q3 12 21 12q27 0 52 -18.5t25 -36.5q0 -2 -109.5 -122t-255.5 -286.5t-218 -259.5q0 -5 -6 -8q-23 3 -36.5 20t-13.5 40zM367 207q0 8 16 24 q80 69 142.5 116.5t87 63t28.5 15.5q36 0 86 -31t51 -59q-38 -57 -96 -127l33 2q10 -2 10 -16q0 -16 -8 -35t-23 -19l-76 -6q-88 -119 -96 -119q-22 2 -43.5 17t-21.5 35q0 14 8 24l27 37l-52 -4l-22 -2q-21 0 -36 25t-15 59zM487 197l60 6l106 133q-24 -21 -65 -55 t-70.5 -58.5t-30.5 -25.5z" />
<glyph unicode="&#xbf;" horiz-adv-x="712" d="M92 264q0 40 27 74q14 15 47 34t85 45.5t83 45.5q6 4 33.5 20t37 22t31 20.5t32 25t23.5 25.5t21 30q5 21 27 21q41 0 85 -45t44 -86q0 -52 -78 -107q-31 -21 -76 -45t-77.5 -39t-75 -34t-50.5 -23q-24 -10 -24 -19q0 -12 41 -12q48 0 133 18t145 52q30 -5 55 -74.5 t25 -112.5q0 -20 -43 -43t-128 -41t-185 -18q-115 0 -176.5 68t-61.5 198zM582 717q2 22 49.5 77.5t73.5 55.5q34 -2 87.5 -42t53.5 -73q0 -29 -47.5 -81t-69.5 -52q-33 0 -90 45.5t-57 69.5z" />
<glyph unicode="&#xc0;" d="M-72 152q0 25 25 47l135 116q-6 21 -6 33q0 16 9 25.5t17 10.5l9 1l59 4q239 199 608 485q15 11 39 11q65 0 174 -72q115 -80 115 -129q0 -14 -12 -29q-67 -90 -200 -245.5t-189 -225.5q-37 -47 -37 -65q0 -8 6 -14.5t16 -6.5q25 0 64 31q29 23 85 80t97 103l41 46 q9 9 18 9q14 0 22.5 -9.5t8.5 -19.5q0 -6 -4.5 -15.5t-9.5 -15.5l-4 -6q-93 -115 -187 -209q-96 -92 -168 -92q-61 0 -123.5 56.5t-62.5 119.5q0 34 14 66q-34 -1 -168 -11q-161 -138 -235 -217q-2 -10 -14 -10q-46 0 -94 50.5t-48 97.5zM518 401h100q89 98 232 275 q-209 -171 -332 -275zM905 1042q0 27 50.5 61t84.5 34q4 0 9 -3.5t8 -7t8 -10t6 -8.5q9 -13 29 -39.5t35.5 -48.5t32 -44.5t25.5 -37.5t9 -18q0 -26 -35.5 -54t-64.5 -28q-16 0 -19 8l-172 178q-6 8 -6 18z" />
<glyph unicode="&#xc1;" d="M-72 152q0 25 25 47l135 116q-6 21 -6 33q0 16 9 25.5t17 10.5l9 1l59 4q239 199 608 485q15 11 39 11q65 0 174 -72q115 -80 115 -129q0 -14 -12 -29q-67 -90 -200 -245.5t-189 -225.5q-37 -47 -37 -65q0 -8 6 -14.5t16 -6.5q25 0 64 31q29 23 85 80t97 103l41 46 q9 9 18 9q14 0 22.5 -9.5t8.5 -19.5q0 -6 -4.5 -15.5t-9.5 -15.5l-4 -6q-93 -115 -187 -209q-96 -92 -168 -92q-61 0 -123.5 56.5t-62.5 119.5q0 34 14 66q-34 -1 -168 -11q-161 -138 -235 -217q-2 -10 -14 -10q-46 0 -94 50.5t-48 97.5zM518 401h100q89 98 232 275 q-209 -171 -332 -275zM926 965q0 11 6 14q11 12 118.5 84.5t147.5 93.5q24 0 66.5 -46t42.5 -71q-2 -11 -17 -20l-274 -139q-11 -7 -17 -7q-28 9 -50.5 38t-22.5 53z" />
<glyph unicode="&#xc2;" d="M-72 152q0 25 25 47l135 116q-6 21 -6 33q0 16 9 25.5t17 10.5l9 1l59 4q239 199 608 485q15 11 39 11q65 0 174 -72q115 -80 115 -129q0 -14 -12 -29q-67 -90 -200 -245.5t-189 -225.5q-37 -47 -37 -65q0 -8 6 -14.5t16 -6.5q25 0 64 31q29 23 85 80t97 103l41 46 q9 9 18 9q14 0 22.5 -9.5t8.5 -19.5q0 -6 -4.5 -15.5t-9.5 -15.5l-4 -6q-93 -115 -187 -209q-96 -92 -168 -92q-61 0 -123.5 56.5t-62.5 119.5q0 34 14 66q-34 -1 -168 -11q-161 -138 -235 -217q-2 -10 -14 -10q-46 0 -94 50.5t-48 97.5zM518 401h100q89 98 232 275 q-209 -171 -332 -275zM891 971q0 16 10 24q2 1 6 3.5l16 10t23.5 15t28 17.5t30.5 18.5t29 17t26.5 14.5t20 9.5t11.5 3.5q9 2 45 -41t69.5 -87t34.5 -44q-39 -45 -86 -45q-10 0 -23 8t-25 21.5t-21.5 25t-18.5 24t-10 13.5q-23 -8 -101 -59q-11 -7 -16 -7q-18 0 -33.5 18.5 t-15.5 39.5z" />
<glyph unicode="&#xc3;" d="M-72 152q0 25 25 47l135 116q-6 21 -6 33q0 16 9 25.5t17 10.5l9 1l59 4q239 199 608 485q15 11 39 11q65 0 174 -72q115 -80 115 -129q0 -14 -12 -29q-67 -90 -200 -245.5t-189 -225.5q-37 -47 -37 -65q0 -8 6 -14.5t16 -6.5q25 0 64 31q29 23 85 80t97 103l41 46 q9 9 18 9q14 0 22.5 -9.5t8.5 -19.5q0 -6 -4.5 -15.5t-9.5 -15.5l-4 -6q-93 -115 -187 -209q-96 -92 -168 -92q-61 0 -123.5 56.5t-62.5 119.5q0 34 14 66q-34 -1 -168 -11q-161 -138 -235 -217q-2 -10 -14 -10q-46 0 -94 50.5t-48 97.5zM518 401h100q89 98 232 275 q-209 -171 -332 -275zM842 1036q0 25 6 25q4 0 9 -6.5t17 -13.5t33 -7q32 0 99 17.5t104 17.5q49 0 82 -42.5t33 -98.5q0 -9 -4 -21q-3 3 -12 8.5t-30.5 13t-43.5 7.5q-34 0 -101 -19.5t-96 -19.5q-50 0 -73 46t-23 93z" />
<glyph unicode="&#xc4;" d="M-72 152q0 25 25 47l135 116q-6 21 -6 33q0 16 9 25.5t17 10.5l9 1l59 4q239 199 608 485q15 11 39 11q65 0 174 -72q115 -80 115 -129q0 -14 -12 -29q-67 -90 -200 -245.5t-189 -225.5q-37 -47 -37 -65q0 -8 6 -14.5t16 -6.5q25 0 64 31q29 23 85 80t97 103l41 46 q9 9 18 9q14 0 22.5 -9.5t8.5 -19.5q0 -6 -4.5 -15.5t-9.5 -15.5l-4 -6q-93 -115 -187 -209q-96 -92 -168 -92q-61 0 -123.5 56.5t-62.5 119.5q0 34 14 66q-34 -1 -168 -11q-161 -138 -235 -217q-2 -10 -14 -10q-46 0 -94 50.5t-48 97.5zM518 401h100q89 98 232 275 q-209 -171 -332 -275zM883 1001q0 43 33 80t77 37q39 -1 58.5 -27t19.5 -53q0 -39 -34.5 -77.5t-78.5 -38.5q-35 0 -55 21.5t-20 57.5zM1073 928q0 48 35.5 88.5t85.5 40.5q44 -1 64 -29.5t20 -58.5q0 -42 -37 -84.5t-86 -42.5q-36 0 -59 25t-23 61z" />
<glyph unicode="&#xc5;" d="M-72 152q0 25 25 47l135 116q-6 21 -6 33q0 16 9 25.5t17 10.5l9 1l59 4q239 199 608 485q15 11 39 11q65 0 174 -72q115 -80 115 -129q0 -14 -12 -29q-67 -90 -200 -245.5t-189 -225.5q-37 -47 -37 -65q0 -8 6 -14.5t16 -6.5q25 0 64 31q29 23 85 80t97 103l41 46 q9 9 18 9q14 0 22.5 -9.5t8.5 -19.5q0 -6 -4.5 -15.5t-9.5 -15.5l-4 -6q-93 -115 -187 -209q-96 -92 -168 -92q-61 0 -123.5 56.5t-62.5 119.5q0 34 14 66q-34 -1 -168 -11q-161 -138 -235 -217q-2 -10 -14 -10q-46 0 -94 50.5t-48 97.5zM518 401h100q89 98 232 275 q-209 -171 -332 -275zM969 936q0 53 56.5 102t111.5 49q27 -2 58.5 -26t31.5 -55q0 -62 -56 -111q-56 -47 -94 -47q-39 0 -73.5 27t-34.5 61zM1040 920q0 -5 4.5 -10t8.5 -5q25 0 47 19q61 53 61 94q0 12 -12 12q-15 0 -31.5 -10t-31 -26t-22 -26l-13.5 -18q-11 -20 -11 -30 z" />
<glyph unicode="&#xc6;" horiz-adv-x="1089" d="M-152 137q0 27 23 53q159 174 385 395t295 279q30 27 67 27q40 0 103 -24t115 -56l6 8q0 30 22 39q23 8 94.5 14.5t143.5 6.5q77 0 130 -7t62 -18q21 -26 21 -78q0 -30 -7.5 -59.5t-23.5 -34.5q-12 2 -53 2q-111 0 -221 -16l-140 -150q44 2 101 2q55 0 73 -10 q25 -17 25 -68q0 -31 -7 -59.5t-18 -28.5q-2 0 -12.5 1t-15.5 1q-173 -5 -328 -34l-98 -107q105 10 244 10q47 0 61 -31.5t14 -138.5q0 -12 -4.5 -14t-25.5 -2l-414 -37q-44 0 -100 52t-56 89q0 31 39 84l-151 -12q-46 -37 -103.5 -96.5t-85.5 -95.5q-3 -2 -6 -5.5t-4.5 -6 t-4.5 -4t-7 -1.5q-36 0 -86.5 47.5t-51.5 83.5zM344 375l111 8q31 41 83.5 115t89.5 128l36 54q-36 -31 -86.5 -79.5t-120.5 -116.5t-113 -109z" />
<glyph unicode="&#xc7;" horiz-adv-x="653" d="M-76 -68q0 24 17 41q5 -34 77 -34q29 0 57.5 10t28.5 20q0 5 -11 8t-30.5 2.5t-42.5 -4.5q-7 2 -14 13t-10.5 20.5t-3.5 11.5q0 6 10 13l70 57q-63 54 -103.5 120.5t-40.5 123.5q0 115 197 309q79 77 208.5 156t217.5 80h18q37 0 96.5 -38t105.5 -89t46 -84 q0 -31 -133 -170q-88 -92 -113 -92q-39 0 -86 46t-47 85q0 11 34 45t81.5 76t54.5 49q-76 -32 -164 -102t-143 -128q-133 -138 -133 -239q0 -54 43 -93t100 -39q37 0 78.5 16.5t74.5 38t76.5 60.5t69 65t66.5 70q9 6 14 6q11 0 21 -8t10 -18q0 -13 -8 -21q-16 -24 -45 -61 q-49 -60 -114 -121t-128 -96q-73 -39 -139 -39q-79 0 -164 53l-39 -28h8q66 0 66 -62v-8q-6 -35 -47.5 -58.5t-92.5 -23.5q-45 0 -69.5 17t-24.5 44z" />
<glyph unicode="&#xc8;" horiz-adv-x="684" d="M0 207q0 30 10.5 57.5t30 50t44 42t55.5 35t61.5 28t64.5 22.5t61 16.5t56 12.5q-145 22 -190 94q-25 41 -25 105q0 42 25 71q39 44 125 77.5t172.5 48t158.5 14.5q56 0 86 -2t62.5 -13t50.5 -32q41 -47 41 -183q0 -37 -15 -61q-11 -15 -56 -28.5t-91.5 -20t-75.5 -6.5 q-12 6 -21 29t-9 46q0 40 22 45q39 11 127 21l-35 2q-38 0 -102.5 -7.5t-133 -20t-118 -33.5t-49.5 -44q0 -18 78 -34q24 -5 49.5 -8.5t42 -4.5t34 -3t28 -4.5t21 -7.5t16 -13t10 -21.5t6 -31.5t1.5 -44q0 -49 -12 -49q-77 -21 -135.5 -41t-123.5 -48t-100.5 -61.5 t-35.5 -68.5q0 -24 24.5 -37.5t61.5 -13.5q46 0 99 22.5t95 52t91.5 75.5t76 75t60.5 68q6 6 18 6t22.5 -8.5t10.5 -20.5t-8 -20q-39 -52 -89.5 -105.5t-114 -108t-134 -90t-131.5 -36.5h-27q-41 0 -85 13t-85.5 38t-68.5 68t-27 96zM489 1036q0 14 10 35.5t24.5 40.5t33 33 t33.5 14q18 0 33 -12q17 -11 70.5 -45.5t85.5 -56t34 -25.5t2 -14q0 -26 -22 -57.5t-45 -39.5q-16 -5 -21 0l-223 103q-15 6 -15 24z" />
<glyph unicode="&#xc9;" horiz-adv-x="684" d="M0 207q0 30 10.5 57.5t30 50t44 42t55.5 35t61.5 28t64.5 22.5t61 16.5t56 12.5q-145 22 -190 94q-25 41 -25 105q0 42 25 71q39 44 125 77.5t172.5 48t158.5 14.5q56 0 86 -2t62.5 -13t50.5 -32q41 -47 41 -183q0 -37 -15 -61q-11 -15 -56 -28.5t-91.5 -20t-75.5 -6.5 q-12 6 -21 29t-9 46q0 40 22 45q39 11 127 21l-35 2q-38 0 -102.5 -7.5t-133 -20t-118 -33.5t-49.5 -44q0 -18 78 -34q24 -5 49.5 -8.5t42 -4.5t34 -3t28 -4.5t21 -7.5t16 -13t10 -21.5t6 -31.5t1.5 -44q0 -49 -12 -49q-77 -21 -135.5 -41t-123.5 -48t-100.5 -61.5 t-35.5 -68.5q0 -24 24.5 -37.5t61.5 -13.5q46 0 99 22.5t95 52t91.5 75.5t76 75t60.5 68q6 6 18 6t22.5 -8.5t10.5 -20.5t-8 -20q-39 -52 -89.5 -105.5t-114 -108t-134 -90t-131.5 -36.5h-27q-41 0 -85 13t-85.5 38t-68.5 68t-27 96zM449 987q0 13 8 17q11 11 116.5 69.5 t145.5 75.5q21 4 56.5 -43.5t35.5 -73.5q0 -2 -1.5 -5t-6 -7.5t-10.5 -7.5l-265 -109q-12 -4 -18 -4q-25 12 -43 38.5t-18 49.5z" />
<glyph unicode="&#xca;" horiz-adv-x="684" d="M0 207q0 30 10.5 57.5t30 50t44 42t55.5 35t61.5 28t64.5 22.5t61 16.5t56 12.5q-145 22 -190 94q-25 41 -25 105q0 42 25 71q39 44 125 77.5t172.5 48t158.5 14.5q56 0 86 -2t62.5 -13t50.5 -32q41 -47 41 -183q0 -37 -15 -61q-11 -15 -56 -28.5t-91.5 -20t-75.5 -6.5 q-12 6 -21 29t-9 46q0 40 22 45q39 11 127 21l-35 2q-38 0 -102.5 -7.5t-133 -20t-118 -33.5t-49.5 -44q0 -18 78 -34q24 -5 49.5 -8.5t42 -4.5t34 -3t28 -4.5t21 -7.5t16 -13t10 -21.5t6 -31.5t1.5 -44q0 -49 -12 -49q-77 -21 -135.5 -41t-123.5 -48t-100.5 -61.5 t-35.5 -68.5q0 -24 24.5 -37.5t61.5 -13.5q46 0 99 22.5t95 52t91.5 75.5t76 75t60.5 68q6 6 18 6t22.5 -8.5t10.5 -20.5t-8 -20q-39 -52 -89.5 -105.5t-114 -108t-134 -90t-131.5 -36.5h-27q-41 0 -85 13t-85.5 38t-68.5 68t-27 96zM485 971q0 17 9 24q170 127 188 127 q7 1 33 -23.5t54 -55.5t51 -56.5t24 -25.5q-37 -49 -82 -52q-9 0 -35 13q-3 2 -9 7.5t-12 12t-13 14t-13.5 14.5t-11.5 12.5t-8 9.5l-3 3q-86 -57 -102 -71q-9 -6 -16 -6q-19 0 -36 16t-18 37z" />
<glyph unicode="&#xcb;" horiz-adv-x="684" d="M0 207q0 30 10.5 57.5t30 50t44 42t55.5 35t61.5 28t64.5 22.5t61 16.5t56 12.5q-145 22 -190 94q-25 41 -25 105q0 42 25 71q39 44 125 77.5t172.5 48t158.5 14.5q56 0 86 -2t62.5 -13t50.5 -32q41 -47 41 -183q0 -37 -15 -61q-11 -15 -56 -28.5t-91.5 -20t-75.5 -6.5 q-12 6 -21 29t-9 46q0 40 22 45q39 11 127 21l-35 2q-38 0 -102.5 -7.5t-133 -20t-118 -33.5t-49.5 -44q0 -18 78 -34q24 -5 49.5 -8.5t42 -4.5t34 -3t28 -4.5t21 -7.5t16 -13t10 -21.5t6 -31.5t1.5 -44q0 -49 -12 -49q-77 -21 -135.5 -41t-123.5 -48t-100.5 -61.5 t-35.5 -68.5q0 -24 24.5 -37.5t61.5 -13.5q46 0 99 22.5t95 52t91.5 75.5t76 75t60.5 68q6 6 18 6t22.5 -8.5t10.5 -20.5t-8 -20q-39 -52 -89.5 -105.5t-114 -108t-134 -90t-131.5 -36.5h-27q-41 0 -85 13t-85.5 38t-68.5 68t-27 96zM416 989q0 45 34 84t82 39q42 -1 62 -28 t20 -56q0 -41 -35.5 -82t-82.5 -41q-36 0 -58 23.5t-22 60.5zM635 997q0 48 35.5 88.5t85.5 40.5q30 -1 50.5 -17.5t27 -35t6.5 -35.5q0 -26 -15.5 -55t-45 -50.5t-62.5 -21.5q-36 0 -59 25t-23 61z" />
<glyph unicode="&#xcc;" horiz-adv-x="1005" d="M-16 326q0 73 47 73q34 0 153.5 -20t157.5 -29q16 -3 16 -18q0 -41 -39 -41q-231 31 -233 31q47 -109 178 -109q35 0 73 8.5t59 17.5l20 9q3 149 103 308.5t237 262.5q95 76 166 76q68 0 135 -53.5t67 -112.5q0 -85 -78.5 -207t-194 -232t-228.5 -177h20q47 0 96.5 18 t87.5 42.5t83.5 65t72 69t64.5 71.5q8 8 18 8q11 0 22 -8.5t11 -22.5l-11 -20q-232 -301 -448 -301q-59 0 -123 24q-100 -41 -182 -41q-72 0 -148 35.5t-134.5 108.5t-67.5 164zM512 297q55 38 150 131.5t174 195.5t79 146q0 9 -5 15t-13 6q-34 0 -92.5 -49t-108.5 -109 q-132 -153 -184 -336zM905 1028q0 29 45 66.5t80 40.5q2 0 14 -9t19 -16q147 -166 149 -176q0 -27 -30.5 -58t-63.5 -32q-13 0 -16 6l-189 160q-8 8 -8 18z" />
<glyph unicode="&#xcd;" horiz-adv-x="1005" d="M-16 326q0 73 47 73q34 0 153.5 -20t157.5 -29q16 -3 16 -18q0 -41 -39 -41q-231 31 -233 31q47 -109 178 -109q35 0 73 8.5t59 17.5l20 9q3 149 103 308.5t237 262.5q95 76 166 76q68 0 135 -53.5t67 -112.5q0 -85 -78.5 -207t-194 -232t-228.5 -177h20q47 0 96.5 18 t87.5 42.5t83.5 65t72 69t64.5 71.5q8 8 18 8q11 0 22 -8.5t11 -22.5l-11 -20q-232 -301 -448 -301q-59 0 -123 24q-100 -41 -182 -41q-72 0 -148 35.5t-134.5 108.5t-67.5 164zM512 297q55 38 150 131.5t174 195.5t79 146q0 9 -5 15t-13 6q-34 0 -92.5 -49t-108.5 -109 q-132 -153 -184 -336zM948 997q4 11 8 13q10 10 116.5 64.5t150.5 72.5q19 7 52.5 -45.5t33.5 -79.5q0 -8 -6.5 -14.5t-12.5 -8.5l-270 -98q-8 -2 -12 -2q-23 0 -41.5 34t-18.5 64z" />
<glyph unicode="&#xce;" horiz-adv-x="1005" d="M-16 326q0 73 47 73q34 0 153.5 -20t157.5 -29q16 -3 16 -18q0 -41 -39 -41q-231 31 -233 31q47 -109 178 -109q35 0 73 8.5t59 17.5l20 9q3 149 103 308.5t237 262.5q95 76 166 76q68 0 135 -53.5t67 -112.5q0 -85 -78.5 -207t-194 -232t-228.5 -177h20q47 0 96.5 18 t87.5 42.5t83.5 65t72 69t64.5 71.5q8 8 18 8q11 0 22 -8.5t11 -22.5l-11 -20q-232 -301 -448 -301q-59 0 -123 24q-100 -41 -182 -41q-72 0 -148 35.5t-134.5 108.5t-67.5 164zM512 297q55 38 150 131.5t174 195.5t79 146q0 9 -5 15t-13 6q-34 0 -92.5 -49t-108.5 -109 q-132 -153 -184 -336zM887 981q3 23 12 27l6 3t16.5 8.5t24.5 13t29 14.5t31.5 15.5t30 14.5t27.5 12t20.5 8t11.5 3q9 1 42 -45.5t63.5 -94t31.5 -47.5q-36 -36 -84 -36q-22 3 -37 18q-7 5 -22 25.5t-26 38.5l-11 18q-17 -6 -56 -25t-61 -28q-20 1 -34.5 18.5t-14.5 38.5z " />
<glyph unicode="&#xcf;" horiz-adv-x="1005" d="M-16 326q0 73 47 73q34 0 153.5 -20t157.5 -29q16 -3 16 -18q0 -41 -39 -41q-231 31 -233 31q47 -109 178 -109q35 0 73 8.5t59 17.5l20 9q3 149 103 308.5t237 262.5q95 76 166 76q68 0 135 -53.5t67 -112.5q0 -85 -78.5 -207t-194 -232t-228.5 -177h20q47 0 96.5 18 t87.5 42.5t83.5 65t72 69t64.5 71.5q8 8 18 8q11 0 22 -8.5t11 -22.5l-11 -20q-232 -301 -448 -301q-59 0 -123 24q-100 -41 -182 -41q-72 0 -148 35.5t-134.5 108.5t-67.5 164zM512 297q55 38 150 131.5t174 195.5t79 146q0 9 -5 15t-13 6q-34 0 -92.5 -49t-108.5 -109 q-132 -153 -184 -336zM901 997q0 43 33.5 80t77.5 37q39 -1 58.5 -27t19.5 -53q0 -39 -34.5 -77.5t-78.5 -38.5q-35 0 -55.5 21.5t-20.5 57.5zM1092 930q0 47 34 87t84 40q30 -1 50 -17.5t26 -34t6 -34.5q0 -40 -36.5 -82.5t-84.5 -42.5q-36 0 -57.5 24t-21.5 60z" />
<glyph unicode="&#xd0;" horiz-adv-x="925" d="M0 236q0 17 12 37.5t22.5 32t31.5 32.5q63 63 77 78q-24 0 -32.5 10.5t-8.5 40.5q0 12 10 23t23 12l103 4q94 90 149 137q-88 -10 -162 -27q-23 0 -47 48.5t-24 89.5q0 36 20 47q87 33 214.5 54.5t223.5 21.5q167 0 258 -48q67 -34 107.5 -94t40.5 -141q0 -118 -152 -275 q-108 -111 -308 -213t-333 -102h-12q-77 0 -152 96q-61 79 -61 136zM236 225q139 36 310.5 130t268.5 196q25 31 25 51q0 21 -38.5 31t-80.5 10q-21 0 -31 -2l-137 -125h41q21 0 29 -7t8 -32q0 -47 -43 -47q-24 0 -135 -6z" />
<glyph unicode="&#xd1;" horiz-adv-x="925" d="M-16 145q0 34 71 129q20 26 162.5 193.5t200.5 234.5q-62 -15 -136 -48t-121 -59t-50 -26q-19 0 -57 65t-38 91q0 14 10 26.5t20 18.5l11 6q187 107 367 107q43 0 76 -17q40 -25 78 -75.5t38 -92.5q0 -25 -20.5 -55.5t-60 -74t-50.5 -56.5q223 186 340 264q11 8 37 8 q51 0 118 -50.5t67 -90.5q0 -8 -66 -88l-309 -365q-1 -1 -5.5 -6.5t-8 -10.5t-8 -12t-7 -14.5t-2.5 -13.5q0 -22 31 -22q25 0 76 41q26 22 78 75.5t91 96.5l39 43q8 14 29 14q12 0 20.5 -7.5t8.5 -19.5q0 -6 -4 -14q-111 -146 -217 -248q-29 -28 -48.5 -44t-52.5 -32 t-65 -16q-52 0 -122.5 63.5t-70.5 131.5q0 31 27 77q31 49 82 105.5t123 129t102 105.5q-15 -12 -93.5 -74.5t-107 -85.5t-97.5 -80.5t-105.5 -91t-88 -82t-87.5 -90.5t-64 -81q-7 -11 -8 -11q-44 0 -88.5 45.5t-44.5 83.5zM549 975q-2 24 10 24q4 0 8 -4t8.5 -9t16.5 -9 t29 -4q33 0 101.5 17.5t106.5 17.5q51 0 85 -45t34 -103q0 -10 -4 -22q-3 3 -12 9t-31 13.5t-45 7.5q-35 0 -104 -20.5t-99 -20.5q-28 0 -49.5 19t-32.5 47t-16 48.5t-6 33.5z" />
<glyph unicode="&#xd2;" horiz-adv-x="962" d="M4 346q0 59 35 127.5t88 128.5t117 115.5t121.5 94t101.5 58.5q22 9 39 9q29 0 55 -23l55 -45q93 51 187 51q90 0 149.5 -56t59.5 -142q0 -71 -33.5 -149.5t-84.5 -145t-105.5 -119t-102.5 -84.5q51 8 92.5 25.5t82.5 49.5t70.5 61.5t78.5 82.5q6 6 14 6q11 0 22 -9.5 t11 -19.5q0 -4 -4 -12q-75 -110 -180.5 -188t-225.5 -78q-39 0 -59 4q-134 -82 -244 -82q-126 0 -240 123q-100 111 -100 217zM207 231q0 -60 35 -90t86 -30q66 0 139 41q-61 41 -95 109.5t-34 144.5q0 44 12 88q-56 -52 -99.5 -125.5t-43.5 -137.5zM465 379q0 -114 84 -178 q88 48 160 123q22 23 50.5 58t63.5 85.5t58.5 105.5t23.5 97q0 38 -23 64t-65 26q-75 0 -178 -74q-66 -45 -121 -127q-53 -82 -53 -180zM782 1038q0 27 51 62t85 35q4 0 8.5 -3.5t7.5 -7t7.5 -10t6.5 -8.5q9 -13 29 -39.5t35.5 -48.5t32 -44.5t25.5 -37.5t9 -18 q0 -26 -35.5 -54t-64.5 -28q-15 0 -18 8l-173 176q-6 8 -6 18z" />
<glyph unicode="&#xd3;" horiz-adv-x="962" d="M4 346q0 59 35 127.5t88 128.5t117 115.5t121.5 94t101.5 58.5q22 9 39 9q29 0 55 -23l55 -45q93 51 187 51q90 0 149.5 -56t59.5 -142q0 -71 -33.5 -149.5t-84.5 -145t-105.5 -119t-102.5 -84.5q51 8 92.5 25.5t82.5 49.5t70.5 61.5t78.5 82.5q6 6 14 6q11 0 22 -9.5 t11 -19.5q0 -4 -4 -12q-75 -110 -180.5 -188t-225.5 -78q-39 0 -59 4q-134 -82 -244 -82q-126 0 -240 123q-100 111 -100 217zM207 231q0 -60 35 -90t86 -30q66 0 139 41q-61 41 -95 109.5t-34 144.5q0 44 12 88q-56 -52 -99.5 -125.5t-43.5 -137.5zM465 379q0 -114 84 -178 q88 48 160 123q22 23 50.5 58t63.5 85.5t58.5 105.5t23.5 97q0 38 -23 64t-65 26q-75 0 -178 -74q-66 -45 -121 -127q-53 -82 -53 -180zM647 983q0 13 8 18q14 12 129 69t156 69q20 7 55 -45.5t35 -81.5q0 -14 -20 -21l-285 -98q-10 -4 -16 -4q-25 12 -43.5 41t-18.5 53z " />
<glyph unicode="&#xd4;" horiz-adv-x="962" d="M4 346q0 59 35 127.5t88 128.5t117 115.5t121.5 94t101.5 58.5q22 9 39 9q29 0 55 -23l55 -45q93 51 187 51q90 0 149.5 -56t59.5 -142q0 -71 -33.5 -149.5t-84.5 -145t-105.5 -119t-102.5 -84.5q51 8 92.5 25.5t82.5 49.5t70.5 61.5t78.5 82.5q6 6 14 6q11 0 22 -9.5 t11 -19.5q0 -4 -4 -12q-75 -110 -180.5 -188t-225.5 -78q-39 0 -59 4q-134 -82 -244 -82q-126 0 -240 123q-100 111 -100 217zM207 231q0 -60 35 -90t86 -30q66 0 139 41q-61 41 -95 109.5t-34 144.5q0 44 12 88q-56 -52 -99.5 -125.5t-43.5 -137.5zM465 379q0 -114 84 -178 q88 48 160 123q22 23 50.5 58t63.5 85.5t58.5 105.5t23.5 97q0 38 -23 64t-65 26q-75 0 -178 -74q-66 -45 -121 -127q-53 -82 -53 -180zM698 965q0 16 11 24q2 1 6 3.5l16 10t23.5 15t27.5 17.5t30.5 18.5t29.5 17t26 14.5t19.5 9.5t11.5 3.5q9 2 45.5 -41t70 -87t34.5 -44 q-39 -45 -86 -45q-10 0 -23 8t-25.5 21.5t-22 25t-18.5 24t-10 13.5q-22 -9 -100 -60q-9 -6 -16 -6q-18 0 -34 18.5t-16 39.5z" />
<glyph unicode="&#xd5;" horiz-adv-x="962" d="M4 346q0 59 35 127.5t88 128.5t117 115.5t121.5 94t101.5 58.5q22 9 39 9q29 0 55 -23l55 -45q93 51 187 51q90 0 149.5 -56t59.5 -142q0 -71 -33.5 -149.5t-84.5 -145t-105.5 -119t-102.5 -84.5q51 8 92.5 25.5t82.5 49.5t70.5 61.5t78.5 82.5q6 6 14 6q11 0 22 -9.5 t11 -19.5q0 -4 -4 -12q-75 -110 -180.5 -188t-225.5 -78q-39 0 -59 4q-134 -82 -244 -82q-126 0 -240 123q-100 111 -100 217zM207 231q0 -60 35 -90t86 -30q66 0 139 41q-61 41 -95 109.5t-34 144.5q0 44 12 88q-56 -52 -99.5 -125.5t-43.5 -137.5zM465 379q0 -114 84 -178 q88 48 160 123q22 23 50.5 58t63.5 85.5t58.5 105.5t23.5 97q0 38 -23 64t-65 26q-75 0 -178 -74q-66 -45 -121 -127q-53 -82 -53 -180zM590 1038q-2 25 10 25q4 0 8 -4t8.5 -9.5t16.5 -9.5t29 -4q33 0 101.5 17.5t106.5 17.5q51 0 85 -44.5t34 -102.5q0 -11 -4 -23 q-3 3 -12 9t-31 14t-45 8q-35 0 -104 -20.5t-99 -20.5q-28 0 -49.5 19t-32.5 46.5t-16 48t-6 33.5z" />
<glyph unicode="&#xd6;" horiz-adv-x="962" d="M4 346q0 59 35 127.5t88 128.5t117 115.5t121.5 94t101.5 58.5q22 9 39 9q29 0 55 -23l55 -45q93 51 187 51q90 0 149.5 -56t59.5 -142q0 -71 -33.5 -149.5t-84.5 -145t-105.5 -119t-102.5 -84.5q51 8 92.5 25.5t82.5 49.5t70.5 61.5t78.5 82.5q6 6 14 6q11 0 22 -9.5 t11 -19.5q0 -4 -4 -12q-75 -110 -180.5 -188t-225.5 -78q-39 0 -59 4q-134 -82 -244 -82q-126 0 -240 123q-100 111 -100 217zM207 231q0 -60 35 -90t86 -30q66 0 139 41q-61 41 -95 109.5t-34 144.5q0 44 12 88q-56 -52 -99.5 -125.5t-43.5 -137.5zM465 379q0 -114 84 -178 q88 48 160 123q22 23 50.5 58t63.5 85.5t58.5 105.5t23.5 97q0 38 -23 64t-65 26q-75 0 -178 -74q-66 -45 -121 -127q-53 -82 -53 -180zM612 989q0 49 35 90t86 41q44 -1 65 -30.5t21 -57.5q0 -44 -37.5 -86.5t-87.5 -42.5q-36 0 -59 24.5t-23 61.5zM848 997q0 52 37 95 t90 43q46 -1 68 -32t22 -61q0 -45 -39.5 -90t-91.5 -45q-38 0 -62 26t-24 64z" />
<glyph unicode="&#xd8;" horiz-adv-x="960" d="M0 111q19 19 61 49q-59 66 -59 129q0 133 229 352q98 93 213 161t195 68q35 0 88 -24q60 -28 121 -82l49 31q8 4 10 4q17 0 32 -17.5t15 -33.5q-20 -16 -55 -43l2 -3q27 -46 27 -92q0 -64 -58.5 -170.5t-150.5 -206.5q-86 -95 -186 -159t-195 -70q-105 0 -215 96l-23 21 l-63 -51q-11 -5 -23 3.5t-15.5 19.5t1.5 18zM246 221q8 -14 28 -14q99 0 277 178q56 60 102 131q-204 -156 -407 -295zM283 332q334 262 426 330q-8 16 -27 16q-40 0 -117.5 -58.5t-142.5 -121.5q-92 -92 -139 -166z" />
<glyph unicode="&#xd9;" horiz-adv-x="935" d="M-14 231q0 29 13.5 62t40.5 68.5t55.5 68t70 71t72 65.5t73 63.5t62.5 54.5q-48 -13 -105 -34t-100 -41t-68 -34q-5 -2 -11.5 -7t-8.5 -5q-27 0 -59.5 58t-32.5 104q0 34 28 45q61 34 191.5 75.5t218.5 41.5q32 0 82 -26t90 -68.5t41 -79.5q0 -42 -74 -129 q-38 -44 -127.5 -139.5t-122.5 -133.5q-96 -111 -96 -147q0 -13 11 -24t22 -11q25 0 61 23t68 53q27 24 53.5 49.5t57 58t51 54t56.5 63.5t50.5 58.5t55.5 66t49.5 59.5t54.5 66.5t49 60.5q6 11 23 11q41 0 107.5 -44t66.5 -75q0 -2 -4 -10q-81 -98 -155.5 -186.5 t-105.5 -125.5t-55.5 -66.5t-38.5 -47.5q-34 -45 -34 -64q0 -22 26 -22q29 0 74 41q28 26 81.5 83t93.5 101l40 43q10 10 18 10q12 0 23.5 -12.5t11.5 -24.5l-4 -10q-3 -4 -35 -42.5t-74 -86.5t-79 -86q-120 -127 -183 -127q-59 0 -120.5 52.5t-81.5 109.5 q-79 -79 -133 -119.5t-93 -40.5q-81 0 -161 79t-80 150zM559 985q0 27 50.5 60.5t84.5 33.5q3 0 6 -1.5t5.5 -3.5t5.5 -5.5t5 -6t5 -6t4 -5.5q7 -10 20 -27.5t24 -33t24.5 -34t24 -33.5t19.5 -28t14 -22t5 -11q0 -26 -35.5 -54t-64.5 -28q-16 0 -19 8l-172 179q-6 8 -6 18z " />
<glyph unicode="&#xda;" horiz-adv-x="935" d="M-14 231q0 29 13.5 62t40.5 68.5t55.5 68t70 71t72 65.5t73 63.5t62.5 54.5q-48 -13 -105 -34t-100 -41t-68 -34q-5 -2 -11.5 -7t-8.5 -5q-27 0 -59.5 58t-32.5 104q0 34 28 45q61 34 191.5 75.5t218.5 41.5q32 0 82 -26t90 -68.5t41 -79.5q0 -42 -74 -129 q-38 -44 -127.5 -139.5t-122.5 -133.5q-96 -111 -96 -147q0 -13 11 -24t22 -11q25 0 61 23t68 53q27 24 53.5 49.5t57 58t51 54t56.5 63.5t50.5 58.5t55.5 66t49.5 59.5t54.5 66.5t49 60.5q6 11 23 11q41 0 107.5 -44t66.5 -75q0 -2 -4 -10q-81 -98 -155.5 -186.5 t-105.5 -125.5t-55.5 -66.5t-38.5 -47.5q-34 -45 -34 -64q0 -22 26 -22q29 0 74 41q28 26 81.5 83t93.5 101l40 43q10 10 18 10q12 0 23.5 -12.5t11.5 -24.5l-4 -10q-3 -4 -35 -42.5t-74 -86.5t-79 -86q-120 -127 -183 -127q-59 0 -120.5 52.5t-81.5 109.5 q-79 -79 -133 -119.5t-93 -40.5q-81 0 -161 79t-80 150zM700 885q0 11 7 14q11 12 118.5 84.5t147.5 93.5q24 0 66 -45.5t42 -70.5q-3 -13 -16 -21l-274 -139q-11 -6 -17 -6q-28 9 -51 37.5t-23 52.5z" />
<glyph unicode="&#xdb;" horiz-adv-x="935" d="M-14 231q0 29 13.5 62t40.5 68.5t55.5 68t70 71t72 65.5t73 63.5t62.5 54.5q-48 -13 -105 -34t-100 -41t-68 -34q-5 -2 -11.5 -7t-8.5 -5q-27 0 -59.5 58t-32.5 104q0 34 28 45q61 34 191.5 75.5t218.5 41.5q32 0 82 -26t90 -68.5t41 -79.5q0 -42 -74 -129 q-38 -44 -127.5 -139.5t-122.5 -133.5q-96 -111 -96 -147q0 -13 11 -24t22 -11q25 0 61 23t68 53q27 24 53.5 49.5t57 58t51 54t56.5 63.5t50.5 58.5t55.5 66t49.5 59.5t54.5 66.5t49 60.5q6 11 23 11q41 0 107.5 -44t66.5 -75q0 -2 -4 -10q-81 -98 -155.5 -186.5 t-105.5 -125.5t-55.5 -66.5t-38.5 -47.5q-34 -45 -34 -64q0 -22 26 -22q29 0 74 41q28 26 81.5 83t93.5 101l40 43q10 10 18 10q12 0 23.5 -12.5t11.5 -24.5l-4 -10q-3 -4 -35 -42.5t-74 -86.5t-79 -86q-120 -127 -183 -127q-59 0 -120.5 52.5t-81.5 109.5 q-79 -79 -133 -119.5t-93 -40.5q-81 0 -161 79t-80 150zM625 895q0 18 10 25q2 1 6 3.5l16 10t23.5 15t27.5 17t30.5 18t29.5 17t26 14.5t19.5 9.5t11.5 3.5q9 2 45.5 -41t70 -87t34.5 -44q-39 -45 -86 -45q-10 0 -23 8t-25 21.5t-21.5 25t-18.5 24t-10 13.5 q-23 -8 -101 -59q-9 -6 -16 -6q-18 0 -33.5 18t-15.5 39z" />
<glyph unicode="&#xdc;" horiz-adv-x="935" d="M-14 231q0 29 13.5 62t40.5 68.5t55.5 68t70 71t72 65.5t73 63.5t62.5 54.5q-48 -13 -105 -34t-100 -41t-68 -34q-5 -2 -11.5 -7t-8.5 -5q-27 0 -59.5 58t-32.5 104q0 34 28 45q61 34 191.5 75.5t218.5 41.5q32 0 82 -26t90 -68.5t41 -79.5q0 -42 -74 -129 q-38 -44 -127.5 -139.5t-122.5 -133.5q-96 -111 -96 -147q0 -13 11 -24t22 -11q25 0 61 23t68 53q27 24 53.5 49.5t57 58t51 54t56.5 63.5t50.5 58.5t55.5 66t49.5 59.5t54.5 66.5t49 60.5q6 11 23 11q41 0 107.5 -44t66.5 -75q0 -2 -4 -10q-81 -98 -155.5 -186.5 t-105.5 -125.5t-55.5 -66.5t-38.5 -47.5q-34 -45 -34 -64q0 -22 26 -22q29 0 74 41q28 26 81.5 83t93.5 101l40 43q10 10 18 10q12 0 23.5 -12.5t11.5 -24.5l-4 -10q-3 -4 -35 -42.5t-74 -86.5t-79 -86q-120 -127 -183 -127q-59 0 -120.5 52.5t-81.5 109.5 q-79 -79 -133 -119.5t-93 -40.5q-81 0 -161 79t-80 150zM580 952q0 43 33 80t77 37q39 -1 58.5 -27t19.5 -53q0 -39 -34.5 -78t-78.5 -39q-23 0 -40 10t-26 28t-9 42zM770 879q0 48 35.5 88.5t85.5 40.5q30 -1 50.5 -17.5t27 -35t6.5 -35.5q0 -26 -15.5 -55t-45 -50.5 t-62.5 -21.5q-24 0 -43 11.5t-29 31.5t-10 43z" />
<glyph unicode="&#xdd;" horiz-adv-x="880" d="M-41 -25q0 10 8.5 17.5t18.5 7.5t18 -8q92 -70 166 -70q36 0 66 15q91 43 202 192q-116 -109 -176 -109q-81 0 -159 79t-78 151q0 33 18 72t42.5 71.5t67.5 76t73.5 70.5t81 70.5t71.5 61.5q-37 -10 -80.5 -26t-79.5 -32t-66.5 -30.5t-48.5 -23.5l-18 -9q-27 0 -59.5 58 t-32.5 104q0 33 29 45q61 34 194 76.5t221 42.5q31 0 81.5 -26.5t91 -69t40.5 -79.5q0 -31 -62 -107t-136.5 -151.5t-136.5 -152t-62 -109.5q0 -14 9.5 -24.5t23.5 -10.5q27 0 66 23t89.5 71.5t93.5 93t105.5 118.5t96 115.5t91.5 113.5l58 70q6 12 24 12q41 0 105.5 -45 t64.5 -76q0 -2 -4 -10q-119 -138 -264.5 -325t-241 -310.5t-129.5 -153.5q-96 -84 -184 -84q-81 0 -178 72q-52 39 -86.5 78.5t-34.5 64.5zM662 852q0 11 6 14q11 12 118.5 84.5t147.5 93.5q24 0 66 -45.5t42 -70.5q-3 -13 -16 -21l-274 -139q-11 -6 -17 -6 q-28 9 -50.5 37.5t-22.5 52.5z" />
<glyph unicode="&#xde;" horiz-adv-x="827" d="M-123 143q0 26 23 64q103 139 422 508q0 1 -4.5 19.5t-9 42t-3.5 36.5q12 37 164 57l145 166q18 15 45 15q45 0 92.5 -32t47.5 -58q0 -3 -4 -11l-69 -90q129 -37 175 -135q23 -53 23 -94q0 -100 -84.5 -194t-207 -150t-239.5 -60q-101 0 -157 64l-224 -264 q-6 -12 -10 -13q-46 9 -85.5 46t-39.5 83zM354 426q112 20 218 63t147 91q16 16 16 30q0 43 -108 43q-24 0 -72 -10q-16 -18 -87.5 -93t-113.5 -124z" />
<glyph unicode="&#xdf;" horiz-adv-x="749" d="M-72 385q0 67 76.5 153.5t185 158t234 121.5t217.5 50q81 0 162 -69t84 -144q-6 -47 -35.5 -89.5t-75 -74.5t-94 -55.5t-102.5 -40.5q41 -33 41 -110q0 -64 -27 -103q-56 -80 -169 -131t-192 -51q-33 0 -57 4q-51 10 -85.5 48.5t-41.5 105.5q-6 35 55.5 78.5t137.5 71.5 t118 28q8 0 13.5 -12t5.5 -21q0 -11 -14 -14q-34 -9 -97.5 -34t-101.5 -48q-35 -22 -35 -33q0 -8 23 -8q55 0 154 44t136 87q33 38 33 57q0 12 -11.5 21.5t-33.5 9.5q-31 0 -47 -4q-15 1 -28 22.5t-13 42.5q0 20 12 29q19 7 51.5 19t49.5 18.5t41 17t45 21.5q59 31 112.5 70 t53.5 67q0 21 -60 8q-67 -13 -158.5 -55.5t-178 -99t-150.5 -126.5t-72 -130q0 -19 19 -29q-2 -2 -27 -2q-50 2 -102 37t-52 94z" />
<glyph unicode="&#xe0;" horiz-adv-x="802" d="M-66 207q0 24 15 51q19 36 58 83t87 92.5t103 76.5t98 31q33 0 101 -39.5t110 -77.5l29 33q13 20 36 20q45 -4 100.5 -47t55.5 -70l-4 -12l-133 -151q-60 -61 -60 -84q0 -19 19 -19q24 0 84 56q34 31 106 110t84 94q13 8 19 8q12 0 23.5 -10t11.5 -22l-3 -11 q-143 -173 -215 -239q-50 -47 -80.5 -63.5t-68.5 -16.5q-46 0 -94.5 37t-73.5 82q-115 -119 -176 -119q-56 0 -139 70q-90 76 -93 137zM154 145q0 -13 8 -21.5t22 -8.5q35 0 91 46.5t98.5 107.5t42.5 98q0 13 -6.5 20.5t-16.5 7.5q-23 0 -67.5 -32t-89.5 -80 q-27 -28 -45.5 -55.5t-27.5 -48t-9 -34.5zM319 668q0 24 42 59.5t73 40.5q12 0 35 -23q6 -7 51.5 -55t68 -74t23.5 -34q0 -23 -31 -49t-59 -29q-8 0 -12 4l-182 143q-9 6 -9 17z" />
<glyph unicode="&#xe1;" horiz-adv-x="802" d="M-66 207q0 24 15 51q19 36 58 83t87 92.5t103 76.5t98 31q33 0 101 -39.5t110 -77.5l29 33q13 20 36 20q45 -4 100.5 -47t55.5 -70l-4 -12l-133 -151q-60 -61 -60 -84q0 -19 19 -19q24 0 84 56q34 31 106 110t84 94q13 8 19 8q12 0 23.5 -10t11.5 -22l-3 -11 q-143 -173 -215 -239q-50 -47 -80.5 -63.5t-68.5 -16.5q-46 0 -94.5 37t-73.5 82q-115 -119 -176 -119q-56 0 -139 70q-90 76 -93 137zM154 145q0 -13 8 -21.5t22 -8.5q35 0 91 46.5t98.5 107.5t42.5 98q0 13 -6.5 20.5t-16.5 7.5q-23 0 -67.5 -32t-89.5 -80 q-27 -28 -45.5 -55.5t-27.5 -48t-9 -34.5zM381 608q0 12 6 15q10 12 107 76.5t137 86.5q20 0 56 -43.5t36 -66.5q-3 -15 -14 -21l-244 -131q-10 -6 -14 -6q-28 9 -49 38t-21 52z" />
<glyph unicode="&#xe2;" horiz-adv-x="802" d="M-66 207q0 24 15 51q19 36 58 83t87 92.5t103 76.5t98 31q33 0 101 -39.5t110 -77.5l29 33q13 20 36 20q45 -4 100.5 -47t55.5 -70l-4 -12l-133 -151q-60 -61 -60 -84q0 -19 19 -19q24 0 84 56q34 31 106 110t84 94q13 8 19 8q12 0 23.5 -10t11.5 -22l-3 -11 q-143 -173 -215 -239q-50 -47 -80.5 -63.5t-68.5 -16.5q-46 0 -94.5 37t-73.5 82q-115 -119 -176 -119q-56 0 -139 70q-90 76 -93 137zM154 145q0 -13 8 -21.5t22 -8.5q35 0 91 46.5t98.5 107.5t42.5 98q0 13 -6.5 20.5t-16.5 7.5q-23 0 -67.5 -32t-89.5 -80 q-27 -28 -45.5 -55.5t-27.5 -48t-9 -34.5zM281 627q0 17 10 24q2 1 6 3.5t16 10.5t24 15.5l28 17.5t30.5 18.5t29.5 17.5t26.5 15t20 9.5t11.5 3.5q9 2 44.5 -38.5t68 -82t33.5 -41.5q-39 -45 -86 -45q-10 0 -22 7.5t-23.5 19t-21 22t-18 21.5t-9.5 12q-25 -11 -103 -62 q-9 -6 -16 -6q-9 0 -18 5.5t-16 13.5t-11 18.5t-4 20.5z" />
<glyph unicode="&#xe3;" horiz-adv-x="802" d="M-66 207q0 24 15 51q19 36 58 83t87 92.5t103 76.5t98 31q33 0 101 -39.5t110 -77.5l29 33q13 20 36 20q45 -4 100.5 -47t55.5 -70l-4 -12l-133 -151q-60 -61 -60 -84q0 -19 19 -19q24 0 84 56q34 31 106 110t84 94q13 8 19 8q12 0 23.5 -10t11.5 -22l-3 -11 q-143 -173 -215 -239q-50 -47 -80.5 -63.5t-68.5 -16.5q-46 0 -94.5 37t-73.5 82q-115 -119 -176 -119q-56 0 -139 70q-90 76 -93 137zM154 145q0 -13 8 -21.5t22 -8.5q35 0 91 46.5t98.5 107.5t42.5 98q0 13 -6.5 20.5t-16.5 7.5q-23 0 -67.5 -32t-89.5 -80 q-27 -28 -45.5 -55.5t-27.5 -48t-9 -34.5zM305 717q0 9 2.5 17.5t5.5 8.5q3 -1 7.5 -6t9.5 -10.5t22 -11t43 -6.5q27 0 89 14t102 14q50 0 80 -45.5t30 -105.5q0 -31 -8 -31q-5 0 -15 8.5t-28.5 16.5t-42.5 8q-44 0 -105.5 -13.5t-86.5 -13.5q-30 0 -51.5 14t-32.5 38 t-16 49.5t-5 54.5z" />
<glyph unicode="&#xe4;" horiz-adv-x="802" d="M-66 207q0 24 15 51q19 36 58 83t87 92.5t103 76.5t98 31q33 0 101 -39.5t110 -77.5l29 33q13 20 36 20q45 -4 100.5 -47t55.5 -70l-4 -12l-133 -151q-60 -61 -60 -84q0 -19 19 -19q24 0 84 56q34 31 106 110t84 94q13 8 19 8q12 0 23.5 -10t11.5 -22l-3 -11 q-143 -173 -215 -239q-50 -47 -80.5 -63.5t-68.5 -16.5q-46 0 -94.5 37t-73.5 82q-115 -119 -176 -119q-56 0 -139 70q-90 76 -93 137zM154 145q0 -13 8 -21.5t22 -8.5q35 0 91 46.5t98.5 107.5t42.5 98q0 13 -6.5 20.5t-16.5 7.5q-23 0 -67.5 -32t-89.5 -80 q-27 -28 -45.5 -55.5t-27.5 -48t-9 -34.5zM295 649q0 49 35 90t86 41q23 -1 41 -10.5t27 -24t13.5 -28.5t4.5 -25q0 -44 -37.5 -86.5t-87.5 -42.5q-36 0 -59 24.5t-23 61.5zM518 627q0 52 37 94.5t90 42.5q25 -1 43.5 -11t28 -25t14 -29.5t4.5 -26.5q0 -45 -39.5 -90 t-91.5 -45q-25 0 -45 12.5t-30.5 33t-10.5 44.5z" />
<glyph unicode="&#xe5;" horiz-adv-x="802" d="M-66 207q0 24 15 51q19 36 58 83t87 92.5t103 76.5t98 31q33 0 101 -39.5t110 -77.5l29 33q13 20 36 20q45 -4 100.5 -47t55.5 -70l-4 -12l-133 -151q-60 -61 -60 -84q0 -19 19 -19q24 0 84 56q34 31 106 110t84 94q13 8 19 8q12 0 23.5 -10t11.5 -22l-3 -11 q-143 -173 -215 -239q-50 -47 -80.5 -63.5t-68.5 -16.5q-46 0 -94.5 37t-73.5 82q-115 -119 -176 -119q-56 0 -139 70q-90 76 -93 137zM154 145q0 -13 8 -21.5t22 -8.5q35 0 91 46.5t98.5 107.5t42.5 98q0 13 -6.5 20.5t-16.5 7.5q-23 0 -67.5 -32t-89.5 -80 q-27 -28 -45.5 -55.5t-27.5 -48t-9 -34.5zM403 614q0 24 14.5 50t36.5 46t49.5 33t53.5 13q29 0 59.5 -23t30.5 -53q0 -32 -21 -66t-54.5 -56.5t-67.5 -22.5q-37 0 -69 23.5t-32 55.5zM471 600q0 -14 14 -14q13 0 31.5 11t26.5 19q45 38 45 76q0 10 -10 10q-31 0 -69 -38.5 t-38 -63.5z" />
<glyph unicode="&#xe6;" horiz-adv-x="1017" d="M-66 207q0 24 15 51q19 36 58 83t87 92.5t103 76.5t98 31q33 0 99 -38t109 -76q119 116 210 116q57 0 145 -58q51 -35 72.5 -58.5t21.5 -51.5q0 -34 -47 -90q-96 -99 -235 -99q-38 0 -72 9v-13q0 -38 25 -62t61 -24q73 0 158 64q43 33 97.5 88t88.5 94l33 39q8 10 16 10 q13 0 25 -12t12 -23q0 -8 -2 -10l-14 -18q-139 -168 -219 -234q-113 -94 -195 -94h-16q-59 3 -117 40t-105 89q-17 19 -28 32q-88 -87 -139 -124t-80 -37q-51 0 -88 15t-84 55q-90 76 -93 137zM154 145q0 -13 8 -21.5t22 -8.5q35 0 91 46.5t98.5 107.5t42.5 98 q0 13 -6.5 20.5t-16.5 7.5q-23 0 -67.5 -32t-89.5 -80q-27 -28 -45.5 -55.5t-27.5 -48t-9 -34.5zM621 256q97 0 161 49q22 15 39 37t17 37q0 22 -27 22q-31 0 -100 -51q-13 -10 -45.5 -42.5t-44.5 -51.5z" />
<glyph unicode="&#xe7;" horiz-adv-x="600" d="M-84 -96q0 23 14 37q5 -31 78 -31q55 0 86 31q0 8 -39 8q-13 0 -45 -4q-12 3 -22 25t0 34l84 80q-33 28 -47 45q-62 66 -62 107q0 32 14 57q45 79 141.5 164.5t170.5 85.5q59 0 139 -54q59 -38 84 -64.5t25 -49.5q0 -27 -49.5 -86.5t-77.5 -59.5q-31 0 -71.5 34t-41.5 65 q0 8 72 75q-64 -35 -128.5 -100t-64.5 -119q0 -37 30 -62.5t66 -25.5q68 0 136 51q44 35 95.5 85.5t80.5 83.5l30 34q9 10 17 10q13 0 25 -11.5t12 -22.5q0 -7 -4 -11q-91 -111 -155 -175t-138 -107q-58 -33 -113 -33q-59 0 -131 45l-55 -49q35 0 55 -16.5t20 -45.5 q0 -38 -43 -65t-96 -27q-44 0 -68 16.5t-24 45.5z" />
<glyph unicode="&#xe8;" horiz-adv-x="600" d="M-35 238q0 29 12 53q28 50 79 106.5t118 101t121 44.5q57 0 145 -58q51 -36 73 -59t22 -51q0 -33 -48 -90q-96 -99 -235 -99q-38 0 -72 9v-13q0 -38 25 -62t61 -24q73 0 158 64q43 33 97.5 88t88.5 94l33 39q8 10 16 10q13 0 25 -12t12 -23q0 -8 -2 -10l-14 -18 q-139 -168 -219 -234q-113 -94 -195 -94h-16q-110 5 -221 129q-64 68 -64 109zM203 256q98 0 162 49q22 15 38.5 37t16.5 37q0 22 -27 22q-31 0 -100 -51q-13 -10 -45.5 -42.5t-44.5 -51.5zM315 672q0 24 42 59.5t73 40.5q13 0 35 -22q10 -11 31.5 -33.5t38.5 -40.5 t34.5 -38t27.5 -33.5t11 -18.5q0 -23 -31 -49t-59 -29q-8 0 -12 4l-182 143q-9 6 -9 17z" />
<glyph unicode="&#xe9;" horiz-adv-x="600" d="M-35 238q0 29 12 53q28 50 79 106.5t118 101t121 44.5q57 0 145 -58q51 -36 73 -59t22 -51q0 -33 -48 -90q-96 -99 -235 -99q-38 0 -72 9v-13q0 -38 25 -62t61 -24q73 0 158 64q43 33 97.5 88t88.5 94l33 39q8 10 16 10q13 0 25 -12t12 -23q0 -8 -2 -10l-14 -18 q-139 -168 -219 -234q-113 -94 -195 -94h-16q-110 5 -221 129q-64 68 -64 109zM203 256q98 0 162 49q22 15 38.5 37t16.5 37q0 22 -27 22q-31 0 -100 -51q-13 -10 -45.5 -42.5t-44.5 -51.5zM367 621q0 11 6 14q11 12 107 77t136 87q20 0 56.5 -44t36.5 -67q-2 -14 -15 -20 l-243 -131q-11 -7 -15 -7q-28 8 -48.5 37.5t-20.5 53.5z" />
<glyph unicode="&#xea;" horiz-adv-x="600" d="M-35 238q0 29 12 53q28 50 79 106.5t118 101t121 44.5q57 0 145 -58q51 -36 73 -59t22 -51q0 -33 -48 -90q-96 -99 -235 -99q-38 0 -72 9v-13q0 -38 25 -62t61 -24q73 0 158 64q43 33 97.5 88t88.5 94l33 39q8 10 16 10q13 0 25 -12t12 -23q0 -8 -2 -10l-14 -18 q-139 -168 -219 -234q-113 -94 -195 -94h-16q-110 5 -221 129q-64 68 -64 109zM203 256q98 0 162 49q22 15 38.5 37t16.5 37q0 22 -27 22q-31 0 -100 -51q-13 -10 -45.5 -42.5t-44.5 -51.5zM287 627q0 17 10 24q2 1 6 3.5t16 10.5t24 15.5l28 17.5t30.5 18.5t29.5 17.5 t26.5 15t20 9.5t11.5 3.5q9 2 44.5 -38.5t68 -82t33.5 -41.5q-39 -45 -86 -45q-10 0 -22 7.5t-23.5 19t-21 22t-18 21.5t-9.5 12q-25 -11 -103 -62q-9 -6 -16 -6q-18 0 -33.5 18.5t-15.5 39.5z" />
<glyph unicode="&#xeb;" horiz-adv-x="600" d="M-35 238q0 29 12 53q28 50 79 106.5t118 101t121 44.5q57 0 145 -58q51 -36 73 -59t22 -51q0 -33 -48 -90q-96 -99 -235 -99q-38 0 -72 9v-13q0 -38 25 -62t61 -24q73 0 158 64q43 33 97.5 88t88.5 94l33 39q8 10 16 10q13 0 25 -12t12 -23q0 -8 -2 -10l-14 -18 q-139 -168 -219 -234q-113 -94 -195 -94h-16q-110 5 -221 129q-64 68 -64 109zM203 256q98 0 162 49q22 15 38.5 37t16.5 37q0 22 -27 22q-31 0 -100 -51q-13 -10 -45.5 -42.5t-44.5 -51.5zM299 649q0 45 30 80t74 35q39 -1 57.5 -26.5t18.5 -51.5q0 -40 -32.5 -76.5 t-77.5 -36.5q-31 0 -50.5 21.5t-19.5 54.5zM492 608q0 49 33 88t83 39q42 -1 62 -29t20 -55q0 -42 -36.5 -83.5t-84.5 -41.5q-34 0 -55.5 23.5t-21.5 58.5z" />
<glyph unicode="&#xec;" horiz-adv-x="395" d="M-92 180q0 39 26 72q22 29 77 94t99 116l44 50q9 12 22 12q39 0 103.5 -43.5t64.5 -72.5q0 -7 -2 -9l-197 -231q-26 -31 -26 -51q0 -17 20 -17q28 0 86 54q34 32 107.5 110t83.5 90q12 8 18 8q12 0 23.5 -10t11.5 -22l-2 -11q-143 -173 -215 -239q-46 -43 -78.5 -61.5 t-64.5 -18.5q-54 0 -127 63t-74 117zM188 717q0 27 51 62.5t85 35.5q11 0 32 -31q7 -10 28.5 -40.5t36 -51.5t31.5 -46t26 -40.5t9 -19.5q0 -27 -35.5 -56.5t-64.5 -29.5q-15 0 -18 8l-174 188q-7 9 -7 21z" />
<glyph unicode="&#xed;" horiz-adv-x="395" d="M-92 180q0 39 26 72q22 29 77 94t99 116l44 50q9 12 22 12q39 0 103.5 -43.5t64.5 -72.5q0 -7 -2 -9l-197 -231q-26 -31 -26 -51q0 -17 20 -17q28 0 86 54q34 32 107.5 110t83.5 90q12 8 18 8q12 0 23.5 -10t11.5 -22l-2 -11q-143 -173 -215 -239q-46 -43 -78.5 -61.5 t-64.5 -18.5q-54 0 -127 63t-74 117zM201 635q0 12 6 18q14 15 117.5 92.5t144.5 100.5q26 0 66 -49.5t40 -77.5q-2 -15 -16 -23l-266 -155q-11 -6 -17 -6q-28 10 -51.5 42t-23.5 58z" />
<glyph unicode="&#xee;" horiz-adv-x="395" d="M-92 180q0 39 26 72q22 29 77 94t99 116l44 50q9 12 22 12q39 0 103.5 -43.5t64.5 -72.5q0 -7 -2 -9l-197 -231q-26 -31 -26 -51q0 -17 20 -17q28 0 86 54q34 32 107.5 110t83.5 90q12 8 18 8q12 0 23.5 -10t11.5 -22l-2 -11q-143 -173 -215 -239q-46 -43 -78.5 -61.5 t-64.5 -18.5q-54 0 -127 63t-74 117zM147 623q0 16 11 24l137 86q55 32 63 31q9 2 44.5 -38.5t68 -82t33.5 -41.5q-39 -45 -86 -45q-10 0 -22 7.5t-23.5 19t-21 22t-18 21.5t-9.5 12q-31 -11 -111 -68q-9 -6 -16 -6q-18 0 -34 18.5t-16 39.5z" />
<glyph unicode="&#xef;" horiz-adv-x="395" d="M-92 180q0 39 26 72q22 29 77 94t99 116l44 50q9 12 22 12q39 0 103.5 -43.5t64.5 -72.5q0 -7 -2 -9l-197 -231q-26 -31 -26 -51q0 -17 20 -17q28 0 86 54q34 32 107.5 110t83.5 90q12 8 18 8q12 0 23.5 -10t11.5 -22l-2 -11q-143 -173 -215 -239q-46 -43 -78.5 -61.5 t-64.5 -18.5q-54 0 -127 63t-74 117zM170 645q0 48 33.5 87.5t83.5 39.5q42 -1 62 -29t20 -55q0 -42 -36.5 -83.5t-84.5 -41.5q-35 0 -56.5 23.5t-21.5 58.5zM369 602q0 50 33 90.5t83 40.5q44 -1 64 -29.5t20 -56.5q0 -43 -36 -86t-84 -43q-35 0 -57.5 24.5t-22.5 59.5z " />
<glyph unicode="&#xf0;" horiz-adv-x="798" d="M-66 203q0 26 15 53q27 49 82.5 112t129.5 115t130 52q30 0 91 -34t107 -71q27 56 27 100l-41 -26q-10 -6 -14 -8q-27 8 -47.5 38.5t-22.5 55.5q0 11 6 14l58 47q-17 18 -39.5 38t-34.5 31.5t-12 16.5q0 47 47.5 90t81.5 43q6 0 14 -4q68 -37 115 -86q19 14 57 39 q19 1 52.5 -43t35.5 -69q-3 -15 -14 -21l-47 -31q18 -52 18 -92q0 -86 -44.5 -183.5t-115.5 -182.5q-43 -54 -43 -76q0 -19 21 -19q28 0 84 52q34 31 104 107.5t82 92.5q8 8 19 8q13 0 23.5 -10t10.5 -22l-2 -11q-143 -173 -215 -239q-85 -80 -147 -80q-41 0 -90.5 38.5 t-71.5 84.5q-113 -118 -174 -123h-8q-55 0 -135 68q-93 83 -93 135zM154 143q0 -13 8 -21.5t22 -8.5q54 0 142 95.5t88 153.5q0 13 -7 21t-16 8q-23 0 -67.5 -32t-87.5 -80q-39 -41 -60.5 -77.5t-21.5 -58.5z" />
<glyph unicode="&#xf1;" horiz-adv-x="774" d="M-53 137q1 14 42.5 69.5t82.5 104.5l41 49q0 1 -2 2l-99 -112q-6 -6 -16 -6q-13 0 -25 9t-12 21q0 11 4 15q150 176 199 231l14 15q5 8 25 8q42 0 103 -41t61 -78q0 -9 -7 -16l-51 -60q36 25 82 60t84 65t45 35q28 20 51 20q37 0 100.5 -42.5t63.5 -73.5q0 -6 -2 -11 t-4 -7l-2 -1q-7 -9 -59 -68t-100 -114t-50 -59q-14 -21 -14 -33q0 -6 5 -11.5t11 -5.5q9 0 25 9t34.5 24.5t40 35t43.5 42t42.5 44.5t39.5 43t32.5 36.5t23.5 27.5l10 11q12 10 18 10q12 0 23.5 -10.5t11.5 -22.5l-2 -10q-71 -90 -145 -172q-70 -79 -124.5 -124.5 t-96.5 -45.5h-17q-54 0 -116 59t-62 115q0 17 8 36t25 42t29.5 37.5t37 41t31.5 34.5q-73 -52 -186.5 -156.5t-155.5 -173.5q-7 -12 -22 -12q-34 0 -76.5 37t-42.5 77zM262 713q0 26 6 26q4 0 9.5 -7t20 -14t38.5 -7q36 0 110.5 18.5t116.5 18.5q55 0 92 -47.5t37 -110.5 q0 -11 -4 -23l-4 3q-5 3 -10.5 6t-14.5 7t-19 7.5t-23.5 5.5t-26.5 2q-38 0 -112 -21.5t-109 -21.5q-30 0 -52 17t-33.5 43.5t-16.5 51t-5 46.5z" />
<glyph unicode="&#xf2;" horiz-adv-x="653" d="M-39 231q2 53 63.5 126.5t143.5 126.5t139 53q37 0 86 -17.5t90 -46.5q115 -81 115 -164q0 -61 -74 -162q-42 -54 -111 -100.5t-132 -46.5h-27q-59 0 -122.5 36.5t-115.5 90.5q-55 59 -55 104zM168 164q0 -29 33 -29q24 0 64.5 25t74.5 61q80 92 80 144q0 28 -25 28 q-50 0 -145 -98q-82 -88 -82 -131zM315 672q0 24 42 59.5t73 40.5q13 0 35 -22q8 -9 31 -33.5t38.5 -41t33.5 -37t27.5 -34t10.5 -18.5q0 -23 -31 -49t-59 -29q-8 0 -12 4l-180 143q-9 6 -9 17z" />
<glyph unicode="&#xf3;" horiz-adv-x="645" d="M-39 231q2 53 63.5 126.5t143.5 126.5t139 53q37 0 86 -17.5t90 -46.5q115 -81 115 -164q0 -61 -74 -162q-42 -54 -111 -100.5t-132 -46.5h-27q-59 0 -122.5 36.5t-115.5 90.5q-55 59 -55 104zM168 164q0 -29 33 -29q24 0 64.5 25t74.5 61q80 92 80 144q0 28 -25 28 q-50 0 -145 -98q-82 -88 -82 -131zM362 618q0 12 7 15q11 12 107 77t136 87q20 0 56.5 -44t36.5 -67q-2 -14 -15 -20l-244 -131q-10 -7 -14 -7q-28 9 -49 38t-21 52z" />
<glyph unicode="&#xf4;" horiz-adv-x="645" d="M-39 231q2 53 63.5 126.5t143.5 126.5t139 53q37 0 86 -17.5t90 -46.5q115 -81 115 -164q0 -61 -74 -162q-42 -54 -111 -100.5t-132 -46.5h-27q-59 0 -122.5 36.5t-115.5 90.5q-55 59 -55 104zM168 164q0 -29 33 -29q24 0 64.5 25t74.5 61q80 92 80 144q0 28 -25 28 q-50 0 -145 -98q-82 -88 -82 -131zM293 625q0 17 10 24l138 86q54 31 63 31q9 2 44 -38.5t67.5 -82t33.5 -41.5q-39 -45 -86 -45q-10 0 -22 7.5t-23.5 19t-21 22t-18 21.5t-9.5 12q-33 -17 -111 -68q-9 -6 -16 -6q-18 0 -33.5 18.5t-15.5 39.5z" />
<glyph unicode="&#xf5;" horiz-adv-x="645" d="M-39 231q2 53 63.5 126.5t143.5 126.5t139 53q37 0 86 -17.5t90 -46.5q115 -81 115 -164q0 -61 -74 -162q-42 -54 -111 -100.5t-132 -46.5h-27q-59 0 -122.5 36.5t-115.5 90.5q-55 59 -55 104zM168 164q0 -29 33 -29q24 0 64.5 25t74.5 61q80 92 80 144q0 28 -25 28 q-50 0 -145 -98q-82 -88 -82 -131zM258 713q0 26 6 26q4 0 9.5 -7t20 -14t38.5 -7q36 0 110.5 18.5t116.5 18.5q55 0 92 -47.5t37 -110.5q0 -11 -4 -23l-4 3q-5 3 -10.5 6t-14.5 7t-19 7.5t-23.5 5.5t-26.5 2q-38 0 -112 -21.5t-109 -21.5q-30 0 -52 17t-33.5 43.5t-16.5 51 t-5 46.5z" />
<glyph unicode="&#xf6;" horiz-adv-x="645" d="M-39 231q2 53 63.5 126.5t143.5 126.5t139 53q37 0 86 -17.5t90 -46.5q115 -81 115 -164q0 -61 -74 -162q-42 -54 -111 -100.5t-132 -46.5h-27q-59 0 -122.5 36.5t-115.5 90.5q-55 59 -55 104zM168 164q0 -29 33 -29q24 0 64.5 25t74.5 61q80 92 80 144q0 28 -25 28 q-50 0 -145 -98q-82 -88 -82 -131zM322 647q0 50 35 90.5t85 40.5q44 -1 65 -30.5t21 -57.5q0 -44 -37.5 -86.5t-87.5 -42.5q-36 0 -58.5 24.5t-22.5 61.5zM528 580q0 52 37 94.5t90 42.5q46 -1 68 -31.5t22 -60.5q0 -45 -39.5 -90.5t-91.5 -45.5q-37 0 -61.5 26.5 t-24.5 64.5z" />
<glyph unicode="&#xf8;" horiz-adv-x="641" d="M-41 229q0 52 59 125.5t137 127t130 53.5q84 0 184 -66l23 23q10 14 30 -2q16 -16 8 -25q-12 -11 -24 -23q82 -68 82 -133q0 -81 -74 -172q-49 -62 -117.5 -101t-138.5 -36q-73 0 -152 45q-17 -15 -38 -39q0 -4 -9 6q-3 3 -4 6q-10 15 23 48q-119 92 -119 163zM164 158 l231 237q-22 0 -62 -27t-85 -73q-84 -91 -84 -135v-2zM188 129h11q54 0 139 92q78 86 82 137q-96 -90 -232 -229z" />
<glyph unicode="&#xf9;" horiz-adv-x="761" d="M-92 182q0 20 16 49.5t33.5 51.5t41.5 49.5t28 32.5q28 35 62.5 73.5t54.5 60.5l20 21q8 8 24 8q26 0 66 -20.5t69 -46.5t29 -41q0 -1 -1 -3t-1 -3q-11 -14 -29 -35.5t-35.5 -41.5t-33.5 -38.5t-25 -29.5l-10 -11q-4 -4 -10 -10.5t-21.5 -24t-27 -33t-21 -31.5t-8.5 -24 q0 -20 25 -20q12 0 30 10t34 24t38 36t36 37t33.5 37.5t24.5 27.5l170 196q3 13 23 13q37 0 96 -43t59 -72q0 -6 -2 -8l-176 -207q-26 -27 -26 -47q0 -15 18 -15q21 0 53.5 28t87.5 85q33 34 69 73.5t55 61.5l20 23q6 6 18 6q15 -3 25 -12.5t10 -18.5q0 -16 -148 -180 q-70 -79 -124.5 -124.5t-96.5 -45.5h-8q-52 0 -98 40t-66 89q-14 -18 -46 -48t-60 -50q-44 -31 -90 -31q-35 0 -79 27t-79 65q-47 53 -47 90zM248 662q0 24 41.5 59.5t72.5 40.5q12 0 35 -23q10 -11 31.5 -33.5t38.5 -41t35 -38t28 -33t11 -18.5q0 -23 -31 -48.5t-59 -28.5 q-9 0 -13 4l-182 143q-8 5 -8 17z" />
<glyph unicode="&#xfa;" horiz-adv-x="761" d="M-92 182q0 20 16 49.5t33.5 51.5t41.5 49.5t28 32.5q28 35 62.5 73.5t54.5 60.5l20 21q8 8 24 8q26 0 66 -20.5t69 -46.5t29 -41q0 -1 -1 -3t-1 -3q-11 -14 -29 -35.5t-35.5 -41.5t-33.5 -38.5t-25 -29.5l-10 -11q-4 -4 -10 -10.5t-21.5 -24t-27 -33t-21 -31.5t-8.5 -24 q0 -20 25 -20q12 0 30 10t34 24t38 36t36 37t33.5 37.5t24.5 27.5l170 196q3 13 23 13q37 0 96 -43t59 -72q0 -6 -2 -8l-176 -207q-26 -27 -26 -47q0 -15 18 -15q21 0 53.5 28t87.5 85q33 34 69 73.5t55 61.5l20 23q6 6 18 6q15 -3 25 -12.5t10 -18.5q0 -16 -148 -180 q-70 -79 -124.5 -124.5t-96.5 -45.5h-8q-52 0 -98 40t-66 89q-14 -18 -46 -48t-60 -50q-44 -31 -90 -31q-35 0 -79 27t-79 65q-47 53 -47 90zM289 600q0 12 6 18q12 14 127 93.5t158 103.5q17 0 42.5 -24t44.5 -54.5t19 -48.5q-2 -14 -16 -22l-289 -160q-10 -6 -16 -6 q-29 10 -52.5 42.5t-23.5 57.5z" />
<glyph unicode="&#xfb;" horiz-adv-x="761" d="M-92 182q0 20 16 49.5t33.5 51.5t41.5 49.5t28 32.5q28 35 62.5 73.5t54.5 60.5l20 21q8 8 24 8q26 0 66 -20.5t69 -46.5t29 -41q0 -1 -1 -3t-1 -3q-11 -14 -29 -35.5t-35.5 -41.5t-33.5 -38.5t-25 -29.5l-10 -11q-4 -4 -10 -10.5t-21.5 -24t-27 -33t-21 -31.5t-8.5 -24 q0 -20 25 -20q12 0 30 10t34 24t38 36t36 37t33.5 37.5t24.5 27.5l170 196q3 13 23 13q37 0 96 -43t59 -72q0 -6 -2 -8l-176 -207q-26 -27 -26 -47q0 -15 18 -15q21 0 53.5 28t87.5 85q33 34 69 73.5t55 61.5l20 23q6 6 18 6q15 -3 25 -12.5t10 -18.5q0 -16 -148 -180 q-70 -79 -124.5 -124.5t-96.5 -45.5h-8q-52 0 -98 40t-66 89q-14 -18 -46 -48t-60 -50q-44 -31 -90 -31q-35 0 -79 27t-79 65q-47 53 -47 90zM264 629q0 16 10 24l138 86q54 31 63 31q9 2 44.5 -38.5t68 -82t33.5 -41.5q-39 -45 -86 -45q-9 0 -21 7.5t-24 19t-21.5 22 t-18.5 21.5t-10 12q-32 -16 -110 -67q-10 -7 -17 -7q-18 0 -33.5 18.5t-15.5 39.5z" />
<glyph unicode="&#xfc;" horiz-adv-x="761" d="M-92 182q0 20 16 49.5t33.5 51.5t41.5 49.5t28 32.5q28 35 62.5 73.5t54.5 60.5l20 21q8 8 24 8q26 0 66 -20.5t69 -46.5t29 -41q0 -1 -1 -3t-1 -3q-11 -14 -29 -35.5t-35.5 -41.5t-33.5 -38.5t-25 -29.5l-10 -11q-4 -4 -10 -10.5t-21.5 -24t-27 -33t-21 -31.5t-8.5 -24 q0 -20 25 -20q12 0 30 10t34 24t38 36t36 37t33.5 37.5t24.5 27.5l170 196q3 13 23 13q37 0 96 -43t59 -72q0 -6 -2 -8l-176 -207q-26 -27 -26 -47q0 -15 18 -15q21 0 53.5 28t87.5 85q33 34 69 73.5t55 61.5l20 23q6 6 18 6q15 -3 25 -12.5t10 -18.5q0 -16 -148 -180 q-70 -79 -124.5 -124.5t-96.5 -45.5h-8q-52 0 -98 40t-66 89q-14 -18 -46 -48t-60 -50q-44 -31 -90 -31q-35 0 -79 27t-79 65q-47 53 -47 90zM250 647q0 49 35 90t86 41q30 -1 51 -18t28 -35.5t7 -34.5q0 -44 -37.5 -86.5t-87.5 -42.5q-36 0 -59 24.5t-23 61.5zM469 625 q0 33 16 64.5t45.5 52t65.5 20.5q25 -1 43.5 -11t28 -25t14 -29.5t4.5 -26.5q0 -45 -39.5 -90t-91.5 -45q-38 0 -62 26t-24 64z" />
<glyph unicode="&#xfd;" horiz-adv-x="657" d="M-150 -94q0 10 10.5 19t20.5 9q9 0 15 -6q47 -39 96 -39q54 0 122.5 59t121.5 134q-86 -82 -134 -82h-8q-56 0 -125 64t-69 116q0 23 26 60q14 22 68.5 88.5t103 122t49.5 55.5q8 8 23 8q39 0 99.5 -40t60.5 -64q0 -1 -1 -3.5t-1 -3.5l-187 -231q-26 -31 -26 -49 q0 -7 5 -13t15 -6q15 0 43 22t51 46t50.5 54t31.5 34l174 213q14 19 33 19q37 -7 91.5 -45.5t54.5 -65.5q0 -3 -3 -9t-9.5 -15t-12 -16t-15 -18.5t-14.5 -17.5l-311 -401q-110 -139 -236 -142q-52 0 -112.5 40.5t-95.5 93.5q-5 6 -5 10zM287 588q0 12 6 18q11 14 115.5 90 t144.5 99q33 -3 65.5 -44.5t34.5 -74.5q-2 -14 -18 -23l-262 -153q-9 -6 -15 -6q-26 10 -48.5 40.5t-22.5 53.5z" />
<glyph unicode="&#xfe;" horiz-adv-x="688" d="M-324 -70q0 21 15 39q5 8 152.5 182t293.5 344t146 169q8 8 22 8q33 0 93 -39.5t44 -61.5q-32 -38 -59 -65q35 14 59 14q57 0 121 -47q88 -69 88 -127q0 -51 -30 -104q-45 -84 -141 -163t-189 -79h-8q-117 0 -213 111q-60 -60 -189 -220q-29 -34 -53 -77q-1 -1 -3 -4.5 t-3 -5.5t-4.5 -3.5t-7.5 -1.5q-32 0 -83 41.5t-51 89.5zM170 176q0 -13 8 -22t21 -9q34 0 83 35t80 68q34 36 64.5 80.5t30.5 74.5q0 29 -27 29q-50 0 -158 -104q-35 -35 -68.5 -79.5t-33.5 -72.5z" />
<glyph unicode="&#xff;" horiz-adv-x="657" d="M-150 -94q0 10 10.5 19t20.5 9q9 0 15 -6q47 -39 96 -39q54 0 122.5 59t121.5 134q-86 -82 -134 -82h-8q-56 0 -125 64t-69 116q0 23 26 60q14 22 68.5 88.5t103 122t49.5 55.5q8 8 23 8q39 0 99.5 -40t60.5 -64q0 -1 -1 -3.5t-1 -3.5l-187 -231q-26 -31 -26 -49 q0 -7 5 -13t15 -6q15 0 43 22t51 46t50.5 54t31.5 34l174 213q14 19 33 19q37 -7 91.5 -45.5t54.5 -65.5q0 -3 -3 -9t-9.5 -15t-12 -16t-15 -18.5t-14.5 -17.5l-311 -401q-110 -139 -236 -142q-52 0 -112.5 40.5t-95.5 93.5q-5 6 -5 10zM252 629q0 44 30 79t74 35 q39 -1 57.5 -26.5t18.5 -50.5q0 -40 -32.5 -76.5t-77.5 -36.5q-31 0 -50.5 21.5t-19.5 54.5zM451 594q0 49 33 88t83 39q42 -1 62 -29t20 -55q0 -42 -36.5 -83.5t-84.5 -41.5q-34 0 -55.5 23.5t-21.5 58.5z" />
<glyph unicode="&#x152;" horiz-adv-x="1185" d="M4 289q0 133 229 352q98 93 213 161t195 68q35 0 88 -24q75 -33 137 -98l62 71q0 30 22 39q23 8 94.5 14.5t143.5 6.5q77 0 130 -7t62 -18q21 -26 21 -78q0 -30 -7.5 -59.5t-23.5 -34.5q-12 2 -53 2q-111 0 -221 -16l-140 -150q44 2 101 2q55 0 73 -10q25 -17 25 -68 q0 -31 -7 -59.5t-18 -28.5q-2 0 -13 1t-15 1q-176 -5 -303 -30q-37 -46 -78 -93l-14 -16q84 8 213 8q47 0 61 -31.5t14 -138.5q0 -12 -4.5 -14t-25.5 -2l-414 -37q-29 0 -66 43q-87 -41 -145 -41q-105 0 -215 96q-121 102 -121 189zM246 233q0 -26 30 -26q99 0 277 178 q54 56 107 137t53 131q0 10 -8 17.5t-21 7.5q-40 0 -117.5 -58.5t-142.5 -121.5q-71 -69 -124.5 -144t-53.5 -121z" />
<glyph unicode="&#x153;" horiz-adv-x="1021" d="M-41 229q0 52 59 125.5t137 127t130 53.5q51 0 115.5 -28.5t115.5 -72.5q120 109 201 109q57 0 145 -58q51 -35 72.5 -58.5t21.5 -51.5q0 -34 -47 -90q-96 -99 -235 -99q-38 0 -72 9v-13q0 -38 25 -62t61 -24q73 0 158 64q43 33 97.5 88t88.5 94l33 39q8 10 16 10 q13 0 25 -12t12 -23q0 -8 -2 -10l-14 -18q-139 -168 -219 -234q-113 -94 -195 -94h-16q-94 3 -193 98q-101 -98 -213 -98h-8q-79 0 -170 57q-129 96 -129 172zM164 160q0 -13 10 -22t25 -9q54 0 139 92q82 94 82 144q0 13 -6.5 21.5t-18.5 8.5q-22 0 -62 -27t-85 -73 q-84 -91 -84 -135zM625 256q97 0 161 49q22 15 39 37t17 37q0 22 -27 22q-31 0 -100 -51q-13 -10 -45.5 -42.5t-44.5 -51.5z" />
<glyph unicode="&#x178;" horiz-adv-x="880" d="M-41 -25q0 10 8.5 17.5t18.5 7.5t18 -8q92 -70 166 -70q36 0 66 15q91 43 202 192q-116 -109 -176 -109q-81 0 -159 79t-78 151q0 33 18 72t42.5 71.5t67.5 76t73.5 70.5t81 70.5t71.5 61.5q-37 -10 -80.5 -26t-79.5 -32t-66.5 -30.5t-48.5 -23.5l-18 -9q-27 0 -59.5 58 t-32.5 104q0 33 29 45q61 34 194 76.5t221 42.5q31 0 81.5 -26.5t91 -69t40.5 -79.5q0 -31 -62 -107t-136.5 -151.5t-136.5 -152t-62 -109.5q0 -14 9.5 -24.5t23.5 -10.5q27 0 66 23t89.5 71.5t93.5 93t105.5 118.5t96 115.5t91.5 113.5l58 70q6 12 24 12q41 0 105.5 -45 t64.5 -76q0 -2 -4 -10q-119 -138 -264.5 -325t-241 -310.5t-129.5 -153.5q-96 -84 -184 -84q-81 0 -178 72q-52 39 -86.5 78.5t-34.5 64.5zM590 926q0 49 36 91t87 42q45 -1 66.5 -31t21.5 -59q0 -44 -38.5 -87.5t-88.5 -43.5q-38 0 -61 24.5t-23 63.5zM823 911q0 52 38 96 t91 44q33 -1 55 -19.5t29.5 -38t7.5 -37.5q0 -45 -40 -91t-93 -46q-39 0 -63.5 26.5t-24.5 65.5z" />
<glyph unicode="&#x2c6;" horiz-adv-x="397" d="M20 733q0 17 11 25l137 85q55 32 63 31q9 2 44.5 -38.5t68 -81.5t33.5 -41q-39 -45 -86 -45q-10 0 -22 7.5t-23.5 19t-21 22t-18 21.5t-9.5 12q-33 -17 -111 -68q-9 -6 -16 -6q-19 0 -34.5 18t-15.5 39z" />
<glyph unicode="&#x2dc;" horiz-adv-x="540" d="M205 743q0 29 6 29q5 0 11 -8t20.5 -15.5t40.5 -7.5q37 0 115 19.5t122 19.5q57 0 95 -49.5t38 -114.5q0 -12 -4 -24l-5 3q-4 3 -10 6.5t-15.5 8t-19.5 7.5t-24 5.5t-28 2.5q-39 0 -117.5 -22.5t-112.5 -22.5q-31 0 -54.5 17.5t-35 44.5t-17 52.5t-5.5 48.5z" />
<glyph unicode="&#x2000;" horiz-adv-x="682" />
<glyph unicode="&#x2001;" horiz-adv-x="1365" />
<glyph unicode="&#x2002;" horiz-adv-x="682" />
<glyph unicode="&#x2003;" horiz-adv-x="1365" />
<glyph unicode="&#x2004;" horiz-adv-x="455" />
<glyph unicode="&#x2005;" horiz-adv-x="341" />
<glyph unicode="&#x2006;" horiz-adv-x="227" />
<glyph unicode="&#x2007;" horiz-adv-x="227" />
<glyph unicode="&#x2008;" horiz-adv-x="170" />
<glyph unicode="&#x2009;" horiz-adv-x="273" />
<glyph unicode="&#x200a;" horiz-adv-x="75" />
<glyph unicode="&#x2010;" horiz-adv-x="466" d="M51 428q0 12 10 23t23 12q50 6 235 6q22 0 33 -3t22 -15.5t15 -40t4 -74.5q0 -26 -6.5 -36.5t-32.5 -10.5h-45q-36 0 -105 -3t-110 -3q-43 0 -43 145z" />
<glyph unicode="&#x2011;" horiz-adv-x="466" d="M51 428q0 12 10 23t23 12q50 6 235 6q22 0 33 -3t22 -15.5t15 -40t4 -74.5q0 -26 -6.5 -36.5t-32.5 -10.5h-45q-36 0 -105 -3t-110 -3q-43 0 -43 145z" />
<glyph unicode="&#x2012;" horiz-adv-x="466" d="M51 428q0 12 10 23t23 12q50 6 235 6q22 0 33 -3t22 -15.5t15 -40t4 -74.5q0 -26 -6.5 -36.5t-32.5 -10.5h-45q-36 0 -105 -3t-110 -3q-43 0 -43 145z" />
<glyph unicode="&#x2013;" horiz-adv-x="544" d="M20 -39h504v-84h-504v84z" />
<glyph unicode="&#x2014;" horiz-adv-x="544" d="M20 532v84h504v-84h-504z" />
<glyph unicode="&#x2018;" horiz-adv-x="323" d="M20 782q1 18 38 37t69 19q14 0 24.5 -5t14.5 -11l4 -5l133 -231q-1 -15 -31 -30t-57 -15t-45 18q-18 19 -54 72t-62 96l-27 43q-7 8 -7 12z" />
<glyph unicode="&#x2019;" horiz-adv-x="266" d="M80 567q28 42 81 108t64 75q33 0 79 -33t46 -60q0 -11 -6 -20l-137 -141q-19 -17 -27 -17q-29 0 -64.5 30.5t-35.5 57.5z" />
<glyph unicode="&#x201a;" horiz-adv-x="321" d="M20 -27q0 6 5 11q0 -3 29.5 31.5t63 78.5t42.5 64q10 16 13.5 19t10.5 3q32 0 74.5 -27.5t42.5 -52.5q0 -11 -6 -20q-34 -50 -102.5 -113t-106.5 -63q-27 0 -46.5 22t-19.5 47z" />
<glyph unicode="&#x201c;" horiz-adv-x="428" d="M-133 782q1 18 38 37t68 19q14 0 24.5 -5t14.5 -11l4 -5l134 -231q-1 -15 -31.5 -30t-57.5 -15t-45 18q-21 22 -58 76t-64 98.5t-27 48.5zM111 756q0 18 39.5 35.5t68.5 17.5q30 0 39 -18l117 -228q2 -6 2 -8q-3 -24 -33 -35.5t-57 -11.5q-7 0 -15.5 4.5t-13.5 9.5l-4 4 l-127 201q-16 25 -16 29z" />
<glyph unicode="&#x201d;" horiz-adv-x="440" d="M205 604l2 8l162 203q11 14 30 14q33 0 73 -25.5t40 -43.5q0 -6 -23 -29l-170 -180q-17 -14 -32 -14q-29 0 -55.5 21t-26.5 46zM438 600q0 15 8 23q13 16 158 182q10 14 35 14q31 0 70 -24.5t39 -44.5q0 -6 -9 -15q-114 -125 -182 -186q-14 -14 -37 -14t-52.5 21.5 t-29.5 43.5z" />
<glyph unicode="&#x201e;" horiz-adv-x="550" d="M20 229q1 18 38 37t69 19q14 0 24.5 -5.5t14.5 -10.5l4 -5l133 -231q-1 -15 -31 -30t-57 -15t-45 18q-18 19 -54 72t-62 96l-27 43q-7 8 -7 12zM264 203q0 18 40 35.5t69 17.5q30 0 39 -18l116 -228q2 -6 2 -8q-3 -24 -33 -35.5t-57 -11.5q-7 0 -15 4.5t-13 8.5l-4 5 l-127 201q-17 25 -17 29z" />
<glyph unicode="&#x2022;" horiz-adv-x="489" d="M72 428q0 76 57.5 141.5t136.5 65.5q36 -1 63 -16t41 -37.5t20.5 -43t6.5 -38.5q0 -67 -58 -133t-134 -66q-56 0 -94.5 35.5t-38.5 91.5z" />
<glyph unicode="&#x202f;" horiz-adv-x="273" />
<glyph unicode="&#x2039;" horiz-adv-x="563" d="M20 362q0 27 17 44q29 32 72 69l358 309q27 23 51 23q35 -1 71 -40.5t36 -66.5q0 -3 -7 -10l-415 -330q210 -286 211 -288q2 -2 2 -6q0 -20 -32.5 -43t-57.5 -23q-35 0 -50 20q-166 200 -211 261t-45 81z" />
<glyph unicode="&#x203a;" horiz-adv-x="565" d="M-41 100q0 5 6 11l395 317q-206 280 -208 287q-2 2 -2 6q0 20 40.5 49t65.5 29q33 0 49 -21q55 -67 147.5 -194.5t92.5 -157.5q0 -24 -21 -45q-38 -41 -71 -70l-359 -297q-8 -14 -39 -14q-44 0 -70 34t-26 66z" />
<glyph unicode="&#x205f;" horiz-adv-x="341" />
<glyph unicode="&#x20ac;" horiz-adv-x="665" d="M0 432q0 9 8 17t17 8q12 0 36.5 1t38.5 1q1 3 11 18h-37q-9 0 -13.5 2t-8 11.5t-3.5 27.5q0 9 8 17t17 8q61 0 88 2q66 76 153 143q62 47 129.5 82t114.5 35q29 0 72.5 -21.5t79.5 -52.5q47 -38 47 -76q0 -12 -8 -28q-32 -57 -78 -101q-25 -22 -37 -22q-21 0 -59.5 35 t-38.5 55q0 4 2 6q4 6 11 14.5t14.5 14.5t20 17t19.5 18q-26 -3 -78.5 -36t-109.5 -83h37q18 0 29 -1t27.5 -4.5t25 -13.5t8.5 -26q0 -23 -25 -23h-174l-16 -18h73q95 0 95 -41q0 -25 -25 -25h-195q-36 -45 -36 -86q0 -37 39 -37q35 0 74.5 24t66.5 48.5t31 24.5 q25 0 61.5 -28t36.5 -48q-4 -27 -42.5 -63.5t-80.5 -61.5q-60 -35 -111 -35q-49 0 -105 35t-95 84q-47 51 -47 108q0 13 4 37q-5 0 -22.5 -1t-22.5 -1q-9 0 -13.5 2t-9 11t-4.5 26z" />
<glyph unicode="&#x2122;" horiz-adv-x="528" d="M20 598q0 6 5 14q5 7 96 123l-21 2q-12 0 -12 31q0 20 6 23q36 4 72 4l12 6l10 -4h25.5t18 -0.5t11 -1t7.5 -0.5h2q10 -1 12 -8.5t2 -30.5l33 41q0 2 6 2q13 0 34 -11.5t21 -21.5q-2 -10 -28 -76l110 101q3 6 11 6q10 0 31 -13t24 -24q0 -3 -18 -27t-61.5 -80.5 t-70.5 -91.5q-11 2 -23.5 13.5t-12.5 23.5q0 6 6 12q4 7 26.5 37t30.5 43q-41 -36 -109 -104q-28 8 -28 24q0 7 9 25t21.5 39.5t14.5 25.5q-13 -13 -41.5 -48t-50 -62t-23.5 -27q-13 0 -25 11t-12 22q0 6 4 14q23 34 111 135l-53 -4l-148 -178q-11 0 -23 11t-12 24z" />
<glyph unicode="&#xe000;" horiz-adv-x="501" d="M0 0v502h502v-502h-502z" />
<glyph unicode="&#xfb01;" horiz-adv-x="929" d="M-195 -100q0 58 74 163q56 76 227 291l-79 -86q-6 -6 -21 -6q-10 0 -19.5 10t-9.5 21q0 4 3 10l90 113q-11 28 -11 57q0 10 10.5 16t20.5 7h10l113 4q216 263 272 334q17 26 39 26q39 0 101.5 -43.5t62.5 -73.5l-2 -10l-190 -223q36 2 69 2q53 0 53 -37 q0 -15 -15.5 -27.5t-41.5 -15.5l-139 -12l-29 -35q19 -62 19 -121q0 -120 -70 -260q-62 -122 -151.5 -205.5t-180.5 -83.5q-53 0 -110 39q-95 70 -95 146zM-18 -166q0 -24 30 -24q28 0 68 28t65 53q78 75 130.5 181.5t52.5 208.5v18q-41 -53 -150 -182.5t-166 -208.5 q-30 -45 -30 -74zM442 180q0 37 27 72q22 29 76.5 94t98.5 116l44 50q9 12 23 12q39 0 103.5 -43.5t64.5 -72.5q0 -7 -2 -9l-197 -231q-27 -31 -27 -51q0 -17 21 -17q28 0 86 54q34 32 107 109.5t83 90.5q13 8 19 8q12 0 23.5 -10t11.5 -22l-3 -11q-143 -173 -215 -239 q-46 -43 -78.5 -61.5t-64.5 -18.5q-54 0 -127 63t-74 117zM786 629q0 66 46.5 120t113.5 54q31 -1 55 -14t36 -32.5t18 -37.5t6 -33q0 -58 -50.5 -115t-115.5 -57q-48 0 -78.5 33.5t-30.5 81.5z" />
<glyph unicode="&#xfb02;" horiz-adv-x="950" d="M-195 -100q0 58 74 163q56 76 227 291l-79 -86q-6 -6 -21 -6q-10 0 -19.5 10t-9.5 21q0 4 3 10l90 113q-11 28 -11 57q0 10 10.5 16t20.5 7h10l113 4q216 263 272 334q17 26 39 26q39 0 101.5 -43.5t62.5 -73.5l-2 -10l-190 -223q36 2 69 2q53 0 53 -37 q0 -15 -15.5 -27.5t-41.5 -15.5l-139 -12l-29 -35q19 -62 19 -121q0 -120 -70 -260q-62 -122 -151.5 -205.5t-180.5 -83.5q-53 0 -110 39q-95 70 -95 146zM-18 -166q0 -24 30 -24q28 0 68 28t65 53q78 75 130.5 181.5t52.5 208.5v18q-41 -53 -150 -182.5t-166 -208.5 q-30 -45 -30 -74zM461 193q0 51 61 120q169 200 457 549q5 10 20 10q34 0 100 -41t66 -77q0 -3 -4 -11l-446 -540q-39 -47 -39 -70q2 -22 24 -22q9 0 19 3.5t23.5 12.5t25 17.5t29.5 26t31 30.5t36.5 38t38 41l43.5 48t47 51q8 8 19 8q13 0 24 -10t11 -23l-5 -10 q-134 -168 -243 -270q-77 -74 -131 -74q-43 0 -100.5 43t-90.5 94q-16 27 -16 56z" />
</font>
</defs>
</svg>
