<?xml version="1.0" standalone="no"?>
<!DOCTYPE svg PUBLIC "-//W3C//DTD SVG 1.1//EN" "http://www.w3.org/Graphics/SVG/1.1/DTD/svg11.dtd" >
<svg>
<metadata>
Created by FontForge 20110222 at Tue Sep 24 20:02:21 2013
 By Orthosie Webhosting
Copyright (c) 2007 by Silas Dilworth. All rights reserved.
</metadata>
<defs>
<font id="BreuerTextBold" horiz-adv-x="540" >
  <font-face 
    font-family="BreuerTextBold"
    font-weight="700"
    font-stretch="normal"
    units-per-em="1000"
    panose-1="2 0 5 6 4 0 0 2 0 4"
    ascent="750"
    descent="-250"
    x-height="500"
    cap-height="650"
    bbox="-40 -201 988 893"
    underline-thickness="50"
    underline-position="-50"
    unicode-range="U+0020-2265"
  />
<missing-glyph horiz-adv-x="450" 
d="M50 0v650h350v-650h-350zM241 325l129 -285v570zM208 325l-128 285v-570zM109 620l116 -259l116 259h-232zM225 288l-116 -258h232z" />
    <glyph glyph-name=".notdef" horiz-adv-x="450" 
d="M50 0v650h350v-650h-350zM241 325l129 -285v570zM208 325l-128 285v-570zM109 620l116 -259l116 259h-232zM225 288l-116 -258h232z" />
    <glyph glyph-name=".null" horiz-adv-x="0" 
 />
    <glyph glyph-name="nonmarkingreturn" horiz-adv-x="333" 
 />
    <glyph glyph-name="space" unicode=" " horiz-adv-x="230" 
 />
    <glyph glyph-name="exclam" unicode="!" horiz-adv-x="276" 
d="M88 217l-33 433h166l-33 -433h-100zM65 0v146h146v-146h-146z" />
    <glyph glyph-name="quotedbl" unicode="&#x22;" horiz-adv-x="390" 
d="M327 344h-84l-28 306h140zM147 344h-84l-28 306h140z" />
    <glyph glyph-name="numbersign" unicode="#" horiz-adv-x="560" 
d="M509 234l-7 -78h-94l-13 -156h-91l13 156h-106l-13 -156h-90l14 156h-94l7 78h94l16 183h-94l7 78h94l13 155h90l-14 -155h106l14 155h91l-14 -155h94l-7 -78h-94l-16 -183h94zM234 417l-16 -183h106l16 183h-106z" />
    <glyph glyph-name="dollar" unicode="$" horiz-adv-x="511" 
d="M471 225q0 -32 -4 -53t-19 -45t-49.5 -38t-89.5 -19v-90h-106v90q-91 8 -127 48t-36 119h138q0 -35 17 -47t62 -12q41 0 58.5 11t17.5 36q0 34 -18 46t-82 17q-110 9 -149 42.5t-39 105.5q0 136 158 153v81h106v-81q83 -8 118.5 -46.5t35.5 -121.5h-138q0 14 -1.5 21.5
t-7.5 18.5t-22 16t-42 5q-41 0 -55 -13t-14 -37q0 -28 15.5 -40t63.5 -16q131 -11 170 -41t39 -110z" />
    <glyph glyph-name="percent" unicode="%" horiz-adv-x="652" 
d="M180 372q-74 0 -107 32.5t-33 112.5t33.5 112.5t106.5 32.5t106.5 -32.5t33.5 -112.5t-33 -112.5t-107 -32.5zM180 441q30 0 42.5 16t12.5 60t-12.5 60t-42.5 16t-42.5 -16t-12.5 -60t12.5 -60t42.5 -16zM68 0l427 650h89l-427 -650h-89zM472 278q74 0 107 -32.5
t33 -112.5t-33.5 -112.5t-106.5 -32.5t-106.5 32.5t-33.5 112.5t33 112.5t107 32.5zM472 209q-30 0 -42.5 -16t-12.5 -60t12.5 -60t42.5 -16t42.5 16t12.5 60t-12.5 60t-42.5 16z" />
    <glyph glyph-name="ampersand" unicode="&#x26;" horiz-adv-x="608" 
d="M563 275h-63v-97q0 -36 16.5 -50t51.5 -14v-114q-53 0 -86.5 11.5t-53.5 42.5q-53 -66 -160 -66q-120 0 -174.5 44.5t-54.5 142.5q0 114 110 159q-95 48 -95 145q0 183 212 183q118 0 167.5 -42t49.5 -147h-140q0 43 -18 59t-59 16q-38 0 -55.5 -17.5t-17.5 -58.5
q0 -87 72 -87h298v-110zM271 102q89 0 89 93v80h-100q-36 0 -58 -21.5t-22 -65.5q0 -48 22.5 -67t68.5 -19z" />
    <glyph glyph-name="quotesingle" unicode="'" horiz-adv-x="210" 
d="M147 344h-84l-28 306h140z" />
    <glyph glyph-name="parenleft" unicode="(" horiz-adv-x="322" 
d="M152 285q0 -237 140 -405h-97q-150 171 -150 405t150 405h97q-140 -168 -140 -405z" />
    <glyph glyph-name="parenright" unicode=")" horiz-adv-x="322" 
d="M170 285q0 237 -140 405h97q150 -171 150 -405t-150 -405h-97q140 168 140 405z" />
    <glyph glyph-name="asterisk" unicode="*" horiz-adv-x="532" 
d="M289 488l157 105l46 -142l-189 -7l149 -117l-120 -87l-66 177l-66 -177l-120 87l149 117l-189 7l46 142l157 -105l-52 182h150z" />
    <glyph glyph-name="plus" unicode="+" horiz-adv-x="512" 
d="M50 226v98h157v158h98v-158h157v-98h-157v-158h-98v158h-157z" />
    <glyph glyph-name="comma" unicode="," horiz-adv-x="231" 
d="M45 -130v276h146l-58 -276h-88z" />
    <glyph glyph-name="hyphen" unicode="-" horiz-adv-x="350" 
d="M50 218v114h250v-114h-250z" />
    <glyph glyph-name="period" unicode="." horiz-adv-x="236" 
d="M45 0v146h146v-146h-146z" />
    <glyph glyph-name="slash" unicode="/" horiz-adv-x="343" 
d="M30 -40l173 730h110l-172 -730h-111z" />
    <glyph glyph-name="zero" unicode="0" horiz-adv-x="554" 
d="M277 102q57 0 77 21.5t20 78.5v243q0 62 -21 82.5t-76 20.5t-76 -20.5t-21 -82.5v-243q0 -57 20 -78.5t77 -21.5zM277 662q123 0 180 -51.5t57 -169.5v-230q0 -118 -57.5 -170.5t-179.5 -52.5t-179.5 52.5t-57.5 170.5v230q0 118 57 169.5t180 51.5z" />
    <glyph glyph-name="one" unicode="1" horiz-adv-x="387" 
d="M297 0h-140v536h-107v62l157 52h90v-650z" />
    <glyph glyph-name="two" unicode="2" 
d="M180 453h-138q0 111 58.5 160t172.5 49q125 0 176.5 -53t51.5 -154q0 -62 -32.5 -104.5t-78.5 -65.5t-92 -43.5t-78.5 -51.5t-32.5 -76h318v-114h-465v89q0 56 17.5 98.5t46 68.5t62.5 45t68.5 33.5t63 29.5t46 37t17.5 51q0 48 -19.5 72t-68.5 24t-71 -21.5t-22 -73.5z
" />
    <glyph glyph-name="three" unicode="3" horiz-adv-x="553" 
d="M279 102q53 0 76 22.5t23 67.5q0 23 -7 39.5t-16 24.5t-24 12.5t-25.5 5.5t-24.5 1h-61v110h54q46 0 68.5 16.5t22.5 66.5q0 40 -19 60t-70 20q-50 0 -72 -22t-22 -73h-137q0 106 55.5 157.5t175.5 51.5q126 0 177.5 -50t51.5 -141q0 -101 -101 -137q114 -33 114 -149
q0 -47 -9.5 -80.5t-35 -61t-74 -41.5t-120.5 -14q-126 0 -182.5 50.5t-56.5 157.5h140q0 -94 99 -94z" />
    <glyph glyph-name="four" unicode="4" horiz-adv-x="561" 
d="M320 0v130h-295v111l260 409h175v-406h71v-114h-71v-130h-140zM146 244h174v282z" />
    <glyph glyph-name="five" unicode="5" horiz-adv-x="539" 
d="M51 299l31 351h388v-114h-269l-11 -143q59 31 116 31q99 0 148.5 -44.5t49.5 -160.5t-53 -173.5t-182 -57.5q-126 0 -182.5 50.5t-56.5 157.5h140q0 -50 24 -72t75 -22q52 0 73.5 26t21.5 91q0 64 -20 86.5t-75 22.5q-18 0 -42.5 -9t-36.5 -20h-139z" />
    <glyph glyph-name="six" unicode="6" horiz-adv-x="550" 
d="M180 457v-93q60 34 135 34q105 0 150 -47.5t45 -146.5q0 -102 -52.5 -159t-182.5 -57q-69 0 -116.5 16.5t-72.5 47.5t-35.5 67.5t-10.5 83.5v250q0 106 56 157.5t173 51.5q123 0 177.5 -48.5t54.5 -148.5h-140q0 43 -21 63t-71 20q-45 0 -67 -20t-22 -71zM278 305
q-62 0 -98 -34v-61q0 -55 19.5 -81.5t72.5 -26.5q58 0 78 24.5t20 76.5q0 56 -19.5 79t-72.5 23z" />
    <glyph glyph-name="seven" unicode="7" horiz-adv-x="474" 
d="M243 0h-146l212 536h-289v114h434v-98z" />
    <glyph glyph-name="eight" unicode="8" horiz-adv-x="549" 
d="M275 -12q-125 0 -185 43.5t-60 140.5q0 121 114 162q-98 42 -98 148q0 94 56.5 137t172.5 43q228 0 228 -177q0 -108 -97 -151q113 -42 113 -162q0 -97 -59.5 -140.5t-184.5 -43.5zM275 381q91 0 91 83q0 47 -21 65.5t-70 18.5t-70 -18.5t-21 -65.5q0 -83 91 -83z
M275 102q52 0 77 20t25 65q0 54 -25.5 73t-76.5 19t-76.5 -19t-25.5 -73q0 -45 25 -65t77 -20z" />
    <glyph glyph-name="nine" unicode="9" horiz-adv-x="550" 
d="M370 193v96q-60 -34 -135 -34q-105 0 -150 47.5t-45 146.5q0 101 52.5 157t182.5 56q69 0 116.5 -16.5t72.5 -47.5t35.5 -67.5t10.5 -83.5v-250q0 -106 -55.5 -157.5t-172.5 -51.5q-127 0 -180.5 48t-53.5 150h140q0 -43 22 -63.5t72 -20.5q45 0 66.5 20t21.5 71z
M272 348q62 0 98 34v58q0 55 -19.5 81.5t-72.5 26.5q-58 0 -78 -24.5t-20 -76.5q0 -56 19.5 -77.5t72.5 -21.5z" />
    <glyph glyph-name="colon" unicode=":" horiz-adv-x="236" 
d="M45 0v146h146v-146h-146zM45 274v146h146v-146h-146z" />
    <glyph glyph-name="semicolon" unicode=";" horiz-adv-x="231" 
d="M45 274v146h146v-146h-146zM45 -130v276h146l-58 -276h-88z" />
    <glyph glyph-name="less" unicode="&#x3c;" horiz-adv-x="365" 
d="M225 -40l-195 365l195 365h110l-198 -365l198 -365h-110z" />
    <glyph glyph-name="equal" unicode="=" horiz-adv-x="512" 
d="M462 326h-412v98h412v-98zM462 126h-412v98h412v-98z" />
    <glyph glyph-name="greater" unicode="&#x3e;" horiz-adv-x="365" 
d="M335 325l-195 -365h-110l198 365l-198 365h110z" />
    <glyph glyph-name="question" unicode="?" horiz-adv-x="530" 
d="M220 196l-17 165q95 0 121 20t26 86q0 46 -22.5 62.5t-63.5 16.5q-42 0 -64 -17t-22 -65h-138q0 103 53 150.5t171 47.5t172 -47.5t54 -147.5q0 -101 -43 -146.5t-130 -56.5l-8 -68h-89zM191 0v146h146v-146h-146z" />
    <glyph glyph-name="at" unicode="@" horiz-adv-x="790" 
d="M60 170v146q0 136 83 211t252 75q168 0 251.5 -75t83.5 -211v-146q0 -136 -83.5 -211t-251.5 -75q-166 0 -250.5 75.5t-84.5 210.5zM154 312v-138q0 -202 241 -202t241 202v138q0 202 -241 202t-241 -202zM368 142q45 0 79 29v57l-80 -9q-39 -4 -39 -40q0 -18 11 -27.5
t29 -9.5zM231 169q0 94 117 103l99 7v35q0 24 -12.5 35t-41.5 11q-30 0 -42 -11.5t-12 -35.5h-94q0 122 148 122q80 0 115 -29.5t35 -91.5v-239h-70l-16 30q-49 -39 -108 -39q-57 0 -87.5 27t-30.5 76z" />
    <glyph glyph-name="A" unicode="A" horiz-adv-x="537" 
d="M382 0l-27 124h-175l-26 -124h-144l169 650h177l171 -650h-145zM267 529l-61 -293h123l-60 293h-2z" />
    <glyph glyph-name="B" unicode="B" horiz-adv-x="558" 
d="M60 0v650h233q120 0 164.5 -38.5t44.5 -129.5q0 -102 -73 -142q94 -37 94 -157q0 -183 -217 -183h-246zM200 114h102q41 0 60.5 18.5t19.5 61.5q0 46 -21.5 63.5t-61.5 17.5h-99v-161zM289 536h-89v-151h88q40 0 57.5 17t17.5 59q0 75 -74 75z" />
    <glyph glyph-name="C" unicode="C" horiz-adv-x="548" 
d="M279 102q49 0 70 23.5t21 80.5h138q0 -114 -54 -166t-175 -52t-177.5 56.5t-56.5 176.5v208q0 122 57.5 177.5t176.5 55.5q121 0 175 -51.5t54 -165.5h-138q0 55 -21.5 79t-69.5 24q-47 0 -70.5 -23t-23.5 -75v-250q0 -98 94 -98z" />
    <glyph glyph-name="D" unicode="D" horiz-adv-x="572" 
d="M279 536h-79v-422h79q63 0 85.5 26t22.5 82v214q0 36 -6 56.5t-22.5 30t-32 11.5t-47.5 2zM282 0h-222v650h222q131 0 188 -47t57 -183v-188q0 -136 -57.5 -184t-187.5 -48z" />
    <glyph glyph-name="E" unicode="E" horiz-adv-x="503" 
d="M60 0v650h398v-114h-258v-151h224v-110h-224v-161h258v-114h-398z" />
    <glyph glyph-name="F" unicode="F" horiz-adv-x="468" 
d="M200 0h-140v650h378v-114h-238v-151h203v-110h-203v-275z" />
    <glyph glyph-name="G" unicode="G" horiz-adv-x="570" 
d="M279 -12q-121 0 -177.5 56t-56.5 177v207q0 121 58.5 177.5t175.5 56.5q121 0 176 -51.5t55 -165.5h-140q0 103 -91 103q-47 0 -70.5 -23t-23.5 -75v-250q0 -54 24.5 -76t74.5 -22q49 0 72.5 24t23.5 81v68h-103v110h243v-385h-68l-23 43q-58 -55 -150 -55z" />
    <glyph glyph-name="H" unicode="H" horiz-adv-x="579" 
d="M519 650v-650h-140v275h-179v-275h-140v650h140v-265h179v265h140z" />
    <glyph glyph-name="I" unicode="I" horiz-adv-x="260" 
d="M60 0v650h140v-650h-140z" />
    <glyph glyph-name="J" unicode="J" horiz-adv-x="360" 
d="M160 536h-95v114h235v-488q0 -48 -5.5 -76.5t-23.5 -52.5t-54 -34.5t-95 -10.5q-46 0 -97 12v114q41 -12 78 -12q33 0 45 13t12 45v376z" />
    <glyph glyph-name="K" unicode="K" horiz-adv-x="523" 
d="M513 650l-200 -314l205 -336h-160l-158 276v-276h-140v650h140v-266l152 266h161z" />
    <glyph glyph-name="L" unicode="L" horiz-adv-x="418" 
d="M60 0v650h140v-536h198v-114h-338z" />
    <glyph glyph-name="M" unicode="M" horiz-adv-x="729" 
d="M533 0v301l8 199l-123 -500h-107l-123 500l8 -200v-300h-136v650h195l108 -461h3l108 461h195v-650h-136z" />
    <glyph glyph-name="N" unicode="N" horiz-adv-x="584" 
d="M524 650v-650h-161l-176 453q5 -65 5 -179v-274h-132v650h161l176 -453q-5 92 -5 184v269h132z" />
    <glyph glyph-name="O" unicode="O" horiz-adv-x="569" 
d="M384 206v238q0 54 -24 79t-76 25q-51 0 -75 -25t-24 -78v-239q0 -54 23.5 -79t75.5 -25t76 25t24 79zM45 210v230q0 114 57 168t182 54t182.5 -53.5t57.5 -168.5v-230q0 -114 -57.5 -168t-182.5 -54t-182 54t-57 168z" />
    <glyph glyph-name="P" unicode="P" horiz-adv-x="550" 
d="M200 338h83q50 0 71 21t21 78q0 56 -21 77.5t-70 21.5h-84v-198zM60 0v650h223q124 0 178 -43.5t54 -168.5q0 -119 -54 -164.5t-176 -45.5h-85v-228h-140z" />
    <glyph glyph-name="Q" unicode="Q" horiz-adv-x="569" 
d="M45 210v230q0 114 57 168t182 54t182.5 -53.5t57.5 -168.5v-230q0 -98 -43 -152.5t-135 -66.5q9 -35 53 -35h50l-26 -64h-68q-111 0 -130 99q-93 11 -136.5 65t-43.5 154zM384 206v238q0 54 -24 79t-76 25q-51 0 -75 -25t-24 -78v-239q0 -54 23.5 -79t75.5 -25t76 25
t24 79z" />
    <glyph glyph-name="R" unicode="R" horiz-adv-x="560" 
d="M60 0v650h223q126 0 179.5 -43.5t53.5 -168.5q0 -152 -105 -193l119 -245h-150l-104 228h-76v-228h-140zM200 338h83q50 0 71 21t21 78q0 56 -21 77.5t-70 21.5h-84v-198z" />
    <glyph glyph-name="S" unicode="S" horiz-adv-x="557" 
d="M372 193q0 39 -25 56t-108 32q-102 18 -149 59.5t-47 133.5q0 89 57.5 138.5t172.5 49.5q123 0 176 -44t53 -148h-140q0 41 -21.5 59.5t-68.5 18.5q-46 0 -66.5 -18.5t-20.5 -56.5q0 -45 23.5 -65t95.5 -32q120 -19 164 -58t44 -123q0 -111 -61 -159t-177 -48
q-128 0 -183.5 48t-55.5 158h140q0 -50 23.5 -71t75.5 -21q54 0 76 20t22 71z" />
    <glyph glyph-name="T" unicode="T" horiz-adv-x="458" 
d="M159 0v536h-144v114h428v-114h-144v-536h-140z" />
    <glyph glyph-name="U" unicode="U" horiz-adv-x="575" 
d="M55 650h140v-449q0 -52 21.5 -75t71.5 -23t71 23t21 75v449h140v-442q0 -121 -56.5 -170t-175.5 -49q-120 0 -176.5 49t-56.5 170v442z" />
    <glyph glyph-name="V" unicode="V" horiz-adv-x="538" 
d="M528 650l-171 -650h-176l-171 650h144l114 -525h2l114 525h144z" />
    <glyph glyph-name="W" unicode="W" horiz-adv-x="819" 
d="M577 121l77 529h140l-119 -650h-189l-76 527l-76 -527h-189l-120 650h141l76 -529h2l81 529h170l80 -529h2z" />
    <glyph glyph-name="X" unicode="X" horiz-adv-x="511" 
d="M165 650l90 -217h1l90 217h156l-170 -315q114 -219 174 -335h-155q-16 37 -47.5 117.5t-47.5 118.5q-19 -43 -53 -128.5t-43 -107.5h-155q60 116 174 335l-170 315h156z" />
    <glyph glyph-name="Y" unicode="Y" horiz-adv-x="528" 
d="M194 0v239l-184 411h151l102 -285h2l102 285h151l-184 -411v-239h-140z" />
    <glyph glyph-name="Z" unicode="Z" horiz-adv-x="507" 
d="M50 536v114h412v-99l-264 -437h274v-114h-432v99l262 437h-252z" />
    <glyph glyph-name="bracketleft" unicode="[" horiz-adv-x="312" 
d="M60 -122v814h202v-69h-106v-676h106v-69h-202z" />
    <glyph glyph-name="backslash" unicode="\" horiz-adv-x="333" 
d="M130 690l173 -730h-101l-172 730h100z" />
    <glyph glyph-name="bracketright" unicode="]" horiz-adv-x="312" 
d="M252 692v-814h-202v69h106v676h-106v69h202z" />
    <glyph glyph-name="asciicircum" unicode="^" horiz-adv-x="484" 
d="M241 543l-80 -192h-116l137 299h120l137 -299h-116l-80 192h-2z" />
    <glyph glyph-name="underscore" unicode="_" horiz-adv-x="485" 
d="M55 0v114h375v-114h-375z" />
    <glyph glyph-name="grave" unicode="`" horiz-adv-x="235" 
d="M167 685l28 -120h-83l-72 120h127z" />
    <glyph glyph-name="a" unicode="a" horiz-adv-x="525" 
d="M227 98q65 0 112 41v78l-114 -13q-54 -6 -54 -55q0 -25 15 -38t41 -13zM35 136q0 68 38.5 105t124.5 43l141 10v44q0 35 -17 49.5t-59 14.5t-59 -15t-17 -50h-134q0 88 49.5 131.5t159.5 43.5q114 0 163.5 -42t49.5 -132v-338h-99l-23 43q-68 -55 -153 -55
q-82 0 -123.5 39t-41.5 109z" />
    <glyph glyph-name="b" unicode="b" horiz-adv-x="539" 
d="M177 43l-23 -43h-99v670h136v-201q68 43 130 43q89 0 133.5 -43.5t44.5 -164.5v-108q0 -120 -45.5 -164t-131.5 -44q-72 0 -145 55zM363 187v126q0 52 -16 70.5t-53 18.5q-59 0 -103 -42v-220q44 -42 103 -42q37 0 53 18.5t16 70.5z" />
    <glyph glyph-name="c" unicode="c" horiz-adv-x="517" 
d="M264 402q-51 0 -69.5 -24t-18.5 -87v-82q0 -65 19 -88t69 -23q42 0 60.5 17t18.5 65h134q0 -107 -53 -149.5t-160 -42.5q-117 0 -170.5 51t-53.5 180v62q0 130 53 180.5t171 50.5q108 0 160.5 -42t52.5 -150h-134q0 49 -18.5 65.5t-60.5 16.5z" />
    <glyph glyph-name="d" unicode="d" horiz-adv-x="539" 
d="M385 0l-23 43q-73 -55 -145 -55q-86 0 -131.5 44t-45.5 164v108q0 121 44.5 164.5t133.5 43.5q62 0 130 -43v201h136v-670h-99zM176 313v-126q0 -52 16 -70.5t53 -18.5q59 0 103 42v220q-44 42 -103 42q-37 0 -53 -18.5t-16 -70.5z" />
    <glyph glyph-name="e" unicode="e" horiz-adv-x="514" 
d="M176 295h169q0 63 -19.5 85t-62.5 22q-50 0 -68.5 -23.5t-18.5 -83.5zM264 98q85 0 192 17v-109q-103 -18 -191 -18q-117 0 -171 50t-54 182v61q0 130 53 180.5t171 50.5q112 0 163.5 -50t51.5 -182v-75h-303q0 -56 18.5 -81.5t69.5 -25.5z" />
    <glyph glyph-name="f" unicode="f" horiz-adv-x="333" 
d="M313 575q-32 5 -54 5q-21 0 -30 -9t-9 -33v-38h74v-110h-74v-390h-136v390h-64v97l64 13v51q0 77 33 108t103 31q51 0 93 -11v-104z" />
    <glyph glyph-name="g" unicode="g" horiz-adv-x="539" 
d="M484 500v-503q0 -97 -52 -138t-168 -41q-88 0 -161 19v112q80 -21 159 -21q46 0 66 15.5t20 53.5v46q-68 -43 -130 -43q-89 0 -133.5 43.5t-44.5 164.5v96q0 120 45.5 164t131.5 44q72 0 145 -55l23 43h99zM348 142v228q-42 32 -101 32q-39 0 -55 -21.5t-16 -77.5v-94
q0 -56 16 -77.5t55 -21.5q57 0 101 32z" />
    <glyph glyph-name="h" unicode="h" horiz-adv-x="535" 
d="M55 670h136v-203q66 45 145 45q81 0 115 -39.5t34 -137.5v-335h-136v331q0 41 -13.5 56t-49.5 15q-51 0 -95 -42v-360h-136v670z" />
    <glyph glyph-name="i" unicode="i" horiz-adv-x="246" 
d="M55 0v500h136v-500h-136zM55 544v126h136v-126h-136z" />
    <glyph glyph-name="j" unicode="j" horiz-adv-x="246" 
d="M191 500v-540q0 -78 -33 -110t-103 -32q-51 0 -93 11v107q33 -5 54 -5t30 9t9 33v527h136zM55 544v126h136v-126h-136z" />
    <glyph glyph-name="k" unicode="k" horiz-adv-x="495" 
d="M191 224v-224h-136v670h136v-363h2l128 193h156l-168 -232l176 -268h-161l-131 224h-2z" />
    <glyph glyph-name="l" unicode="l" horiz-adv-x="246" 
d="M55 0v670h136v-670h-136z" />
    <glyph glyph-name="m" unicode="m" horiz-adv-x="773" 
d="M587 0v330q0 43 -12 57.5t-44 14.5q-38 0 -74 -26v-376h-136v330q0 43 -12 57.5t-44 14.5q-38 0 -74 -26v-376h-136v500h96l22 -37q72 49 138 49q46 0 73 -10.5t50 -37.5q77 48 145 48q84 0 114 -39t30 -144v-329h-136z" />
    <glyph glyph-name="n" unicode="n" horiz-adv-x="537" 
d="M55 500h99l23 -43q73 55 159 55q81 0 116 -39.5t35 -137.5v-335h-136v331q0 41 -13.5 56t-49.5 15q-53 0 -97 -42v-360h-136v500z" />
    <glyph glyph-name="o" unicode="o" horiz-adv-x="527" 
d="M176 291v-82q0 -65 19.5 -88t68.5 -23t68 23t19 88v82q0 65 -19 88t-68 23t-68.5 -23t-19.5 -88zM487 281v-62q0 -130 -53.5 -180.5t-169.5 -50.5q-118 0 -171 50.5t-53 180.5v62q0 129 54 180t170 51q115 0 169 -51t54 -180z" />
    <glyph glyph-name="p" unicode="p" horiz-adv-x="539" 
d="M154 500l23 -43q73 55 145 55q86 0 131.5 -44t45.5 -164v-108q0 -121 -44.5 -164.5t-133.5 -43.5q-62 0 -130 43v-201h-136v670h99zM363 187v126q0 52 -16 70.5t-53 18.5q-59 0 -103 -42v-220q44 -42 103 -42q37 0 53 18.5t16 70.5z" />
    <glyph glyph-name="q" unicode="q" horiz-adv-x="539" 
d="M362 457l23 43h99v-670h-136v201q-68 -43 -130 -43q-89 0 -133.5 43.5t-44.5 164.5v108q0 120 45.5 164t131.5 44q72 0 145 -55zM176 313v-126q0 -52 16 -70.5t53 -18.5q59 0 103 42v220q-44 42 -103 42q-37 0 -53 -18.5t-16 -70.5z" />
    <glyph glyph-name="r" unicode="r" horiz-adv-x="339" 
d="M314 512v-120q-76 0 -123 -38v-354h-136v500h96l22 -37q62 49 141 49z" />
    <glyph glyph-name="s" unicode="s" horiz-adv-x="501" 
d="M466 145q0 -28 -2.5 -46.5t-14.5 -41.5t-33.5 -36.5t-63 -23t-100.5 -9.5q-122 0 -169.5 40t-47.5 129h136q0 -34 18 -46.5t63 -12.5q78 0 78 47q0 34 -18.5 46t-83.5 17q-110 9 -149 42.5t-39 105.5q0 156 207 156q116 0 163 -38t47 -133h-136q0 13 -1.5 21t-8 18.5
t-22.5 16t-42 5.5q-41 0 -56 -13t-15 -37q0 -28 16 -40t65 -16q131 -11 170 -41t39 -110z" />
    <glyph glyph-name="t" unicode="t" horiz-adv-x="343" 
d="M313 103v-103q-46 -12 -93 -12q-70 0 -103 31t-33 108v263h-64v97l64 13v113l136 27v-140h93v-110h-93v-250q0 -24 9 -33t30 -9t54 5z" />
    <glyph glyph-name="u" unicode="u" 
d="M485 0h-99l-23 43q-73 -55 -159 -55q-81 0 -115 39.5t-34 137.5v335h136v-331q0 -41 13.5 -56t49.5 -15q51 0 95 42v360h136v-500z" />
    <glyph glyph-name="v" unicode="v" horiz-adv-x="494" 
d="M156 500l90 -364h2l90 364h146l-159 -500h-156l-159 500h146z" />
    <glyph glyph-name="w" unicode="w" horiz-adv-x="744" 
d="M522 131l61 369h141l-120 -500h-164l-68 370l-67 -370h-164l-121 500h141l63 -367l74 367h149l73 -369h2z" />
    <glyph glyph-name="x" unicode="x" horiz-adv-x="487" 
d="M244 354l76 146h152l-155 -247l160 -253h-156l-77 151h-1l-77 -151h-156l160 253l-155 247h152l76 -146h1z" />
    <glyph glyph-name="y" unicode="y" horiz-adv-x="496" 
d="M186 2l-176 498h146l94 -333h2l87 333h147l-187 -558q-23 -69 -64 -96.5t-128 -27.5q-41 0 -71 10v109q30 -9 66 -9q34 0 50 12.5t28 44.5z" />
    <glyph glyph-name="z" unicode="z" horiz-adv-x="470" 
d="M45 390v110h386v-96l-231 -294h240v-110h-405v96l231 294h-221z" />
    <glyph glyph-name="braceleft" unicode="{" horiz-adv-x="384" 
d="M194 285q45 -26 45 -110v-182q0 -23 10 -33.5t32 -10.5h63v-69h-63q-76 0 -107 25.5t-31 98.5v205q0 23 -8.5 32t-30.5 9h-64v70h64q22 0 30.5 9t8.5 32v205q0 73 31 98.5t107 25.5h63v-69h-63q-22 0 -32 -10.5t-10 -33.5v-182q0 -84 -45 -110z" />
    <glyph glyph-name="bar" unicode="|" horiz-adv-x="240" 
d="M170 690v-810h-100v810h100z" />
    <glyph glyph-name="braceright" unicode="}" horiz-adv-x="384" 
d="M190 285q-45 26 -45 110v182q0 23 -10 33.5t-32 10.5h-63v69h63q76 0 107 -25.5t31 -98.5v-205q0 -23 8.5 -32t30.5 -9h64v-70h-64q-22 0 -30.5 -9t-8.5 -32v-205q0 -73 -31 -98.5t-107 -25.5h-63v69h63q22 0 32 10.5t10 33.5v182q0 84 45 110z" />
    <glyph glyph-name="asciitilde" unicode="~" horiz-adv-x="474" 
d="M323 492q-37 0 -66 17t-50 34t-39 17t-28.5 -11t-10.5 -45h-99q0 91 29 124.5t92 33.5q37 0 66.5 -17t50 -34t38.5 -17t28.5 11t10.5 45h99q0 -91 -29 -124.5t-92 -33.5z" />
    <glyph glyph-name="nbspace" unicode="&#xa0;" horiz-adv-x="115" 
 />
    <glyph glyph-name="exclamdown" unicode="&#xa1;" horiz-adv-x="276" 
d="M55 -150l33 433h100l33 -433h-166zM65 354v146h146v-146h-146z" />
    <glyph glyph-name="cent" unicode="&#xa2;" horiz-adv-x="532" 
d="M272 477q-51 0 -69.5 -24t-18.5 -87v-82q0 -64 19 -87.5t69 -23.5q42 0 60.5 17t18.5 65h136q0 -92 -40.5 -135.5t-118.5 -53.5v-86h-106v85q-91 9 -133.5 62t-42.5 167v62q0 116 42.5 168t133.5 61v85h106v-86q80 -9 119.5 -52.5t39.5 -136.5h-136q0 49 -18.5 65.5
t-60.5 16.5z" />
    <glyph glyph-name="sterling" unicode="&#xa3;" horiz-adv-x="562" 
d="M358 0h-306v114q56 0 79.5 20.5t23.5 72.5q0 27 -14 67h-89v82h63q-30 75 -30 131q0 175 205 175q108 0 157 -40t49 -142h-140q0 35 -14.5 51.5t-49.5 16.5t-50 -15.5t-15 -51.5q0 -20 3.5 -41t9.5 -46t8 -38h109v-82h-97q6 -34 6 -50q0 -72 -41 -110h101q38 0 52 15.5
t14 57.5h140q0 -104 -38.5 -145.5t-135.5 -41.5z" />
    <glyph glyph-name="currency" unicode="&#xa4;" horiz-adv-x="584" 
d="M380 299v51q0 73 -18.5 98t-69.5 25t-69.5 -25t-18.5 -98v-51q0 -72 18.5 -97t69.5 -25t69.5 25t18.5 97zM518 350v-51q0 -89 -26 -140q12 -13 36.5 -41.5t37.5 -42.5q-12 -11 -35.5 -30t-35.5 -30l-65 74q-49 -26 -138 -26q-92 0 -140 28l-65 -76l-71 58l74 86
q-24 47 -24 140v51q0 82 25 137q-13 15 -37.5 44.5t-37.5 43.5l69 58q12 -13 33.5 -39t32.5 -38q51 31 141 31q87 0 141 -31q11 12 32.5 38t33.5 39l67 -58l-74 -86q26 -57 26 -139z" />
    <glyph glyph-name="yen" unicode="&#xa5;" horiz-adv-x="542" 
d="M83 139h118v53h-118v60h112l-178 398h151l102 -285h2l102 285h151l-178 -398h112v-60h-118v-53h118v-60h-118v-79h-140v79h-118v60z" />
    <glyph glyph-name="brokenbar" unicode="&#xa6;" horiz-adv-x="240" 
d="M170 690v-340h-100v340h100zM170 220v-340h-100v340h100z" />
    <glyph glyph-name="section" unicode="&#xa7;" horiz-adv-x="570" 
d="M50 249q0 70 64 115q-59 40 -59 123q0 91 55.5 133t169.5 42q131 0 182 -43t51 -149h-140q0 43 -20.5 60.5t-71.5 17.5q-86 0 -86 -62q0 -35 22 -50t86 -25q125 -19 171 -53t46 -115q0 -70 -64 -115q59 -42 59 -123q0 -91 -55.5 -133t-169.5 -42q-131 0 -182 43t-51 149
h140q0 -43 20.5 -60.5t71.5 -17.5q86 0 86 62q0 35 -22 50t-86 25q-125 19 -171 53t-46 115zM310 178q6 -1 24 -5l27 -6q29 24 29 59q0 38 -26 56t-104 32q-21 4 -51 11q-29 -24 -29 -59q0 -38 26 -56t104 -32z" />
    <glyph glyph-name="dieresis" unicode="&#xa8;" horiz-adv-x="352" 
d="M40 565v106h106v-106h-106zM206 565v106h106v-106h-106z" />
    <glyph glyph-name="copyright" unicode="&#xa9;" horiz-adv-x="790" 
d="M60 252v146q0 136 83 211t252 75q168 0 251.5 -75t83.5 -211v-146q0 -136 -83.5 -211t-251.5 -75q-166 0 -250.5 75.5t-84.5 210.5zM154 394v-138q0 -202 241 -202t241 202v138q0 202 -241 202t-241 -202zM393 430q-35 0 -48 -17t-13 -60v-58q0 -45 13 -61t48 -16
q30 0 43 11.5t13 45.5h95q0 -75 -38 -104.5t-113 -29.5q-82 0 -120 35.5t-38 125.5v44q0 91 37.5 126t120.5 35q77 0 114 -29t37 -105h-95q0 34 -13 45.5t-43 11.5z" />
    <glyph glyph-name="ordfeminine" unicode="&#xaa;" horiz-adv-x="438" 
d="M184 330q51 0 89 33v63l-91 -11q-43 -4 -43 -44q0 -41 45 -41zM28 361q0 110 132 118l113 8v35q0 28 -13.5 40t-47.5 12t-47 -12t-13 -40h-109q0 70 40.5 105t128.5 35q91 0 131.5 -34t40.5 -106v-270h-81l-19 34q-55 -44 -122 -44q-66 0 -100 31.5t-34 87.5z" />
    <glyph glyph-name="guillemotleft" unicode="&#xab;" horiz-adv-x="533" 
d="M170 55l-130 195l130 195h117l-132 -195l132 -195h-117zM376 55l-130 195l130 195h117l-132 -195l132 -195h-117z" />
    <glyph glyph-name="logicalnot" unicode="&#xac;" horiz-adv-x="503" 
d="M50 403h412v-263h-98v165h-314v98z" />
    <glyph glyph-name="uni00AD" unicode="&#xad;" horiz-adv-x="350" 
d="M50 218v114h250v-114h-250z" />
    <glyph glyph-name="registered" unicode="&#xae;" horiz-adv-x="790" 
d="M459 146l-60 120h-63v-120h-85v358h157q74 0 104.5 -24.5t30.5 -91.5q0 -76 -59 -108l68 -134h-93zM336 426v-86h69q47 0 47 43q0 24 -10.5 33.5t-39.5 9.5h-66zM60 252v146q0 136 83 211t252 75q168 0 251.5 -75t83.5 -211v-146q0 -136 -83.5 -211t-251.5 -75
q-166 0 -250.5 75.5t-84.5 210.5zM154 394v-138q0 -202 241 -202t241 202v138q0 202 -241 202t-241 -202z" />
    <glyph glyph-name="macron" unicode="&#xaf;" horiz-adv-x="320" 
d="M40 578v86h240v-86h-240z" />
    <glyph glyph-name="degree" unicode="&#xb0;" horiz-adv-x="378" 
d="M189 333q-82 0 -120.5 37t-38.5 128q0 90 38.5 127t120.5 37t120.5 -37t38.5 -127q0 -91 -38.5 -128t-120.5 -37zM189 413q32 0 46.5 18.5t14.5 66.5t-14.5 66.5t-46.5 18.5t-47 -18.5t-15 -66.5t15 -66.5t47 -18.5z" />
    <glyph glyph-name="plusminus" unicode="&#xb1;" horiz-adv-x="503" 
d="M50 298v98h157v158h98v-158h157v-98h-157v-158h-98v158h-157zM462 0h-412v98h412v-98z" />
    <glyph glyph-name="twosuperior" unicode="&#xb2;" horiz-adv-x="328" 
d="M132 593h-71q0 102 108 102q59 0 83 -25t24 -72q0 -35 -22 -57.5t-48 -31.5t-48 -24.5t-23 -36.5h143v-59h-218v44q0 42 22.5 69t49.5 36.5t49.5 23.5t22.5 34q0 40 -35 40q-37 0 -37 -43z" />
    <glyph glyph-name="threesuperior" unicode="&#xb3;" horiz-adv-x="335" 
d="M171 443q40 0 40 36q0 34 -40 34h-32v57h29q19 0 28 7t9 27q0 32 -36 32q-20 0 -29 -10t-9 -33h-70q0 52 26 77t82 25q108 0 108 -90q0 -44 -39 -61q45 -17 45 -68q0 -45 -23.5 -68.5t-88.5 -23.5q-59 0 -86 24.5t-27 76.5h72q0 -42 41 -42z" />
    <glyph glyph-name="acute" unicode="&#xb4;" horiz-adv-x="235" 
d="M40 565l28 120h127l-72 -120h-83z" />
    <glyph glyph-name="mu" unicode="&#xb5;" 
d="M193 -170h-138v670h138v-360q44 -42 95 -42q36 0 49.5 15t13.5 56v331h138v-335q0 -98 -35 -137.5t-116 -39.5q-79 0 -145 45v-203z" />
    <glyph glyph-name="mu" unicode="&#x3bc;" 
d="M193 -170h-138v670h138v-360q44 -42 95 -42q36 0 49.5 15t13.5 56v331h138v-335q0 -98 -35 -137.5t-116 -39.5q-79 0 -145 45v-203z" />
    <glyph glyph-name="paragraph" unicode="&#xb6;" horiz-adv-x="751" 
d="M60 403q0 136 61 191.5t188 55.5h322v-820h-96v726h-70v-726h-96v331h-62q-126 0 -186.5 59t-60.5 183z" />
    <glyph glyph-name="periodcentered" unicode="&#xb7;" horiz-adv-x="212" 
d="M35 255v143h142v-143h-142z" />
    <glyph glyph-name="cedilla" unicode="&#xb8;" horiz-adv-x="260" 
d="M160 0l-12 -41q72 -8 72 -74q0 -45 -25.5 -65.5t-85.5 -20.5h-69v62h67q20 0 27.5 5.5t7.5 18.5t-7.5 18.5t-27.5 5.5h-33l28 91h58z" />
    <glyph glyph-name="onesuperior" unicode="&#xb9;" horiz-adv-x="230" 
d="M170 389h-72v241h-58v40l84 20h46v-301z" />
    <glyph glyph-name="ordmasculine" unicode="&#xba;" horiz-adv-x="444" 
d="M402 477v-50q0 -104 -43.5 -144.5t-136.5 -40.5q-95 0 -138 40.5t-43 144.5v50q0 103 43.5 144t137.5 41q92 0 136 -41t44 -144zM151 485v-66q0 -51 16 -70t55 -19t54 18.5t15 70.5v66q0 52 -15 70.5t-54 18.5t-55 -19t-16 -70z" />
    <glyph glyph-name="guillemotright" unicode="&#xbb;" horiz-adv-x="533" 
d="M493 250l-130 -195h-117l132 195l-132 195h117zM287 250l-130 -195h-117l132 195l-132 195h117z" />
    <glyph glyph-name="onequarter" unicode="&#xbc;" horiz-adv-x="605" 
d="M187 349h-72v241h-58v40l84 20h46v-301zM50 0l421 650h80l-421 -650h-80zM451 0v58h-132v55l119 188h85v-183h32v-60h-32v-58h-72zM386 118h65v107z" />
    <glyph glyph-name="onehalf" unicode="&#xbd;" horiz-adv-x="627" 
d="M187 349h-72v241h-58v40l84 20h46v-301zM431 204h-71q0 102 108 102q59 0 83 -25t24 -72q0 -35 -22 -57.5t-48 -31.5t-48 -24.5t-23 -36.5h143v-59h-218v44q0 42 22.5 69t49.5 36.5t49.5 23.5t22.5 34q0 40 -35 40q-37 0 -37 -43zM50 0l421 650h80l-421 -650h-80z" />
    <glyph glyph-name="threequarters" unicode="&#xbe;" horiz-adv-x="625" 
d="M70 0l421 650h80l-421 -650h-80zM471 0v58h-132v55l119 188h85v-183h32v-60h-32v-58h-72zM406 118h65v107zM163 402q40 0 40 36q0 34 -40 34h-32v57h29q19 0 28 7t9 27q0 32 -36 32q-20 0 -29 -10t-9 -33h-70q0 52 26 77t82 25q108 0 108 -90q0 -44 -39 -61
q45 -17 45 -68q0 -45 -23.5 -68.5t-88.5 -23.5q-59 0 -86 24.5t-27 76.5h72q0 -42 41 -42z" />
    <glyph glyph-name="questiondown" unicode="&#xbf;" horiz-adv-x="530" 
d="M310 304l17 -165q-95 0 -121 -20t-26 -86q0 -46 22.5 -62.5t63.5 -16.5q42 0 64 17t22 65h138q0 -103 -53 -150.5t-171 -47.5t-172 47.5t-54 147.5q0 101 43 146.5t130 56.5l8 68h89zM339 500v-146h-146v146h146z" />
    <glyph glyph-name="Agrave" unicode="&#xc0;" horiz-adv-x="537" 
d="M382 0l-27 124h-175l-26 -124h-144l169 650h177l171 -650h-145zM267 529l-61 -293h123l-60 293h-2zM295 835l28 -120h-83l-72 120h127z" />
    <glyph glyph-name="Aacute" unicode="&#xc1;" horiz-adv-x="537" 
d="M382 0l-27 124h-175l-26 -124h-144l169 650h177l171 -650h-145zM267 529l-61 -293h123l-60 293h-2zM226 715l28 120h127l-72 -120h-83z" />
    <glyph glyph-name="Acircumflex" unicode="&#xc2;" horiz-adv-x="537" 
d="M382 0l-27 124h-175l-26 -124h-144l169 650h177l171 -650h-145zM267 529l-61 -293h123l-60 293h-2zM342 835l54 -120h-88l-40 54l-39 -54h-88l54 120h147z" />
    <glyph glyph-name="Atilde" unicode="&#xc3;" horiz-adv-x="537" 
d="M382 0l-27 124h-175l-26 -124h-144l169 650h177l171 -650h-145zM267 529l-61 -293h123l-60 293h-2zM320 800q31 0 31 32h78q0 -65 -22.5 -94t-71.5 -29q-31 0 -64.5 21.5t-54.5 21.5q-31 0 -31 -32h-78q0 66 22.5 94.5t71.5 28.5q31 0 65 -21.5t54 -21.5z" />
    <glyph glyph-name="Adieresis" unicode="&#xc4;" horiz-adv-x="537" 
d="M382 0l-27 124h-175l-26 -124h-144l169 650h177l171 -650h-145zM267 529l-61 -293h123l-60 293h-2zM132 715v106h106v-106h-106zM298 715v106h106v-106h-106z" />
    <glyph glyph-name="Aring" unicode="&#xc5;" horiz-adv-x="537" 
d="M382 0l-27 124h-175l-26 -124h-144l169 650h177l171 -650h-145zM267 529l-61 -293h123l-60 293h-2zM268 893q111 0 111 -93q0 -46 -29 -70.5t-82 -24.5t-82 24.5t-29 70.5q0 93 111 93zM268 763q39 0 39 37q0 35 -39 35t-39 -35q0 -37 39 -37z" />
    <glyph glyph-name="AE" unicode="&#xc6;" horiz-adv-x="822" 
d="M392 0v124h-184l-54 -124h-144l302 650h480v-114h-260v-151h226v-110h-226v-161h260v-114h-400zM390 532l-130 -296h132v296h-2z" />
    <glyph glyph-name="Ccedilla" unicode="&#xc7;" horiz-adv-x="550" 
d="M279 102q49 0 70 23.5t21 80.5h138q0 -109 -49 -161t-158 -56l-8 -30q72 -8 72 -74q0 -45 -25.5 -65.5t-85.5 -20.5h-69v62h67q20 0 27.5 5.5t7.5 18.5t-7.5 18.5t-27.5 5.5h-33l24 80q-102 8 -150 64.5t-48 167.5v208q0 122 57.5 177.5t176.5 55.5q121 0 175 -51.5
t54 -165.5h-138q0 55 -21.5 79t-69.5 24q-47 0 -70.5 -23t-23.5 -75v-250q0 -98 94 -98z" />
    <glyph glyph-name="Egrave" unicode="&#xc8;" horiz-adv-x="503" 
d="M60 0v650h398v-114h-258v-151h224v-110h-224v-161h258v-114h-398zM301 835l28 -120h-83l-72 120h127z" />
    <glyph glyph-name="Eacute" unicode="&#xc9;" horiz-adv-x="503" 
d="M60 0v650h398v-114h-258v-151h224v-110h-224v-161h258v-114h-398zM221 715l28 120h127l-72 -120h-83z" />
    <glyph glyph-name="Ecircumflex" unicode="&#xca;" horiz-adv-x="503" 
d="M60 0v650h398v-114h-258v-151h224v-110h-224v-161h258v-114h-398zM341 835l54 -120h-88l-40 54l-39 -54h-88l54 120h147z" />
    <glyph glyph-name="Edieresis" unicode="&#xcb;" horiz-adv-x="503" 
d="M60 0v650h398v-114h-258v-151h224v-110h-224v-161h258v-114h-398zM124 715v106h106v-106h-106zM290 715v106h106v-106h-106z" />
    <glyph glyph-name="Igrave" unicode="&#xcc;" horiz-adv-x="260" 
d="M60 0v650h140v-650h-140zM144 835l28 -120h-83l-72 120h127z" />
    <glyph glyph-name="Iacute" unicode="&#xcd;" horiz-adv-x="260" 
d="M60 0v650h140v-650h-140zM87 715l28 120h127l-72 -120h-83z" />
    <glyph glyph-name="Icircumflex" unicode="&#xce;" horiz-adv-x="260" 
d="M60 0v650h140v-650h-140zM204 835l54 -120h-88l-40 54l-39 -54h-88l54 120h147z" />
    <glyph glyph-name="Idieresis" unicode="&#xcf;" horiz-adv-x="260" 
d="M60 0v650h140v-650h-140zM-6 715v106h106v-106h-106zM160 715v106h106v-106h-106z" />
    <glyph glyph-name="Eth" unicode="&#xd0;" horiz-adv-x="572" 
d="M282 0h-222v283h-52v93h52v274h222q131 0 188 -47t57 -183v-188q0 -136 -57.5 -184t-187.5 -48zM279 536h-79v-160h90v-93h-90v-169h79q63 0 85.5 26t22.5 82v214q0 36 -6 56.5t-22.5 30t-32 11.5t-47.5 2z" />
    <glyph glyph-name="Ntilde" unicode="&#xd1;" horiz-adv-x="584" 
d="M524 650v-650h-161l-176 453q5 -65 5 -179v-274h-132v650h161l176 -453q-5 92 -5 184v269h132zM349 800q31 0 31 32h78q0 -65 -22.5 -94t-71.5 -29q-31 0 -64.5 21.5t-54.5 21.5q-31 0 -31 -32h-78q0 66 22.5 94.5t71.5 28.5q31 0 65 -21.5t54 -21.5z" />
    <glyph glyph-name="Ograve" unicode="&#xd2;" horiz-adv-x="569" 
d="M384 206v238q0 54 -24 79t-76 25q-51 0 -75 -25t-24 -78v-239q0 -54 23.5 -79t75.5 -25t76 25t24 79zM45 210v230q0 114 57 168t182 54t182.5 -53.5t57.5 -168.5v-230q0 -114 -57.5 -168t-182.5 -54t-182 54t-57 168zM302 835l28 -120h-83l-72 120h127z" />
    <glyph glyph-name="Oacute" unicode="&#xd3;" horiz-adv-x="569" 
d="M384 206v238q0 54 -24 79t-76 25q-51 0 -75 -25t-24 -78v-239q0 -54 23.5 -79t75.5 -25t76 25t24 79zM45 210v230q0 114 57 168t182 54t182.5 -53.5t57.5 -168.5v-230q0 -114 -57.5 -168t-182.5 -54t-182 54t-57 168zM242 715l28 120h127l-72 -120h-83z" />
    <glyph glyph-name="Ocircumflex" unicode="&#xd4;" horiz-adv-x="569" 
d="M384 206v238q0 54 -24 79t-76 25q-51 0 -75 -25t-24 -78v-239q0 -54 23.5 -79t75.5 -25t76 25t24 79zM45 210v230q0 114 57 168t182 54t182.5 -53.5t57.5 -168.5v-230q0 -114 -57.5 -168t-182.5 -54t-182 54t-57 168zM358 835l54 -120h-88l-40 54l-39 -54h-88l54 120h147
z" />
    <glyph glyph-name="Otilde" unicode="&#xd5;" horiz-adv-x="569" 
d="M384 206v238q0 54 -24 79t-76 25q-51 0 -75 -25t-24 -78v-239q0 -54 23.5 -79t75.5 -25t76 25t24 79zM45 210v230q0 114 57 168t182 54t182.5 -53.5t57.5 -168.5v-230q0 -114 -57.5 -168t-182.5 -54t-182 54t-57 168zM341 800q31 0 31 32h78q0 -65 -22.5 -94t-71.5 -29
q-31 0 -64.5 21.5t-54.5 21.5q-31 0 -31 -32h-78q0 66 22.5 94.5t71.5 28.5q31 0 65 -21.5t54 -21.5z" />
    <glyph glyph-name="Odieresis" unicode="&#xd6;" horiz-adv-x="569" 
d="M384 206v238q0 54 -24 79t-76 25q-51 0 -75 -25t-24 -78v-239q0 -54 23.5 -79t75.5 -25t76 25t24 79zM45 210v230q0 114 57 168t182 54t182.5 -53.5t57.5 -168.5v-230q0 -114 -57.5 -168t-182.5 -54t-182 54t-57 168zM148 715v106h106v-106h-106zM314 715v106h106v-106
h-106z" />
    <glyph glyph-name="multiply" unicode="&#xd7;" horiz-adv-x="462" 
d="M119 93l-69 70l112 111l-112 112l69 69l112 -111l111 111l69 -70l-111 -111l112 -111l-69 -70l-112 112z" />
    <glyph glyph-name="Oslash" unicode="&#xd8;" horiz-adv-x="569" 
d="M45 210v230q0 114 57 168t182 54q91 0 146 -28l22 36h84l-51 -83q39 -54 39 -147v-230q0 -114 -57.5 -168t-182.5 -54q-90 0 -145 27l-21 -35h-85l50 83q-38 51 -38 147zM185 445v-215l177 291q-24 27 -78 27q-51 0 -75 -25t-24 -78zM384 206v213l-177 -291
q23 -26 77 -26q52 0 76 25t24 79z" />
    <glyph glyph-name="Ugrave" unicode="&#xd9;" horiz-adv-x="575" 
d="M55 650h140v-449q0 -52 21.5 -75t71.5 -23t71 23t21 75v449h140v-442q0 -121 -56.5 -170t-175.5 -49q-120 0 -176.5 49t-56.5 170v442zM301 835l28 -120h-83l-72 120h127z" />
    <glyph glyph-name="Uacute" unicode="&#xda;" horiz-adv-x="575" 
d="M55 650h140v-449q0 -52 21.5 -75t71.5 -23t71 23t21 75v449h140v-442q0 -121 -56.5 -170t-175.5 -49q-120 0 -176.5 49t-56.5 170v442zM249 715l28 120h127l-72 -120h-83z" />
    <glyph glyph-name="Ucircumflex" unicode="&#xdb;" horiz-adv-x="575" 
d="M55 650h140v-449q0 -52 21.5 -75t71.5 -23t71 23t21 75v449h140v-442q0 -121 -56.5 -170t-175.5 -49q-120 0 -176.5 49t-56.5 170v442zM361 835l54 -120h-88l-40 54l-39 -54h-88l54 120h147z" />
    <glyph glyph-name="Udieresis" unicode="&#xdc;" horiz-adv-x="575" 
d="M55 650h140v-449q0 -52 21.5 -75t71.5 -23t71 23t21 75v449h140v-442q0 -121 -56.5 -170t-175.5 -49q-120 0 -176.5 49t-56.5 170v442zM151 715v106h106v-106h-106zM317 715v106h106v-106h-106z" />
    <glyph glyph-name="Yacute" unicode="&#xdd;" horiz-adv-x="528" 
d="M194 0v239l-184 411h151l102 -285h2l102 285h151l-184 -411v-239h-140zM226 715l28 120h127l-72 -120h-83z" />
    <glyph glyph-name="Thorn" unicode="&#xde;" horiz-adv-x="550" 
d="M60 0v650h140v-111h83q124 0 178 -44.5t54 -169.5q0 -119 -54.5 -165.5t-175.5 -46.5h-85v-113h-140zM200 227h83q50 0 71 21t21 78q0 56 -21 77.5t-70 21.5h-84v-198z" />
    <glyph glyph-name="germandbls" unicode="&#xdf;" horiz-adv-x="551" 
d="M306 98q76 0 76 94q0 64 -24 88.5t-89 24.5h-19v114h6q37 0 53.5 17t16.5 62q0 36 -15.5 53t-52.5 17q-36 0 -50.5 -18t-14.5 -53v-497h-136v488q0 100 49.5 146t149.5 46q106 0 154.5 -42t48.5 -127q0 -55 -27 -91t-69 -49q78 -14 116.5 -58t38.5 -126
q0 -100 -44 -149.5t-150 -49.5q-46 0 -92 12v109q39 -11 74 -11z" />
    <glyph glyph-name="agrave" unicode="&#xe0;" horiz-adv-x="525" 
d="M227 98q65 0 112 41v78l-114 -13q-54 -6 -54 -55q0 -25 15 -38t41 -13zM35 136q0 68 38.5 105t124.5 43l141 10v44q0 35 -17 49.5t-59 14.5t-59 -15t-17 -50h-134q0 88 49.5 131.5t159.5 43.5q114 0 163.5 -42t49.5 -132v-338h-99l-23 43q-68 -55 -153 -55
q-82 0 -123.5 39t-41.5 109zM303 685l28 -120h-83l-72 120h127z" />
    <glyph glyph-name="aacute" unicode="&#xe1;" horiz-adv-x="525" 
d="M227 98q65 0 112 41v78l-114 -13q-54 -6 -54 -55q0 -25 15 -38t41 -13zM35 136q0 68 38.5 105t124.5 43l141 10v44q0 35 -17 49.5t-59 14.5t-59 -15t-17 -50h-134q0 88 49.5 131.5t159.5 43.5q114 0 163.5 -42t49.5 -132v-338h-99l-23 43q-68 -55 -153 -55
q-82 0 -123.5 39t-41.5 109zM221 565l28 120h127l-72 -120h-83z" />
    <glyph glyph-name="acircumflex" unicode="&#xe2;" horiz-adv-x="525" 
d="M227 98q65 0 112 41v78l-114 -13q-54 -6 -54 -55q0 -25 15 -38t41 -13zM35 136q0 68 38.5 105t124.5 43l141 10v44q0 35 -17 49.5t-59 14.5t-59 -15t-17 -50h-134q0 88 49.5 131.5t159.5 43.5q114 0 163.5 -42t49.5 -132v-338h-99l-23 43q-68 -55 -153 -55
q-82 0 -123.5 39t-41.5 109zM336 685l54 -120h-88l-40 54l-39 -54h-88l54 120h147z" />
    <glyph glyph-name="atilde" unicode="&#xe3;" horiz-adv-x="525" 
d="M227 98q65 0 112 41v78l-114 -13q-54 -6 -54 -55q0 -25 15 -38t41 -13zM35 136q0 68 38.5 105t124.5 43l141 10v44q0 35 -17 49.5t-59 14.5t-59 -15t-17 -50h-134q0 88 49.5 131.5t159.5 43.5q114 0 163.5 -42t49.5 -132v-338h-99l-23 43q-68 -55 -153 -55
q-82 0 -123.5 39t-41.5 109zM319 650q31 0 31 32h78q0 -65 -22.5 -94t-71.5 -29q-31 0 -64.5 21.5t-54.5 21.5q-31 0 -31 -32h-78q0 66 22.5 94.5t71.5 28.5q31 0 65 -21.5t54 -21.5z" />
    <glyph glyph-name="adieresis" unicode="&#xe4;" horiz-adv-x="525" 
d="M227 98q65 0 112 41v78l-114 -13q-54 -6 -54 -55q0 -25 15 -38t41 -13zM35 136q0 68 38.5 105t124.5 43l141 10v44q0 35 -17 49.5t-59 14.5t-59 -15t-17 -50h-134q0 88 49.5 131.5t159.5 43.5q114 0 163.5 -42t49.5 -132v-338h-99l-23 43q-68 -55 -153 -55
q-82 0 -123.5 39t-41.5 109zM126 565v106h106v-106h-106zM292 565v106h106v-106h-106z" />
    <glyph glyph-name="aring" unicode="&#xe5;" horiz-adv-x="525" 
d="M227 98q65 0 112 41v78l-114 -13q-54 -6 -54 -55q0 -25 15 -38t41 -13zM35 136q0 68 38.5 105t124.5 43l141 10v44q0 35 -17 49.5t-59 14.5t-59 -15t-17 -50h-134q0 88 49.5 131.5t159.5 43.5q114 0 163.5 -42t49.5 -132v-338h-99l-23 43q-68 -55 -153 -55
q-82 0 -123.5 39t-41.5 109zM263 743q111 0 111 -93q0 -46 -29 -70.5t-82 -24.5t-82 24.5t-29 70.5q0 93 111 93zM263 613q39 0 39 37q0 35 -39 35t-39 -35q0 -37 39 -37z" />
    <glyph glyph-name="ae" unicode="&#xe6;" horiz-adv-x="818" 
d="M237 98q67 0 85.5 23.5t18.5 81.5h-114q-27 0 -40.5 -15t-13.5 -39q0 -51 64 -51zM476 295h169q0 65 -18 86t-64 21q-50 0 -68.5 -23.5t-18.5 -83.5zM239 -12q-106 0 -154 38.5t-48 114.5q0 154 177 154h127v43q0 35 -17 49.5t-59 14.5t-59 -15t-17 -50h-134
q0 88 49.5 131.5t159.5 43.5q102 0 150 -36q48 36 150 36q112 0 163.5 -50t51.5 -182v-75h-303q0 -56 18.5 -81.5t69.5 -25.5q85 0 192 17v-109q-103 -18 -191 -18q-108 0 -158 42q-52 -42 -168 -42z" />
    <glyph glyph-name="ccedilla" unicode="&#xe7;" horiz-adv-x="517" 
d="M264 402q-51 0 -69.5 -24t-18.5 -87v-82q0 -65 19 -88t69 -23q42 0 60.5 17t18.5 65h134q0 -102 -48.5 -145t-144.5 -46l-8 -30q72 -8 72 -74q0 -45 -25.5 -65.5t-85.5 -20.5h-69v62h67q20 0 27.5 5.5t7.5 18.5t-7.5 18.5t-27.5 5.5h-33l24 80q-97 7 -141.5 59.5
t-44.5 170.5v62q0 130 53 180.5t171 50.5q108 0 160.5 -42t52.5 -150h-134q0 49 -18.5 65.5t-60.5 16.5z" />
    <glyph glyph-name="egrave" unicode="&#xe8;" horiz-adv-x="514" 
d="M176 295h169q0 63 -19.5 85t-62.5 22q-50 0 -68.5 -23.5t-18.5 -83.5zM264 98q85 0 192 17v-109q-103 -18 -191 -18q-117 0 -171 50t-54 182v61q0 130 53 180.5t171 50.5q112 0 163.5 -50t51.5 -182v-75h-303q0 -56 18.5 -81.5t69.5 -25.5zM285 685l28 -120h-83l-72 120
h127z" />
    <glyph glyph-name="eacute" unicode="&#xe9;" horiz-adv-x="514" 
d="M176 295h169q0 63 -19.5 85t-62.5 22q-50 0 -68.5 -23.5t-18.5 -83.5zM264 98q85 0 192 17v-109q-103 -18 -191 -18q-117 0 -171 50t-54 182v61q0 130 53 180.5t171 50.5q112 0 163.5 -50t51.5 -182v-75h-303q0 -56 18.5 -81.5t69.5 -25.5zM227 565l28 120h127l-72 -120
h-83z" />
    <glyph glyph-name="ecircumflex" unicode="&#xea;" horiz-adv-x="514" 
d="M176 295h169q0 63 -19.5 85t-62.5 22q-50 0 -68.5 -23.5t-18.5 -83.5zM264 98q85 0 192 17v-109q-103 -18 -191 -18q-117 0 -171 50t-54 182v61q0 130 53 180.5t171 50.5q112 0 163.5 -50t51.5 -182v-75h-303q0 -56 18.5 -81.5t69.5 -25.5zM342 685l54 -120h-88l-40 54
l-39 -54h-88l54 120h147z" />
    <glyph glyph-name="edieresis" unicode="&#xeb;" horiz-adv-x="514" 
d="M176 295h169q0 63 -19.5 85t-62.5 22q-50 0 -68.5 -23.5t-18.5 -83.5zM264 98q85 0 192 17v-109q-103 -18 -191 -18q-117 0 -171 50t-54 182v61q0 130 53 180.5t171 50.5q112 0 163.5 -50t51.5 -182v-75h-303q0 -56 18.5 -81.5t69.5 -25.5zM131 565v106h106v-106h-106z
M297 565v106h106v-106h-106z" />
    <glyph glyph-name="igrave" unicode="&#xec;" horiz-adv-x="246" 
d="M55 0v500h136v-500h-136zM133 685l28 -120h-83l-72 120h127z" />
    <glyph glyph-name="iacute" unicode="&#xed;" horiz-adv-x="246" 
d="M55 0v500h136v-500h-136zM83 565l28 120h127l-72 -120h-83z" />
    <glyph glyph-name="icircumflex" unicode="&#xee;" horiz-adv-x="246" 
d="M55 0v500h136v-500h-136zM198 685l54 -120h-88l-40 54l-39 -54h-88l54 120h147z" />
    <glyph glyph-name="idieresis" unicode="&#xef;" horiz-adv-x="246" 
d="M55 0v500h136v-500h-136zM-12 565v106h106v-106h-106zM154 565v106h106v-106h-106z" />
    <glyph glyph-name="eth" unicode="&#xf0;" horiz-adv-x="542" 
d="M223 541l-18 63l59 14q-27 33 -55 63h159l25 -32l77 18l18 -63l-57 -14q56 -107 56 -301v-70q0 -130 -53.5 -180.5t-169.5 -50.5q-118 0 -171 50.5t-53 180.5v50q0 129 48 180t158 51q56 0 93 -25q-13 46 -35 85zM176 279v-70q0 -65 19.5 -88t68.5 -23t68 23t19 88v70
q0 65 -19 88t-68 23t-68.5 -23t-19.5 -88z" />
    <glyph glyph-name="ntilde" unicode="&#xf1;" horiz-adv-x="537" 
d="M55 500h99l23 -43q73 55 159 55q81 0 116 -39.5t35 -137.5v-335h-136v331q0 41 -13.5 56t-49.5 15q-53 0 -97 -42v-360h-136v500zM324 650q31 0 31 32h78q0 -65 -22.5 -94t-71.5 -29q-31 0 -64.5 21.5t-54.5 21.5q-31 0 -31 -32h-78q0 66 22.5 94.5t71.5 28.5
q31 0 65 -21.5t54 -21.5z" />
    <glyph glyph-name="ograve" unicode="&#xf2;" horiz-adv-x="527" 
d="M176 291v-82q0 -65 19.5 -88t68.5 -23t68 23t19 88v82q0 65 -19 88t-68 23t-68.5 -23t-19.5 -88zM487 281v-62q0 -130 -53.5 -180.5t-169.5 -50.5q-118 0 -171 50.5t-53 180.5v62q0 129 54 180t170 51q115 0 169 -51t54 -180zM287 685l28 -120h-83l-72 120h127z" />
    <glyph glyph-name="oacute" unicode="&#xf3;" horiz-adv-x="527" 
d="M176 291v-82q0 -65 19.5 -88t68.5 -23t68 23t19 88v82q0 65 -19 88t-68 23t-68.5 -23t-19.5 -88zM487 281v-62q0 -130 -53.5 -180.5t-169.5 -50.5q-118 0 -171 50.5t-53 180.5v62q0 129 54 180t170 51q115 0 169 -51t54 -180zM223 565l28 120h127l-72 -120h-83z" />
    <glyph glyph-name="ocircumflex" unicode="&#xf4;" horiz-adv-x="527" 
d="M176 291v-82q0 -65 19.5 -88t68.5 -23t68 23t19 88v82q0 65 -19 88t-68 23t-68.5 -23t-19.5 -88zM487 281v-62q0 -130 -53.5 -180.5t-169.5 -50.5q-118 0 -171 50.5t-53 180.5v62q0 129 54 180t170 51q115 0 169 -51t54 -180zM338 685l54 -120h-88l-40 54l-39 -54h-88
l54 120h147z" />
    <glyph glyph-name="otilde" unicode="&#xf5;" horiz-adv-x="527" 
d="M176 291v-82q0 -65 19.5 -88t68.5 -23t68 23t19 88v82q0 65 -19 88t-68 23t-68.5 -23t-19.5 -88zM487 281v-62q0 -130 -53.5 -180.5t-169.5 -50.5q-118 0 -171 50.5t-53 180.5v62q0 129 54 180t170 51q115 0 169 -51t54 -180zM315 650q31 0 31 32h78q0 -65 -22.5 -94
t-71.5 -29q-31 0 -64.5 21.5t-54.5 21.5q-31 0 -31 -32h-78q0 66 22.5 94.5t71.5 28.5q31 0 65 -21.5t54 -21.5z" />
    <glyph glyph-name="odieresis" unicode="&#xf6;" horiz-adv-x="527" 
d="M176 291v-82q0 -65 19.5 -88t68.5 -23t68 23t19 88v82q0 65 -19 88t-68 23t-68.5 -23t-19.5 -88zM487 281v-62q0 -130 -53.5 -180.5t-169.5 -50.5q-118 0 -171 50.5t-53 180.5v62q0 129 54 180t170 51q115 0 169 -51t54 -180zM127 565v106h106v-106h-106zM293 565v106
h106v-106h-106z" />
    <glyph glyph-name="divide" unicode="&#xf7;" horiz-adv-x="512" 
d="M50 324h412v-98h-412v98zM202 376v108h108v-108h-108zM202 66v108h108v-108h-108z" />
    <glyph glyph-name="oslash" unicode="&#xf8;" horiz-adv-x="527" 
d="M491 281v-62q0 -130 -54 -180.5t-171 -50.5q-79 0 -126 20l-19 -28h-76l43 64q-48 54 -48 175v62q0 129 54.5 180t171.5 51q78 0 124 -21l20 29h76l-44 -65q49 -55 49 -174zM353 291q0 21 -1 31l-143 -212q17 -12 57 -12q49 0 68 23t19 88v82zM178 291v-82q0 -22 1 -31
l143 212q-19 12 -56 12q-49 0 -68.5 -23t-19.5 -88z" />
    <glyph glyph-name="ugrave" unicode="&#xf9;" 
d="M485 0h-99l-23 43q-73 -55 -159 -55q-81 0 -115 39.5t-34 137.5v335h136v-331q0 -41 13.5 -56t49.5 -15q51 0 95 42v360h136v-500zM288 685l28 -120h-83l-72 120h127z" />
    <glyph glyph-name="uacute" unicode="&#xfa;" 
d="M485 0h-99l-23 43q-73 -55 -159 -55q-81 0 -115 39.5t-34 137.5v335h136v-331q0 -41 13.5 -56t49.5 -15q51 0 95 42v360h136v-500zM228 565l28 120h127l-72 -120h-83z" />
    <glyph glyph-name="ucircumflex" unicode="&#xfb;" 
d="M485 0h-99l-23 43q-73 -55 -159 -55q-81 0 -115 39.5t-34 137.5v335h136v-331q0 -41 13.5 -56t49.5 -15q51 0 95 42v360h136v-500zM343 685l54 -120h-88l-40 54l-39 -54h-88l54 120h147z" />
    <glyph glyph-name="udieresis" unicode="&#xfc;" 
d="M485 0h-99l-23 43q-73 -55 -159 -55q-81 0 -115 39.5t-34 137.5v335h136v-331q0 -41 13.5 -56t49.5 -15q51 0 95 42v360h136v-500zM134 565v106h106v-106h-106zM300 565v106h106v-106h-106z" />
    <glyph glyph-name="yacute" unicode="&#xfd;" horiz-adv-x="496" 
d="M186 2l-176 498h146l94 -333h2l87 333h147l-187 -558q-23 -69 -64 -96.5t-128 -27.5q-41 0 -71 10v109q30 -9 66 -9q34 0 50 12.5t28 44.5zM208 565l28 120h127l-72 -120h-83z" />
    <glyph glyph-name="thorn" unicode="&#xfe;" horiz-adv-x="539" 
d="M191 360v-220q44 -42 103 -42q37 0 53 18.5t16 70.5v126q0 52 -16 70.5t-53 18.5q-59 0 -103 -42zM55 -170v840h136v-201q68 43 130 43q89 0 133.5 -43.5t44.5 -164.5v-108q0 -121 -44.5 -164.5t-133.5 -43.5q-62 0 -130 43v-201h-136z" />
    <glyph glyph-name="ydieresis" unicode="&#xff;" horiz-adv-x="496" 
d="M186 2l-176 498h146l94 -333h2l87 333h147l-187 -558q-23 -69 -64 -96.5t-128 -27.5q-41 0 -71 10v109q30 -9 66 -9q34 0 50 12.5t28 44.5zM112 565v106h106v-106h-106zM278 565v106h106v-106h-106z" />
    <glyph glyph-name="Amacron" unicode="&#x100;" horiz-adv-x="537" 
d="M382 0l-27 124h-175l-26 -124h-144l169 650h177l171 -650h-145zM267 529l-61 -293h123l-60 293h-2zM148 728v86h240v-86h-240z" />
    <glyph glyph-name="amacron" unicode="&#x101;" horiz-adv-x="525" 
d="M227 98q65 0 112 41v78l-114 -13q-54 -6 -54 -55q0 -25 15 -38t41 -13zM35 136q0 68 38.5 105t124.5 43l141 10v44q0 35 -17 49.5t-59 14.5t-59 -15t-17 -50h-134q0 88 49.5 131.5t159.5 43.5q114 0 163.5 -42t49.5 -132v-338h-99l-23 43q-68 -55 -153 -55
q-82 0 -123.5 39t-41.5 109zM145 578v86h240v-86h-240z" />
    <glyph glyph-name="Abreve" unicode="&#x102;" horiz-adv-x="537" 
d="M382 0l-27 124h-175l-26 -124h-144l169 650h177l171 -650h-145zM267 529l-61 -293h123l-60 293h-2zM268 705q-126 0 -126 134h78q0 -53 48 -53t48 53h78q0 -134 -126 -134z" />
    <glyph glyph-name="abreve" unicode="&#x103;" horiz-adv-x="525" 
d="M227 98q65 0 112 41v78l-114 -13q-54 -6 -54 -55q0 -25 15 -38t41 -13zM35 136q0 68 38.5 105t124.5 43l141 10v44q0 35 -17 49.5t-59 14.5t-59 -15t-17 -50h-134q0 88 49.5 131.5t159.5 43.5q114 0 163.5 -42t49.5 -132v-338h-99l-23 43q-68 -55 -153 -55
q-82 0 -123.5 39t-41.5 109zM264 555q-126 0 -126 134h78q0 -53 48 -53t48 53h78q0 -134 -126 -134z" />
    <glyph glyph-name="Aogonek" unicode="&#x104;" horiz-adv-x="537" 
d="M382 0l-27 124h-175l-26 -124h-144l169 650h177l171 -650q-42 -36 -42 -70q0 -26 33 -26h9v-78h-57q-84 0 -84 71q0 61 60 103h-64zM267 529l-61 -293h123l-60 293h-2z" />
    <glyph glyph-name="aogonek" unicode="&#x105;" horiz-adv-x="525" 
d="M334 -103q0 55 47 94l-28 52q-68 -55 -153 -55q-82 0 -123.5 39t-41.5 109q0 68 38.5 105t124.5 43l141 10v44q0 35 -17 49.5t-59 14.5t-59 -15t-17 -50h-134q0 88 49.5 131.5t159.5 43.5q114 0 163.5 -42t49.5 -132v-338q-42 -36 -42 -70q0 -26 33 -26h9v-78h-57
q-84 0 -84 71zM227 98q65 0 112 41v78l-114 -13q-54 -6 -54 -55q0 -25 15 -38t41 -13z" />
    <glyph glyph-name="Cacute" unicode="&#x106;" horiz-adv-x="550" 
d="M279 102q49 0 70 23.5t21 80.5h138q0 -114 -54 -166t-175 -52t-177.5 56.5t-56.5 176.5v208q0 122 57.5 177.5t176.5 55.5q121 0 175 -51.5t54 -165.5h-138q0 55 -21.5 79t-69.5 24q-47 0 -70.5 -23t-23.5 -75v-250q0 -98 94 -98zM236 715l28 120h127l-72 -120h-83z" />
    <glyph glyph-name="cacute" unicode="&#x107;" horiz-adv-x="517" 
d="M264 402q-51 0 -69.5 -24t-18.5 -87v-82q0 -65 19 -88t69 -23q42 0 60.5 17t18.5 65h134q0 -107 -53 -149.5t-160 -42.5q-117 0 -170.5 51t-53.5 180v62q0 130 53 180.5t171 50.5q108 0 160.5 -42t52.5 -150h-134q0 49 -18.5 65.5t-60.5 16.5zM224 565l28 120h127
l-72 -120h-83z" />
    <glyph glyph-name="Ccircumflex" unicode="&#x108;" horiz-adv-x="550" 
d="M279 102q49 0 70 23.5t21 80.5h138q0 -114 -54 -166t-175 -52t-177.5 56.5t-56.5 176.5v208q0 122 57.5 177.5t176.5 55.5q121 0 175 -51.5t54 -165.5h-138q0 55 -21.5 79t-69.5 24q-47 0 -70.5 -23t-23.5 -75v-250q0 -98 94 -98zM352 835l54 -120h-88l-40 54l-39 -54
h-88l54 120h147z" />
    <glyph glyph-name="ccircumflex" unicode="&#x109;" horiz-adv-x="517" 
d="M264 402q-51 0 -69.5 -24t-18.5 -87v-82q0 -65 19 -88t69 -23q42 0 60.5 17t18.5 65h134q0 -107 -53 -149.5t-160 -42.5q-117 0 -170.5 51t-53.5 180v62q0 130 53 180.5t171 50.5q108 0 160.5 -42t52.5 -150h-134q0 49 -18.5 65.5t-60.5 16.5zM341 685l54 -120h-88
l-40 54l-39 -54h-88l54 120h147z" />
    <glyph glyph-name="Cdotaccent" unicode="&#x10a;" horiz-adv-x="550" 
d="M279 102q49 0 70 23.5t21 80.5h138q0 -114 -54 -166t-175 -52t-177.5 56.5t-56.5 176.5v208q0 122 57.5 177.5t176.5 55.5q121 0 175 -51.5t54 -165.5h-138q0 55 -21.5 79t-69.5 24q-47 0 -70.5 -23t-23.5 -75v-250q0 -98 94 -98zM228 715v106h106v-106h-106z" />
    <glyph glyph-name="cdotaccent" unicode="&#x10b;" horiz-adv-x="517" 
d="M264 402q-51 0 -69.5 -24t-18.5 -87v-82q0 -65 19 -88t69 -23q42 0 60.5 17t18.5 65h134q0 -107 -53 -149.5t-160 -42.5q-117 0 -170.5 51t-53.5 180v62q0 130 53 180.5t171 50.5q108 0 160.5 -42t52.5 -150h-134q0 49 -18.5 65.5t-60.5 16.5zM213 565v106h106v-106h-106
z" />
    <glyph glyph-name="Ccaron" unicode="&#x10c;" horiz-adv-x="550" 
d="M279 102q49 0 70 23.5t21 80.5h138q0 -114 -54 -166t-175 -52t-177.5 56.5t-56.5 176.5v208q0 122 57.5 177.5t176.5 55.5q121 0 175 -51.5t54 -165.5h-138q0 55 -21.5 79t-69.5 24q-47 0 -70.5 -23t-23.5 -75v-250q0 -98 94 -98zM405 845l-54 -120h-147l-54 120h88
l39 -54l40 54h88z" />
    <glyph glyph-name="ccaron" unicode="&#x10d;" horiz-adv-x="517" 
d="M264 402q-51 0 -69.5 -24t-18.5 -87v-82q0 -65 19 -88t69 -23q42 0 60.5 17t18.5 65h134q0 -107 -53 -149.5t-160 -42.5q-117 0 -170.5 51t-53.5 180v62q0 130 53 180.5t171 50.5q108 0 160.5 -42t52.5 -150h-134q0 49 -18.5 65.5t-60.5 16.5zM394 695l-54 -120h-147
l-54 120h88l39 -54l40 54h88z" />
    <glyph glyph-name="Dcaron" unicode="&#x10e;" horiz-adv-x="572" 
d="M279 536h-79v-422h79q63 0 85.5 26t22.5 82v214q0 36 -6 56.5t-22.5 30t-32 11.5t-47.5 2zM282 0h-222v650h222q131 0 188 -47t57 -183v-188q0 -136 -57.5 -184t-187.5 -48zM395 845l-54 -120h-147l-54 120h88l39 -54l40 54h88z" />
    <glyph glyph-name="dcaron" unicode="&#x10f;" horiz-adv-x="660" 
d="M385 0l-23 43q-73 -55 -145 -55q-86 0 -131.5 44t-45.5 164v108q0 121 44.5 164.5t133.5 43.5q62 0 130 -43v201h136v-670h-99zM176 313v-126q0 -52 16 -70.5t53 -18.5q59 0 103 42v220q-44 42 -103 42q-37 0 -53 -18.5t-16 -70.5zM545 440v230h110l-29 -230h-81z" />
    <glyph glyph-name="Dcroat" unicode="&#x110;" horiz-adv-x="572" 
d="M282 0h-222v283h-52v93h52v274h222q131 0 188 -47t57 -183v-188q0 -136 -57.5 -184t-187.5 -48zM279 536h-79v-160h90v-93h-90v-169h79q63 0 85.5 26t22.5 82v214q0 36 -6 56.5t-22.5 30t-32 11.5t-47.5 2z" />
    <glyph glyph-name="dcroat" unicode="&#x111;" horiz-adv-x="539" 
d="M534 620v-68h-50v-552h-99l-23 43q-73 -55 -145 -55q-86 0 -131.5 44t-45.5 164v108q0 121 44.5 164.5t133.5 43.5q62 0 130 -43v83h-86v68h86v50h136v-50h50zM176 313v-126q0 -52 16 -70.5t53 -18.5q59 0 103 42v220q-44 42 -103 42q-37 0 -53 -18.5t-16 -70.5z" />
    <glyph glyph-name="Emacron" unicode="&#x112;" horiz-adv-x="503" 
d="M60 0v650h398v-114h-258v-151h224v-110h-224v-161h258v-114h-398zM141 728v86h240v-86h-240z" />
    <glyph glyph-name="emacron" unicode="&#x113;" horiz-adv-x="514" 
d="M176 295h169q0 63 -19.5 85t-62.5 22q-50 0 -68.5 -23.5t-18.5 -83.5zM264 98q85 0 192 17v-109q-103 -18 -191 -18q-117 0 -171 50t-54 182v61q0 130 53 180.5t171 50.5q112 0 163.5 -50t51.5 -182v-75h-303q0 -56 18.5 -81.5t69.5 -25.5zM147 578v86h240v-86h-240z" />
    <glyph glyph-name="Ebreve" unicode="&#x114;" horiz-adv-x="503" 
d="M60 0v650h398v-114h-258v-151h224v-110h-224v-161h258v-114h-398zM262 705q-126 0 -126 134h78q0 -53 48 -53t48 53h78q0 -134 -126 -134z" />
    <glyph glyph-name="ebreve" unicode="&#x115;" horiz-adv-x="514" 
d="M176 295h169q0 63 -19.5 85t-62.5 22q-50 0 -68.5 -23.5t-18.5 -83.5zM264 98q85 0 192 17v-109q-103 -18 -191 -18q-117 0 -171 50t-54 182v61q0 130 53 180.5t171 50.5q112 0 163.5 -50t51.5 -182v-75h-303q0 -56 18.5 -81.5t69.5 -25.5zM265 555q-126 0 -126 134h78
q0 -53 48 -53t48 53h78q0 -134 -126 -134z" />
    <glyph glyph-name="Edotaccent" unicode="&#x116;" horiz-adv-x="503" 
d="M60 0v650h398v-114h-258v-151h224v-110h-224v-161h258v-114h-398zM208 715v106h106v-106h-106z" />
    <glyph glyph-name="edotaccent" unicode="&#x117;" horiz-adv-x="514" 
d="M176 295h169q0 63 -19.5 85t-62.5 22q-50 0 -68.5 -23.5t-18.5 -83.5zM264 98q85 0 192 17v-109q-103 -18 -191 -18q-117 0 -171 50t-54 182v61q0 130 53 180.5t171 50.5q112 0 163.5 -50t51.5 -182v-75h-303q0 -56 18.5 -81.5t69.5 -25.5zM212 565v106h106v-106h-106z
" />
    <glyph glyph-name="Eogonek" unicode="&#x118;" horiz-adv-x="503" 
d="M60 0v650h398v-114h-258v-151h224v-110h-224v-161h258v-114q-42 -36 -42 -70q0 -26 33 -26h9v-78h-57q-84 0 -84 71q0 61 60 103h-317z" />
    <glyph glyph-name="eogonek" unicode="&#x119;" horiz-adv-x="514" 
d="M264 98q85 0 192 17v-109q-42 -36 -42 -70q0 -26 33 -26h9v-78h-57q-84 0 -84 71q0 50 43 90q-50 -5 -93 -5q-117 0 -171 50t-54 182v61q0 130 53 180.5t171 50.5q112 0 163.5 -50t51.5 -182v-75h-303q0 -56 18.5 -81.5t69.5 -25.5zM176 295h169q0 63 -19.5 85t-62.5 22
q-50 0 -68.5 -23.5t-18.5 -83.5z" />
    <glyph glyph-name="Ecaron" unicode="&#x11a;" horiz-adv-x="503" 
d="M60 0v650h398v-114h-258v-151h224v-110h-224v-161h258v-114h-398zM390 845l-54 -120h-147l-54 120h88l39 -54l40 54h88z" />
    <glyph glyph-name="ecaron" unicode="&#x11b;" horiz-adv-x="514" 
d="M176 295h169q0 63 -19.5 85t-62.5 22q-50 0 -68.5 -23.5t-18.5 -83.5zM264 98q85 0 192 17v-109q-103 -18 -191 -18q-117 0 -171 50t-54 182v61q0 130 53 180.5t171 50.5q112 0 163.5 -50t51.5 -182v-75h-303q0 -56 18.5 -81.5t69.5 -25.5zM395 695l-54 -120h-147
l-54 120h88l39 -54l40 54h88z" />
    <glyph glyph-name="Gcircumflex" unicode="&#x11c;" horiz-adv-x="570" 
d="M279 -12q-121 0 -177.5 56t-56.5 177v207q0 121 58.5 177.5t175.5 56.5q121 0 176 -51.5t55 -165.5h-140q0 103 -91 103q-47 0 -70.5 -23t-23.5 -75v-250q0 -54 24.5 -76t74.5 -22q49 0 72.5 24t23.5 81v68h-103v110h243v-385h-68l-23 43q-58 -55 -150 -55zM356 835
l54 -120h-88l-40 54l-39 -54h-88l54 120h147z" />
    <glyph glyph-name="gcircumflex" unicode="&#x11d;" horiz-adv-x="539" 
d="M484 500v-503q0 -97 -52 -138t-168 -41q-88 0 -161 19v112q80 -21 159 -21q46 0 66 15.5t20 53.5v46q-68 -43 -130 -43q-89 0 -133.5 43.5t-44.5 164.5v96q0 120 45.5 164t131.5 44q72 0 145 -55l23 43h99zM348 142v228q-42 32 -101 32q-39 0 -55 -21.5t-16 -77.5v-94
q0 -56 16 -77.5t55 -21.5q57 0 101 32zM349 685l54 -120h-88l-40 54l-39 -54h-88l54 120h147z" />
    <glyph glyph-name="Gbreve" unicode="&#x11e;" horiz-adv-x="570" 
d="M279 -12q-121 0 -177.5 56t-56.5 177v207q0 121 58.5 177.5t175.5 56.5q121 0 176 -51.5t55 -165.5h-140q0 103 -91 103q-47 0 -70.5 -23t-23.5 -75v-250q0 -54 24.5 -76t74.5 -22q49 0 72.5 24t23.5 81v68h-103v110h243v-385h-68l-23 43q-58 -55 -150 -55zM277 705
q-126 0 -126 134h78q0 -53 48 -53t48 53h78q0 -134 -126 -134z" />
    <glyph glyph-name="gbreve" unicode="&#x11f;" horiz-adv-x="539" 
d="M484 500v-503q0 -97 -52 -138t-168 -41q-88 0 -161 19v112q80 -21 159 -21q46 0 66 15.5t20 53.5v46q-68 -43 -130 -43q-89 0 -133.5 43.5t-44.5 164.5v96q0 120 45.5 164t131.5 44q72 0 145 -55l23 43h99zM348 142v228q-42 32 -101 32q-39 0 -55 -21.5t-16 -77.5v-94
q0 -56 16 -77.5t55 -21.5q57 0 101 32zM279 555q-126 0 -126 134h78q0 -53 48 -53t48 53h78q0 -134 -126 -134z" />
    <glyph glyph-name="Gdotaccent" unicode="&#x120;" horiz-adv-x="570" 
d="M279 -12q-121 0 -177.5 56t-56.5 177v207q0 121 58.5 177.5t175.5 56.5q121 0 176 -51.5t55 -165.5h-140q0 103 -91 103q-47 0 -70.5 -23t-23.5 -75v-250q0 -54 24.5 -76t74.5 -22q49 0 72.5 24t23.5 81v68h-103v110h243v-385h-68l-23 43q-58 -55 -150 -55zM228 715v106
h106v-106h-106z" />
    <glyph glyph-name="gdotaccent" unicode="&#x121;" horiz-adv-x="539" 
d="M484 500v-503q0 -97 -52 -138t-168 -41q-88 0 -161 19v112q80 -21 159 -21q46 0 66 15.5t20 53.5v46q-68 -43 -130 -43q-89 0 -133.5 43.5t-44.5 164.5v96q0 120 45.5 164t131.5 44q72 0 145 -55l23 43h99zM348 142v228q-42 32 -101 32q-39 0 -55 -21.5t-16 -77.5v-94
q0 -56 16 -77.5t55 -21.5q57 0 101 32zM220 565v106h106v-106h-106z" />
    <glyph glyph-name="Gcommaaccent" unicode="&#x122;" horiz-adv-x="570" 
d="M279 -12q-121 0 -177.5 56t-56.5 177v207q0 121 58.5 177.5t175.5 56.5q121 0 176 -51.5t55 -165.5h-140q0 103 -91 103q-47 0 -70.5 -23t-23.5 -75v-250q0 -54 24.5 -76t74.5 -22q49 0 72.5 24t23.5 81v68h-103v110h243v-385h-68l-23 43q-58 -55 -150 -55zM187 -190
l36 130h132l-73 -130h-95z" />
    <glyph glyph-name="gcommaaccent" unicode="&#x123;" horiz-adv-x="539" 
d="M484 500v-503q0 -97 -52 -138t-168 -41q-88 0 -161 19v112q80 -21 159 -21q46 0 66 15.5t20 53.5v46q-68 -43 -130 -43q-89 0 -133.5 43.5t-44.5 164.5v96q0 120 45.5 164t131.5 44q72 0 145 -55l23 43h99zM348 142v228q-42 32 -101 32q-39 0 -55 -21.5t-16 -77.5v-94
q0 -56 16 -77.5t55 -21.5q57 0 101 32zM373 690l-36 -130h-132l73 130h95z" />
    <glyph glyph-name="Hcircumflex" unicode="&#x124;" horiz-adv-x="579" 
d="M519 650v-650h-140v275h-179v-275h-140v650h140v-265h179v265h140zM363 835l54 -120h-88l-40 54l-39 -54h-88l54 120h147z" />
    <glyph glyph-name="hcircumflex" unicode="&#x125;" horiz-adv-x="535" 
d="M55 670h136v-203q66 45 145 45q81 0 115 -39.5t34 -137.5v-335h-136v331q0 41 -13.5 56t-49.5 15q-51 0 -95 -42v-360h-136v670zM197 840l54 -120h-88l-40 54l-39 -54h-88l54 120h147z" />
    <glyph glyph-name="Hbar" unicode="&#x126;" horiz-adv-x="579" 
d="M519 650v-87h50v-80h-50v-483h-140v275h-179v-275h-140v483h-50v80h50v87h140v-87h179v87h140zM200 385h179v98h-179v-98z" />
    <glyph glyph-name="hbar" unicode="&#x127;" horiz-adv-x="535" 
d="M55 670h136v-39h257v-70h-257v-94q66 45 145 45q81 0 115 -39.5t34 -137.5v-335h-136v331q0 41 -13.5 56t-49.5 15q-51 0 -95 -42v-360h-136v670z" />
    <glyph glyph-name="Itilde" unicode="&#x128;" horiz-adv-x="260" 
d="M184 782q22 0 22 34h76q0 -67 -21.5 -93.5t-66.5 -26.5q-34 0 -63 23t-46 23q-22 0 -22 -34h-76q0 66 21.5 93t66.5 27q35 0 63.5 -23t45.5 -23zM60 0v650h140v-650h-140z" />
    <glyph glyph-name="itilde" unicode="&#x129;" horiz-adv-x="246" 
d="M173 636q22 0 22 34h76q0 -67 -21.5 -93.5t-66.5 -26.5q-27 0 -46 11.5t-33 23t-30 11.5q-22 0 -22 -34h-76q0 66 21.5 93t66.5 27q34 0 63 -23t46 -23zM55 0v500h136v-500h-136z" />
    <glyph glyph-name="Imacron" unicode="&#x12a;" horiz-adv-x="260" 
d="M5 714v86h250v-86h-250zM60 0v650h140v-650h-140z" />
    <glyph glyph-name="imacron" unicode="&#x12b;" horiz-adv-x="246" 
d="M-2 564v86h250v-86h-250zM55 0v500h136v-500h-136z" />
    <glyph glyph-name="Ibreve" unicode="&#x12c;" horiz-adv-x="260" 
d="M60 0v650h140v-650h-140zM130 705q-126 0 -126 134h78q0 -53 48 -53t48 53h78q0 -134 -126 -134z" />
    <glyph glyph-name="ibreve" unicode="&#x12d;" horiz-adv-x="246" 
d="M55 0v500h136v-500h-136zM124 555q-126 0 -126 134h78q0 -53 48 -53t48 53h78q0 -134 -126 -134z" />
    <glyph glyph-name="Iogonek" unicode="&#x12e;" horiz-adv-x="260" 
d="M60 0v650h140v-650q-42 -36 -42 -70q0 -26 33 -26h9v-78h-57q-84 0 -84 71q0 61 60 103h-59z" />
    <glyph glyph-name="iogonek" unicode="&#x12f;" horiz-adv-x="246" 
d="M55 0v500h136v-500q-42 -36 -42 -70q0 -26 33 -26h9v-78h-57q-84 0 -84 71q0 61 60 103h-55zM55 544v126h136v-126h-136z" />
    <glyph glyph-name="Idotaccent" unicode="&#x130;" horiz-adv-x="260" 
d="M60 0v650h140v-650h-140zM77 715v106h106v-106h-106z" />
    <glyph glyph-name="dotlessi" unicode="&#x131;" horiz-adv-x="246" 
d="M55 0v500h136v-500h-136z" />
    <glyph glyph-name="Jcircumflex" unicode="&#x134;" horiz-adv-x="360" 
d="M160 536h-95v114h235v-488q0 -48 -5.5 -76.5t-23.5 -52.5t-54 -34.5t-95 -10.5q-46 0 -97 12v114q41 -12 78 -12q33 0 45 13t12 45v376zM253 835l54 -120h-88l-40 54l-39 -54h-88l54 120h147z" />
    <glyph glyph-name="jcircumflex" unicode="&#x135;" horiz-adv-x="244" 
d="M189 500v-540q0 -78 -33 -110t-103 -32q-51 0 -93 11v107q32 -5 54 -5q21 0 30 9t9 33v527h136zM194 670l54 -120h-88l-40 54l-39 -54h-88l54 120h147z" />
    <glyph glyph-name="Kcommaaccent" unicode="&#x136;" horiz-adv-x="523" 
d="M513 650l-200 -314l205 -336h-160l-158 276v-276h-140v650h140v-266l152 266h161zM182 -190l36 130h132l-73 -130h-95z" />
    <glyph glyph-name="kcommaaccent" unicode="&#x137;" horiz-adv-x="495" 
d="M191 224v-224h-136v670h136v-363h2l128 193h156l-168 -232l176 -268h-161l-131 224h-2zM165 -190l36 130h132l-73 -130h-95z" />
    <glyph glyph-name="kgreenlandic" unicode="&#x138;" horiz-adv-x="495" 
d="M191 224v-224h-136v500h136v-193h2l128 193h156l-168 -232l176 -268h-161l-131 224h-2z" />
    <glyph glyph-name="Lacute" unicode="&#x139;" horiz-adv-x="418" 
d="M60 0v650h140v-536h198v-114h-338zM91 715l28 120h127l-72 -120h-83z" />
    <glyph glyph-name="lacute" unicode="&#x13a;" horiz-adv-x="246" 
d="M55 0v670h136v-670h-136zM80 715l28 120h127l-72 -120h-83z" />
    <glyph glyph-name="Lcommaaccent" unicode="&#x13b;" horiz-adv-x="418" 
d="M60 0v650h140v-536h198v-114h-338zM129 -190l36 130h132l-73 -130h-95z" />
    <glyph glyph-name="lcommaaccent" unicode="&#x13c;" horiz-adv-x="246" 
d="M55 0v670h136v-670h-136zM19 -190l36 130h132l-73 -130h-95z" />
    <glyph glyph-name="Lcaron" unicode="&#x13d;" horiz-adv-x="418" 
d="M60 0v650h140v-536h198v-114h-338zM253 440v230h110l-29 -230h-81z" />
    <glyph glyph-name="lcaron" unicode="&#x13e;" horiz-adv-x="366" 
d="M55 0v670h136v-670h-136zM251 440v230h110l-29 -230h-81z" />
    <glyph glyph-name="Ldot" unicode="&#x13f;" horiz-adv-x="418" 
d="M246 269v122h122v-122h-122zM60 0v650h140v-536h198v-114h-338z" />
    <glyph glyph-name="ldot" unicode="&#x140;" horiz-adv-x="393" 
d="M55 0v670h136v-670h-136zM246 255v143h142v-143h-142z" />
    <glyph glyph-name="Lslash" unicode="&#x141;" horiz-adv-x="429" 
d="M10 308l61 24v318h140v-263l117 46v-96l-117 -46v-177h198v-114h-338v236l-61 -24v96z" />
    <glyph glyph-name="lslash" unicode="&#x142;" horiz-adv-x="288" 
d="M76 0v239l-66 -24v96l66 24v335h136v-285l66 24v-96l-66 -24v-289h-136z" />
    <glyph glyph-name="Nacute" unicode="&#x143;" horiz-adv-x="584" 
d="M524 650v-650h-161l-176 453q5 -65 5 -179v-274h-132v650h161l176 -453q-5 92 -5 184v269h132zM241 715l28 120h127l-72 -120h-83z" />
    <glyph glyph-name="nacute" unicode="&#x144;" horiz-adv-x="537" 
d="M55 500h99l23 -43q73 55 159 55q81 0 116 -39.5t35 -137.5v-335h-136v331q0 41 -13.5 56t-49.5 15q-53 0 -97 -42v-360h-136v500zM238 565l28 120h127l-72 -120h-83z" />
    <glyph glyph-name="Ncommaaccent" unicode="&#x145;" horiz-adv-x="584" 
d="M524 650v-650h-161l-176 453q5 -65 5 -179v-274h-132v650h161l176 -453q-5 92 -5 184v269h132zM212 -190l36 130h132l-73 -130h-95z" />
    <glyph glyph-name="ncommaaccent" unicode="&#x146;" horiz-adv-x="537" 
d="M55 500h99l23 -43q73 55 159 55q81 0 116 -39.5t35 -137.5v-335h-136v331q0 41 -13.5 56t-49.5 15q-53 0 -97 -42v-360h-136v500zM168 -190l36 130h132l-73 -130h-95z" />
    <glyph glyph-name="Ncaron" unicode="&#x147;" horiz-adv-x="584" 
d="M524 650v-650h-161l-176 453q5 -65 5 -179v-274h-132v650h161l176 -453q-5 92 -5 184v269h132zM419 845l-54 -120h-147l-54 120h88l39 -54l40 54h88z" />
    <glyph glyph-name="ncaron" unicode="&#x148;" horiz-adv-x="537" 
d="M55 500h99l23 -43q73 55 159 55q81 0 116 -39.5t35 -137.5v-335h-136v331q0 41 -13.5 56t-49.5 15q-53 0 -97 -42v-360h-136v500zM401 695l-54 -120h-147l-54 120h88l39 -54l40 54h88z" />
    <glyph glyph-name="Eng" unicode="&#x14a;" horiz-adv-x="584" 
d="M524 650v-656q0 -48 -5.5 -76.5t-23.5 -52.5t-54 -34.5t-95 -10.5q-46 0 -97 12v114q41 -12 78 -12q33 0 45 13t12 45l-197 461q5 -65 5 -179v-274h-132v650h160l177 -413q-5 92 -5 184v229h132z" />
    <glyph glyph-name="eng" unicode="&#x14b;" horiz-adv-x="537" 
d="M55 500h99l23 -43q73 55 159 55q81 0 116 -39.5t35 -137.5v-375q0 -78 -33 -110t-103 -32q-51 0 -93 11v107q32 -5 54 -5q21 0 30 9t9 33v358q0 41 -13.5 56t-49.5 15q-53 0 -97 -42v-360h-136v500z" />
    <glyph glyph-name="Omacron" unicode="&#x14c;" horiz-adv-x="569" 
d="M384 206v238q0 54 -24 79t-76 25q-51 0 -75 -25t-24 -78v-239q0 -54 23.5 -79t75.5 -25t76 25t24 79zM45 210v230q0 114 57 168t182 54t182.5 -53.5t57.5 -168.5v-230q0 -114 -57.5 -168t-182.5 -54t-182 54t-57 168zM164 728v86h240v-86h-240z" />
    <glyph glyph-name="omacron" unicode="&#x14d;" horiz-adv-x="527" 
d="M176 291v-82q0 -65 19.5 -88t68.5 -23t68 23t19 88v82q0 65 -19 88t-68 23t-68.5 -23t-19.5 -88zM487 281v-62q0 -130 -53.5 -180.5t-169.5 -50.5q-118 0 -171 50.5t-53 180.5v62q0 129 54 180t170 51q115 0 169 -51t54 -180zM145 578v86h240v-86h-240z" />
    <glyph glyph-name="Obreve" unicode="&#x14e;" horiz-adv-x="569" 
d="M384 206v238q0 54 -24 79t-76 25q-51 0 -75 -25t-24 -78v-239q0 -54 23.5 -79t75.5 -25t76 25t24 79zM45 210v230q0 114 57 168t182 54t182.5 -53.5t57.5 -168.5v-230q0 -114 -57.5 -168t-182.5 -54t-182 54t-57 168zM284 705q-126 0 -126 134h78q0 -53 48 -53t48 53h78
q0 -134 -126 -134z" />
    <glyph glyph-name="obreve" unicode="&#x14f;" horiz-adv-x="527" 
d="M176 291v-82q0 -65 19.5 -88t68.5 -23t68 23t19 88v82q0 65 -19 88t-68 23t-68.5 -23t-19.5 -88zM487 281v-62q0 -130 -53.5 -180.5t-169.5 -50.5q-118 0 -171 50.5t-53 180.5v62q0 129 54 180t170 51q115 0 169 -51t54 -180zM265 555q-126 0 -126 134h78q0 -53 48 -53
t48 53h78q0 -134 -126 -134z" />
    <glyph glyph-name="Ohungarumlaut" unicode="&#x150;" horiz-adv-x="569" 
d="M384 206v238q0 54 -24 79t-76 25q-51 0 -75 -25t-24 -78v-239q0 -54 23.5 -79t75.5 -25t76 25t24 79zM45 210v230q0 114 57 168t182 54t182.5 -53.5t57.5 -168.5v-230q0 -114 -57.5 -168t-182.5 -54t-182 54t-57 168zM182 715l14 120h113l-48 -120h-79zM317 715l38 120
h117l-72 -120h-83z" />
    <glyph glyph-name="ohungarumlaut" unicode="&#x151;" horiz-adv-x="527" 
d="M176 291v-82q0 -65 19.5 -88t68.5 -23t68 23t19 88v82q0 65 -19 88t-68 23t-68.5 -23t-19.5 -88zM487 281v-62q0 -130 -53.5 -180.5t-169.5 -50.5q-118 0 -171 50.5t-53 180.5v62q0 129 54 180t170 51q115 0 169 -51t54 -180zM161 565l14 120h113l-48 -120h-79zM296 565
l38 120h117l-72 -120h-83z" />
    <glyph glyph-name="OE" unicode="&#x152;" horiz-adv-x="807" 
d="M284 114h90v422h-90q-51 0 -75 -25t-24 -78v-215q0 -54 23.5 -79t75.5 -25zM284 650h478v-114h-248v-151h214v-110h-214v-161h248v-114h-478q-125 0 -182 54t-57 168v206q0 114 57 168t182 54z" />
    <glyph glyph-name="oe" unicode="&#x153;" horiz-adv-x="825" 
d="M176 291v-82q0 -65 19.5 -88t68.5 -23t68 23t19 88v82q0 65 -19 88t-68 23t-68.5 -23t-19.5 -88zM487 295h169q0 63 -19.5 85t-62.5 22q-50 0 -68.5 -23.5t-18.5 -83.5zM575 98q85 0 192 17v-109q-103 -18 -191 -18q-107 0 -157 42q-49 -42 -155 -42q-118 0 -171 50.5
t-53 180.5v62q0 130 53.5 180.5t170.5 50.5q105 0 154 -42q50 42 157 42q112 0 163.5 -50t51.5 -182v-75h-303q0 -56 18.5 -81.5t69.5 -25.5z" />
    <glyph glyph-name="Racute" unicode="&#x154;" horiz-adv-x="560" 
d="M60 0v650h223q126 0 179.5 -43.5t53.5 -168.5q0 -152 -105 -193l119 -245h-150l-104 228h-76v-228h-140zM200 338h83q50 0 71 21t21 78q0 56 -21 77.5t-70 21.5h-84v-198zM226 715l28 120h127l-72 -120h-83z" />
    <glyph glyph-name="racute" unicode="&#x155;" horiz-adv-x="339" 
d="M314 512v-120q-76 0 -123 -38v-354h-136v500h96l22 -37q62 49 141 49zM137 565l28 120h127l-72 -120h-83z" />
    <glyph glyph-name="Rcommaaccent" unicode="&#x156;" horiz-adv-x="560" 
d="M60 0v650h223q126 0 179.5 -43.5t53.5 -168.5q0 -152 -105 -193l119 -245h-150l-104 228h-76v-228h-140zM200 338h83q50 0 71 21t21 78q0 56 -21 77.5t-70 21.5h-84v-198zM187 -190l36 130h132l-73 -130h-95z" />
    <glyph glyph-name="rcommaaccent" unicode="&#x157;" horiz-adv-x="339" 
d="M314 512v-120q-76 0 -123 -38v-354h-136v500h96l22 -37q62 49 141 49zM20 -190l36 130h132l-73 -130h-95z" />
    <glyph glyph-name="Rcaron" unicode="&#x158;" horiz-adv-x="560" 
d="M60 0v650h223q126 0 179.5 -43.5t53.5 -168.5q0 -152 -105 -193l119 -245h-150l-104 228h-76v-228h-140zM200 338h83q50 0 71 21t21 78q0 56 -21 77.5t-70 21.5h-84v-198zM396 845l-54 -120h-147l-54 120h88l39 -54l40 54h88z" />
    <glyph glyph-name="rcaron" unicode="&#x159;" horiz-adv-x="339" 
d="M314 512v-120q-76 0 -123 -38v-354h-136v500h96l22 -37q62 49 141 49zM315 695l-54 -120h-147l-54 120h88l39 -54l40 54h88z" />
    <glyph glyph-name="Sacute" unicode="&#x15a;" horiz-adv-x="557" 
d="M372 193q0 39 -25 56t-108 32q-102 18 -149 59.5t-47 133.5q0 89 57.5 138.5t172.5 49.5q123 0 176 -44t53 -148h-140q0 41 -21.5 59.5t-68.5 18.5q-46 0 -66.5 -18.5t-20.5 -56.5q0 -45 23.5 -65t95.5 -32q120 -19 164 -58t44 -123q0 -111 -61 -159t-177 -48
q-128 0 -183.5 48t-55.5 158h140q0 -50 23.5 -71t75.5 -21q54 0 76 20t22 71zM230 715l28 120h127l-72 -120h-83z" />
    <glyph glyph-name="sacute" unicode="&#x15b;" horiz-adv-x="501" 
d="M466 145q0 -28 -2.5 -46.5t-14.5 -41.5t-33.5 -36.5t-63 -23t-100.5 -9.5q-122 0 -169.5 40t-47.5 129h136q0 -34 18 -46.5t63 -12.5q78 0 78 47q0 34 -18.5 46t-83.5 17q-110 9 -149 42.5t-39 105.5q0 156 207 156q116 0 163 -38t47 -133h-136q0 13 -1.5 21t-8 18.5
t-22.5 16t-42 5.5q-41 0 -56 -13t-15 -37q0 -28 16 -40t65 -16q131 -11 170 -41t39 -110zM211 565l28 120h127l-72 -120h-83z" />
    <glyph glyph-name="Scircumflex" unicode="&#x15c;" horiz-adv-x="557" 
d="M372 193q0 39 -25 56t-108 32q-102 18 -149 59.5t-47 133.5q0 89 57.5 138.5t172.5 49.5q123 0 176 -44t53 -148h-140q0 41 -21.5 59.5t-68.5 18.5q-46 0 -66.5 -18.5t-20.5 -56.5q0 -45 23.5 -65t95.5 -32q120 -19 164 -58t44 -123q0 -111 -61 -159t-177 -48
q-128 0 -183.5 48t-55.5 158h140q0 -50 23.5 -71t75.5 -21q54 0 76 20t22 71zM352 835l54 -120h-88l-40 54l-39 -54h-88l54 120h147z" />
    <glyph glyph-name="scircumflex" unicode="&#x15d;" horiz-adv-x="501" 
d="M466 145q0 -28 -2.5 -46.5t-14.5 -41.5t-33.5 -36.5t-63 -23t-100.5 -9.5q-122 0 -169.5 40t-47.5 129h136q0 -34 18 -46.5t63 -12.5q78 0 78 47q0 34 -18.5 46t-83.5 17q-110 9 -149 42.5t-39 105.5q0 156 207 156q116 0 163 -38t47 -133h-136q0 13 -1.5 21t-8 18.5
t-22.5 16t-42 5.5q-41 0 -56 -13t-15 -37q0 -28 16 -40t65 -16q131 -11 170 -41t39 -110zM327 685l54 -120h-88l-40 54l-39 -54h-88l54 120h147z" />
    <glyph glyph-name="Scedilla" unicode="&#x15e;" horiz-adv-x="557" 
d="M372 193q0 39 -25 56t-108 32q-102 18 -149 59.5t-47 133.5q0 89 57.5 138.5t172.5 49.5q123 0 176 -44t53 -148h-140q0 41 -21.5 59.5t-68.5 18.5q-46 0 -66.5 -18.5t-20.5 -56.5q0 -45 23.5 -65t95.5 -32q120 -19 164 -58t44 -123q0 -106 -55.5 -154t-161.5 -52l-8 -30
q72 -8 72 -74q0 -45 -25.5 -65.5t-85.5 -20.5h-69v62h67q20 0 27.5 5.5t7.5 18.5t-7.5 18.5t-27.5 5.5h-33l24 80q-107 7 -154.5 55t-47.5 150h140q0 -50 23.5 -71t75.5 -21q54 0 76 20t22 71z" />
    <glyph glyph-name="scedilla" unicode="&#x15f;" horiz-adv-x="501" 
d="M466 145q0 -27 -2.5 -44.5t-13 -40t-30 -36t-56 -23.5t-88.5 -12l-8 -30q72 -8 72 -74q0 -45 -25.5 -65.5t-85.5 -20.5h-69v62h67q20 0 27.5 5.5t7.5 18.5t-7.5 18.5t-27.5 5.5h-33l24 80q-102 5 -142.5 45t-40.5 123h136q0 -34 18 -46.5t63 -12.5q78 0 78 47
q0 34 -18.5 46t-83.5 17q-110 9 -149 42.5t-39 105.5q0 156 207 156q116 0 163 -38t47 -133h-136q0 13 -1.5 21t-8 18.5t-22.5 16t-42 5.5q-41 0 -56 -13t-15 -37q0 -28 16 -40t65 -16q131 -11 170 -41t39 -110z" />
    <glyph glyph-name="Scaron" unicode="&#x160;" horiz-adv-x="557" 
d="M372 193q0 39 -25 56t-108 32q-102 18 -149 59.5t-47 133.5q0 89 57.5 138.5t172.5 49.5q123 0 176 -44t53 -148h-140q0 41 -21.5 59.5t-68.5 18.5q-46 0 -66.5 -18.5t-20.5 -56.5q0 -45 23.5 -65t95.5 -32q120 -19 164 -58t44 -123q0 -111 -61 -159t-177 -48
q-128 0 -183.5 48t-55.5 158h140q0 -50 23.5 -71t75.5 -21q54 0 76 20t22 71zM406 845l-54 -120h-147l-54 120h88l39 -54l40 54h88z" />
    <glyph glyph-name="scaron" unicode="&#x161;" horiz-adv-x="501" 
d="M466 145q0 -28 -2.5 -46.5t-14.5 -41.5t-33.5 -36.5t-63 -23t-100.5 -9.5q-122 0 -169.5 40t-47.5 129h136q0 -34 18 -46.5t63 -12.5q78 0 78 47q0 34 -18.5 46t-83.5 17q-110 9 -149 42.5t-39 105.5q0 156 207 156q116 0 163 -38t47 -133h-136q0 13 -1.5 21t-8 18.5
t-22.5 16t-42 5.5q-41 0 -56 -13t-15 -37q0 -28 16 -40t65 -16q131 -11 170 -41t39 -110zM380 695l-54 -120h-147l-54 120h88l39 -54l40 54h88z" />
    <glyph glyph-name="Tcaron" unicode="&#x164;" horiz-adv-x="458" 
d="M159 0v536h-144v114h428v-114h-144v-536h-140zM356 845l-54 -120h-147l-54 120h88l39 -54l40 54h88z" />
    <glyph glyph-name="tcaron" unicode="&#x165;" horiz-adv-x="343" 
d="M259 540v180h105l-29 -180h-76zM313 103v-103q-46 -12 -93 -12q-70 0 -103 31t-33 108v263h-64v97l64 13v113l136 27v-140h93v-110h-93v-250q0 -24 9 -33t30 -9t54 5z" />
    <glyph glyph-name="Tbar" unicode="&#x166;" horiz-adv-x="458" 
d="M74 251v100h85v185h-144v114h428v-114h-144v-185h85v-100h-85v-251h-140v251h-85z" />
    <glyph glyph-name="tbar" unicode="&#x167;" horiz-adv-x="343" 
d="M315 103v-103q-46 -12 -93 -12q-71 0 -104.5 31t-33.5 108v83h-53v90h53v90h-64v97l64 13v113l138 27v-140h93v-110h-93v-90h75v-90h-75v-70q0 -24 9 -33t30 -9t54 5z" />
    <glyph glyph-name="Utilde" unicode="&#x168;" horiz-adv-x="575" 
d="M55 650h140v-449q0 -52 21.5 -75t71.5 -23t71 23t21 75v449h140v-442q0 -121 -56.5 -170t-175.5 -49q-120 0 -176.5 49t-56.5 170v442zM344 800q31 0 31 32h78q0 -65 -22.5 -94t-71.5 -29q-31 0 -64.5 21.5t-54.5 21.5q-31 0 -31 -32h-78q0 66 22.5 94.5t71.5 28.5
q31 0 65 -21.5t54 -21.5z" />
    <glyph glyph-name="utilde" unicode="&#x169;" 
d="M485 0h-99l-23 43q-73 -55 -159 -55q-81 0 -115 39.5t-34 137.5v335h136v-331q0 -41 13.5 -56t49.5 -15q51 0 95 42v360h136v-500zM322 650q31 0 31 32h78q0 -65 -22.5 -94t-71.5 -29q-31 0 -64.5 21.5t-54.5 21.5q-31 0 -31 -32h-78q0 66 22.5 94.5t71.5 28.5
q31 0 65 -21.5t54 -21.5z" />
    <glyph glyph-name="Umacron" unicode="&#x16a;" horiz-adv-x="575" 
d="M55 650h140v-449q0 -52 21.5 -75t71.5 -23t71 23t21 75v449h140v-442q0 -121 -56.5 -170t-175.5 -49q-120 0 -176.5 49t-56.5 170v442zM166 728v86h240v-86h-240z" />
    <glyph glyph-name="umacron" unicode="&#x16b;" 
d="M485 0h-99l-23 43q-73 -55 -159 -55q-81 0 -115 39.5t-34 137.5v335h136v-331q0 -41 13.5 -56t49.5 -15q51 0 95 42v360h136v-500zM149 578v86h240v-86h-240z" />
    <glyph glyph-name="Ubreve" unicode="&#x16c;" horiz-adv-x="575" 
d="M55 650h140v-449q0 -52 21.5 -75t71.5 -23t71 23t21 75v449h140v-442q0 -121 -56.5 -170t-175.5 -49q-120 0 -176.5 49t-56.5 170v442zM287 705q-126 0 -126 134h78q0 -53 48 -53t48 53h78q0 -134 -126 -134z" />
    <glyph glyph-name="ubreve" unicode="&#x16d;" 
d="M485 0h-99l-23 43q-73 -55 -159 -55q-81 0 -115 39.5t-34 137.5v335h136v-331q0 -41 13.5 -56t49.5 -15q51 0 95 42v360h136v-500zM270 555q-126 0 -126 134h78q0 -53 48 -53t48 53h78q0 -134 -126 -134z" />
    <glyph glyph-name="Uring" unicode="&#x16e;" horiz-adv-x="575" 
d="M55 650h140v-449q0 -52 21.5 -75t71.5 -23t71 23t21 75v449h140v-442q0 -121 -56.5 -170t-175.5 -49q-120 0 -176.5 49t-56.5 170v442zM287 893q111 0 111 -93q0 -46 -29 -70.5t-82 -24.5t-82 24.5t-29 70.5q0 93 111 93zM287 763q39 0 39 37q0 35 -39 35t-39 -35
q0 -37 39 -37z" />
    <glyph glyph-name="uring" unicode="&#x16f;" 
d="M485 0h-99l-23 43q-73 -55 -159 -55q-81 0 -115 39.5t-34 137.5v335h136v-331q0 -41 13.5 -56t49.5 -15q51 0 95 42v360h136v-500zM270 743q111 0 111 -93q0 -46 -29 -70.5t-82 -24.5t-82 24.5t-29 70.5q0 93 111 93zM270 613q39 0 39 37q0 35 -39 35t-39 -35
q0 -37 39 -37z" />
    <glyph glyph-name="Uhungarumlaut" unicode="&#x170;" horiz-adv-x="575" 
d="M55 650h140v-449q0 -52 21.5 -75t71.5 -23t71 23t21 75v449h140v-442q0 -121 -56.5 -170t-175.5 -49q-120 0 -176.5 49t-56.5 170v442zM182 715l14 120h113l-48 -120h-79zM317 715l38 120h117l-72 -120h-83z" />
    <glyph glyph-name="uhungarumlaut" unicode="&#x171;" 
d="M485 0h-99l-23 43q-73 -55 -159 -55q-81 0 -115 39.5t-34 137.5v335h136v-331q0 -41 13.5 -56t49.5 -15q51 0 95 42v360h136v-500zM164 565l14 120h113l-48 -120h-79zM299 565l38 120h117l-72 -120h-83z" />
    <glyph glyph-name="Uogonek" unicode="&#x172;" horiz-adv-x="575" 
d="M55 650h140v-449q0 -52 21.5 -75t71.5 -23t71 23t21 75v449h140v-442q0 -92 -32 -141t-98 -67q-42 -36 -42 -70q0 -26 33 -26h9v-78h-57q-84 0 -84 71q0 53 45 92h-6q-120 0 -176.5 49t-56.5 170v442z" />
    <glyph glyph-name="uogonek" unicode="&#x173;" 
d="M348 -103q0 53 46 93l-29 53q-73 -55 -159 -55q-81 0 -116 39.5t-35 137.5v335h138v-331q0 -41 13.5 -56t49.5 -15q51 0 95 42v360h138v-500q-42 -36 -42 -70q0 -26 33 -26h9v-78h-57q-84 0 -84 71z" />
    <glyph glyph-name="Wcircumflex" unicode="&#x174;" horiz-adv-x="819" 
d="M577 121l77 529h140l-119 -650h-189l-76 527l-76 -527h-189l-120 650h141l76 -529h2l81 529h170l80 -529h2zM483 835l54 -120h-88l-40 54l-39 -54h-88l54 120h147z" />
    <glyph glyph-name="wcircumflex" unicode="&#x175;" horiz-adv-x="744" 
d="M522 131l61 369h141l-120 -500h-164l-68 370l-67 -370h-164l-121 500h141l63 -367l74 367h149l73 -369h2zM445 685l54 -120h-88l-40 54l-39 -54h-88l54 120h147z" />
    <glyph glyph-name="Ycircumflex" unicode="&#x176;" horiz-adv-x="528" 
d="M194 0v239l-184 411h151l102 -285h2l102 285h151l-184 -411v-239h-140zM337 835l54 -120h-88l-40 54l-39 -54h-88l54 120h147z" />
    <glyph glyph-name="ycircumflex" unicode="&#x177;" horiz-adv-x="496" 
d="M186 2l-176 498h146l94 -333h2l87 333h147l-187 -558q-23 -69 -64 -96.5t-128 -27.5q-41 0 -71 10v109q30 -9 66 -9q34 0 50 12.5t28 44.5zM321 685l54 -120h-88l-40 54l-39 -54h-88l54 120h147z" />
    <glyph glyph-name="Ydieresis" unicode="&#x178;" horiz-adv-x="528" 
d="M194 0v239l-184 411h151l102 -285h2l102 285h151l-184 -411v-239h-140zM128 715v106h106v-106h-106zM294 715v106h106v-106h-106z" />
    <glyph glyph-name="Zacute" unicode="&#x179;" horiz-adv-x="507" 
d="M50 536v114h412v-99l-264 -437h274v-114h-432v99l262 437h-252zM211 715l28 120h127l-72 -120h-83z" />
    <glyph glyph-name="zacute" unicode="&#x17a;" horiz-adv-x="470" 
d="M45 390v110h386v-96l-231 -294h240v-110h-405v96l231 294h-221zM192 565l28 120h127l-72 -120h-83z" />
    <glyph glyph-name="Zdotaccent" unicode="&#x17b;" horiz-adv-x="507" 
d="M50 536v114h412v-99l-264 -437h274v-114h-432v99l262 437h-252zM200 715v106h106v-106h-106z" />
    <glyph glyph-name="zdotaccent" unicode="&#x17c;" horiz-adv-x="470" 
d="M45 390v110h386v-96l-231 -294h240v-110h-405v96l231 294h-221zM182 565v106h106v-106h-106z" />
    <glyph glyph-name="Zcaron" unicode="&#x17d;" horiz-adv-x="507" 
d="M50 536v114h412v-99l-264 -437h274v-114h-432v99l262 437h-252zM381 845l-54 -120h-147l-54 120h88l39 -54l40 54h88z" />
    <glyph glyph-name="zcaron" unicode="&#x17e;" horiz-adv-x="470" 
d="M45 390v110h386v-96l-231 -294h240v-110h-405v96l231 294h-221zM366 695l-54 -120h-147l-54 120h88l39 -54l40 54h88z" />
    <glyph glyph-name="florin" unicode="&#x192;" horiz-adv-x="340" 
d="M84 -28v418h-64v97l64 13v51q0 77 33.5 108t104.5 31q51 0 93 -11v-104q-32 5 -54 5q-21 0 -30 -9t-9 -33v-38h74v-110h-74v-431q0 -77 -33.5 -108t-104.5 -31q-51 0 -93 11v104q33 -5 54 -5t30 9t9 33z" />
    <glyph glyph-name="Scommaaccent" unicode="&#x218;" horiz-adv-x="557" 
d="M372 193q0 39 -25 56t-108 32q-102 18 -149 59.5t-47 133.5q0 89 57.5 138.5t172.5 49.5q123 0 176 -44t53 -148h-140q0 41 -21.5 59.5t-68.5 18.5q-46 0 -66.5 -18.5t-20.5 -56.5q0 -45 23.5 -65t95.5 -32q120 -19 164 -58t44 -123q0 -111 -61 -159t-177 -48
q-128 0 -183.5 48t-55.5 158h140q0 -50 23.5 -71t75.5 -21q54 0 76 20t22 71zM178 -190l36 130h132l-73 -130h-95z" />
    <glyph glyph-name="scommaaccent" unicode="&#x219;" horiz-adv-x="501" 
d="M466 145q0 -28 -2.5 -46.5t-14.5 -41.5t-33.5 -36.5t-63 -23t-100.5 -9.5q-122 0 -169.5 40t-47.5 129h136q0 -34 18 -46.5t63 -12.5q78 0 78 47q0 34 -18.5 46t-83.5 17q-110 9 -149 42.5t-39 105.5q0 156 207 156q116 0 163 -38t47 -133h-136q0 13 -1.5 21t-8 18.5
t-22.5 16t-42 5.5q-41 0 -56 -13t-15 -37q0 -28 16 -40t65 -16q131 -11 170 -41t39 -110zM148 -190l36 130h132l-73 -130h-95z" />
    <glyph glyph-name="Tcommaaccent" unicode="&#x21a;" horiz-adv-x="458" 
d="M159 0v536h-144v114h428v-114h-144v-536h-140zM125 -190l36 130h132l-73 -130h-95z" />
    <glyph glyph-name="tcommaaccent" unicode="&#x21b;" horiz-adv-x="343" 
d="M313 103v-103q-46 -12 -93 -12q-70 0 -103 31t-33 108v263h-64v97l64 13v113l136 27v-140h93v-110h-93v-250q0 -24 9 -33t30 -9t54 5zM91 -190l36 130h132l-73 -130h-95z" />
    <glyph glyph-name="circumflex" unicode="&#x2c6;" horiz-adv-x="335" 
d="M241 685l54 -120h-88l-40 54l-39 -54h-88l54 120h147z" />
    <glyph glyph-name="caron" unicode="&#x2c7;" horiz-adv-x="335" 
d="M295 695l-54 -120h-147l-54 120h88l39 -54l40 54h88z" />
    <glyph glyph-name="breve" unicode="&#x2d8;" horiz-adv-x="332" 
d="M166 555q-126 0 -126 134h78q0 -53 48 -53t48 53h78q0 -134 -126 -134z" />
    <glyph glyph-name="dotaccent" unicode="&#x2d9;" horiz-adv-x="186" 
d="M40 565v106h106v-106h-106z" />
    <glyph glyph-name="ring" unicode="&#x2da;" horiz-adv-x="302" 
d="M151 743q111 0 111 -93q0 -46 -29 -70.5t-82 -24.5t-82 24.5t-29 70.5q0 93 111 93zM151 613q39 0 39 37q0 35 -39 35t-39 -35q0 -37 39 -37z" />
    <glyph glyph-name="ogonek" unicode="&#x2db;" horiz-adv-x="221" 
d="M100 0h81q-42 -36 -42 -70q0 -26 33 -26h9v-78h-57q-84 0 -84 71q0 61 60 103z" />
    <glyph glyph-name="tilde" unicode="&#x2dc;" horiz-adv-x="416" 
d="M260 650q31 0 31 32h78q0 -65 -22.5 -94t-71.5 -29q-31 0 -64.5 21.5t-54.5 21.5q-31 0 -31 -32h-78q0 66 22.5 94.5t71.5 28.5q31 0 65 -21.5t54 -21.5z" />
    <glyph glyph-name="hungarumlaut" unicode="&#x2dd;" horiz-adv-x="370" 
d="M40 565l14 120h113l-48 -120h-79zM175 565l38 120h117l-72 -120h-83z" />
    <glyph glyph-name="pi" unicode="&#x3c0;" horiz-adv-x="592" 
d="M110 0v390h-65v110h502v-110h-65v-214q0 -38 13.5 -52t51.5 -14v-110q-115 0 -159 39t-44 131v220h-96v-390h-138z" />
    <glyph glyph-name="Bdotaccent" unicode="&#x1e02;" horiz-adv-x="558" 
d="M60 0v650h233q120 0 164.5 -38.5t44.5 -129.5q0 -102 -73 -142q94 -37 94 -157q0 -183 -217 -183h-246zM200 114h102q41 0 60.5 18.5t19.5 61.5q0 46 -21.5 63.5t-61.5 17.5h-99v-161zM289 536h-89v-151h88q40 0 57.5 17t17.5 59q0 75 -74 75zM226 715v106h106v-106h-106
z" />
    <glyph glyph-name="bdotaccent" unicode="&#x1e03;" horiz-adv-x="539" 
d="M177 43l-23 -43h-99v670h136v-201q68 43 130 43q89 0 133.5 -43.5t44.5 -164.5v-108q0 -120 -45.5 -164t-131.5 -44q-72 0 -145 55zM363 187v126q0 52 -16 70.5t-53 18.5q-59 0 -103 -42v-220q44 -42 103 -42q37 0 53 18.5t16 70.5zM267 565v106h106v-106h-106z" />
    <glyph glyph-name="Ddotaccent" unicode="&#x1e0a;" horiz-adv-x="572" 
d="M279 536h-79v-422h79q63 0 85.5 26t22.5 82v214q0 36 -6 56.5t-22.5 30t-32 11.5t-47.5 2zM282 0h-222v650h222q131 0 188 -47t57 -183v-188q0 -136 -57.5 -184t-187.5 -48zM213 715v106h106v-106h-106z" />
    <glyph glyph-name="ddotaccent" unicode="&#x1e0b;" horiz-adv-x="539" 
d="M385 0l-23 43q-73 -55 -145 -55q-86 0 -131.5 44t-45.5 164v108q0 121 44.5 164.5t133.5 43.5q62 0 130 -43v201h136v-670h-99zM176 313v-126q0 -52 16 -70.5t53 -18.5q59 0 103 42v220q-44 42 -103 42q-37 0 -53 -18.5t-16 -70.5zM173 565v106h106v-106h-106z" />
    <glyph glyph-name="Fdotaccent" unicode="&#x1e1e;" horiz-adv-x="468" 
d="M200 0h-140v650h378v-114h-238v-151h203v-110h-203v-275zM198 715v106h106v-106h-106z" />
    <glyph glyph-name="fdotaccent" unicode="&#x1e1f;" horiz-adv-x="333" 
d="M313 575q-32 5 -54 5q-21 0 -30 -9t-9 -33v-38h74v-110h-74v-390h-136v390h-64v97l64 13v51q0 77 33 108t103 31q51 0 93 -11v-104zM161 742v106h106v-106h-106z" />
    <glyph glyph-name="Mdotaccent" unicode="&#x1e40;" horiz-adv-x="727" 
d="M532 0v301l8 199l-123 -500h-107l-123 500l8 -200v-300h-136v650h195l108 -461h3l108 461h195v-650h-136zM310 715v106h106v-106h-106z" />
    <glyph glyph-name="mdotaccent" unicode="&#x1e41;" horiz-adv-x="773" 
d="M587 0v330q0 43 -12 57.5t-44 14.5q-38 0 -74 -26v-376h-136v330q0 43 -12 57.5t-44 14.5q-38 0 -74 -26v-376h-136v500h96l22 -37q72 49 138 49q46 0 73 -10.5t50 -37.5q77 48 145 48q84 0 114 -39t30 -144v-329h-136zM335 565v106h106v-106h-106z" />
    <glyph glyph-name="Pdotaccent" unicode="&#x1e56;" horiz-adv-x="550" 
d="M200 338h83q50 0 71 21t21 78q0 56 -21 77.5t-70 21.5h-84v-198zM60 0v650h223q124 0 178 -43.5t54 -168.5q0 -119 -54 -164.5t-176 -45.5h-85v-228h-140zM222 715v106h106v-106h-106z" />
    <glyph glyph-name="pdotaccent" unicode="&#x1e57;" horiz-adv-x="539" 
d="M154 500l23 -43q73 55 145 55q86 0 131.5 -44t45.5 -164v-108q0 -121 -44.5 -164.5t-133.5 -43.5q-62 0 -130 43v-201h-136v670h99zM363 187v126q0 52 -16 70.5t-53 18.5q-59 0 -103 -42v-220q44 -42 103 -42q37 0 53 18.5t16 70.5zM226 565v106h106v-106h-106z" />
    <glyph glyph-name="Sdotaccent" unicode="&#x1e60;" horiz-adv-x="557" 
d="M372 193q0 39 -25 56t-108 32q-102 18 -149 59.5t-47 133.5q0 89 57.5 138.5t172.5 49.5q123 0 176 -44t53 -148h-140q0 41 -21.5 59.5t-68.5 18.5q-46 0 -66.5 -18.5t-20.5 -56.5q0 -45 23.5 -65t95.5 -32q120 -19 164 -58t44 -123q0 -111 -61 -159t-177 -48
q-128 0 -183.5 48t-55.5 158h140q0 -50 23.5 -71t75.5 -21q54 0 76 20t22 71zM225 715v106h106v-106h-106z" />
    <glyph glyph-name="sdotaccent" unicode="&#x1e61;" horiz-adv-x="501" 
d="M466 145q0 -28 -2.5 -46.5t-14.5 -41.5t-33.5 -36.5t-63 -23t-100.5 -9.5q-122 0 -169.5 40t-47.5 129h136q0 -34 18 -46.5t63 -12.5q78 0 78 47q0 34 -18.5 46t-83.5 17q-110 9 -149 42.5t-39 105.5q0 156 207 156q116 0 163 -38t47 -133h-136q0 13 -1.5 21t-8 18.5
t-22.5 16t-42 5.5q-41 0 -56 -13t-15 -37q0 -28 16 -40t65 -16q131 -11 170 -41t39 -110zM200 565v106h106v-106h-106z" />
    <glyph glyph-name="Tdotaccent" unicode="&#x1e6a;" horiz-adv-x="458" 
d="M159 0v536h-144v114h428v-114h-144v-536h-140zM176 715v106h106v-106h-106z" />
    <glyph glyph-name="tdotaccent" unicode="&#x1e6b;" horiz-adv-x="343" 
d="M313 103v-103q-46 -12 -93 -12q-70 0 -103 31t-33 108v263h-64v97l64 13v113l136 27v-140h93v-110h-93v-250q0 -24 9 -33t30 -9t54 5zM100 693v106h106v-106h-106z" />
    <glyph glyph-name="Wgrave" unicode="&#x1e80;" horiz-adv-x="819" 
d="M577 121l77 529h140l-119 -650h-189l-76 527l-76 -527h-189l-120 650h141l76 -529h2l81 529h170l80 -529h2zM423 835l28 -120h-83l-72 120h127z" />
    <glyph glyph-name="wgrave" unicode="&#x1e81;" horiz-adv-x="744" 
d="M522 131l61 369h141l-120 -500h-164l-68 370l-67 -370h-164l-121 500h141l63 -367l74 367h149l73 -369h2zM392 685l28 -120h-83l-72 120h127z" />
    <glyph glyph-name="Wacute" unicode="&#x1e82;" horiz-adv-x="819" 
d="M577 121l77 529h140l-119 -650h-189l-76 527l-76 -527h-189l-120 650h141l76 -529h2l81 529h170l80 -529h2zM369 715l28 120h127l-72 -120h-83z" />
    <glyph glyph-name="wacute" unicode="&#x1e83;" horiz-adv-x="744" 
d="M522 131l61 369h141l-120 -500h-164l-68 370l-67 -370h-164l-121 500h141l63 -367l74 367h149l73 -369h2zM334 565l28 120h127l-72 -120h-83z" />
    <glyph glyph-name="Wdieresis" unicode="&#x1e84;" horiz-adv-x="819" 
d="M577 121l77 529h140l-119 -650h-189l-76 527l-76 -527h-189l-120 650h141l76 -529h2l81 529h170l80 -529h2zM273 715v106h106v-106h-106zM439 715v106h106v-106h-106z" />
    <glyph glyph-name="wdieresis" unicode="&#x1e85;" horiz-adv-x="744" 
d="M522 131l61 369h141l-120 -500h-164l-68 370l-67 -370h-164l-121 500h141l63 -367l74 367h149l73 -369h2zM236 565v106h106v-106h-106zM402 565v106h106v-106h-106z" />
    <glyph glyph-name="Ygrave" unicode="&#x1ef2;" horiz-adv-x="528" 
d="M194 0v239l-184 411h151l102 -285h2l102 285h151l-184 -411v-239h-140zM281 835l28 -120h-83l-72 120h127z" />
    <glyph glyph-name="ygrave" unicode="&#x1ef3;" horiz-adv-x="496" 
d="M186 2l-176 498h146l94 -333h2l87 333h147l-187 -558q-23 -69 -64 -96.5t-128 -27.5q-41 0 -71 10v109q30 -9 66 -9q34 0 50 12.5t28 44.5zM267 685l28 -120h-83l-72 120h127z" />
    <glyph glyph-name="endash" unicode="&#x2013;" horiz-adv-x="475" 
d="M50 218v114h375v-114h-375z" />
    <glyph glyph-name="emdash" unicode="&#x2014;" horiz-adv-x="610" 
d="M40 218v114h530v-114h-530z" />
    <glyph glyph-name="quoteleft" unicode="&#x2018;" horiz-adv-x="222" 
d="M177 650v-306h-88l-54 306h142z" />
    <glyph glyph-name="quoteright" unicode="&#x2019;" horiz-adv-x="222" 
d="M45 344v306h142l-54 -306h-88z" />
    <glyph glyph-name="quotesinglbase" unicode="&#x201a;" horiz-adv-x="232" 
d="M50 -130v306h142l-54 -306h-88z" />
    <glyph glyph-name="quotedblleft" unicode="&#x201c;" horiz-adv-x="409" 
d="M177 650v-306h-88l-54 306h142zM359 650v-306h-88l-54 306h142z" />
    <glyph glyph-name="quotedblright" unicode="&#x201d;" horiz-adv-x="409" 
d="M232 344v306h142l-54 -306h-88zM50 344v306h142l-54 -306h-88z" />
    <glyph glyph-name="quotedblbase" unicode="&#x201e;" horiz-adv-x="414" 
d="M50 -130v306h142l-54 -306h-88zM232 -130v306h142l-54 -306h-88z" />
    <glyph glyph-name="dagger" unicode="&#x2020;" horiz-adv-x="338" 
d="M40 570h96v100h66v-100h96v-62h-96v-248h-66v248h-96v62z" />
    <glyph glyph-name="daggerdbl" unicode="&#x2021;" horiz-adv-x="338" 
d="M40 570h96v100h66v-100h96v-62h-96v-86h96v-62h-96v-100h-66v100h-96v62h96v86h-96v62z" />
    <glyph glyph-name="bullet" unicode="&#x2022;" horiz-adv-x="431" 
d="M399 346v-42q0 -105 -41.5 -142t-141.5 -37t-141.5 37t-41.5 142v42q0 105 41.5 142t141.5 37t141.5 -37t41.5 -142z" />
    <glyph glyph-name="ellipsis" unicode="&#x2026;" horiz-adv-x="668" 
d="M45 0v146h146v-146h-146zM261 0v146h146v-146h-146zM477 0v146h146v-146h-146z" />
    <glyph glyph-name="perthousand" unicode="&#x2030;" horiz-adv-x="847" 
d="M667 278q74 0 107 -32.5t33 -112.5t-33.5 -112.5t-106.5 -32.5q-69 0 -98 28q-28 -28 -97 -28q-73 0 -106.5 32.5t-33.5 112.5t33 112.5t107 32.5q69 0 97 -28q29 28 98 28zM180 372q-74 0 -107 32.5t-33 112.5t33.5 112.5t106.5 32.5t106.5 -32.5t33.5 -112.5
t-33 -112.5t-107 -32.5zM667 209q-30 0 -42.5 -16t-12.5 -60t12.5 -60t42.5 -16t42.5 16t12.5 60t-12.5 60t-42.5 16zM180 441q30 0 42.5 16t12.5 60t-12.5 60t-42.5 16t-42.5 -16t-12.5 -60t12.5 -60t42.5 -16zM472 209q-30 0 -42.5 -16t-12.5 -60t12.5 -60t42.5 -16
t42.5 16t12.5 60t-12.5 60t-42.5 16zM68 0l427 650h89l-427 -650h-89z" />
    <glyph glyph-name="guilsinglleft" unicode="&#x2039;" horiz-adv-x="327" 
d="M170 55l-130 195l130 195h117l-132 -195l132 -195h-117z" />
    <glyph glyph-name="guilsinglright" unicode="&#x203a;" horiz-adv-x="327" 
d="M287 250l-130 -195h-117l132 195l-132 195h117z" />
    <glyph glyph-name="Euro" unicode="&#x20ac;" horiz-adv-x="600" 
d="M324 102q49 0 70 23.5t21 80.5h138q0 -114 -54 -166t-175 -52t-177.5 56.5t-56.5 176.5v17h-53v60h53v53h-53v60h53v18q0 122 57.5 177.5t176.5 55.5q121 0 175 -51.5t54 -165.5h-138q0 55 -21.5 79t-69.5 24q-47 0 -70.5 -23t-23.5 -75v-39h136l-10 -60h-126v-53h118
l-10 -60h-108v-38q0 -98 94 -98z" />
    <glyph glyph-name="trademark" unicode="&#x2122;" horiz-adv-x="546" 
d="M94 385v215h-62v50h177v-50h-62v-215h-53zM318 650l55 -178l54 178h79v-265h-53v186l-60 -186h-41l-59 186v-186h-54v265h79z" />
    <glyph glyph-name="onethird" unicode="&#x2153;" horiz-adv-x="632" 
d="M187 349h-72v241h-58v40l84 20h46v-301zM50 0l421 650h80l-421 -650h-80zM470 54q41 0 41 38q0 35 -39 35h-34v51h31q18 0 27 7.5t9 27.5q0 34 -37 34q-39 0 -39 -43h-69q0 52 26 77t82 25q108 0 108 -90q0 -44 -39 -61q45 -17 45 -68q0 -45 -23.5 -68.5t-88.5 -23.5
q-59 0 -86 24.5t-27 76.5h71q0 -42 42 -42z" />
    <glyph glyph-name="twothirds" unicode="&#x2154;" horiz-adv-x="670" 
d="M88 0l421 650h80l-421 -650h-80zM508 54q41 0 41 38q0 35 -39 35h-34v51h31q18 0 27 7.5t9 27.5q0 34 -37 34q-39 0 -39 -43h-69q0 52 26 77t82 25q108 0 108 -90q0 -44 -39 -61q45 -17 45 -68q0 -45 -23.5 -68.5t-88.5 -23.5q-59 0 -86 24.5t-27 76.5h71q0 -42 42 -42z
M122 553h-71q0 102 108 102q59 0 83 -25t24 -72q0 -35 -22 -57.5t-48 -31.5t-48 -24.5t-23 -36.5h143v-59h-218v44q0 42 22.5 69t49.5 36.5t49.5 23.5t22.5 34q0 40 -35 40q-37 0 -37 -43z" />
    <glyph glyph-name="oneeighth" unicode="&#x215b;" horiz-adv-x="632" 
d="M187 349h-72v241h-58v40l84 20h46v-301zM50 0l421 650h80l-421 -650h-80zM468 -5q-59 0 -87 20.5t-28 65.5q0 54 46 73q-39 21 -39 67q0 85 108 85q107 0 107 -84q0 -47 -39 -68q46 -21 46 -73q0 -45 -28 -65.5t-86 -20.5zM468 176q38 0 38 35t-38 35q-21 0 -30 -8
t-9 -27q0 -35 39 -35zM468 55q43 0 43 35q0 22 -11 30t-32 8q-22 0 -33 -8t-11 -30q0 -35 44 -35z" />
    <glyph glyph-name="threeeighths" unicode="&#x215c;" horiz-adv-x="652" 
d="M70 0l421 650h80l-421 -650h-80zM488 -5q-59 0 -87 20.5t-28 65.5q0 54 46 73q-39 21 -39 67q0 85 108 85q107 0 107 -84q0 -47 -39 -68q46 -21 46 -73q0 -45 -28 -65.5t-86 -20.5zM488 176q38 0 38 35t-38 35q-21 0 -30 -8t-9 -27q0 -35 39 -35zM488 55q43 0 43 35
q0 22 -11 30t-32 8q-22 0 -33 -8t-11 -30q0 -35 44 -35zM163 402q40 0 40 36q0 34 -40 34h-32v57h29q19 0 28 7t9 27q0 32 -36 32q-20 0 -29 -10t-9 -33h-70q0 52 26 77t82 25q108 0 108 -90q0 -44 -39 -61q45 -17 45 -68q0 -45 -23.5 -68.5t-88.5 -23.5q-59 0 -86 24.5
t-27 76.5h72q0 -42 41 -42z" />
    <glyph glyph-name="fiveeighths" unicode="&#x215d;" horiz-adv-x="657" 
d="M75 0l421 650h80l-421 -650h-80zM493 -5q-59 0 -87 20.5t-28 65.5q0 54 46 73q-39 21 -39 67q0 85 108 85q107 0 107 -84q0 -47 -39 -68q46 -21 46 -73q0 -45 -28 -65.5t-86 -20.5zM493 176q38 0 38 35t-38 35q-21 0 -30 -8t-9 -27q0 -35 39 -35zM493 55q43 0 43 35
q0 22 -11 30t-32 8q-22 0 -33 -8t-11 -30q0 -35 44 -35zM59 485l15 165h183v-60h-121l-5 -54q24 11 48 11q46 0 69.5 -20.5t23.5 -74.5t-25 -81t-85 -27q-59 0 -85.5 24.5t-26.5 76.5h72q0 -42 40 -42q20 0 29 11t9 38q0 26 -8 36.5t-30 10.5q-19 0 -33 -14h-70z" />
    <glyph glyph-name="seveneighths" unicode="&#x215e;" horiz-adv-x="632" 
d="M50 0l421 650h80l-421 -650h-80zM468 -5q-59 0 -87 20.5t-28 65.5q0 54 46 73q-39 21 -39 67q0 85 108 85q107 0 107 -84q0 -47 -39 -68q46 -21 46 -73q0 -45 -28 -65.5t-86 -20.5zM468 176q38 0 38 35t-38 35q-21 0 -30 -8t-9 -27q0 -35 39 -35zM468 55q43 0 43 35
q0 22 -11 30t-32 8q-22 0 -33 -8t-11 -30q0 -35 44 -35zM160 349h-75l96 241h-129v60h205v-49z" />
    <glyph glyph-name="partialdiff" unicode="&#x2202;" horiz-adv-x="537" 
d="M487 289v-70q0 -130 -53.5 -180.5t-169.5 -50.5q-118 0 -171 50.5t-53 180.5v50q0 129 48 180t158 51q56 0 93 -25q-28 100 -130 206h159q69 -80 94 -167t25 -225zM176 279v-70q0 -65 19.5 -88t68.5 -23t68 23t19 88v70q0 65 -19 88t-68 23t-68.5 -23t-19.5 -88z" />
    <glyph glyph-name="minus" unicode="&#x2212;" horiz-adv-x="512" 
d="M462 226h-412v98h412v-98z" />
    <glyph glyph-name="integral" unicode="&#x222b;" horiz-adv-x="416" 
d="M243 577v-575q0 -73 -31 -98.5t-107 -25.5h-63v69h63q22 0 32 10.5t10 33.5v575q0 73 31 98.5t107 25.5h63v-69h-63q-22 0 -32 -10.5t-10 -33.5z" />
    <glyph glyph-name="approxequal" unicode="&#x2248;" horiz-adv-x="513" 
d="M353 104q-45 0 -102 25.5t-79 25.5q-28 0 -28 -29h-94q0 69 27.5 94t81.5 25q42 0 98 -25t84 -25q15 0 21.5 6t6.5 23h94q0 -70 -28 -95t-82 -25zM353 304q-45 0 -102 25.5t-79 25.5q-28 0 -28 -29h-94q0 69 27.5 94t81.5 25q42 0 98 -25t84 -25q15 0 21.5 6t6.5 23h94
q0 -70 -28 -95t-82 -25z" />
    <glyph glyph-name="notequal" unicode="&#x2260;" horiz-adv-x="512" 
d="M126 0l39 126h-115v98h145l30 102h-175v98h205l38 126h91l-39 -126h117v-98h-146l-31 -102h177v-98h-207l-38 -126h-91z" />
    <glyph glyph-name="lessequal" unicode="&#x2264;" horiz-adv-x="407" 
d="M347 0h-287v98h287v-98zM222 140l-162 202l162 203h125l-163 -203l163 -202h-125z" />
    <glyph glyph-name="greaterequal" unicode="&#x2265;" horiz-adv-x="407" 
d="M347 0h-287v98h287v-98zM347 342l-162 -202h-125l163 202l-163 203h125z" />
    <glyph glyph-name="CR" horiz-adv-x="0" 
 />
    <glyph glyph-name="at.caps" horiz-adv-x="790" 
d="M60 252v146q0 136 83 211t252 75q168 0 251.5 -75t83.5 -211v-146q0 -136 -83.5 -211t-251.5 -75q-166 0 -250.5 75.5t-84.5 210.5zM154 394v-138q0 -202 241 -202t241 202v138q0 202 -241 202t-241 -202zM368 224q45 0 79 29v57l-80 -9q-39 -4 -39 -40q0 -18 11 -27.5
t29 -9.5zM231 251q0 94 117 103l99 7v35q0 24 -12.5 35t-41.5 11q-30 0 -42 -11.5t-12 -35.5h-94q0 122 148 122q80 0 115 -29.5t35 -91.5v-239h-70l-16 30q-49 -39 -108 -39q-57 0 -87.5 27t-30.5 76z" />
    <glyph glyph-name="caron.salt" horiz-adv-x="190" 
d="M40 440v230h110l-29 -230h-81z" />
    <glyph glyph-name="commaaccent" horiz-adv-x="228" 
d="M30 -190l36 130h132l-73 -130h-95z" />
    <glyph glyph-name="one.tnum" 
d="M116 0v114h97v422h-117v72l137 42h120v-536h97v-114h-334z" />
    <glyph glyph-name="two.tnum" 
d="M177 453h-138q0 111 58.5 160t172.5 49q125 0 176.5 -53t51.5 -154q0 -62 -32.5 -104.5t-78.5 -65.5t-92 -43.5t-78.5 -51.5t-32.5 -76h318v-114h-465v89q0 56 17.5 98.5t46 68.5t63 45t68.5 33.5t62.5 29.5t46 37t17.5 51q0 48 -19.5 72t-68.5 24t-71 -21.5t-22 -73.5z
" />
    <glyph glyph-name="three.tnum" 
d="M270 102q53 0 76 22.5t23 67.5q0 23 -7 39.5t-16 24.5t-24 12.5t-25.5 5.5t-24.5 1h-61v110h54q46 0 68.5 16.5t22.5 66.5q0 40 -19 60t-70 20t-72.5 -22t-21.5 -73h-137q0 106 55.5 157.5t175.5 51.5q126 0 177.5 -50t51.5 -141q0 -101 -101 -137q114 -33 114 -149
q0 -47 -9.5 -80.5t-35 -61t-74 -41.5t-120.5 -14q-126 0 -182.5 50.5t-56.5 157.5h140q0 -94 99 -94z" />
    <glyph glyph-name="four.tnum" 
d="M312 0v130h-295v111l260 409h175v-406h71v-114h-71v-130h-140zM138 244h174v282z" />
    <glyph glyph-name="five.tnum" 
d="M54 299l31 351h390v-114h-271l-11 -143q59 31 116 31q99 0 148.5 -44.5t49.5 -160.5t-53 -173.5t-182 -57.5q-126 0 -182.5 50.5t-56.5 157.5h140q0 -50 24 -72t75 -22q52 0 73.5 26t21.5 91q0 64 -20 86.5t-75 22.5q-18 0 -42.5 -9t-36.5 -20h-139z" />
    <glyph glyph-name="six.tnum" 
d="M180 457v-93q60 34 135 34q105 0 150 -47.5t45 -146.5q0 -102 -52.5 -159t-182.5 -57q-69 0 -116.5 16.5t-72.5 47.5t-35.5 67.5t-10.5 83.5v250q0 106 56 157.5t173 51.5q123 0 178 -49t55 -149h-140q0 43 -21.5 63.5t-71.5 20.5q-45 0 -67 -20t-22 -71zM278 305
q-62 0 -98 -34v-61q0 -55 19.5 -81.5t72.5 -26.5q58 0 78 24.5t20 76.5q0 56 -19.5 79t-72.5 23z" />
    <glyph glyph-name="seven.tnum" 
d="M276 0h-146l221 536h-309v114h454v-98z" />
    <glyph glyph-name="eight.tnum" 
d="M270 -12q-125 0 -185 43.5t-60 140.5q0 121 114 162q-98 42 -98 148q0 94 56.5 137t172.5 43q228 0 228 -177q0 -108 -97 -151q113 -42 113 -162q0 -97 -59.5 -140.5t-184.5 -43.5zM270 381q91 0 91 83q0 47 -21 65.5t-70 18.5t-70 -18.5t-21 -65.5q0 -83 91 -83z
M270 102q52 0 77 20t25 65q0 54 -25.5 73t-76.5 19t-76.5 -19t-25.5 -73q0 -45 25 -65t77 -20z" />
    <glyph glyph-name="nine.tnum" 
d="M360 193v96q-60 -34 -135 -34q-105 0 -150 47.5t-45 146.5q0 101 52.5 157t182.5 56q69 0 116.5 -16.5t72.5 -47.5t35.5 -67.5t10.5 -83.5v-250q0 -106 -55.5 -157.5t-172.5 -51.5q-127 0 -180.5 48t-53.5 150h140q0 -43 22 -63.5t72 -20.5q45 0 66.5 20t21.5 71z
M262 348q62 0 98 34v58q0 55 -19.5 81.5t-72.5 26.5q-58 0 -78 -24.5t-20 -76.5q0 -56 19.5 -77.5t72.5 -21.5z" />
    <glyph glyph-name="zero.tnum" 
d="M270 102q57 0 77 21.5t20 78.5v243q0 62 -21 82.5t-76 20.5t-76 -20.5t-21 -82.5v-243q0 -57 20 -78.5t77 -21.5zM270 662q123 0 180 -51.5t57 -169.5v-230q0 -118 -57.5 -170.5t-179.5 -52.5t-179.5 52.5t-57.5 170.5v230q0 118 57 169.5t180 51.5z" />
    <glyph glyph-name="dollar.tnum" 
d="M485 225q0 -32 -4 -53t-19 -45t-49.5 -38t-89.5 -19v-90h-106v90q-91 8 -127 48t-36 119h138q0 -35 17 -47t62 -12q41 0 58.5 11t17.5 36q0 34 -18 46t-82 17q-110 9 -149 42.5t-39 105.5q0 136 158 153v81h106v-81q83 -8 118.5 -46.5t35.5 -121.5h-138q0 14 -1.5 21.5
t-7.5 18.5t-22 16t-42 5q-41 0 -55 -13t-14 -37q0 -28 15.5 -40t63.5 -16q131 -11 170 -41t39 -110z" />
    <glyph glyph-name="cent.tnum" 
d="M275 477q-51 0 -69.5 -24t-18.5 -87v-82q0 -64 19 -87.5t69 -23.5q42 0 60.5 17t18.5 65h136q0 -92 -40.5 -135.5t-118.5 -53.5v-86h-106v85q-91 9 -133.5 62t-42.5 167v62q0 116 42.5 168t133.5 61v85h106v-86q80 -9 119.5 -52.5t39.5 -136.5h-136q0 49 -18.5 65.5
t-60.5 16.5z" />
    <glyph glyph-name="sterling.tnum" 
d="M336 0h-306v114q56 0 79.5 20.5t23.5 72.5q0 27 -14 67h-89v82h63q-30 75 -30 131q0 175 205 175q108 0 157 -40t49 -142h-140q0 35 -14.5 51.5t-49.5 16.5t-50 -15.5t-15 -51.5q0 -20 3.5 -41t9.5 -46t8 -38h109v-82h-97q6 -34 6 -50q0 -72 -41 -110h101q38 0 52 15.5
t14 57.5h140q0 -104 -38.5 -145.5t-135.5 -41.5z" />
    <glyph glyph-name="Euro.tnum" 
d="M299 102q49 0 70 23.5t21 80.5h138q0 -114 -54 -166t-175 -52t-177.5 56.5t-56.5 176.5v17h-53v60h53v53h-53v60h53v18q0 122 57.5 177.5t176.5 55.5q121 0 175 -51.5t54 -165.5h-138q0 55 -21.5 79t-69.5 24q-47 0 -70.5 -23t-23.5 -75v-39h136l-10 -60h-126v-53h118
l-10 -60h-108v-38q0 -98 94 -98z" />
    <glyph glyph-name="yen.tnum" 
d="M82 139h118v53h-118v60h112l-178 398h151l102 -285h2l102 285h151l-178 -398h112v-60h-118v-53h118v-60h-118v-79h-140v79h-118v60z" />
    <glyph glyph-name="numbersign.tnum" 
d="M499 234l-7 -78h-94l-13 -156h-91l13 156h-106l-13 -156h-90l14 156h-94l7 78h94l16 183h-94l7 78h94l13 155h90l-14 -155h106l14 155h91l-14 -155h94l-7 -78h-94l-16 -183h94zM224 417l-16 -183h106l16 183h-106z" />
    <glyph glyph-name="percent.tnum" 
d="M17 0l417 650h89l-417 -650h-89zM134 372q-68 0 -99 32.5t-31 112.5t31 112.5t99 32.5t99 -32.5t31 -112.5t-31 -112.5t-99 -32.5zM134 441q25 0 35 16t10 60t-10 60t-35 16t-35 -16t-10 -60t10 -60t35 -16zM406 -12q-68 0 -99 32.5t-31 112.5t31 112.5t99 32.5t99 -32.5
t31 -112.5t-31 -112.5t-99 -32.5zM406 57q25 0 35 16t10 60t-10 60t-35 16t-35 -16t-10 -60t10 -60t35 -16z" />
    <glyph glyph-name="one.onum" horiz-adv-x="358" 
d="M278 0h-136v390h-92v67l144 43h84v-500z" />
    <glyph glyph-name="two.onum" horiz-adv-x="512" 
d="M35 0v55q0 59 22 100.5t55 61.5t72 35t72 23t55 24t22 40q0 32 -18 47.5t-59 15.5q-79 0 -79 -63h-134q0 89 56.5 131t156.5 42q213 0 213 -170q0 -41 -22 -70t-54.5 -42.5t-71 -25.5t-71 -21t-54.5 -27.5t-22 -45.5h303v-110h-442z" />
    <glyph glyph-name="three.onum" horiz-adv-x="535" 
d="M244 -182q-104 0 -188 35v115q91 -40 188 -40q65 0 92.5 27.5t27.5 82.5q0 64 -23.5 84t-83.5 20h-63v106h63q74 0 74 85q0 36 -18.5 52.5t-60.5 16.5q-78 0 -78 -63h-134q0 173 212 173q215 0 215 -172q0 -100 -91 -140q124 -34 124 -167q0 -106 -57.5 -160.5
t-198.5 -54.5z" />
    <glyph glyph-name="four.onum" horiz-adv-x="542" 
d="M315 -170v170h-295v102l262 398h169v-395h71v-105h-71v-170h-136zM141 105h174v271z" />
    <glyph glyph-name="five.onum" horiz-adv-x="526" 
d="M225 -182q-98 0 -185 36v115q94 -41 183 -41q72 0 101.5 31t29.5 97q0 62 -22 87t-75 25q-37 0 -91 -27h-113l32 359h363v-110h-252l-13 -151q49 28 114 28q95 0 144 -49.5t49 -161.5q0 -114 -58.5 -176t-206.5 -62z" />
    <glyph glyph-name="six.onum" horiz-adv-x="536" 
d="M272 295q-56 0 -91 -30v-67q0 -53 19 -76.5t66 -23.5q52 0 73 24t21 74q0 56 -20 77.5t-68 21.5zM483 452h-134q0 42 -20 61t-64 19q-84 0 -84 -85v-89q59 27 125 27q104 0 147 -44.5t43 -139.5q0 -101 -51.5 -157t-175.5 -56q-125 0 -174.5 56t-49.5 155v234
q0 209 220 209q111 0 163 -48t55 -142z" />
    <glyph glyph-name="seven.onum" horiz-adv-x="460" 
d="M230 -170h-142l211 560h-279v110h420v-94z" />
    <glyph glyph-name="eight.onum" horiz-adv-x="528" 
d="M264 642q214 0 214 -175q0 -104 -92 -145q107 -36 107 -155q0 -94 -56 -136.5t-173 -42.5t-173 42.5t-56 136.5q0 119 107 155q-92 41 -92 145q0 175 214 175zM264 368q83 0 83 82q0 46 -19.5 64t-63.5 18t-63.5 -18t-19.5 -64q0 -82 83 -82zM264 99q48 0 71 19.5
t23 62.5q0 53 -24 72.5t-70 19.5t-70 -19.5t-24 -72.5q0 -43 23 -62.5t71 -19.5z" />
    <glyph glyph-name="nine.onum" horiz-adv-x="531" 
d="M259 178q54 0 91 32v89q0 57 -19.5 80t-67.5 23q-53 0 -72.5 -26t-19.5 -85q0 -62 20.5 -87.5t67.5 -25.5zM254 -72q52 0 74 18.5t22 68.5v99q-59 -27 -125 -27q-104 0 -147 51.5t-43 155.5q0 109 53 163.5t174 54.5q126 0 175 -55.5t49 -153.5v-279q0 -110 -53.5 -158
t-176.5 -48q-88 0 -177 31v115q88 -36 175 -36z" />
    <glyph glyph-name="zero.onum" horiz-adv-x="536" 
d="M360 200v100q0 60 -23 81t-69 21t-69 -21.5t-23 -80.5v-100q0 -59 23 -80.5t69 -21.5t69 21t23 81zM496 290v-80q0 -124 -57.5 -173t-170.5 -49q-112 0 -170 49t-58 173v80q0 124 58 173t170 49q113 0 170.5 -49t57.5 -173z" />
    <glyph glyph-name="dollar.onum" horiz-adv-x="531" 
d="M481 150q0 -32 -4 -53t-19 -45t-49.5 -38t-89.5 -19v-90h-106v90q-91 8 -127 48t-36 119h136q0 -34 18 -46.5t63 -12.5q78 0 78 47q0 34 -18.5 46t-83.5 17q-110 9 -149 42.5t-39 105.5q0 136 158 153v81h106v-81q83 -8 118.5 -46.5t35.5 -121.5h-136q0 13 -1.5 21
t-8 18.5t-23 16t-42.5 5.5q-41 0 -56 -13t-15 -37q0 -28 16 -40t65 -16q131 -11 170 -41t39 -110z" />
    <glyph glyph-name="cent.onum" horiz-adv-x="541" 
d="M276 402q-51 0 -69.5 -24t-18.5 -87v-82q0 -65 19 -88t69 -23q42 0 60.5 17t18.5 65h134q0 -92 -39.5 -136t-117.5 -53v-86h-106v85q-91 9 -132.5 61.5t-41.5 167.5v62q0 116 41.5 168t132.5 61v85h106v-86q79 -9 118 -52.5t39 -136.5h-134q0 49 -18.5 65.5t-60.5 16.5z
" />
    <glyph glyph-name="sterling.onum" horiz-adv-x="568" 
d="M352 0h-300v110q143 0 89 154h-89v82h63q-30 75 -30 121q0 175 203 175q107 0 154.5 -40t47.5 -142h-136q0 72 -64 72q-69 0 -69 -71q0 -16 2 -32t4.5 -26.5t7 -29t6.5 -27.5h112v-82h-97q10 -48 2 -86.5t-37 -67.5h103q38 0 52 15.5t14 57.5h136q0 -103 -38 -143
t-136 -40z" />
    <glyph glyph-name="Euro.onum" horiz-adv-x="596" 
d="M327 102q49 0 70 21.5t21 77.5h136q0 -114 -53 -163.5t-174 -49.5q-120 0 -176 56.5t-56 176.5v10h-55v60h55v47h-55v60h55v11q0 122 56.5 177.5t175.5 55.5q122 0 174.5 -49t52.5 -163h-136q0 54 -21 76t-70 22q-47 0 -70.5 -23t-23.5 -75v-32h136l-10 -60h-126v-47h118
l-10 -60h-108v-31q0 -98 94 -98z" />
    <glyph glyph-name="yen.onum" horiz-adv-x="548" 
d="M86 139h118v53h-118v60h112l-178 378h151l102 -268h2l102 268h151l-178 -378h112v-60h-118v-53h118v-60h-118v-79h-140v79h-118v60z" />
    <glyph glyph-name="numbersign.onum" horiz-adv-x="581" 
d="M521 234l-7 -78h-94l-13 -156h-91l13 156h-106l-13 -156h-90l14 156h-94l7 78h94l13 163h-94l7 78h94l13 155h90l-14 -155h106l14 155h91l-14 -155h94l-7 -78h-94l-13 -163h94zM243 397l-13 -163h106l13 163h-106z" />
    <glyph glyph-name="percent.onum" horiz-adv-x="652" 
d="M180 352q-74 0 -107 32.5t-33 112.5t33.5 112.5t106.5 32.5t106.5 -32.5t33.5 -112.5t-33 -112.5t-107 -32.5zM180 421q30 0 42.5 16t12.5 60t-12.5 60t-42.5 16t-42.5 -16t-12.5 -60t12.5 -60t42.5 -16zM68 0l427 630h89l-427 -630h-89zM472 278q74 0 107 -32.5
t33 -112.5t-33.5 -112.5t-106.5 -32.5t-106.5 32.5t-33.5 112.5t33 112.5t107 32.5zM472 209q-30 0 -42.5 -16t-12.5 -60t12.5 -60t42.5 -16t42.5 16t12.5 60t-12.5 60t-42.5 16z" />
    <glyph glyph-name="a.smcp" horiz-adv-x="500" 
d="M351 0l-22 98h-158l-22 -98h-134l147 556h176l147 -556h-134zM249 448l-56 -246h114l-56 246h-2z" />
    <glyph glyph-name="b.smcp" horiz-adv-x="525" 
d="M60 0v556h239q94 0 133.5 -34t39.5 -110q0 -94 -84 -127q52 -15 74.5 -48.5t22.5 -88.5q0 -76 -39.5 -112t-138.5 -36h-247zM287 228h-91v-118h90q35 0 49 15t14 45q0 29 -14 43.5t-48 14.5zM196 446v-114h80q34 0 47.5 14t13.5 46q0 30 -14 42t-47 12h-80z" />
    <glyph glyph-name="c.smcp" horiz-adv-x="504" 
d="M256 98q43 0 58.5 18.5t15.5 59.5h134q0 -91 -45 -139.5t-163 -48.5q-111 0 -163.5 46.5t-52.5 154.5v178q0 106 51 153.5t165 47.5q118 0 163 -48.5t45 -139.5h-134q0 41 -15.5 59.5t-58.5 18.5q-44 0 -62 -18t-18 -67v-191q0 -46 19 -65t61 -19z" />
    <glyph glyph-name="d.smcp" horiz-adv-x="538" 
d="M290 0h-230v556h225q109 0 156 -44.5t47 -154.5v-158q0 -111 -45 -155t-153 -44zM196 110h76q48 0 64 19t16 65v166q0 47 -16 66.5t-64 19.5h-76v-336z" />
    <glyph glyph-name="e.smcp" horiz-adv-x="477" 
d="M394 332v-104h-198v-118h231v-110h-367v556h367v-110h-231v-114h198z" />
    <glyph glyph-name="f.smcp" horiz-adv-x="448" 
d="M196 0h-136v556h348v-110h-212v-114h179v-104h-179v-228z" />
    <glyph glyph-name="g.smcp" horiz-adv-x="528" 
d="M45 189v178q0 105 53.5 153t162.5 48q116 0 162 -50t46 -141h-134q0 42 -15.5 61.5t-58.5 19.5t-61.5 -19t-18.5 -69v-185q0 -46 19.5 -66.5t60.5 -20.5q42 0 59 17t17 49v65h-83v104h219v-333h-58l-17 42q-45 -54 -137 -54q-106 0 -161 47.5t-55 153.5z" />
    <glyph glyph-name="h.smcp" horiz-adv-x="544" 
d="M484 556v-556h-136v228h-152v-228h-136v556h136v-224h152v224h136z" />
    <glyph glyph-name="i.smcp" horiz-adv-x="256" 
d="M60 0v556h136v-556h-136z" />
    <glyph glyph-name="j.smcp" horiz-adv-x="344" 
d="M148 446h-78v110h214v-425q0 -79 -34 -111t-105 -32q-66 0 -105 12v112q44 -10 69 -10q22 0 30.5 9t8.5 27v308z" />
    <glyph glyph-name="k.smcp" horiz-adv-x="487" 
d="M196 232v-232h-136v556h136v-227l128 227h152l-171 -276l172 -280h-150z" />
    <glyph glyph-name="l.smcp" horiz-adv-x="396" 
d="M60 0v556h136v-446h170v-110h-306z" />
    <glyph glyph-name="m.smcp" horiz-adv-x="694" 
d="M251 556l95 -386h2l95 386h191v-556h-134v230l5 182l-107 -412h-103l-106 412l5 -177v-235h-134v556h191z" />
    <glyph glyph-name="n.smcp" horiz-adv-x="555" 
d="M495 556v-556h-169l-140 381v-381h-126v556h169l140 -381v381h126z" />
    <glyph glyph-name="o.smcp" horiz-adv-x="526" 
d="M486 357v-157q0 -115 -53.5 -163.5t-169.5 -48.5t-169.5 48.5t-53.5 163.5v157q0 115 53.5 163t169.5 48q117 0 170 -48t53 -163zM350 198v161q0 55 -20 77t-67 22t-67 -22t-20 -77v-161q0 -56 20 -78t67 -22t67 22t20 78z" />
    <glyph glyph-name="p.smcp" horiz-adv-x="501" 
d="M60 0v556h206q108 0 156.5 -41.5t48.5 -139.5q0 -101 -48.5 -143t-156.5 -42h-70v-190h-136zM196 446v-152h71q37 0 52.5 19.5t15.5 58.5q0 38 -15.5 56t-55.5 18h-68z" />
    <glyph glyph-name="q.smcp" horiz-adv-x="526" 
d="M486 357v-157q0 -99 -40 -148t-124 -60q5 -31 47 -31h52l-25 -62h-74q-48 0 -79.5 22.5t-35.5 69.5q-86 10 -126.5 59t-40.5 150v157q0 115 53.5 163t169.5 48q117 0 170 -48t53 -163zM350 198v161q0 55 -20 77t-67 22t-67 -22t-20 -77v-161q0 -56 20 -78t67 -22t67 22
t20 78z" />
    <glyph glyph-name="r.smcp" horiz-adv-x="517" 
d="M380 203l107 -203h-140l-97 190h-54v-190h-136v556h202q112 0 162.5 -41t50.5 -139q0 -134 -95 -173zM196 446v-152h68q39 0 57 19t18 59t-17.5 57t-57.5 17h-68z" />
    <glyph glyph-name="s.smcp" horiz-adv-x="514" 
d="M256 99q47 0 64.5 15t17.5 47q0 34 -20 48t-74 22q-111 15 -155 52t-44 122q0 163 209 163q114 0 160.5 -42.5t46.5 -132.5h-134q0 35 -17 50t-58 15q-71 0 -71 -59q0 -35 20.5 -48.5t67.5 -21.5q127 -20 166 -54.5t39 -115.5q0 -78 -55 -124t-163 -46
q-122 0 -171.5 44.5t-49.5 136.5h136q0 -38 17.5 -54.5t67.5 -16.5z" />
    <glyph glyph-name="t.smcp" horiz-adv-x="438" 
d="M151 0v446h-131v110h398v-110h-131v-446h-136z" />
    <glyph glyph-name="u.smcp" horiz-adv-x="534" 
d="M55 556h136v-377q0 -43 17 -62t59 -19t59 19t17 62v377h136v-377q0 -105 -51.5 -147.5t-160.5 -42.5t-160.5 42.5t-51.5 147.5v377z" />
    <glyph glyph-name="v.smcp" horiz-adv-x="494" 
d="M160 556l86 -413h2l86 413h145l-149 -556h-166l-149 556h145z" />
    <glyph glyph-name="w.smcp" horiz-adv-x="768" 
d="M309 556h150l76 -412h2l63 412h138l-115 -556h-165l-74 432l-74 -432h-165l-115 556h138l63 -412h2z" />
    <glyph glyph-name="x.smcp" horiz-adv-x="474" 
d="M458 556l-145 -269l149 -287h-147l-78 184l-78 -184h-147l149 287l-145 269h148l73 -169l73 169h148z" />
    <glyph glyph-name="y.smcp" horiz-adv-x="465" 
d="M165 0v203l-150 353h144l73 -230h2l73 230h143l-149 -353v-203h-136z" />
    <glyph glyph-name="z.smcp" horiz-adv-x="481" 
d="M55 446v110h376v-88l-223 -358h233v-110h-391v87l223 359h-218z" />
    <glyph glyph-name="ampersand.smcp" horiz-adv-x="598" 
d="M535 228h-57v-74q0 -30 15 -41.5t46 -11.5v-101q-49 0 -77.5 8.5t-53.5 35.5q-60 -56 -146 -56q-110 0 -160.5 38.5t-50.5 122.5q0 49 26 84t74 49q-88 34 -88 126q0 158 197 158q108 0 155 -40t47 -133h-135q0 63 -67 63q-62 0 -62 -64q0 -60 71 -60h266v-104zM266 98
q76 0 76 73v57h-86q-68 0 -68 -63q0 -67 78 -67z" />
    <glyph glyph-name="one.smcp" horiz-adv-x="342" 
d="M262 0h-138v446h-94v69l138 42h94v-557z" />
    <glyph glyph-name="two.smcp" horiz-adv-x="487" 
d="M41 0v67q0 58 20 101t49.5 65t64.5 40.5t64.5 31t49.5 34.5t20 52q0 37 -15.5 52t-49.5 15q-64 0 -64 -67h-134q0 177 198 177q109 0 155 -44.5t46 -132.5q0 -52 -27.5 -89t-66.5 -57.5t-78 -38t-66.5 -41t-27.5 -55.5h279v-110h-417z" />
    <glyph glyph-name="three.smcp" horiz-adv-x="501" 
d="M176 391h-134q0 94 51 135.5t155 41.5q200 0 200 -167q0 -42 -24.5 -72.5t-68.5 -44.5q55 -11 83 -45t28 -85q0 -165 -212 -165q-118 0 -166 41.5t-48 132.5h134q0 -32 17 -48.5t65 -16.5q44 0 59 16t15 50q0 40 -19.5 53t-61.5 13h-40v104h40q32 0 47.5 12t15.5 47
q0 65 -66 65q-38 0 -54 -16t-16 -51z" />
    <glyph glyph-name="four.smcp" horiz-adv-x="486" 
d="M271 0v100h-251v107l224 349h163v-346h59v-110h-59v-100h-136zM134 210h137v216z" />
    <glyph glyph-name="five.smcp" horiz-adv-x="503" 
d="M171 247h-114l30 309h342v-110h-232l-8 -107q51 20 98 20q97 0 139 -42t42 -140q0 -189 -217 -189q-119 0 -165 43t-46 132h136q0 -34 17.5 -49.5t57.5 -15.5q45 0 62 18.5t17 62.5q0 50 -16 71.5t-54 21.5q-47 0 -89 -25z" />
    <glyph glyph-name="six.smcp" horiz-adv-x="508" 
d="M181 382v-65q53 30 110 30q98 0 137.5 -42t39.5 -130q0 -96 -51 -141.5t-162 -45.5t-160.5 49.5t-49.5 158.5v163q0 110 53 159.5t159 49.5q99 0 150 -35t51 -131h-136q0 30 -15.5 43t-53.5 13t-55 -16.5t-17 -59.5zM259 262q-38 0 -78 -23v-65q0 -40 17 -58t58 -18
q43 0 58.5 20.5t15.5 59.5q0 45 -16 64.5t-55 19.5z" />
    <glyph glyph-name="seven.smcp" horiz-adv-x="424" 
d="M242 0h-141l166 446h-247v110h384v-91z" />
    <glyph glyph-name="eight.smcp" horiz-adv-x="514" 
d="M257 -12q-115 0 -168.5 39.5t-53.5 117.5q0 47 30.5 84.5t83.5 53.5q-48 16 -71.5 51.5t-23.5 82.5q0 151 203 151q202 0 202 -151q0 -46 -23.5 -82t-70.5 -52q53 -16 83.5 -53.5t30.5 -84.5q0 -78 -53.5 -117.5t-168.5 -39.5zM269 238h-23q-35 0 -54.5 -18.5
t-19.5 -50.5q0 -37 20 -54t65 -17t65 17t20 54q0 32 -19.5 50.5t-53.5 18.5zM243 330h27q22 0 38.5 15t16.5 45q0 37 -17 52.5t-51 15.5t-51.5 -15.5t-17.5 -52.5q0 -30 16.5 -45t38.5 -15z" />
    <glyph glyph-name="nine.smcp" horiz-adv-x="510" 
d="M329 174v65q-53 -30 -111 -30q-98 0 -138 42t-40 130q0 95 51.5 141t162.5 46t161 -49.5t50 -158.5v-163q0 -110 -53.5 -159.5t-159.5 -49.5q-99 0 -150.5 35t-51.5 131h136q0 -30 16 -43t54 -13q40 0 56.5 16.5t16.5 59.5zM250 294q39 0 79 23v65q0 40 -17.5 58
t-58.5 18q-43 0 -59 -20.5t-16 -59.5q0 -45 16.5 -64.5t55.5 -19.5z" />
    <glyph glyph-name="zero.smcp" horiz-adv-x="503" 
d="M463 359v-162q0 -111 -51 -160t-160 -49t-160.5 49t-51.5 160v162q0 111 52 160t160 49q107 0 159 -49t52 -160zM327 185v186q0 49 -17 68t-58 19t-58.5 -19t-17.5 -68v-186q0 -50 17 -68.5t59 -18.5q41 0 58 18.5t17 68.5z" />
    <glyph glyph-name="dollar.smcp" horiz-adv-x="509" 
d="M466 177q0 -32 -4 -53t-19 -45t-49.5 -38t-89.5 -19v-90h-106v90q-91 8 -127 48t-36 119h136q0 -34 18 -46.5t63 -12.5q78 0 78 47q0 34 -18.5 46t-83.5 17q-110 9 -149 42.5t-39 105.5q0 136 158 153v81h106v-81q83 -8 118.5 -46.5t35.5 -121.5h-136q0 13 -1.5 21
t-8 18.5t-23 16t-42.5 5.5q-41 0 -56 -13t-15 -37q0 -28 16 -40t65 -16q131 -11 170 -41t39 -110z" />
    <glyph glyph-name="cent.smcp" horiz-adv-x="522" 
d="M263 430q-51 0 -69.5 -24t-18.5 -87v-82q0 -65 19 -88t69 -23q42 0 60.5 17t18.5 65h134q0 -92 -39.5 -136t-117.5 -53v-86h-106v85q-91 9 -132.5 61.5t-41.5 167.5v62q0 116 41.5 168t132.5 61v85h106v-86q79 -9 118 -52.5t39 -136.5h-134q0 49 -18.5 65.5t-60.5 16.5z
" />
    <glyph glyph-name="sterling.smcp" horiz-adv-x="529" 
d="M203 394q0 -29 14 -91h87v-76h-73q13 -73 -27 -117h79q49 0 63 17t14 63h134q0 -115 -38.5 -152.5t-133.5 -37.5h-282v110q43 0 66.5 18.5t23.5 53.5q0 22 -8 45h-82v76h57q-29 58 -29 103q0 159 194 159q108 0 151 -41t43 -131h-134q0 33 -13.5 47.5t-46.5 14.5
q-59 0 -59 -61z" />
    <glyph glyph-name="Euro.smcp" horiz-adv-x="551" 
d="M30 253h57v50h-57v54h57v10q0 105 53.5 153t162.5 48q116 0 162 -50t46 -141h-134q0 42 -15.5 61.5t-58.5 19.5q-42 0 -61 -20.5t-19 -71.5v-9h118l-10 -54h-108v-50h98l-9 -54h-89v-14q0 -46 19.5 -66.5t60.5 -20.5q43 0 58.5 20t15.5 61h134q0 -91 -46 -141t-162 -50
q-106 0 -161 47.5t-55 153.5v10h-57v54z" />
    <glyph glyph-name="yen.smcp" horiz-adv-x="496" 
d="M67 120h113v42h-113v58h106l-143 336h144l73 -230h2l73 230h144l-143 -336h106v-58h-113v-42h113v-58h-113v-62h-136v62h-113v58z" />
    <glyph glyph-name="numbersign.smcp" horiz-adv-x="518" 
d="M469 211l-7 -80h-79l-10 -131h-93l10 131h-88l-10 -131h-93l10 131h-79l7 80h79l12 134h-79l7 80h79l11 131h93l-11 -131h88l11 131h93l-11 -131h79l-7 -80h-79l-12 -134h79zM221 345l-12 -134h88l12 134h-88z" />
    <glyph glyph-name="percent.smcp" horiz-adv-x="614" 
d="M530 556l-373 -556h-89l373 556h89zM125 444q0 -38 9.5 -51.5t32.5 -13.5t32.5 13.5t9.5 49.5t-9.5 49t-32.5 13q-22 0 -32 -13t-10 -47zM397 118q0 -38 9.5 -51.5t32.5 -13.5t32.5 13.5t9.5 49.5t-9.5 49t-32.5 13q-22 0 -32 -13t-10 -47zM286 441q0 -71 -28 -99
t-91 -28t-91 28t-28 99q0 70 28 98.5t91 28.5t91 -28.5t28 -98.5zM558 115q0 -71 -28 -99t-91 -28t-91 28t-28 99q0 70 28 98.5t91 28.5t91 -28.5t28 -98.5z" />
    <glyph glyph-name="one.tnum_smcp" horiz-adv-x="500" 
d="M109 0v110h94v336h-99v69l118 42h119v-447h94v-110h-326z" />
    <glyph glyph-name="two.tnum_smcp" horiz-adv-x="500" 
d="M41 0v67q0 58 20 101t49.5 65t64.5 40.5t64.5 31t49.5 34.5t20 52q0 37 -15.5 52t-49.5 15q-64 0 -64 -67h-134q0 177 198 177q109 0 155 -44.5t46 -132.5q0 -52 -27.5 -89t-66.5 -57.5t-78 -38t-66.5 -41t-27.5 -55.5h279v-110h-417z" />
    <glyph glyph-name="three.tnum_smcp" horiz-adv-x="500" 
d="M173 391h-134q0 94 51 135.5t155 41.5q200 0 200 -167q0 -42 -24.5 -72.5t-68.5 -44.5q55 -11 83 -45t28 -85q0 -165 -212 -165q-118 0 -166 41.5t-48 132.5h134q0 -32 17 -48.5t65 -16.5q44 0 59 16t15 50q0 40 -19.5 53t-61.5 13h-40v104h40q32 0 47.5 12t15.5 47
q0 65 -66 65q-38 0 -54 -16t-16 -51z" />
    <glyph glyph-name="four.tnum_smcp" horiz-adv-x="500" 
d="M278 0v100h-251v107l224 349h163v-346h59v-110h-59v-100h-136zM141 210h137v216z" />
    <glyph glyph-name="five.tnum_smcp" horiz-adv-x="500" 
d="M167 247h-114l30 309h342v-110h-232l-8 -107q51 20 98 20q97 0 139 -42t42 -140q0 -189 -217 -189q-119 0 -165 43t-46 132h136q0 -34 17.5 -49.5t57.5 -15.5q45 0 62 18.5t17 62.5q0 50 -16 71.5t-54 21.5q-47 0 -89 -25z" />
    <glyph glyph-name="six.tnum_smcp" horiz-adv-x="500" 
d="M174 382v-65q53 30 110 30q98 0 137.5 -42t39.5 -130q0 -96 -51 -141.5t-162 -45.5t-160.5 49.5t-49.5 158.5v163q0 110 53 159.5t159 49.5q99 0 150 -35t51 -131h-136q0 30 -15.5 43t-53.5 13t-55 -16.5t-17 -59.5zM252 262q-38 0 -78 -23v-65q0 -40 17 -58t58 -18
q43 0 58.5 20.5t15.5 59.5q0 45 -16 64.5t-55 19.5z" />
    <glyph glyph-name="seven.tnum_smcp" horiz-adv-x="500" 
d="M276 0h-141l176 446h-257v110h394v-91z" />
    <glyph glyph-name="eight.tnum_smcp" horiz-adv-x="500" 
d="M250 -12q-115 0 -168.5 39.5t-53.5 117.5q0 47 30.5 84.5t83.5 53.5q-48 16 -71.5 51.5t-23.5 82.5q0 151 203 151q202 0 202 -151q0 -46 -23.5 -82t-70.5 -52q53 -16 83.5 -53.5t30.5 -84.5q0 -78 -53.5 -117.5t-168.5 -39.5zM262 238h-23q-35 0 -54.5 -18.5
t-19.5 -50.5q0 -37 20 -54t65 -17t65 17t20 54q0 32 -19.5 50.5t-53.5 18.5zM236 330h27q22 0 38.5 15t16.5 45q0 37 -17 52.5t-51 15.5t-51.5 -15.5t-17.5 -52.5q0 -30 16.5 -45t38.5 -15z" />
    <glyph glyph-name="nine.tnum_smcp" horiz-adv-x="500" 
d="M326 174v65q-53 -30 -111 -30q-98 0 -138 42t-40 130q0 95 51.5 141t162.5 46t161 -49.5t50 -158.5v-163q0 -110 -53.5 -159.5t-159.5 -49.5q-99 0 -150.5 35t-51.5 131h136q0 -30 16 -43t54 -13q40 0 56.5 16.5t16.5 59.5zM247 294q39 0 79 23v65q0 40 -17.5 58
t-58.5 18q-43 0 -59 -20.5t-16 -59.5q0 -45 16.5 -64.5t55.5 -19.5z" />
    <glyph glyph-name="zero.tnum_smcp" horiz-adv-x="500" 
d="M461 359v-162q0 -111 -51 -160t-160 -49t-160.5 49t-51.5 160v162q0 111 52 160t160 49q107 0 159 -49t52 -160zM325 185v186q0 49 -17 68t-58 19t-58.5 -19t-17.5 -68v-186q0 -50 17 -68.5t59 -18.5q41 0 58 18.5t17 68.5z" />
    <glyph glyph-name="dollar.tnum_smcp" horiz-adv-x="500" 
d="M465 177q0 -32 -4 -53t-19 -45t-49.5 -38t-89.5 -19v-90h-106v90q-91 8 -127 48t-36 119h136q0 -34 18 -46.5t63 -12.5q78 0 78 47q0 34 -18.5 46t-83.5 17q-110 9 -149 42.5t-39 105.5q0 136 158 153v81h106v-81q83 -8 118.5 -46.5t35.5 -121.5h-136q0 13 -1.5 21
t-8 18.5t-23 16t-42.5 5.5q-41 0 -56 -13t-15 -37q0 -28 16 -40t65 -16q131 -11 170 -41t39 -110z" />
    <glyph glyph-name="cent.tnum_smcp" horiz-adv-x="500" 
d="M255 430q-51 0 -69.5 -24t-18.5 -87v-82q0 -65 19 -88t69 -23q42 0 60.5 17t18.5 65h134q0 -92 -39.5 -136t-117.5 -53v-86h-106v85q-91 9 -132.5 61.5t-41.5 167.5v62q0 116 41.5 168t132.5 61v85h106v-86q79 -9 118 -52.5t39 -136.5h-134q0 49 -18.5 65.5t-60.5 16.5z
" />
    <glyph glyph-name="sterling.tnum_smcp" horiz-adv-x="500" 
d="M187 394q0 -29 14 -91h87v-76h-73q13 -73 -27 -117h79q49 0 63 17t14 63h134q0 -115 -38.5 -152.5t-133.5 -37.5h-282v110q43 0 66.5 18.5t23.5 53.5q0 22 -8 45h-82v76h57q-29 58 -29 103q0 159 194 159q108 0 151 -41t43 -131h-134q0 33 -13.5 47.5t-46.5 14.5
q-59 0 -59 -61z" />
    <glyph glyph-name="Euro.tnum_smcp" horiz-adv-x="500" 
d="M9 253h57v50h-57v54h57v10q0 105 53.5 153t162.5 48q116 0 162 -50t46 -141h-134q0 42 -15.5 61.5t-58.5 19.5q-42 0 -61 -20.5t-19 -71.5v-9h118l-10 -54h-108v-50h98l-9 -54h-89v-14q0 -46 19.5 -66.5t60.5 -20.5q43 0 58.5 20t15.5 61h134q0 -91 -46 -141t-162 -50
q-106 0 -161 47.5t-55 153.5v10h-57v54z" />
    <glyph glyph-name="yen.tnum_smcp" horiz-adv-x="500" 
d="M69 120h113v42h-113v58h106l-143 336h144l73 -230h2l73 230h144l-143 -336h106v-58h-113v-42h113v-58h-113v-62h-136v62h-113v58z" />
    <glyph glyph-name="numbersign.tnum_smcp" horiz-adv-x="500" 
d="M460 211l-7 -80h-79l-10 -131h-93l10 131h-88l-10 -131h-93l10 131h-79l7 80h79l12 134h-79l7 80h79l11 131h93l-11 -131h88l11 131h93l-11 -131h79l-7 -80h-79l-12 -134h79zM212 345l-12 -134h88l12 134h-88z" />
    <glyph glyph-name="percent.tnum_smcp" horiz-adv-x="500" 
d="M477 556l-373 -556h-89l373 556h89zM72 444q0 -38 9.5 -51.5t32.5 -13.5t32.5 13.5t9.5 49.5t-9.5 49t-32.5 13q-22 0 -32 -13t-10 -47zM344 118q0 -38 9.5 -51.5t32.5 -13.5t32.5 13.5t9.5 49.5t-9.5 49t-32.5 13q-22 0 -32 -13t-10 -47zM233 441q0 -71 -28 -99t-91 -28
t-91 28t-28 99q0 70 28 98.5t91 28.5t91 -28.5t28 -98.5zM505 115q0 -71 -28 -99t-91 -28t-91 28t-28 99q0 70 28 98.5t91 28.5t91 -28.5t28 -98.5z" />
    <glyph glyph-name="acute.smcp" horiz-adv-x="235" 
d="M40 611l28 120h127l-72 -120h-83z" />
    <glyph glyph-name="grave.smcp" horiz-adv-x="235" 
d="M167 731l28 -120h-83l-72 120h127z" />
    <glyph glyph-name="circumflex.smcp" horiz-adv-x="335" 
d="M241 731l54 -120h-88l-40 54l-39 -54h-88l54 120h147z" />
    <glyph glyph-name="dieresis.smcp" horiz-adv-x="352" 
d="M40 615v106h106v-106h-106zM206 615v106h106v-106h-106z" />
    <glyph glyph-name="tilde.smcp" horiz-adv-x="416" 
d="M260 696q31 0 31 32h78q0 -65 -22.5 -94t-71.5 -29q-31 0 -64.5 21.5t-54.5 21.5q-31 0 -31 -32h-78q0 66 22.5 94.5t71.5 28.5q31 0 65 -21.5t54 -21.5z" />
    <glyph glyph-name="caron.smcp" horiz-adv-x="335" 
d="M295 731l-54 -120h-147l-54 120h88l39 -54l40 54h88z" />
    <glyph glyph-name="ring.smcp" horiz-adv-x="302" 
d="M151 786q111 0 111 -93q0 -46 -29 -70.5t-82 -24.5t-82 24.5t-29 70.5q0 93 111 93zM151 656q39 0 39 37q0 35 -39 35t-39 -35q0 -37 39 -37z" />
    <glyph glyph-name="breve.smcp" horiz-adv-x="332" 
d="M166 597q-126 0 -126 134h78q0 -53 48 -53t48 53h78q0 -134 -126 -134z" />
    <glyph glyph-name="macron.smcp" horiz-adv-x="330" 
d="M40 614v86h250v-86h-250z" />
    <glyph glyph-name="dotaccent.smcp" horiz-adv-x="186" 
d="M40 615v106h106v-106h-106z" />
    <glyph glyph-name="hungarumlaut.smcp" horiz-adv-x="378" 
d="M40 611l18 120h117l-52 -120h-83zM183 611l38 120h117l-72 -120h-83z" />
    <glyph glyph-name="aacute.smcp" horiz-adv-x="500" 
d="M351 0l-22 98h-158l-22 -98h-134l147 556h176l147 -556h-134zM249 448l-56 -246h114l-56 246h-2zM212 611l28 120h127l-72 -120h-83z" />
    <glyph glyph-name="agrave.smcp" horiz-adv-x="500" 
d="M351 0l-22 98h-158l-22 -98h-134l147 556h176l147 -556h-134zM249 448l-56 -246h114l-56 246h-2zM279 731l28 -120h-83l-72 120h127z" />
    <glyph glyph-name="acircumflex.smcp" horiz-adv-x="500" 
d="M351 0l-22 98h-158l-22 -98h-134l147 556h176l147 -556h-134zM249 448l-56 -246h114l-56 246h-2zM323 731l54 -120h-88l-40 54l-39 -54h-88l54 120h147z" />
    <glyph glyph-name="adieresis.smcp" horiz-adv-x="500" 
d="M351 0l-22 98h-158l-22 -98h-134l147 556h176l147 -556h-134zM249 448l-56 -246h114l-56 246h-2zM114 615v106h106v-106h-106zM280 615v106h106v-106h-106z" />
    <glyph glyph-name="atilde.smcp" horiz-adv-x="500" 
d="M351 0l-22 98h-158l-22 -98h-134l147 556h176l147 -556h-134zM249 448l-56 -246h114l-56 246h-2zM302 696q31 0 31 32h78q0 -65 -22.5 -94t-71.5 -29q-31 0 -64.5 21.5t-54.5 21.5q-31 0 -31 -32h-78q0 66 22.5 94.5t71.5 28.5q31 0 65 -21.5t54 -21.5z" />
    <glyph glyph-name="aring.smcp" horiz-adv-x="500" 
d="M351 0l-22 98h-158l-22 -98h-134l147 556h176l147 -556h-134zM249 448l-56 -246h114l-56 246h-2zM250 786q111 0 111 -93q0 -46 -29 -70.5t-82 -24.5t-82 24.5t-29 70.5q0 93 111 93zM250 656q39 0 39 37q0 35 -39 35t-39 -35q0 -37 39 -37z" />
    <glyph glyph-name="amacron.smcp" horiz-adv-x="500" 
d="M351 0l-22 98h-158l-22 -98h-134l147 556h176l147 -556h-134zM249 448l-56 -246h114l-56 246h-2zM125 614v86h250v-86h-250z" />
    <glyph glyph-name="abreve.smcp" horiz-adv-x="500" 
d="M351 0l-22 98h-158l-22 -98h-134l147 556h176l147 -556h-134zM249 448l-56 -246h114l-56 246h-2zM250 597q-126 0 -126 134h78q0 -53 48 -53t48 53h78q0 -134 -126 -134z" />
    <glyph glyph-name="aogonek.smcp" horiz-adv-x="500" 
d="M351 0l-22 98h-158l-22 -98h-134l147 556h176l147 -556q-42 -36 -42 -70q0 -26 33 -26h9v-78h-57q-84 0 -84 71q0 61 60 103h-53zM249 448l-56 -246h114l-56 246h-2z" />
    <glyph glyph-name="ae.smcp" horiz-adv-x="768" 
d="M685 332v-104h-198v-118h231v-110h-367l-1 98h-158l-43 -98h-134l270 556h433v-110h-231v-114h198zM348 448l-111 -246h114l-1 246h-2z" />
    <glyph glyph-name="bdotaccent.smcp" horiz-adv-x="525" 
d="M60 0v556h239q94 0 133.5 -34t39.5 -110q0 -94 -84 -127q52 -15 74.5 -48.5t22.5 -88.5q0 -76 -39.5 -112t-138.5 -36h-247zM287 228h-91v-118h90q35 0 49 15t14 45q0 29 -14 43.5t-48 14.5zM196 446v-114h80q34 0 47.5 14t13.5 46q0 30 -14 42t-47 12h-80zM209 615v106
h106v-106h-106z" />
    <glyph glyph-name="cacute.smcp" horiz-adv-x="504" 
d="M256 98q43 0 58.5 18.5t15.5 59.5h134q0 -91 -45 -139.5t-163 -48.5q-111 0 -163.5 46.5t-52.5 154.5v178q0 106 51 153.5t165 47.5q118 0 163 -48.5t45 -139.5h-134q0 41 -15.5 59.5t-58.5 18.5q-44 0 -62 -18t-18 -67v-191q0 -46 19 -65t61 -19zM214 611l28 120h127
l-72 -120h-83z" />
    <glyph glyph-name="ccircumflex.smcp" horiz-adv-x="504" 
d="M256 98q43 0 58.5 18.5t15.5 59.5h134q0 -91 -45 -139.5t-163 -48.5q-111 0 -163.5 46.5t-52.5 154.5v178q0 106 51 153.5t165 47.5q118 0 163 -48.5t45 -139.5h-134q0 41 -15.5 59.5t-58.5 18.5q-44 0 -62 -18t-18 -67v-191q0 -46 19 -65t61 -19zM330 731l54 -120h-88
l-40 54l-39 -54h-88l54 120h147z" />
    <glyph glyph-name="ccaron.smcp" horiz-adv-x="504" 
d="M256 98q43 0 58.5 18.5t15.5 59.5h134q0 -91 -45 -139.5t-163 -48.5q-111 0 -163.5 46.5t-52.5 154.5v178q0 106 51 153.5t165 47.5q118 0 163 -48.5t45 -139.5h-134q0 41 -15.5 59.5t-58.5 18.5q-44 0 -62 -18t-18 -67v-191q0 -46 19 -65t61 -19zM379 731l-54 -120h-147
l-54 120h88l39 -54l40 54h88z" />
    <glyph glyph-name="ccedilla.smcp" horiz-adv-x="504" 
d="M256 98q43 0 58.5 18.5t15.5 59.5h134q0 -86 -40.5 -134t-145.5 -53l-8 -30q72 -8 72 -74q0 -45 -25.5 -65.5t-85.5 -20.5h-69v62h67q20 0 27.5 5.5t7.5 18.5t-7.5 18.5t-27.5 5.5h-33l24 80q-92 7 -136 54t-44 146v178q0 106 51 153.5t165 47.5q118 0 163 -48.5
t45 -139.5h-134q0 41 -15.5 59.5t-58.5 18.5q-44 0 -62 -18t-18 -67v-191q0 -46 19 -65t61 -19z" />
    <glyph glyph-name="cdotaccent.smcp" horiz-adv-x="504" 
d="M256 98q43 0 58.5 18.5t15.5 59.5h134q0 -91 -45 -139.5t-163 -48.5q-111 0 -163.5 46.5t-52.5 154.5v178q0 106 51 153.5t165 47.5q118 0 163 -48.5t45 -139.5h-134q0 41 -15.5 59.5t-58.5 18.5q-44 0 -62 -18t-18 -67v-191q0 -46 19 -65t61 -19zM204 615v106h106v-106
h-106z" />
    <glyph glyph-name="dcaron.smcp" horiz-adv-x="538" 
d="M290 0h-230v556h225q109 0 156 -44.5t47 -154.5v-158q0 -111 -45 -155t-153 -44zM196 110h76q48 0 64 19t16 65v166q0 47 -16 66.5t-64 19.5h-76v-336zM387 731l-54 -120h-147l-54 120h88l39 -54l40 54h88z" />
    <glyph glyph-name="ddotaccent.smcp" horiz-adv-x="538" 
d="M290 0h-230v556h225q109 0 156 -44.5t47 -154.5v-158q0 -111 -45 -155t-153 -44zM196 110h76q48 0 64 19t16 65v166q0 47 -16 66.5t-64 19.5h-76v-336zM204 615v106h106v-106h-106z" />
    <glyph glyph-name="dcroat.smcp" horiz-adv-x="538" 
d="M10 237v86h50v233h225q109 0 156 -44.5t47 -154.5v-158q0 -111 -45 -155t-153 -44h-230v237h-50zM196 110h76q48 0 64 19t16 65v166q0 47 -16 66.5t-64 19.5h-76v-123h64v-86h-64v-127z" />
    <glyph glyph-name="eth.smcp" horiz-adv-x="538" 
d="M10 237v86h50v233h225q109 0 156 -44.5t47 -154.5v-158q0 -111 -45 -155t-153 -44h-230v237h-50zM196 110h76q48 0 64 19t16 65v166q0 47 -16 66.5t-64 19.5h-76v-123h64v-86h-64v-127z" />
    <glyph glyph-name="eacute.smcp" horiz-adv-x="477" 
d="M394 332v-104h-198v-118h231v-110h-367v556h367v-110h-231v-114h198zM204 611l28 120h127l-72 -120h-83z" />
    <glyph glyph-name="egrave.smcp" horiz-adv-x="477" 
d="M394 332v-104h-198v-118h231v-110h-367v556h367v-110h-231v-114h198zM273 731l28 -120h-83l-72 120h127z" />
    <glyph glyph-name="ecircumflex.smcp" horiz-adv-x="477" 
d="M394 332v-104h-198v-118h231v-110h-367v556h367v-110h-231v-114h198zM325 731l54 -120h-88l-40 54l-39 -54h-88l54 120h147z" />
    <glyph glyph-name="edieresis.smcp" horiz-adv-x="477" 
d="M394 332v-104h-198v-118h231v-110h-367v556h367v-110h-231v-114h198zM112 615v106h106v-106h-106zM278 615v106h106v-106h-106z" />
    <glyph glyph-name="ecaron.smcp" horiz-adv-x="477" 
d="M394 332v-104h-198v-118h231v-110h-367v556h367v-110h-231v-114h198zM373 731l-54 -120h-147l-54 120h88l39 -54l40 54h88z" />
    <glyph glyph-name="emacron.smcp" horiz-adv-x="477" 
d="M394 332v-104h-198v-118h231v-110h-367v556h367v-110h-231v-114h198zM120 614v86h250v-86h-250z" />
    <glyph glyph-name="ebreve.smcp" horiz-adv-x="477" 
d="M394 332v-104h-198v-118h231v-110h-367v556h367v-110h-231v-114h198zM248 597q-126 0 -126 134h78q0 -53 48 -53t48 53h78q0 -134 -126 -134z" />
    <glyph glyph-name="eogonek.smcp" horiz-adv-x="477" 
d="M346 0h-286v556h367v-110h-231v-114h198v-104h-198v-118h231v-110q-42 -36 -42 -70q0 -26 33 -26h9v-78h-57q-84 0 -84 71q0 61 60 103z" />
    <glyph glyph-name="edotaccent.smcp" horiz-adv-x="477" 
d="M394 332v-104h-198v-118h231v-110h-367v556h367v-110h-231v-114h198zM190 615v106h106v-106h-106z" />
    <glyph glyph-name="fdotaccent.smcp" horiz-adv-x="448" 
d="M196 0h-136v556h348v-110h-212v-114h179v-104h-179v-228zM181 615v106h106v-106h-106z" />
    <glyph glyph-name="gcircumflex.smcp" horiz-adv-x="533" 
d="M50 189v178q0 105 53.5 153t162.5 48q116 0 162 -50t46 -141h-134q0 42 -15.5 61.5t-58.5 19.5q-42 0 -61 -19t-19 -69v-185q0 -46 19.5 -66.5t60.5 -20.5q42 0 59 17t17 49v65h-83v104h219v-333h-58l-17 42q-45 -54 -137 -54q-106 0 -161 47.5t-55 153.5zM340 731
l54 -120h-88l-40 54l-39 -54h-88l54 120h147z" />
    <glyph glyph-name="gbreve.smcp" horiz-adv-x="533" 
d="M50 189v178q0 105 53.5 153t162.5 48q116 0 162 -50t46 -141h-134q0 42 -15.5 61.5t-58.5 19.5q-42 0 -61 -19t-19 -69v-185q0 -46 19.5 -66.5t60.5 -20.5q42 0 59 17t17 49v65h-83v104h219v-333h-58l-17 42q-45 -54 -137 -54q-106 0 -161 47.5t-55 153.5zM266 597
q-126 0 -126 134h78q0 -53 48 -53t48 53h78q0 -134 -126 -134z" />
    <glyph glyph-name="gdotaccent.smcp" horiz-adv-x="533" 
d="M50 189v178q0 105 53.5 153t162.5 48q116 0 162 -50t46 -141h-134q0 42 -15.5 61.5t-58.5 19.5q-42 0 -61 -19t-19 -69v-185q0 -46 19.5 -66.5t60.5 -20.5q42 0 59 17t17 49v65h-83v104h219v-333h-58l-17 42q-45 -54 -137 -54q-106 0 -161 47.5t-55 153.5zM216 615v106
h106v-106h-106z" />
    <glyph glyph-name="gcommaaccent.smcp" horiz-adv-x="533" 
d="M50 189v178q0 105 53.5 153t162.5 48q116 0 162 -50t46 -141h-134q0 42 -15.5 61.5t-58.5 19.5q-42 0 -61 -19t-19 -69v-185q0 -46 19.5 -66.5t60.5 -20.5q42 0 59 17t17 49v65h-83v104h219v-333h-58l-17 42q-45 -54 -137 -54q-106 0 -161 47.5t-55 153.5zM172 -190
l36 130h132l-73 -130h-95z" />
    <glyph glyph-name="hcircumflex.smcp" horiz-adv-x="544" 
d="M484 556v-556h-136v228h-152v-228h-136v556h136v-224h152v224h136zM345 731l54 -120h-88l-40 54l-39 -54h-88l54 120h147z" />
    <glyph glyph-name="hbar.smcp" horiz-adv-x="544" 
d="M10 412v76h50v68h136v-68h152v68h136v-68h50v-76h-50v-412h-136v228h-152v-228h-136v412h-50zM196 332h152v80h-152v-80z" />
    <glyph glyph-name="iacute.smcp" horiz-adv-x="256" 
d="M60 0v556h136v-556h-136zM90 611l28 120h127l-72 -120h-83z" />
    <glyph glyph-name="igrave.smcp" horiz-adv-x="256" 
d="M60 0v556h136v-556h-136zM144 731l28 -120h-83l-72 120h127z" />
    <glyph glyph-name="icircumflex.smcp" horiz-adv-x="256" 
d="M60 0v556h136v-556h-136zM202 731l54 -120h-88l-40 54l-39 -54h-88l54 120h147z" />
    <glyph glyph-name="idieresis.smcp" horiz-adv-x="256" 
d="M60 0v556h136v-556h-136zM-8 615v106h106v-106h-106zM158 615v106h106v-106h-106z" />
    <glyph glyph-name="itilde.smcp" horiz-adv-x="256" 
d="M177 686q22 0 22 34h76q0 -67 -21.5 -93.5t-66.5 -26.5q-35 0 -63.5 23t-45.5 23q-22 0 -22 -34h-76q0 66 21.5 93t66.5 27q34 0 63 -23t46 -23zM60 0v556h136v-556h-136z" />
    <glyph glyph-name="imacron.smcp" horiz-adv-x="256" 
d="M13 614v86h230v-86h-230zM60 0v556h136v-556h-136z" />
    <glyph glyph-name="ibreve.smcp" horiz-adv-x="256" 
d="M60 0v556h136v-556h-136zM128 597q-126 0 -126 134h78q0 -53 48 -53t48 53h78q0 -134 -126 -134z" />
    <glyph glyph-name="iogonek.smcp" horiz-adv-x="256" 
d="M60 0v556h136v-556q-42 -36 -42 -70q0 -26 33 -26h9v-78h-57q-84 0 -84 71q0 61 60 103h-55z" />
    <glyph glyph-name="jcircumflex.smcp" horiz-adv-x="344" 
d="M148 446h-78v110h214v-425q0 -79 -34 -111t-105 -32q-66 0 -105 12v112q44 -10 69 -10q22 0 30.5 9t8.5 27v308zM245 731l54 -120h-88l-40 54l-39 -54h-88l54 120h147z" />
    <glyph glyph-name="kcommaaccent.smcp" horiz-adv-x="487" 
d="M196 232v-232h-136v556h136v-227l128 227h152l-171 -276l172 -280h-150zM164 -190l36 130h132l-73 -130h-95z" />
    <glyph glyph-name="lacute.smcp" horiz-adv-x="396" 
d="M60 0v556h136v-446h170v-110h-306zM90 611l28 120h127l-72 -120h-83z" />
    <glyph glyph-name="lcaron.smcp" horiz-adv-x="396" 
d="M238 372v204h102l-31 -204h-71zM60 0v556h136v-446h170v-110h-306z" />
    <glyph glyph-name="lcommaaccent.smcp" horiz-adv-x="396" 
d="M60 0v556h136v-446h170v-110h-306zM118 -190l36 130h132l-73 -130h-95z" />
    <glyph glyph-name="ldot.smcp" horiz-adv-x="396" 
d="M238 244v112h112v-112h-112zM60 0v556h136v-446h170v-110h-306z" />
    <glyph glyph-name="lslash.smcp" horiz-adv-x="396" 
d="M60 0v193l-60 -22v86l60 22v277h136v-226l103 39v-86l-103 -40v-133h170v-110h-306z" />
    <glyph glyph-name="mdotaccent.smcp" horiz-adv-x="694" 
d="M251 556l95 -386h2l95 386h191v-556h-134v230l5 182l-107 -412h-103l-106 412l5 -177v-235h-134v556h191zM294 615v106h106v-106h-106z" />
    <glyph glyph-name="nacute.smcp" horiz-adv-x="555" 
d="M495 556v-556h-169l-140 381v-381h-126v556h169l140 -381v381h126zM237 611l28 120h127l-72 -120h-83z" />
    <glyph glyph-name="ntilde.smcp" horiz-adv-x="555" 
d="M495 556v-556h-169l-140 381v-381h-126v556h169l140 -381v381h126zM329 696q31 0 31 32h78q0 -65 -22.5 -94t-71.5 -29q-31 0 -64.5 21.5t-54.5 21.5q-31 0 -31 -32h-78q0 66 22.5 94.5t71.5 28.5q31 0 65 -21.5t54 -21.5z" />
    <glyph glyph-name="ncaron.smcp" horiz-adv-x="555" 
d="M495 556v-556h-169l-140 381v-381h-126v556h169l140 -381v381h126zM405 731l-54 -120h-147l-54 120h88l39 -54l40 54h88z" />
    <glyph glyph-name="ncommaaccent.smcp" horiz-adv-x="555" 
d="M495 556v-556h-169l-140 381v-381h-126v556h169l140 -381v381h126zM198 -190l36 130h132l-73 -130h-95z" />
    <glyph glyph-name="eng.smcp" horiz-adv-x="555" 
d="M495 556v-595q0 -79 -34 -111t-105 -32q-66 0 -105 12v112q44 -10 69 -10q22 0 30.5 9t8.5 27l-177 428q4 -90 4 -151v-245h-126v556h169l145 -355q-5 70 -5 166v189h126z" />
    <glyph glyph-name="oacute.smcp" horiz-adv-x="526" 
d="M486 357v-157q0 -115 -53.5 -163.5t-169.5 -48.5t-169.5 48.5t-53.5 163.5v157q0 115 53.5 163t169.5 48q117 0 170 -48t53 -163zM350 198v161q0 55 -20 77t-67 22t-67 -22t-20 -77v-161q0 -56 20 -78t67 -22t67 22t20 78zM223 611l28 120h127l-72 -120h-83z" />
    <glyph glyph-name="ograve.smcp" horiz-adv-x="526" 
d="M486 357v-157q0 -115 -53.5 -163.5t-169.5 -48.5t-169.5 48.5t-53.5 163.5v157q0 115 53.5 163t169.5 48q117 0 170 -48t53 -163zM350 198v161q0 55 -20 77t-67 22t-67 -22t-20 -77v-161q0 -56 20 -78t67 -22t67 22t20 78zM289 731l28 -120h-83l-72 120h127z" />
    <glyph glyph-name="ocircumflex.smcp" horiz-adv-x="526" 
d="M486 357v-157q0 -115 -53.5 -163.5t-169.5 -48.5t-169.5 48.5t-53.5 163.5v157q0 115 53.5 163t169.5 48q117 0 170 -48t53 -163zM350 198v161q0 55 -20 77t-67 22t-67 -22t-20 -77v-161q0 -56 20 -78t67 -22t67 22t20 78zM336 731l54 -120h-88l-40 54l-39 -54h-88
l54 120h147z" />
    <glyph glyph-name="odieresis.smcp" horiz-adv-x="526" 
d="M486 357v-157q0 -115 -53.5 -163.5t-169.5 -48.5t-169.5 48.5t-53.5 163.5v157q0 115 53.5 163t169.5 48q117 0 170 -48t53 -163zM350 198v161q0 55 -20 77t-67 22t-67 -22t-20 -77v-161q0 -56 20 -78t67 -22t67 22t20 78zM127 615v106h106v-106h-106zM293 615v106h106
v-106h-106z" />
    <glyph glyph-name="otilde.smcp" horiz-adv-x="526" 
d="M486 357v-157q0 -115 -53.5 -163.5t-169.5 -48.5t-169.5 48.5t-53.5 163.5v157q0 115 53.5 163t169.5 48q117 0 170 -48t53 -163zM350 198v161q0 55 -20 77t-67 22t-67 -22t-20 -77v-161q0 -56 20 -78t67 -22t67 22t20 78zM315 696q31 0 31 32h78q0 -65 -22.5 -94
t-71.5 -29q-31 0 -64.5 21.5t-54.5 21.5q-31 0 -31 -32h-78q0 66 22.5 94.5t71.5 28.5q31 0 65 -21.5t54 -21.5z" />
    <glyph glyph-name="obreve.smcp" horiz-adv-x="526" 
d="M486 357v-157q0 -115 -53.5 -163.5t-169.5 -48.5t-169.5 48.5t-53.5 163.5v157q0 115 53.5 163t169.5 48q117 0 170 -48t53 -163zM350 198v161q0 55 -20 77t-67 22t-67 -22t-20 -77v-161q0 -56 20 -78t67 -22t67 22t20 78zM263 597q-126 0 -126 134h78q0 -53 48 -53
t48 53h78q0 -134 -126 -134z" />
    <glyph glyph-name="omacron.smcp" horiz-adv-x="526" 
d="M486 357v-157q0 -115 -53.5 -163.5t-169.5 -48.5t-169.5 48.5t-53.5 163.5v157q0 115 53.5 163t169.5 48q117 0 170 -48t53 -163zM350 198v161q0 55 -20 77t-67 22t-67 -22t-20 -77v-161q0 -56 20 -78t67 -22t67 22t20 78zM138 614v86h250v-86h-250z" />
    <glyph glyph-name="ohungarumlaut.smcp" horiz-adv-x="526" 
d="M486 357v-157q0 -115 -53.5 -163.5t-169.5 -48.5t-169.5 48.5t-53.5 163.5v157q0 115 53.5 163t169.5 48q117 0 170 -48t53 -163zM350 198v161q0 55 -20 77t-67 22t-67 -22t-20 -77v-161q0 -56 20 -78t67 -22t67 22t20 78zM152 611l18 120h117l-52 -120h-83zM295 611
l38 120h117l-72 -120h-83z" />
    <glyph glyph-name="oslash.smcp" horiz-adv-x="526" 
d="M40 -20l42 68q-42 51 -42 152v157q0 115 53.5 163t169.5 48q81 0 129 -22l19 30h75l-42 -68q42 -50 42 -151v-157q0 -115 -53.5 -163.5t-169.5 -48.5q-79 0 -129 22l-18 -30h-76zM176 359v-161l150 242q-19 18 -63 18q-47 0 -67 -22t-20 -77zM350 198v159l-150 -241
q19 -18 63 -18q47 0 67 22t20 78z" />
    <glyph glyph-name="oe.smcp" horiz-adv-x="767" 
d="M350 446h-87q-47 0 -67 -22t-20 -77v-137q0 -56 20 -78t67 -22h87v336zM717 0h-454q-116 0 -169.5 48.5t-53.5 163.5v133q0 115 53.5 163t169.5 48h454v-110h-231v-114h198v-104h-198v-118h231v-110z" />
    <glyph glyph-name="thorn.smcp" horiz-adv-x="501" 
d="M335 278q0 38 -15.5 56t-55.5 18h-68v-148h68q40 0 55.5 18t15.5 56zM196 462h70q112 0 158.5 -40.5t46.5 -143.5t-46.5 -143.5t-158.5 -40.5h-70v-94h-136v556h136v-94z" />
    <glyph glyph-name="pdotaccent.smcp" horiz-adv-x="501" 
d="M60 0v556h206q108 0 156.5 -41.5t48.5 -139.5q0 -101 -48.5 -143t-156.5 -42h-70v-190h-136zM196 446v-152h71q37 0 52.5 19.5t15.5 58.5q0 38 -15.5 56t-55.5 18h-68zM197 615v106h106v-106h-106z" />
    <glyph glyph-name="racute.smcp" horiz-adv-x="517" 
d="M380 203l107 -203h-140l-97 190h-54v-190h-136v556h202q112 0 162.5 -41t50.5 -139q0 -134 -95 -173zM196 446v-152h68q39 0 57 19t18 59t-17.5 57t-57.5 17h-68zM198 611l28 120h127l-72 -120h-83z" />
    <glyph glyph-name="rcaron.smcp" horiz-adv-x="517" 
d="M380 203l107 -203h-140l-97 190h-54v-190h-136v556h202q112 0 162.5 -41t50.5 -139q0 -134 -95 -173zM196 446v-152h68q39 0 57 19t18 59t-17.5 57t-57.5 17h-68zM386 731l-54 -120h-147l-54 120h88l39 -54l40 54h88z" />
    <glyph glyph-name="rcommaaccent.smcp" horiz-adv-x="517" 
d="M380 203l107 -203h-140l-97 190h-54v-190h-136v556h202q112 0 162.5 -41t50.5 -139q0 -134 -95 -173zM196 446v-152h68q39 0 57 19t18 59t-17.5 57t-57.5 17h-68zM165 -190l36 130h132l-73 -130h-95z" />
    <glyph glyph-name="sacute.smcp" horiz-adv-x="514" 
d="M256 99q47 0 64.5 15t17.5 47q0 34 -20 48t-74 22q-111 15 -155 52t-44 122q0 163 209 163q114 0 160.5 -42.5t46.5 -132.5h-134q0 35 -17 50t-58 15q-71 0 -71 -59q0 -35 20.5 -48.5t67.5 -21.5q127 -20 166 -54.5t39 -115.5q0 -78 -55 -124t-163 -46
q-122 0 -171.5 44.5t-49.5 136.5h136q0 -38 17.5 -54.5t67.5 -16.5zM219 611l28 120h127l-72 -120h-83z" />
    <glyph glyph-name="scircumflex.smcp" horiz-adv-x="514" 
d="M256 99q47 0 64.5 15t17.5 47q0 34 -20 48t-74 22q-111 15 -155 52t-44 122q0 163 209 163q114 0 160.5 -42.5t46.5 -132.5h-134q0 35 -17 50t-58 15q-71 0 -71 -59q0 -35 20.5 -48.5t67.5 -21.5q127 -20 166 -54.5t39 -115.5q0 -78 -55 -124t-163 -46
q-122 0 -171.5 44.5t-49.5 136.5h136q0 -38 17.5 -54.5t67.5 -16.5zM330 731l54 -120h-88l-40 54l-39 -54h-88l54 120h147z" />
    <glyph glyph-name="scaron.smcp" horiz-adv-x="514" 
d="M256 99q47 0 64.5 15t17.5 47q0 34 -20 48t-74 22q-111 15 -155 52t-44 122q0 163 209 163q114 0 160.5 -42.5t46.5 -132.5h-134q0 35 -17 50t-58 15q-71 0 -71 -59q0 -35 20.5 -48.5t67.5 -21.5q127 -20 166 -54.5t39 -115.5q0 -78 -55 -124t-163 -46
q-122 0 -171.5 44.5t-49.5 136.5h136q0 -38 17.5 -54.5t67.5 -16.5zM384 731l-54 -120h-147l-54 120h88l39 -54l40 54h88z" />
    <glyph glyph-name="sdotaccent.smcp" horiz-adv-x="514" 
d="M256 99q47 0 64.5 15t17.5 47q0 34 -20 48t-74 22q-111 15 -155 52t-44 122q0 163 209 163q114 0 160.5 -42.5t46.5 -132.5h-134q0 35 -17 50t-58 15q-71 0 -71 -59q0 -35 20.5 -48.5t67.5 -21.5q127 -20 166 -54.5t39 -115.5q0 -78 -55 -124t-163 -46
q-122 0 -171.5 44.5t-49.5 136.5h136q0 -38 17.5 -54.5t67.5 -16.5zM204 615v106h106v-106h-106z" />
    <glyph glyph-name="scedilla.smcp" horiz-adv-x="514" 
d="M256 99q82 0 82 62q0 34 -20 48t-74 22q-111 15 -155 52t-44 122q0 163 209 163q114 0 160.5 -42.5t46.5 -132.5h-134q0 33 -17 49t-58 16q-71 0 -71 -59q0 -35 20.5 -48.5t67.5 -21.5q127 -20 166 -54.5t39 -115.5q0 -74 -49.5 -119t-145.5 -50l-9 -31q72 -8 72 -74
q0 -45 -25.5 -65.5t-85.5 -20.5h-69v62h67q20 0 27.5 5.5t7.5 18.5t-7.5 18.5t-27.5 5.5h-33l25 81q-102 7 -144 50.5t-42 129.5h136q0 -35 17 -53t68 -18z" />
    <glyph glyph-name="scommaaccent.smcp" horiz-adv-x="514" 
d="M256 99q47 0 64.5 15t17.5 47q0 34 -20 48t-74 22q-111 15 -155 52t-44 122q0 163 209 163q114 0 160.5 -42.5t46.5 -132.5h-134q0 35 -17 50t-58 15q-71 0 -71 -59q0 -35 20.5 -48.5t67.5 -21.5q127 -20 166 -54.5t39 -115.5q0 -78 -55 -124t-163 -46
q-122 0 -171.5 44.5t-49.5 136.5h136q0 -38 17.5 -54.5t67.5 -16.5zM157 -190l36 130h132l-73 -130h-95z" />
    <glyph glyph-name="germandbls.smcp" horiz-adv-x="1028" 
d="M256 99q47 0 64.5 15t17.5 47q0 34 -20 48t-74 22q-111 15 -155 52t-44 122q0 163 209 163q114 0 160.5 -42.5t46.5 -132.5h-134q0 35 -17 50t-58 15q-71 0 -71 -59q0 -35 20.5 -48.5t67.5 -21.5q127 -20 166 -54.5t39 -115.5q0 -78 -55 -124t-163 -46
q-122 0 -171.5 44.5t-49.5 136.5h136q0 -38 17.5 -54.5t67.5 -16.5zM770 99q47 0 64.5 15t17.5 47q0 34 -20 48t-74 22q-111 15 -155 52t-44 122q0 163 209 163q114 0 160.5 -42.5t46.5 -132.5h-134q0 35 -17 50t-58 15q-71 0 -71 -59q0 -35 20.5 -48.5t67.5 -21.5
q127 -20 166 -54.5t39 -115.5q0 -78 -55 -124t-163 -46q-122 0 -171.5 44.5t-49.5 136.5h136q0 -38 17.5 -54.5t67.5 -16.5z" />
    <glyph glyph-name="tcaron.smcp" horiz-adv-x="438" 
d="M151 0v446h-131v110h398v-110h-131v-446h-136zM346 731l-54 -120h-147l-54 120h88l39 -54l40 54h88z" />
    <glyph glyph-name="tdotaccent.smcp" horiz-adv-x="438" 
d="M151 0v446h-131v110h398v-110h-131v-446h-136zM166 615v106h106v-106h-106z" />
    <glyph glyph-name="tcommaaccent.smcp" horiz-adv-x="438" 
d="M151 0v446h-131v110h398v-110h-131v-446h-136zM118 -190l36 130h132l-73 -130h-95z" />
    <glyph glyph-name="tbar.smcp" horiz-adv-x="438" 
d="M64 206v86h87v154h-131v110h398v-110h-131v-154h87v-86h-87v-206h-136v206h-87z" />
    <glyph glyph-name="uacute.smcp" horiz-adv-x="534" 
d="M55 556h136v-377q0 -43 17 -62t59 -19t59 19t17 62v377h136v-377q0 -105 -51.5 -147.5t-160.5 -42.5t-160.5 42.5t-51.5 147.5v377zM223 611l28 120h127l-72 -120h-83z" />
    <glyph glyph-name="ugrave.smcp" horiz-adv-x="534" 
d="M55 556h136v-377q0 -43 17 -62t59 -19t59 19t17 62v377h136v-377q0 -105 -51.5 -147.5t-160.5 -42.5t-160.5 42.5t-51.5 147.5v377zM284 731l28 -120h-83l-72 120h127z" />
    <glyph glyph-name="ucircumflex.smcp" horiz-adv-x="534" 
d="M55 556h136v-377q0 -43 17 -62t59 -19t59 19t17 62v377h136v-377q0 -105 -51.5 -147.5t-160.5 -42.5t-160.5 42.5t-51.5 147.5v377zM340 731l54 -120h-88l-40 54l-39 -54h-88l54 120h147z" />
    <glyph glyph-name="udieresis.smcp" horiz-adv-x="534" 
d="M55 556h136v-377q0 -43 17 -62t59 -19t59 19t17 62v377h136v-377q0 -105 -51.5 -147.5t-160.5 -42.5t-160.5 42.5t-51.5 147.5v377zM131 615v106h106v-106h-106zM297 615v106h106v-106h-106z" />
    <glyph glyph-name="utilde.smcp" horiz-adv-x="534" 
d="M55 556h136v-377q0 -43 17 -62t59 -19t59 19t17 62v377h136v-377q0 -105 -51.5 -147.5t-160.5 -42.5t-160.5 42.5t-51.5 147.5v377zM319 696q31 0 31 32h78q0 -65 -22.5 -94t-71.5 -29q-31 0 -64.5 21.5t-54.5 21.5q-31 0 -31 -32h-78q0 66 22.5 94.5t71.5 28.5
q31 0 65 -21.5t54 -21.5z" />
    <glyph glyph-name="uring.smcp" horiz-adv-x="534" 
d="M55 556h136v-377q0 -43 17 -62t59 -19t59 19t17 62v377h136v-377q0 -105 -51.5 -147.5t-160.5 -42.5t-160.5 42.5t-51.5 147.5v377zM267 786q111 0 111 -93q0 -46 -29 -70.5t-82 -24.5t-82 24.5t-29 70.5q0 93 111 93zM267 656q39 0 39 37q0 35 -39 35t-39 -35
q0 -37 39 -37z" />
    <glyph glyph-name="ubreve.smcp" horiz-adv-x="534" 
d="M55 556h136v-377q0 -43 17 -62t59 -19t59 19t17 62v377h136v-377q0 -105 -51.5 -147.5t-160.5 -42.5t-160.5 42.5t-51.5 147.5v377zM267 597q-126 0 -126 134h78q0 -53 48 -53t48 53h78q0 -134 -126 -134z" />
    <glyph glyph-name="umacron.smcp" horiz-adv-x="534" 
d="M55 556h136v-377q0 -43 17 -62t59 -19t59 19t17 62v377h136v-377q0 -105 -51.5 -147.5t-160.5 -42.5t-160.5 42.5t-51.5 147.5v377zM140 614v86h250v-86h-250z" />
    <glyph glyph-name="uhungarumlaut.smcp" horiz-adv-x="534" 
d="M55 556h136v-377q0 -43 17 -62t59 -19t59 19t17 62v377h136v-377q0 -105 -51.5 -147.5t-160.5 -42.5t-160.5 42.5t-51.5 147.5v377zM150 611l18 120h117l-52 -120h-83zM293 611l38 120h117l-72 -120h-83z" />
    <glyph glyph-name="uogonek.smcp" horiz-adv-x="534" 
d="M55 556h136v-377q0 -43 17 -62t59 -19t59 19t17 62v377h136v-377q0 -82 -31 -125t-95 -57q-38 -33 -38 -67q0 -26 33 -26h9v-78h-57q-84 0 -84 71q0 53 45 92q-106 1 -156 44t-50 146v377z" />
    <glyph glyph-name="wacute.smcp" horiz-adv-x="768" 
d="M309 556h150l76 -412h2l63 412h138l-115 -556h-165l-74 432l-74 -432h-165l-115 556h138l63 -412h2zM344 611l28 120h127l-72 -120h-83z" />
    <glyph glyph-name="wgrave.smcp" horiz-adv-x="768" 
d="M309 556h150l76 -412h2l63 412h138l-115 -556h-165l-74 432l-74 -432h-165l-115 556h138l63 -412h2zM398 731l28 -120h-83l-72 120h127z" />
    <glyph glyph-name="wcircumflex.smcp" horiz-adv-x="768" 
d="M309 556h150l76 -412h2l63 412h138l-115 -556h-165l-74 432l-74 -432h-165l-115 556h138l63 -412h2zM457 731l54 -120h-88l-40 54l-39 -54h-88l54 120h147z" />
    <glyph glyph-name="wdieresis.smcp" horiz-adv-x="768" 
d="M309 556h150l76 -412h2l63 412h138l-115 -556h-165l-74 432l-74 -432h-165l-115 556h138l63 -412h2zM248 615v106h106v-106h-106zM414 615v106h106v-106h-106z" />
    <glyph glyph-name="yacute.smcp" horiz-adv-x="465" 
d="M165 0v203l-150 353h144l73 -230h2l73 230h143l-149 -353v-203h-136zM190 611l28 120h127l-72 -120h-83z" />
    <glyph glyph-name="ygrave.smcp" horiz-adv-x="465" 
d="M165 0v203l-150 353h144l73 -230h2l73 230h143l-149 -353v-203h-136zM247 731l28 -120h-83l-72 120h127z" />
    <glyph glyph-name="ycircumflex.smcp" horiz-adv-x="465" 
d="M165 0v203l-150 353h144l73 -230h2l73 230h143l-149 -353v-203h-136zM306 731l54 -120h-88l-40 54l-39 -54h-88l54 120h147z" />
    <glyph glyph-name="ydieresis.smcp" horiz-adv-x="465" 
d="M165 0v203l-150 353h144l73 -230h2l73 230h143l-149 -353v-203h-136zM96 615v106h106v-106h-106zM262 615v106h106v-106h-106z" />
    <glyph glyph-name="zacute.smcp" horiz-adv-x="481" 
d="M55 446v110h376v-88l-223 -358h233v-110h-391v87l223 359h-218zM192 611l28 120h127l-72 -120h-83z" />
    <glyph glyph-name="zcaron.smcp" horiz-adv-x="481" 
d="M55 446v110h376v-88l-223 -358h233v-110h-391v87l223 359h-218zM368 731l-54 -120h-147l-54 120h88l39 -54l40 54h88z" />
    <glyph glyph-name="zdotaccent.smcp" horiz-adv-x="481" 
d="M55 446v110h376v-88l-223 -358h233v-110h-391v87l223 359h-218zM187 615v106h106v-106h-106z" />
    <hkern u1="F"</font>
</defs>
</svg>
